<svg width="112" height="48" viewBox="0 0 112 48" fill="none" xmlns="http://www.w3.org/2000/svg">
<g clip-path="url(#clip0_246_24031)">
<path d="M15.2185 37.3021V26.0714H4.20929V37.3021H0.0966797V11.3974H4.20929V22.1133H15.2185V11.3974H19.2994V37.3021H15.2185Z" fill="#313131"/>
<path d="M106.331 37.3019L101.333 28.195H96.3024V37.3662H92.1582V11.6223H102.218C104.406 11.6223 106.504 12.5017 108.057 14.069C109.61 15.6362 110.49 17.7642 110.507 19.9891C110.481 21.5564 110.014 23.0831 109.162 24.3891C108.31 25.6951 107.108 26.7254 105.698 27.3583L105.16 27.6479L110.823 37.3019H106.331ZM96.2709 24.43H102.218C102.795 24.4051 103.36 24.2646 103.883 24.0161C104.405 23.7677 104.874 23.4164 105.263 22.9825C105.651 22.5486 105.951 22.0408 106.145 21.4883C106.339 20.936 106.424 20.3497 106.394 19.7638C106.428 18.5999 106.008 17.4694 105.226 16.6193C104.444 15.7692 103.362 15.2685 102.218 15.2265H96.2709V24.43Z" fill="#313131"/>
<path d="M52.9601 47.6963L41.9508 15.9991L34.643 37.3021H30.1509L39.0721 11.3974H44.7665L57.4839 47.6963H52.9601Z" fill="#313131"/>
<path d="M58.4653 0.970917L69.4744 32.7003L76.8139 11.3972H81.2745L72.3533 37.3019H66.6589L53.9731 0.970917H58.4653Z" fill="#313131"/>
</g>
<defs>
<clipPath id="clip0_246_24031">
<rect width="111.807" height="46.7252" fill="white" transform="translate(0.0966797 0.970917)"/>
</clipPath>
</defs>
</svg>
