<svg width="120" height="18" viewBox="0 0 120 18" fill="none" xmlns="http://www.w3.org/2000/svg">
<path d="M3.92454 17.9735L5.43563 11.441L0.367676 7.04719L7.06295 6.466L9.66667 0.30542L12.2704 6.466L18.9657 7.04719L13.8977 11.441L15.4088 17.9735L9.66667 14.5096L3.92454 17.9735Z" fill="#FFB800"/>
<path d="M29.031 17.9734L30.5421 11.4409L25.4741 7.04713L32.1694 6.46594L34.7731 0.305359L37.3768 6.46594L44.0721 7.04713L39.0042 11.4409L40.5152 17.9734L34.7731 14.5096L29.031 17.9734Z" fill="#FFB800"/>
<path d="M54.1384 17.9734L55.6495 11.4409L50.5815 7.04713L57.2768 6.46594L59.8805 0.305359L62.4843 6.46594L69.1795 7.04713L64.1116 11.4409L65.6227 17.9734L59.8805 14.5096L54.1384 17.9734Z" fill="#FFB800"/>
<path d="M79.2458 17.9734L80.7569 11.4409L75.689 7.04713L82.3842 6.46594L84.988 0.305359L87.5917 6.46594L94.287 7.04713L89.219 11.4409L90.7301 17.9734L84.988 14.5096L79.2458 17.9734Z" fill="#CCCCCC"/>
<path d="M104.353 17.9734L105.864 11.4409L100.796 7.04713L107.492 6.46594L110.095 0.305359L112.699 6.46594L119.394 7.04713L114.326 11.4409L115.838 17.9734L110.095 14.5096L104.353 17.9734Z" fill="#CCCCCC"/>
</svg>
