<svg width="25" height="883" viewBox="0 0 25 883" fill="none" xmlns="http://www.w3.org/2000/svg">
<path d="M20.2921 5.31411C20.1699 5.2329 20.1112 5.13476 20.1161 5.01971C20.1214 4.90465 20.1852 4.80652 20.3074 4.7253L22.034 3.57814H15.2192C15.0461 3.57814 14.9008 3.53916 14.7834 3.46119C14.6665 3.3835 14.608 3.28712 14.608 3.17207C14.608 3.05701 14.6665 2.9605 14.7834 2.88254C14.9008 2.80484 15.0461 2.76599 15.2192 2.76599H22.034L20.2921 1.60868C20.1699 1.52747 20.1088 1.43096 20.1088 1.31915C20.1088 1.20762 20.1699 1.11124 20.2921 1.03003C20.4144 0.94881 20.5596 0.908203 20.7279 0.908203C20.8958 0.908203 21.0408 0.94881 21.1631 1.03003L23.9593 2.88782C24.0204 2.92842 24.0638 2.97241 24.0895 3.01979C24.1147 3.06717 24.1274 3.11792 24.1274 3.17207C24.1274 3.22621 24.1147 3.27697 24.0895 3.32435C24.0638 3.37172 24.0204 3.41571 23.9593 3.45632L21.1478 5.32426C21.0358 5.39871 20.8958 5.43593 20.7279 5.43593C20.5596 5.43593 20.4144 5.39533 20.2921 5.31411Z" fill="white"/>
<path d="M6.22597 882.705C6.10373 882.624 6.04506 882.525 6.04995 882.41C6.05524 882.295 6.11901 882.197 6.24125 882.116L7.96787 880.969H1.15306C0.979892 880.969 0.834632 880.93 0.717283 880.852C0.600341 880.774 0.54187 880.678 0.54187 880.563C0.54187 880.448 0.600341 880.351 0.717283 880.273C0.834632 880.195 0.979892 880.157 1.15306 880.157H7.96787L6.22597 878.999C6.10373 878.918 6.04261 878.822 6.04261 878.71C6.04261 878.598 6.10373 878.502 6.22597 878.421C6.34821 878.339 6.49347 878.299 6.66175 878.299C6.82962 878.299 6.97468 878.339 7.09692 878.421L9.89313 880.278C9.95425 880.319 9.99764 880.363 10.0233 880.41C10.0486 880.458 10.0612 880.509 10.0612 880.563C10.0612 880.617 10.0486 880.668 10.0233 880.715C9.99764 880.762 9.95425 880.806 9.89313 880.847L7.08164 882.715C6.96959 882.789 6.82962 882.827 6.66175 882.827C6.49347 882.827 6.34821 882.786 6.22597 882.705Z" fill="white"/>
</svg>
