<svg width="720" height="471" viewBox="0 0 720 471" fill="none" xmlns="http://www.w3.org/2000/svg">
<path d="M0.423381 0.745148L153.713 470.61L720 470.61L720 0.745211L0.423381 0.745148Z" fill="#000066" stroke="black" stroke-width="0.610746"/>
<g clip-path="url(#clip0_195_39591)">
<path d="M307.313 341.204L313.891 339.117C314.71 335.587 314.656 331.91 313.732 328.406C311.09 334.282 303.337 335.721 298.92 340.411C297.553 341.884 296.536 343.646 295.943 345.566C295.35 347.486 295.197 349.514 295.494 351.502L294.11 356.196C297.342 355.92 300.476 354.946 303.296 353.342C306.115 351.738 308.553 349.542 310.442 346.906C311.488 345.416 312.341 343.8 312.982 342.097C310.177 341.816 307.313 341.204 307.313 341.204Z" fill="#F2F2F2"/>
<path d="M540.407 341.204L533.829 339.117C533.01 335.587 533.064 331.91 533.988 328.406C536.63 334.282 544.383 335.721 548.8 340.411C550.167 341.884 551.184 343.646 551.777 345.566C552.37 347.486 552.524 349.514 552.226 351.502L553.61 356.196C550.378 355.92 547.244 354.946 544.425 353.342C541.605 351.738 539.167 349.542 537.278 346.906C536.233 345.416 535.379 343.8 534.738 342.097C537.543 341.816 540.407 341.204 540.407 341.204Z" fill="#F2F2F2"/>
<path d="M300.284 332.524L305.241 327.723C304.4 324.198 302.712 320.931 300.322 318.206C300.577 324.644 294.281 329.39 292.418 335.557C291.852 337.485 291.727 339.516 292.053 341.499C292.378 343.482 293.146 345.366 294.298 347.012L295.153 351.83C297.923 350.142 300.294 347.873 302.102 345.18C303.91 342.487 305.113 339.434 305.628 336.231C305.899 334.432 305.942 332.605 305.757 330.795C303.121 331.795 300.284 332.524 300.284 332.524Z" fill="#F2F2F2"/>
<path d="M313.535 243.139C312.994 243.211 312.443 243.164 311.922 243.001C311.401 242.838 310.921 242.562 310.518 242.193C310.115 241.825 309.797 241.372 309.588 240.868C309.378 240.363 309.282 239.819 309.306 239.273L285.415 215.033L292.084 210.39L313.471 235.677C314.385 235.778 315.231 236.21 315.848 236.892C316.464 237.575 316.809 238.46 316.817 239.379C316.825 240.299 316.496 241.19 315.891 241.883C315.286 242.575 314.448 243.022 313.535 243.139L313.535 243.139Z" fill="#FFB6B6"/>
<path d="M278.066 204.547C278.066 204.547 276.372 205.562 279.191 208.653C281.447 211.127 291.292 223.022 295.222 225.506C295.009 226.121 295.006 226.791 295.215 227.408C295.424 228.025 295.832 228.555 296.376 228.915L302.418 221.375C302.073 219.213 300.615 219.323 299.796 219.586L296.005 214.874L287.416 200.467L279.276 203.792L278.066 204.547Z" fill="#4141DB"/>
<path d="M259.198 348.983H263.702L265.845 331.61H259.198V348.983Z" fill="#FFB6B6"/>
<path d="M257.728 345.898L264.924 345.468V348.551L271.765 353.276C272.103 353.509 272.357 353.844 272.491 354.233C272.625 354.621 272.631 355.042 272.509 355.434C272.387 355.826 272.142 356.168 271.812 356.412C271.481 356.655 271.081 356.786 270.67 356.786H262.104L260.627 353.737L260.051 356.786H256.821L257.728 345.898Z" fill="white"/>
<path d="M284.498 348.983H289.002L291.146 331.61H284.498V348.983Z" fill="#FFB6B6"/>
<path d="M283.028 345.898L290.223 345.468V348.551L297.064 353.276C297.402 353.509 297.657 353.844 297.791 354.233C297.925 354.621 297.931 355.042 297.809 355.434C297.687 355.826 297.442 356.168 297.112 356.412C296.781 356.655 296.381 356.786 295.97 356.786H287.403L285.927 353.737L285.35 356.786H282.12L283.028 345.898Z" fill="white"/>
<path d="M257.255 334.002H257.304L258.17 305.755C257.609 304.674 257.325 303.471 257.342 302.253C257.359 301.035 257.676 299.84 258.267 298.775L258.391 298.551L258.069 297.06C257.656 295.145 257.846 293.149 258.612 291.346L259.42 264.997C256.533 246.287 270.291 234.085 270.291 234.085L267.777 223.508L292.669 221.06L290.902 234.085L295.326 249.287C298.252 277.786 297.721 305.558 293.079 332.464L293.205 332.528C293.661 332.685 293.857 333.316 293.642 333.938C293.428 334.559 292.884 334.935 292.429 334.778L281.544 334.399C281.088 334.242 280.893 333.611 281.107 332.989C281.322 332.368 281.865 331.992 282.321 332.149L283.061 332.523L281.483 305.266L281.658 300.287L281.297 294.639L279.628 269.233L273.313 300.475L266.863 334.317C267.041 334.478 267.165 334.689 267.221 334.923C267.276 335.156 267.259 335.401 267.173 335.625C267.086 335.849 266.933 336.041 266.735 336.176C266.537 336.311 266.302 336.384 266.062 336.383H257.255C256.939 336.383 256.636 336.257 256.413 336.034C256.19 335.811 256.064 335.508 256.064 335.192C256.064 334.877 256.19 334.574 256.413 334.351C256.636 334.128 256.939 334.002 257.255 334.002Z" fill="white"/>
<path d="M495.946 229.168H341.998C336.822 229.162 331.859 227.103 328.199 223.443C324.539 219.783 322.48 214.82 322.474 209.644V143.47C322.48 138.304 324.531 133.35 328.179 129.691C331.827 126.033 336.775 123.967 341.942 123.947C365.851 117.329 391.237 114.056 417.407 114.218C442.309 114.372 468.748 117.646 495.993 123.947C501.16 123.965 506.111 126.03 509.761 129.688C513.411 133.347 515.463 138.302 515.469 143.47V209.644C515.463 214.82 513.404 219.783 509.744 223.443C506.084 227.103 501.122 229.162 495.946 229.168ZM341.998 124.763C337.038 124.769 332.283 126.741 328.776 130.248C325.269 133.755 323.296 138.51 323.291 143.47V209.644C323.296 214.604 325.269 219.359 328.776 222.866C332.283 226.373 337.038 228.346 341.998 228.352H495.946C500.905 228.346 505.66 226.373 509.168 222.866C512.675 219.359 514.647 214.604 514.653 209.644V143.47C514.647 138.51 512.675 133.755 509.168 130.248C505.66 126.741 500.905 124.769 495.946 124.763L495.854 124.752C439.477 111.707 389.185 111.705 342.107 124.748L341.998 124.763Z" fill="white"/>
<path d="M339.282 211.898C339.222 211.898 339.162 211.886 339.106 211.863C339.05 211.84 338.999 211.806 338.956 211.763C338.913 211.72 338.879 211.669 338.856 211.613C338.832 211.557 338.82 211.497 338.82 211.436V141.679C338.82 141.556 338.869 141.439 338.956 141.352C339.042 141.266 339.16 141.217 339.282 141.217C339.405 141.217 339.522 141.266 339.609 141.352C339.696 141.439 339.744 141.556 339.744 141.679V211.436C339.744 211.497 339.732 211.557 339.709 211.613C339.686 211.669 339.652 211.72 339.609 211.763C339.566 211.806 339.515 211.84 339.459 211.863C339.403 211.886 339.343 211.898 339.282 211.898Z" fill="white"/>
<path d="M379.68 211.898C379.619 211.898 379.559 211.886 379.503 211.863C379.447 211.84 379.396 211.806 379.353 211.763C379.31 211.72 379.276 211.669 379.253 211.613C379.23 211.557 379.218 211.497 379.218 211.436V141.679C379.218 141.556 379.267 141.439 379.353 141.352C379.44 141.266 379.557 141.217 379.68 141.217C379.802 141.217 379.92 141.266 380.007 141.352C380.093 141.439 380.142 141.556 380.142 141.679V211.436C380.142 211.497 380.13 211.557 380.107 211.613C380.083 211.669 380.049 211.72 380.007 211.763C379.964 211.806 379.913 211.84 379.857 211.863C379.801 211.886 379.741 211.898 379.68 211.898Z" fill="white"/>
<path d="M420.078 211.898C420.017 211.898 419.957 211.886 419.901 211.863C419.845 211.84 419.794 211.806 419.751 211.763C419.709 211.72 419.675 211.669 419.651 211.613C419.628 211.557 419.616 211.497 419.616 211.436V141.679C419.616 141.556 419.665 141.439 419.751 141.352C419.838 141.266 419.956 141.217 420.078 141.217C420.201 141.217 420.318 141.266 420.405 141.352C420.491 141.439 420.54 141.556 420.54 141.679V211.436C420.54 211.497 420.528 211.557 420.505 211.613C420.482 211.669 420.448 211.72 420.405 211.763C420.362 211.806 420.311 211.84 420.255 211.863C420.199 211.886 420.139 211.898 420.078 211.898Z" fill="white"/>
<path d="M460.476 211.898C460.415 211.898 460.355 211.886 460.299 211.863C460.243 211.84 460.192 211.806 460.149 211.763C460.106 211.72 460.072 211.669 460.049 211.613C460.025 211.557 460.014 211.497 460.014 211.436V141.679C460.014 141.556 460.062 141.439 460.149 141.352C460.235 141.266 460.353 141.217 460.476 141.217C460.598 141.217 460.716 141.266 460.802 141.352C460.889 141.439 460.937 141.556 460.937 141.679V211.436C460.938 211.497 460.926 211.557 460.902 211.613C460.879 211.669 460.845 211.72 460.802 211.763C460.759 211.806 460.708 211.84 460.652 211.863C460.596 211.886 460.536 211.898 460.476 211.898Z" fill="white"/>
<path d="M335.684 152.074C335.684 152.013 335.696 151.953 335.719 151.897C335.742 151.841 335.776 151.79 335.819 151.747C335.862 151.704 335.913 151.67 335.969 151.647C336.025 151.624 336.085 151.612 336.146 151.612H501.797C501.858 151.612 501.918 151.624 501.974 151.647C502.03 151.67 502.081 151.704 502.124 151.747C502.166 151.79 502.2 151.841 502.224 151.897C502.247 151.953 502.259 152.013 502.259 152.074C502.259 152.135 502.247 152.195 502.224 152.251C502.2 152.307 502.166 152.358 502.124 152.401C502.081 152.443 502.03 152.477 501.974 152.501C501.918 152.524 501.858 152.536 501.797 152.536H336.146C336.085 152.536 336.025 152.524 335.969 152.501C335.913 152.478 335.862 152.444 335.819 152.401C335.776 152.358 335.742 152.307 335.719 152.251C335.696 152.195 335.684 152.135 335.684 152.074Z" fill="white"/>
<path d="M335.684 203.489C335.684 203.428 335.696 203.368 335.719 203.312C335.742 203.256 335.776 203.205 335.819 203.162C335.862 203.119 335.913 203.085 335.969 203.062C336.025 203.039 336.085 203.027 336.146 203.027H501.797C501.919 203.027 502.037 203.076 502.124 203.162C502.21 203.249 502.259 203.367 502.259 203.489C502.259 203.612 502.21 203.729 502.124 203.816C502.037 203.902 501.919 203.951 501.797 203.951H336.146C336.085 203.951 336.025 203.939 335.969 203.916C335.913 203.893 335.862 203.859 335.819 203.816C335.776 203.773 335.742 203.722 335.719 203.666C335.696 203.61 335.684 203.55 335.684 203.489Z" fill="white"/>
<path d="M335.684 177.781C335.684 177.721 335.696 177.661 335.719 177.605C335.742 177.549 335.776 177.498 335.819 177.455C335.862 177.412 335.913 177.378 335.969 177.355C336.025 177.331 336.085 177.319 336.146 177.319H501.797C501.919 177.319 502.037 177.368 502.124 177.455C502.21 177.541 502.259 177.659 502.259 177.781C502.259 177.904 502.21 178.021 502.124 178.108C502.037 178.195 501.919 178.243 501.797 178.243H336.146C336.085 178.243 336.025 178.231 335.969 178.208C335.913 178.185 335.862 178.151 335.819 178.108C335.776 178.065 335.742 178.014 335.719 177.958C335.696 177.902 335.684 177.842 335.684 177.781Z" fill="white"/>
<path d="M499.585 211.898C499.645 211.898 499.705 211.886 499.761 211.863C499.817 211.84 499.868 211.806 499.911 211.763C499.954 211.72 499.988 211.669 500.011 211.613C500.035 211.557 500.047 211.497 500.046 211.436V141.679C500.046 141.556 499.998 141.439 499.911 141.352C499.825 141.266 499.707 141.217 499.585 141.217C499.462 141.217 499.345 141.266 499.258 141.352C499.171 141.439 499.123 141.556 499.123 141.679V211.436C499.123 211.497 499.134 211.557 499.158 211.613C499.181 211.669 499.215 211.72 499.258 211.763C499.301 211.806 499.352 211.84 499.408 211.863C499.464 211.886 499.524 211.898 499.585 211.898Z" fill="white"/>
<path d="M364.48 174.652H352.845C352.205 174.651 351.586 174.42 351.103 174C350.62 173.581 350.305 173.001 350.215 172.367C349.496 167.08 349.496 161.72 350.215 156.433C350.304 155.807 350.613 155.233 351.087 154.815C351.56 154.396 352.168 154.16 352.8 154.149C356.461 152.508 360.404 152.508 364.52 154.149C364.904 154.154 365.282 154.243 365.627 154.409C365.972 154.576 366.277 154.816 366.52 155.113C366.773 155.422 366.954 155.783 367.05 156.17C367.146 156.558 367.154 156.962 367.074 157.353C366.14 162.005 366.14 166.796 367.074 171.447C367.154 171.838 367.146 172.242 367.05 172.63C366.954 173.017 366.773 173.379 366.52 173.688C366.273 173.99 365.962 174.233 365.609 174.4C365.256 174.567 364.871 174.653 364.48 174.652Z" fill="#4141DB"/>
<path d="M363.261 160.224H353.468C353.306 160.224 353.15 160.159 353.035 160.044C352.92 159.93 352.856 159.774 352.856 159.611C352.856 159.449 352.92 159.293 353.035 159.179C353.15 159.064 353.306 158.999 353.468 158.999H363.261C363.424 158.999 363.58 159.064 363.694 159.179C363.809 159.293 363.874 159.449 363.874 159.611C363.874 159.774 363.809 159.93 363.694 160.044C363.58 160.159 363.424 160.224 363.261 160.224Z" fill="white"/>
<path d="M363.261 165.12H353.468C353.306 165.12 353.15 165.055 353.035 164.941C352.92 164.826 352.856 164.67 352.856 164.508C352.856 164.346 352.92 164.19 353.035 164.075C353.15 163.96 353.306 163.896 353.468 163.896H363.261C363.424 163.896 363.58 163.96 363.694 164.075C363.809 164.19 363.874 164.346 363.874 164.508C363.874 164.67 363.809 164.826 363.694 164.941C363.58 165.055 363.424 165.12 363.261 165.12Z" fill="white"/>
<path d="M363.261 170.016H353.468C353.306 170.016 353.15 169.952 353.035 169.837C352.92 169.722 352.856 169.566 352.856 169.404C352.856 169.242 352.92 169.086 353.035 168.971C353.15 168.856 353.306 168.792 353.468 168.792H363.261C363.424 168.792 363.58 168.856 363.694 168.971C363.809 169.086 363.874 169.242 363.874 169.404C363.874 169.566 363.809 169.722 363.694 169.837C363.58 169.952 363.424 170.016 363.261 170.016Z" fill="white"/>
<path d="M448.133 201.584H436.497C435.857 201.583 435.239 201.352 434.755 200.932C434.272 200.513 433.957 199.933 433.867 199.299C433.149 194.012 433.149 188.652 433.867 183.365C433.956 182.739 434.265 182.165 434.739 181.747C435.212 181.328 435.82 181.092 436.452 181.081C440.113 179.44 444.056 179.44 448.173 181.08C448.556 181.086 448.934 181.175 449.279 181.341C449.624 181.508 449.929 181.748 450.172 182.045C450.425 182.353 450.606 182.715 450.702 183.102C450.798 183.49 450.806 183.894 450.727 184.285C449.792 188.937 449.792 193.728 450.727 198.379C450.806 198.77 450.798 199.174 450.702 199.562C450.606 199.949 450.425 200.311 450.172 200.619C449.925 200.922 449.614 201.165 449.261 201.332C448.908 201.499 448.523 201.585 448.133 201.584Z" fill="#4141DB"/>
<path d="M446.914 187.155H437.12C436.958 187.155 436.802 187.091 436.687 186.976C436.573 186.861 436.508 186.706 436.508 186.543C436.508 186.381 436.573 186.225 436.687 186.111C436.802 185.996 436.958 185.931 437.12 185.931H446.914C447.076 185.931 447.232 185.996 447.346 186.111C447.461 186.225 447.526 186.381 447.526 186.543C447.526 186.706 447.461 186.861 447.346 186.976C447.232 187.091 447.076 187.155 446.914 187.155Z" fill="white"/>
<path d="M446.914 192.052H437.12C436.958 192.052 436.802 191.987 436.687 191.873C436.573 191.758 436.508 191.602 436.508 191.44C436.508 191.277 436.573 191.122 436.687 191.007C436.802 190.892 436.958 190.828 437.12 190.828H446.914C447.076 190.828 447.232 190.892 447.346 191.007C447.461 191.122 447.526 191.277 447.526 191.44C447.526 191.602 447.461 191.758 447.346 191.873C447.232 191.987 447.076 192.052 446.914 192.052Z" fill="white"/>
<path d="M483.634 174.652H471.998C471.358 174.651 470.74 174.42 470.257 174C469.773 173.581 469.458 173.001 469.368 172.367C468.65 167.08 468.65 161.72 469.368 156.433C469.457 155.807 469.766 155.233 470.24 154.815C470.714 154.396 471.321 154.16 471.953 154.149C475.614 152.508 479.557 152.508 483.674 154.149C484.057 154.154 484.435 154.243 484.78 154.409C485.125 154.576 485.43 154.816 485.673 155.113C485.926 155.422 486.107 155.783 486.203 156.17C486.299 156.558 486.307 156.962 486.228 157.353C485.293 162.005 485.293 166.796 486.228 171.447C486.307 171.838 486.299 172.242 486.203 172.63C486.107 173.017 485.926 173.379 485.673 173.688C485.426 173.99 485.115 174.233 484.762 174.4C484.409 174.567 484.024 174.653 483.634 174.652Z" fill="#FD6584"/>
<path d="M482.416 165.12H472.622C472.46 165.12 472.304 165.055 472.189 164.941C472.075 164.826 472.01 164.67 472.01 164.508C472.01 164.346 472.075 164.19 472.189 164.075C472.304 163.96 472.46 163.896 472.622 163.896H482.416C482.578 163.896 482.734 163.96 482.848 164.075C482.963 164.19 483.028 164.346 483.028 164.508C483.028 164.67 482.963 164.826 482.848 164.941C482.734 165.055 482.578 165.12 482.416 165.12Z" fill="white"/>
<path d="M482.416 170.016H472.622C472.46 170.016 472.304 169.952 472.189 169.837C472.075 169.722 472.01 169.566 472.01 169.404C472.01 169.242 472.075 169.086 472.189 168.971C472.304 168.856 472.46 168.792 472.622 168.792H482.416C482.578 168.792 482.734 168.856 482.848 168.971C482.963 169.086 483.028 169.242 483.028 169.404C483.028 169.566 482.963 169.722 482.848 169.837C482.734 169.952 482.578 170.016 482.416 170.016Z" fill="white"/>
<path d="M287.227 172.851C284.912 169.303 281.132 166.515 276.923 166.28C272.713 166.044 267.654 169.629 265.576 173.318C261.776 180.065 261.726 187.803 266.96 192.496C267.671 192.254 270.628 191.909 271.351 191.676L271.809 190.848L272.374 191.352C278.843 191.997 280.834 187.599 291.185 184.826C290.58 180.631 289.542 176.399 287.227 172.851Z" fill="white"/>
<path d="M278.342 189.56C283.066 189.56 286.896 185.73 286.896 181.006C286.896 176.281 283.066 172.451 278.342 172.451C273.617 172.451 269.788 176.281 269.788 181.006C269.788 185.73 273.617 189.56 278.342 189.56Z" fill="#FFB7B7"/>
<path d="M287.821 196.9L282.925 193.963L273.135 192.984L264.482 197.39L264.568 210.851L270.058 224.813L291.444 229.221L293.94 216.951C293.94 216.951 300.303 208.404 293.45 203.509L287.821 196.9Z" fill="#4141DB"/>
<path d="M281.54 168.015C279.687 167.495 277.728 167.483 275.868 167.98C274.008 168.476 272.316 169.464 270.968 170.838C269.62 172.213 268.666 173.924 268.206 175.793C267.747 177.663 267.797 179.621 268.353 181.464C273.563 181.88 278.713 181.394 282.773 177.707L283.134 174.545L284.615 177.191C286.109 176.771 287.606 176.348 289.104 175.923C288.646 174.058 287.706 172.346 286.379 170.958C285.051 169.571 283.383 168.556 281.54 168.015Z" fill="white"/>
<path d="M266.867 255.02C266.402 254.734 266.005 254.349 265.705 253.893C265.405 253.436 265.208 252.92 265.129 252.379C265.05 251.838 265.091 251.287 265.248 250.764C265.405 250.241 265.675 249.758 266.038 249.351L262.882 215.463L270.984 216.088L271.539 249.202C272.184 249.859 272.565 250.729 272.61 251.647C272.656 252.566 272.363 253.47 271.787 254.187C271.211 254.904 270.392 255.385 269.486 255.538C268.579 255.692 267.647 255.508 266.867 255.02H266.867Z" fill="#FFB6B6"/>
<path d="M264.782 197.526C264.782 197.526 262.828 197.24 263.055 201.416C263.236 204.76 262.375 225.368 263.846 229.778C263.291 230.12 262.866 230.636 262.637 231.246C262.408 231.856 262.389 232.525 262.582 233.147L272.032 231.133C273.133 229.241 272.905 227.298 272.104 226.983L272.151 220.936L274.24 201.002L266.197 197.707L264.782 197.526Z" fill="#4141DB"/>
<path d="M313.079 258.155C312.826 257.847 312.645 257.485 312.549 257.098C312.453 256.71 312.445 256.306 312.525 255.915C313.459 251.263 313.459 246.473 312.525 241.821C312.445 241.43 312.453 241.026 312.549 240.638C312.645 240.251 312.826 239.889 313.079 239.581C313.322 239.284 313.627 239.044 313.972 238.877C314.318 238.71 314.695 238.621 315.079 238.616C319.196 236.976 323.138 236.976 326.799 238.617C327.431 238.628 328.039 238.864 328.513 239.283C328.986 239.701 329.295 240.275 329.384 240.901C330.103 246.188 330.103 251.548 329.384 256.835C329.294 257.468 328.979 258.048 328.496 258.468C328.013 258.888 327.394 259.119 326.754 259.12H315.119C314.729 259.121 314.343 259.034 313.99 258.868C313.638 258.701 313.326 258.457 313.079 258.155Z" fill="#4141DB"/>
<path d="M316.338 244.691H326.131C326.294 244.691 326.45 244.627 326.564 244.512C326.679 244.397 326.744 244.241 326.744 244.079C326.744 243.917 326.679 243.761 326.564 243.646C326.45 243.532 326.294 243.467 326.131 243.467H316.338C316.176 243.467 316.02 243.532 315.905 243.646C315.79 243.761 315.726 243.917 315.726 244.079C315.726 244.241 315.79 244.397 315.905 244.512C316.02 244.627 316.176 244.691 316.338 244.691Z" fill="white"/>
<path d="M316.338 249.588H326.131C326.294 249.588 326.45 249.523 326.564 249.408C326.679 249.294 326.744 249.138 326.744 248.975C326.744 248.813 326.679 248.657 326.564 248.543C326.45 248.428 326.294 248.363 326.131 248.363H316.338C316.176 248.363 316.02 248.428 315.905 248.543C315.79 248.657 315.726 248.813 315.726 248.975C315.726 249.138 315.79 249.294 315.905 249.408C316.02 249.523 316.176 249.588 316.338 249.588Z" fill="white"/>
<path d="M316.338 254.485H326.131C326.294 254.485 326.45 254.42 326.564 254.306C326.679 254.191 326.744 254.035 326.744 253.873C326.744 253.71 326.679 253.555 326.564 253.44C326.45 253.325 326.294 253.261 326.131 253.261H316.338C316.176 253.261 316.02 253.325 315.905 253.44C315.79 253.555 315.726 253.71 315.726 253.873C315.726 254.035 315.79 254.191 315.905 254.306C316.02 254.42 316.176 254.485 316.338 254.485Z" fill="white"/>
<path d="M585.517 351.922H580.498L578.11 332.563L585.517 332.564L585.517 351.922Z" fill="#A0616A"/>
<path d="M586.797 356.786L570.614 356.786V356.581C570.615 354.91 571.278 353.308 572.459 352.127C573.641 350.946 575.243 350.282 576.913 350.282H576.914L579.87 348.04L585.385 350.283L586.798 350.283L586.797 356.786Z" fill="white"/>
<path d="M562.201 351.922H557.182L554.794 332.563L562.201 332.564L562.201 351.922Z" fill="#A0616A"/>
<path d="M563.481 356.786L547.298 356.786V356.581C547.299 354.91 547.962 353.308 549.143 352.127C550.325 350.946 551.927 350.282 553.597 350.282H553.598L556.554 348.04L562.069 350.283L563.482 350.283L563.481 356.786Z" fill="white"/>
<path d="M589.512 227.982L582.877 248.383L561.961 247.698L568.388 227.982H589.512Z" fill="white"/>
<path d="M558.189 245.983L597.621 247.012L596.935 266.214C596.935 266.214 597.621 271.357 596.25 272.729C594.878 274.1 594.192 274.1 594.878 276.5C595.564 278.901 591.941 282.821 592.381 283.261C592.821 283.701 593.849 286.101 593.849 286.101L590.42 305.646C590.42 305.646 588.02 339.592 587.334 340.278C586.649 340.964 585.963 340.278 586.649 341.993C587.334 343.707 588.02 343.021 587.334 343.707C586.727 344.362 586.155 345.049 585.62 345.765H577.33C577.33 345.765 576.705 342.336 576.705 341.993C576.705 341.65 576.019 339.592 576.019 339.25C576.019 338.907 576.625 338.301 576.625 338.301C576.835 337.604 576.976 336.888 577.048 336.164C577.048 335.478 579.105 309.075 579.105 309.075L574.99 274.786L565.047 308.389C565.047 308.389 565.047 337.878 564.361 338.564C563.675 339.25 563.675 338.907 564.018 340.278C564.361 341.65 565.732 341.307 564.704 342.336C563.675 343.364 563.332 341.65 563.675 343.364L564.018 345.079L553.731 345.226C553.731 345.226 552.36 342.336 553.045 341.307C553.731 340.278 553.69 340.559 552.853 338.876C552.017 337.192 551.674 336.849 552.017 336.506C552.36 336.164 552.36 334.34 552.36 334.34L554.074 301.532C554.074 301.532 554.417 266.9 554.417 265.871C554.443 265.342 554.345 264.813 554.132 264.328V262.932L555.446 257.984L558.189 245.983Z" fill="white"/>
<path d="M561.789 196.092L573.79 191.634L593.678 193.006L598.283 195.155C599.903 195.911 601.221 197.189 602.027 198.785C602.832 200.38 603.078 202.2 602.724 203.952L596.764 233.467L598.305 247.668C598.305 247.668 573.276 266.556 553.731 260.727C553.731 260.727 554.074 255.241 554.417 253.183C554.76 251.126 555.446 251.126 555.789 250.097C556.132 249.069 556.817 250.097 556.132 248.04C555.446 245.983 561.618 231.581 561.618 231.581L561.789 196.092Z" fill="white"/>
<path d="M580.759 198.702L590.543 192.79L587.335 187.006H576.942L572.825 191.994L580.759 198.702Z" fill="white"/>
<path d="M584.124 247.304C584.683 247.336 585.242 247.245 585.762 247.038C586.282 246.831 586.75 246.512 587.134 246.104C587.517 245.697 587.807 245.21 587.982 244.678C588.157 244.146 588.213 243.583 588.147 243.027L600.382 237.072L594.298 233.468L583.612 239.675C582.686 239.849 581.856 240.356 581.278 241.101C580.701 241.846 580.417 242.776 580.48 243.717C580.543 244.657 580.949 245.542 581.621 246.203C582.292 246.864 583.183 247.256 584.124 247.304Z" fill="#A0616A"/>
<path d="M588.932 244.832L586.8 237.015L598.416 221.626C594.656 217.092 593.337 210.399 594.265 200.583C594.059 199.525 594.263 198.428 594.835 197.513C595.407 196.599 596.304 195.936 597.346 195.657C598.387 195.379 599.496 195.506 600.448 196.013C601.4 196.52 602.124 197.369 602.474 198.389C605.102 206.055 609.675 222.554 609.08 223.447C608.394 224.477 608.158 224.933 609.237 225.916C610.517 227.082 609.838 232.048 609.254 232.761C608.722 233.41 588.932 244.832 588.932 244.832Z" fill="white"/>
<path d="M527.433 235.163C527.955 235.366 528.515 235.451 529.073 235.413C529.632 235.375 530.175 235.216 530.665 234.945C531.155 234.675 531.58 234.3 531.91 233.848C532.239 233.395 532.466 232.876 532.573 232.327L546.045 230.413L541.361 225.116L529.286 227.746C528.351 227.627 527.405 227.855 526.627 228.386C525.849 228.918 525.293 229.717 525.065 230.631C524.836 231.546 524.951 232.512 525.387 233.347C525.824 234.183 526.552 234.829 527.433 235.163Z" fill="#A0616A"/>
<path d="M533.213 234.037L535.258 226.197L552.194 216.655C553.419 208.902 554.186 206.374 559.88 198.326C560.229 197.306 560.952 196.456 561.904 195.948C562.855 195.44 563.963 195.312 565.005 195.59C566.047 195.867 566.945 196.529 567.518 197.443C568.091 198.357 568.296 199.454 568.091 200.512C566.551 208.469 559.584 229.794 558.723 230.121C557.939 230.419 533.213 234.037 533.213 234.037Z" fill="white"/>
<path d="M582.02 183.406C587.89 183.406 592.649 178.647 592.649 172.776C592.649 166.905 587.89 162.146 582.02 162.146C576.149 162.146 571.39 166.905 571.39 172.776C571.39 178.647 576.149 183.406 582.02 183.406Z" fill="#A0616A"/>
<path d="M570.764 165.065C571.046 162.523 574.718 159.981 581.215 158.286C587.712 156.591 591.101 163.935 591.101 163.935C595.621 166.195 592.938 178.2 591.525 177.07C591.511 177.059 591.497 177.048 591.483 177.037C590.562 176.359 589.789 175.5 589.211 174.513C588.633 173.525 588.262 172.431 588.122 171.296L587.797 168.37C586.309 169.51 584.632 170.476 582.832 170.189L585.035 168.02C582.947 168.928 580.859 169.836 578.771 170.745L580.845 167.892L580.747 167.795C579.776 168.614 578.662 169.245 577.46 169.656C576.09 170.049 574.449 169.836 573.51 168.764C573.257 168.468 573.066 168.124 572.949 167.753C571.244 168.921 570.905 171.421 570.905 171.421C570.905 171.421 570.481 167.607 570.764 165.065Z" fill="white"/>
<path d="M528.113 242.067H516.477C515.837 242.067 515.219 241.835 514.736 241.416C514.252 240.996 513.937 240.416 513.847 239.782C513.129 234.495 513.129 229.135 513.847 223.849C513.936 223.222 514.245 222.649 514.719 222.23C515.193 221.811 515.8 221.575 516.432 221.564C520.093 219.923 524.036 219.923 528.153 221.564C528.536 221.569 528.914 221.658 529.259 221.824C529.604 221.991 529.909 222.231 530.152 222.528C530.405 222.837 530.586 223.198 530.682 223.586C530.778 223.973 530.786 224.377 530.707 224.768C529.772 229.42 529.772 234.211 530.707 238.862C530.786 239.253 530.778 239.658 530.682 240.045C530.586 240.433 530.405 240.794 530.152 241.103C529.905 241.405 529.594 241.648 529.241 241.815C528.888 241.982 528.503 242.068 528.113 242.067Z" fill="#3F3D56"/>
<path d="M526.894 227.638H517.1C516.938 227.638 516.782 227.573 516.667 227.459C516.553 227.344 516.488 227.188 516.488 227.026C516.488 226.864 516.553 226.708 516.667 226.593C516.782 226.478 516.938 226.414 517.1 226.414H526.894C527.056 226.414 527.212 226.478 527.326 226.593C527.441 226.708 527.506 226.864 527.506 227.026C527.506 227.188 527.441 227.344 527.326 227.459C527.212 227.573 527.056 227.638 526.894 227.638Z" fill="white"/>
<path d="M526.894 232.535H517.1C516.938 232.535 516.782 232.471 516.667 232.356C516.553 232.241 516.488 232.085 516.488 231.923C516.488 231.761 516.553 231.605 516.667 231.49C516.782 231.375 516.938 231.311 517.1 231.311H526.894C527.056 231.311 527.212 231.375 527.326 231.49C527.441 231.605 527.506 231.761 527.506 231.923C527.506 232.085 527.441 232.241 527.326 232.356C527.212 232.471 527.056 232.535 526.894 232.535Z" fill="white"/>
<path d="M526.894 237.431H517.1C516.938 237.431 516.782 237.367 516.667 237.252C516.553 237.137 516.488 236.982 516.488 236.819C516.488 236.657 516.553 236.501 516.667 236.387C516.782 236.272 516.938 236.207 517.1 236.207H526.894C527.056 236.207 527.212 236.272 527.326 236.387C527.441 236.501 527.506 236.657 527.506 236.819C527.506 236.982 527.441 237.137 527.326 237.252C527.212 237.367 527.056 237.431 526.894 237.431Z" fill="white"/>
<path d="M478.336 143.936C482.618 143.936 486.089 140.465 486.089 136.183C486.089 131.901 482.618 128.43 478.336 128.43C474.054 128.43 470.583 131.901 470.583 136.183C470.583 140.465 474.054 143.936 478.336 143.936Z" fill="white"/>
<path d="M482.316 132.952C482.199 132.841 482.044 132.779 481.883 132.779C481.722 132.779 481.567 132.841 481.45 132.952C479.805 134.264 478.327 135.773 477.05 137.446C476.737 136.839 476.424 136.233 476.11 135.626C475.748 134.926 474.691 135.545 475.053 136.244C475.512 137.131 475.97 138.018 476.429 138.906C476.484 138.996 476.561 139.071 476.654 139.123C476.747 139.175 476.851 139.202 476.957 139.202C477.063 139.202 477.167 139.175 477.26 139.123C477.353 139.071 477.43 138.996 477.486 138.906C478.846 136.989 480.473 135.276 482.316 133.818C482.43 133.702 482.493 133.547 482.493 133.385C482.493 133.223 482.43 133.067 482.316 132.952Z" fill="white"/>
<path d="M440.386 143.936C444.668 143.936 448.139 140.465 448.139 136.183C448.139 131.901 444.668 128.43 440.386 128.43C436.104 128.43 432.633 131.901 432.633 136.183C432.633 140.465 436.104 143.936 440.386 143.936Z" fill="white"/>
<path d="M444.366 132.952C444.249 132.841 444.094 132.779 443.933 132.779C443.772 132.779 443.617 132.841 443.5 132.952C441.855 134.264 440.378 135.773 439.101 137.446C438.787 136.839 438.474 136.233 438.16 135.626C437.799 134.926 436.742 135.545 437.103 136.244C437.562 137.131 438.02 138.018 438.479 138.906C438.534 138.996 438.612 139.071 438.704 139.123C438.797 139.175 438.901 139.202 439.007 139.202C439.114 139.202 439.218 139.175 439.31 139.123C439.403 139.071 439.481 138.996 439.536 138.906C440.897 136.989 442.523 135.276 444.366 133.818C444.48 133.702 444.544 133.547 444.544 133.385C444.544 133.223 444.48 133.067 444.366 132.952Z" fill="white"/>
<path d="M360.407 143.12C364.689 143.12 368.16 139.648 368.16 135.367C368.16 131.085 364.689 127.613 360.407 127.613C356.125 127.613 352.654 131.085 352.654 135.367C352.654 139.648 356.125 143.12 360.407 143.12Z" fill="white"/>
<path d="M364.387 132.136C364.27 132.025 364.115 131.963 363.954 131.963C363.793 131.963 363.638 132.025 363.521 132.136C361.876 133.449 360.398 134.958 359.122 136.63C358.808 136.024 358.495 135.417 358.181 134.811C357.819 134.111 356.763 134.729 357.124 135.429C357.583 136.316 358.041 137.203 358.5 138.09C358.555 138.181 358.633 138.256 358.725 138.307C358.818 138.359 358.922 138.387 359.028 138.387C359.134 138.387 359.239 138.359 359.331 138.307C359.424 138.256 359.501 138.181 359.557 138.09C360.917 136.174 362.544 134.461 364.387 133.002C364.501 132.887 364.565 132.731 364.565 132.569C364.565 132.407 364.501 132.252 364.387 132.136Z" fill="white"/>
<path d="M267.777 174.949C270.707 174.949 273.082 172.574 273.082 169.644C273.082 166.715 270.707 164.34 267.777 164.34C264.847 164.34 262.472 166.715 262.472 169.644C262.472 172.574 264.847 174.949 267.777 174.949Z" fill="white"/>
<path d="M328.268 356.642C328.268 356.706 328.256 356.769 328.231 356.828C328.207 356.887 328.171 356.94 328.126 356.986C328.081 357.031 328.028 357.066 327.969 357.091C327.91 357.115 327.846 357.128 327.782 357.127H213.408C213.279 357.127 213.155 357.076 213.064 356.985C212.973 356.894 212.922 356.771 212.922 356.642C212.922 356.513 212.973 356.389 213.064 356.298C213.155 356.207 213.279 356.156 213.408 356.156H327.782C327.846 356.156 327.91 356.168 327.969 356.193C328.028 356.217 328.081 356.253 328.126 356.298C328.171 356.343 328.207 356.397 328.231 356.456C328.256 356.515 328.268 356.578 328.268 356.642Z" fill="#CCCCCC"/>
<path d="M622.479 356.642C622.479 356.706 622.467 356.769 622.442 356.828C622.418 356.887 622.382 356.94 622.337 356.986C622.292 357.031 622.238 357.066 622.179 357.091C622.12 357.115 622.057 357.128 621.993 357.127H507.619C507.49 357.127 507.366 357.076 507.275 356.985C507.184 356.894 507.133 356.771 507.133 356.642C507.133 356.513 507.184 356.389 507.275 356.298C507.366 356.207 507.49 356.156 507.619 356.156H621.993C622.057 356.156 622.12 356.168 622.179 356.193C622.238 356.217 622.292 356.253 622.337 356.298C622.382 356.343 622.418 356.397 622.442 356.456C622.467 356.515 622.479 356.578 622.479 356.642Z" fill="#CCCCCC"/>
<path d="M266.18 164.323C265.262 164.067 264.306 164.495 263.449 164.912L260.401 166.396C262.512 166.581 264.622 166.766 266.732 166.951L266.966 166.512C267.696 165.9 267.098 164.578 266.18 164.323Z" fill="white"/>
</g>
<defs>
<clipPath id="clip0_195_39591">
<rect width="409.557" height="242.914" fill="white" transform="translate(212.922 114.212)"/>
</clipPath>
</defs>
</svg>
