<svg width="906" height="643" viewBox="0 0 906 643" fill="none" xmlns="http://www.w3.org/2000/svg">
<path fill-rule="evenodd" clip-rule="evenodd" d="M906.328 0.223633H640.292V1.5625H499.35C496.774 4.96192 494.388 8.65694 492.139 12.6476C487.521 20.9116 483.446 29.6481 479.375 38.3757C469.976 58.5251 460.599 78.6268 444.619 92.7557C428.494 107.015 407.879 113.105 387.571 119.104C383.987 120.163 380.413 121.218 376.875 122.316C344.325 132.422 312.977 147.017 283.843 165.622C251.413 186.332 219.996 214.821 210.365 254.062C207.204 266.983 206.603 280.344 206.002 293.722C205.633 301.922 205.264 310.129 204.305 318.244C196.047 388.265 146.192 442.988 99.3414 492.372C58.0529 535.863 14.8589 584.157 0.489502 643H757.226C758.548 643 759.836 642.908 761.123 642.723C761.13 642.722 761.136 642.721 761.142 642.72H906.328V0.223633Z" fill="#000066"/>
</svg>
