<svg width="695" height="472" viewBox="0 0 695 472" fill="none" xmlns="http://www.w3.org/2000/svg">
<path d="M1.22514 0.968262L148.864 470.833L694.276 470.833L694.276 0.968322L1.22514 0.968262Z" fill="#000066" stroke="black" stroke-width="0.610746"/>
<g clip-path="url(#clip0_208_18816)">
<path d="M529.305 213.673C529.305 213.673 519.557 219.095 522.363 225.267C525.169 231.44 565.012 226.39 565.012 226.39C565.012 226.39 562.206 217.972 557.155 216.289C552.105 214.605 529.305 213.673 529.305 213.673Z" fill="#4141DB"/>
<path d="M525.505 215.119C527.464 213.845 529.642 212.945 531.928 212.462C539.555 210.614 547.539 210.863 555.036 213.183L554.899 213.071C558.092 214.757 560.896 217.095 563.129 219.934L525.505 215.119Z" fill="#CCCCCC"/>
<path d="M568.67 241.665C568.535 243.679 568.401 245.692 568.266 247.703C568.081 251.915 567.622 256.11 566.891 260.262C566.207 263.735 565.118 267.181 563.171 270.138C561.223 273.09 558.333 275.531 554.91 276.429C552.809 276.933 550.623 276.981 548.502 276.569C544.501 274.297 541.79 277.203 545.786 280.161C546.692 280.831 547.634 281.451 548.608 282.018L550.421 310.004L516.751 302.709L523.322 265.481C522.315 264.566 521.395 263.561 520.572 262.478C516.807 257.478 515.511 250.963 515.757 244.712C516.01 238.455 517.677 232.355 519.332 226.322C519.754 224.686 520.264 223.073 520.858 221.491C521.594 221.794 522.34 222.069 523.098 222.299C527.94 223.769 533.086 223.887 538.148 223.881C547.155 223.876 556.15 223.524 565.135 222.826C567.199 226.225 568.453 230.054 568.799 234.016C568.944 236.565 568.901 239.122 568.67 241.665Z" fill="#CCCCCC"/>
<path d="M424.664 317.633L476.499 322.235L477.055 322.286V101.106C476.87 100.977 476.684 100.848 476.499 100.719C465.696 93.1629 454.01 86.9553 441.701 82.2343L439.052 118.766L438.811 122.111L436.19 158.34L435.382 169.485L424.759 316.343L424.664 317.633Z" fill="#E6E6E6"/>
<path d="M296.476 96.9864C296.106 97.2221 295.736 97.4578 295.365 97.7047V322.284L296.476 322.183L347.75 317.632L347.655 316.342L337.032 169.484L336.224 158.339L333.603 122.11L333.362 118.765L330.584 80.4544C318.605 84.6066 307.157 90.1556 296.476 96.9864Z" fill="#E6E6E6"/>
<path d="M295.366 97.7053C294.619 98.1879 293.873 98.6817 293.138 99.1812V325.349C293.138 331 296.488 335.736 300.966 336.943C301.698 337.141 302.453 337.241 303.211 337.24H469.766C470.522 337.241 471.275 337.141 472.005 336.943C473.669 336.481 475.178 335.577 476.371 334.328C478.645 331.897 479.888 328.678 479.839 325.349V103.115C478.918 102.436 477.992 101.763 477.055 101.106C476.87 100.977 476.685 100.848 476.5 100.719V325.349C476.501 326.077 476.414 326.802 476.241 327.51C475.45 330.849 472.841 333.295 469.766 333.295H303.211C299.496 333.295 296.477 329.732 296.477 325.349V96.987C296.106 97.2227 295.736 97.4584 295.366 97.7053Z" fill="#E6E6E6"/>
<path d="M478.169 118.768H294.805V122.112H478.169V118.768Z" fill="#E6E6E6"/>
<path d="M422.01 76.1115C420.899 75.8365 419.788 75.5784 418.666 75.3371V166.14H422.01V76.1115Z" fill="#E6E6E6"/>
<path d="M354.311 74.209C353.194 74.4166 352.077 74.6299 350.966 74.86V166.14H354.311V74.209Z" fill="#E6E6E6"/>
<path d="M258.856 331.387C258.855 333.306 259.222 335.208 259.939 336.988C260.214 337.678 260.542 338.346 260.921 338.986C261.41 339.82 261.977 340.605 262.615 341.331C264.025 342.938 265.762 344.225 267.709 345.107C269.656 345.988 271.769 346.444 273.906 346.443H493.497C497.489 346.443 501.317 344.858 504.14 342.035C506.962 339.213 508.548 335.385 508.548 331.393C508.548 327.401 506.962 323.573 504.14 320.751C501.317 317.928 497.489 316.342 493.497 316.342H273.906C269.917 316.346 266.092 317.932 263.27 320.753C260.449 323.573 258.861 327.398 258.856 331.387Z" fill="#E6E6E6"/>
<path d="M294.805 169.486L477.054 169.486V158.339L294.805 158.339V169.486Z" fill="#E6E6E6"/>
<path d="M393.732 161.125H378.126C378.126 160.32 378.285 159.523 378.593 158.779C378.901 158.035 379.353 157.359 379.922 156.79C380.491 156.221 381.167 155.769 381.911 155.461C382.655 155.153 383.452 154.994 384.257 154.994H387.601C389.227 154.994 390.786 155.64 391.936 156.79C393.086 157.94 393.732 159.499 393.732 161.125H393.732Z" fill="#E6E6E6"/>
<path d="M184.534 339.985C189.409 345.761 194.682 351.19 200.314 356.231H583.357C588.989 351.19 594.262 345.761 599.137 339.985H184.534Z" fill="white"/>
<path d="M288.44 285.657V343.211H328.76V285.657C328.761 285.243 328.629 284.84 328.384 284.507C328.138 284.174 327.792 283.928 327.397 283.805C327.21 283.744 327.015 283.714 326.819 283.716H290.388C290.132 283.715 289.879 283.765 289.643 283.862C289.407 283.96 289.192 284.103 289.012 284.283C288.831 284.463 288.687 284.677 288.589 284.913C288.491 285.149 288.441 285.402 288.44 285.657ZM304.176 305.433C304.186 304.298 304.644 303.214 305.45 302.415C306.256 301.617 307.345 301.169 308.48 301.169C309.614 301.169 310.703 301.617 311.509 302.415C312.315 303.214 312.773 304.298 312.784 305.433V312.111C312.778 313.249 312.322 314.338 311.516 315.14C310.709 315.943 309.618 316.393 308.48 316.393C307.342 316.393 306.251 315.943 305.444 315.14C304.637 314.338 304.181 313.249 304.176 312.111V305.433Z" fill="#2F2E41"/>
<path d="M288.317 341.371V346.921C288.318 347.208 288.432 347.484 288.635 347.687C288.837 347.891 289.112 348.007 289.4 348.009H327.801C328.088 348.008 328.364 347.892 328.567 347.688C328.77 347.484 328.884 347.208 328.884 346.921V341.371H288.317Z" fill="white"/>
<path d="M225.011 198.946V304.03C225.012 305.369 225.545 306.653 226.492 307.6C227.439 308.547 228.723 309.08 230.062 309.081H385.786C387.125 309.08 388.409 308.547 389.356 307.6C390.303 306.653 390.836 305.369 390.837 304.03V198.946C390.833 197.608 390.3 196.326 389.354 195.38C388.407 194.434 387.124 193.902 385.786 193.901H230.062C228.724 193.902 227.441 194.434 226.494 195.38C225.548 196.326 225.014 197.608 225.011 198.946Z" fill="white"/>
<path d="M228.664 200.253V302.734C228.665 303.45 228.95 304.135 229.456 304.641C229.962 305.147 230.648 305.432 231.363 305.433H384.489C385.205 305.432 385.891 305.147 386.397 304.641C386.903 304.135 387.187 303.45 387.189 302.734V200.253C387.189 199.537 386.904 198.85 386.398 198.343C385.892 197.836 385.206 197.55 384.489 197.549H231.363C230.647 197.55 229.96 197.836 229.454 198.343C228.948 198.85 228.664 199.537 228.664 200.253Z" fill="#4141DB"/>
<path d="M259.888 349.317C260.044 349.513 260.242 349.67 260.467 349.778C260.693 349.886 260.94 349.941 261.19 349.94H352.29C352.539 349.94 352.785 349.884 353.01 349.777C353.235 349.669 353.433 349.513 353.59 349.32C353.747 349.126 353.858 348.9 353.917 348.658C353.976 348.416 353.98 348.164 353.928 347.92L352.514 341.203C352.456 340.929 352.33 340.674 352.147 340.461C351.965 340.248 351.732 340.085 351.471 339.985C351.281 339.911 351.079 339.872 350.876 339.873H262.598C262.395 339.872 262.193 339.911 262.003 339.985C261.742 340.085 261.509 340.248 261.327 340.461C261.144 340.674 261.018 340.929 260.96 341.203L259.545 347.92C259.495 348.164 259.5 348.415 259.559 348.657C259.618 348.899 259.731 349.124 259.888 349.317Z" fill="#2F2E41"/>
<path d="M347.697 342.765H349.955C350.106 342.765 350.229 342.642 350.229 342.491V341.355C350.229 341.204 350.106 341.081 349.955 341.081H347.697C347.545 341.081 347.423 341.204 347.423 341.355V342.491C347.423 342.642 347.545 342.765 347.697 342.765Z" fill="white"/>
<path d="M342.085 342.765H344.343C344.494 342.765 344.617 342.642 344.617 342.491V341.355C344.617 341.204 344.494 341.081 344.343 341.081H342.085C341.934 341.081 341.811 341.204 341.811 341.355V342.491C341.811 342.642 341.934 342.765 342.085 342.765Z" fill="white"/>
<path d="M336.473 342.765H338.731C338.882 342.765 339.005 342.642 339.005 342.491V341.355C339.005 341.204 338.882 341.081 338.731 341.081H336.473C336.322 341.081 336.199 341.204 336.199 341.355V342.491C336.199 342.642 336.322 342.765 336.473 342.765Z" fill="white"/>
<path d="M330.862 342.765H333.12C333.271 342.765 333.394 342.642 333.394 342.491V341.355C333.394 341.204 333.271 341.081 333.12 341.081H330.862C330.711 341.081 330.588 341.204 330.588 341.355V342.491C330.588 342.642 330.711 342.765 330.862 342.765Z" fill="white"/>
<path d="M325.249 342.765H327.507C327.659 342.765 327.781 342.642 327.781 342.491V341.355C327.781 341.204 327.659 341.081 327.507 341.081H325.249C325.098 341.081 324.975 341.204 324.975 341.355V342.491C324.975 342.642 325.098 342.765 325.249 342.765Z" fill="white"/>
<path d="M319.638 342.765H321.896C322.048 342.765 322.17 342.642 322.17 342.491V341.355C322.17 341.204 322.048 341.081 321.896 341.081H319.638C319.487 341.081 319.364 341.204 319.364 341.355V342.491C319.364 342.642 319.487 342.765 319.638 342.765Z" fill="white"/>
<path d="M314.026 342.765H316.284C316.436 342.765 316.558 342.642 316.558 342.491V341.355C316.558 341.204 316.436 341.081 316.284 341.081H314.026C313.875 341.081 313.753 341.204 313.753 341.355V342.491C313.753 342.642 313.875 342.765 314.026 342.765Z" fill="white"/>
<path d="M308.415 342.765H310.673C310.825 342.765 310.947 342.642 310.947 342.491V341.355C310.947 341.204 310.825 341.081 310.673 341.081H308.415C308.264 341.081 308.141 341.204 308.141 341.355V342.491C308.141 342.642 308.264 342.765 308.415 342.765Z" fill="white"/>
<path d="M302.803 342.765H305.061C305.212 342.765 305.335 342.642 305.335 342.491V341.355C305.335 341.204 305.212 341.081 305.061 341.081H302.803C302.651 341.081 302.529 341.204 302.529 341.355V342.491C302.529 342.642 302.651 342.765 302.803 342.765Z" fill="white"/>
<path d="M297.191 342.765H299.449C299.6 342.765 299.723 342.642 299.723 342.491V341.355C299.723 341.204 299.6 341.081 299.449 341.081H297.191C297.04 341.081 296.917 341.204 296.917 341.355V342.491C296.917 342.642 297.04 342.765 297.191 342.765Z" fill="white"/>
<path d="M291.58 342.765H293.838C293.989 342.765 294.112 342.642 294.112 342.491V341.355C294.112 341.204 293.989 341.081 293.838 341.081H291.58C291.429 341.081 291.306 341.204 291.306 341.355V342.491C291.306 342.642 291.429 342.765 291.58 342.765Z" fill="white"/>
<path d="M285.968 342.765H288.226C288.377 342.765 288.5 342.642 288.5 342.491V341.355C288.5 341.204 288.377 341.081 288.226 341.081H285.968C285.817 341.081 285.694 341.204 285.694 341.355V342.491C285.694 342.642 285.817 342.765 285.968 342.765Z" fill="white"/>
<path d="M280.357 342.765H282.615C282.766 342.765 282.889 342.642 282.889 342.491V341.355C282.889 341.204 282.766 341.081 282.615 341.081H280.357C280.206 341.081 280.083 341.204 280.083 341.355V342.491C280.083 342.642 280.206 342.765 280.357 342.765Z" fill="white"/>
<path d="M274.744 342.765H277.002C277.153 342.765 277.276 342.642 277.276 342.491V341.355C277.276 341.204 277.153 341.081 277.002 341.081H274.744C274.593 341.081 274.47 341.204 274.47 341.355V342.491C274.47 342.642 274.593 342.765 274.744 342.765Z" fill="white"/>
<path d="M269.133 342.765H271.391C271.543 342.765 271.665 342.642 271.665 342.491V341.355C271.665 341.204 271.543 341.081 271.391 341.081H269.133C268.982 341.081 268.859 341.204 268.859 341.355V342.491C268.859 342.642 268.982 342.765 269.133 342.765Z" fill="white"/>
<path d="M263.521 342.765H265.779C265.931 342.765 266.053 342.642 266.053 342.491V341.355C266.053 341.204 265.931 341.081 265.779 341.081H263.521C263.37 341.081 263.247 341.204 263.247 341.355V342.491C263.247 342.642 263.37 342.765 263.521 342.765Z" fill="white"/>
<path d="M347.763 345.571H350.021C350.172 345.571 350.295 345.448 350.295 345.297V344.161C350.295 344.01 350.172 343.887 350.021 343.887H347.763C347.612 343.887 347.489 344.01 347.489 344.161V345.297C347.489 345.448 347.612 345.571 347.763 345.571Z" fill="white"/>
<path d="M342.151 345.571H344.409C344.56 345.571 344.683 345.448 344.683 345.297V344.161C344.683 344.01 344.56 343.887 344.409 343.887H342.151C342 343.887 341.877 344.01 341.877 344.161V345.297C341.877 345.448 342 345.571 342.151 345.571Z" fill="white"/>
<path d="M336.539 345.571H338.797C338.948 345.571 339.071 345.448 339.071 345.297V344.161C339.071 344.01 338.948 343.887 338.797 343.887H336.539C336.388 343.887 336.265 344.01 336.265 344.161V345.297C336.265 345.448 336.388 345.571 336.539 345.571Z" fill="white"/>
<path d="M330.928 345.571H333.186C333.337 345.571 333.46 345.448 333.46 345.297V344.161C333.46 344.01 333.337 343.887 333.186 343.887H330.928C330.777 343.887 330.654 344.01 330.654 344.161V345.297C330.654 345.448 330.777 345.571 330.928 345.571Z" fill="white"/>
<path d="M325.316 345.571H327.574C327.725 345.571 327.848 345.448 327.848 345.297V344.161C327.848 344.01 327.725 343.887 327.574 343.887H325.316C325.165 343.887 325.042 344.01 325.042 344.161V345.297C325.042 345.448 325.165 345.571 325.316 345.571Z" fill="white"/>
<path d="M319.704 345.571H321.962C322.114 345.571 322.236 345.448 322.236 345.297V344.161C322.236 344.01 322.114 343.887 321.962 343.887H319.704C319.553 343.887 319.43 344.01 319.43 344.161V345.297C319.43 345.448 319.553 345.571 319.704 345.571Z" fill="white"/>
<path d="M314.093 345.571H316.35C316.502 345.571 316.624 345.448 316.624 345.297V344.161C316.624 344.01 316.502 343.887 316.35 343.887H314.093C313.941 343.887 313.819 344.01 313.819 344.161V345.297C313.819 345.448 313.941 345.571 314.093 345.571Z" fill="white"/>
<path d="M308.482 345.571H310.739C310.891 345.571 311.013 345.448 311.013 345.297V344.161C311.013 344.01 310.891 343.887 310.739 343.887H308.482C308.33 343.887 308.208 344.01 308.208 344.161V345.297C308.208 345.448 308.33 345.571 308.482 345.571Z" fill="white"/>
<path d="M302.87 345.571H305.128C305.279 345.571 305.402 345.448 305.402 345.297V344.161C305.402 344.01 305.279 343.887 305.128 343.887H302.87C302.718 343.887 302.596 344.01 302.596 344.161V345.297C302.596 345.448 302.718 345.571 302.87 345.571Z" fill="white"/>
<path d="M297.257 345.571H299.515C299.666 345.571 299.789 345.448 299.789 345.297V344.161C299.789 344.01 299.666 343.887 299.515 343.887H297.257C297.106 343.887 296.983 344.01 296.983 344.161V345.297C296.983 345.448 297.106 345.571 297.257 345.571Z" fill="white"/>
<path d="M291.646 345.571H293.904C294.055 345.571 294.178 345.448 294.178 345.297V344.161C294.178 344.01 294.055 343.887 293.904 343.887H291.646C291.495 343.887 291.372 344.01 291.372 344.161V345.297C291.372 345.448 291.495 345.571 291.646 345.571Z" fill="white"/>
<path d="M286.034 345.571H288.292C288.443 345.571 288.566 345.448 288.566 345.297V344.161C288.566 344.01 288.443 343.887 288.292 343.887H286.034C285.883 343.887 285.76 344.01 285.76 344.161V345.297C285.76 345.448 285.883 345.571 286.034 345.571Z" fill="white"/>
<path d="M280.423 345.571H282.681C282.832 345.571 282.955 345.448 282.955 345.297V344.161C282.955 344.01 282.832 343.887 282.681 343.887H280.423C280.272 343.887 280.149 344.01 280.149 344.161V345.297C280.149 345.448 280.272 345.571 280.423 345.571Z" fill="white"/>
<path d="M274.811 345.571H277.069C277.22 345.571 277.343 345.448 277.343 345.297V344.161C277.343 344.01 277.22 343.887 277.069 343.887H274.811C274.66 343.887 274.537 344.01 274.537 344.161V345.297C274.537 345.448 274.66 345.571 274.811 345.571Z" fill="white"/>
<path d="M269.199 345.571H271.457C271.609 345.571 271.731 345.448 271.731 345.297V344.161C271.731 344.01 271.609 343.887 271.457 343.887H269.199C269.048 343.887 268.925 344.01 268.925 344.161V345.297C268.925 345.448 269.048 345.571 269.199 345.571Z" fill="white"/>
<path d="M263.587 345.571H265.845C265.997 345.571 266.119 345.448 266.119 345.297V344.161C266.119 344.01 265.997 343.887 265.845 343.887H263.587C263.436 343.887 263.314 344.01 263.314 344.161V345.297C263.314 345.448 263.436 345.571 263.587 345.571Z" fill="white"/>
<path d="M301.186 348.938H323.085C323.236 348.938 323.359 348.816 323.359 348.664V347.529C323.359 347.377 323.236 347.255 323.085 347.255H301.186C301.034 347.255 300.912 347.377 300.912 347.529V348.664C300.912 348.816 301.034 348.938 301.186 348.938Z" fill="white"/>
<path d="M239.058 211.666H382.338C382.487 211.663 382.629 211.601 382.733 211.495C382.837 211.388 382.895 211.245 382.895 211.096C382.895 210.947 382.837 210.804 382.733 210.698C382.629 210.591 382.487 210.53 382.338 210.526H239.058C238.91 210.53 238.768 210.591 238.664 210.698C238.559 210.804 238.501 210.947 238.501 211.096C238.501 211.245 238.559 211.388 238.664 211.495C238.768 211.601 238.91 211.663 239.058 211.666Z" fill="white"/>
<path d="M372.584 207.617C374.428 207.617 375.923 206.089 375.923 204.203C375.923 202.318 374.428 200.79 372.584 200.79C370.74 200.79 369.245 202.318 369.245 204.203C369.245 206.089 370.74 207.617 372.584 207.617Z" fill="white"/>
<path d="M361.049 207.617C362.893 207.617 364.388 206.089 364.388 204.203C364.388 202.318 362.893 200.79 361.049 200.79C359.205 200.79 357.71 202.318 357.71 204.203C357.71 206.089 359.205 207.617 361.049 207.617Z" fill="white"/>
<path d="M349.514 207.617C351.358 207.617 352.853 206.089 352.853 204.203C352.853 202.318 351.358 200.79 349.514 200.79C347.67 200.79 346.175 202.318 346.175 204.203C346.175 206.089 347.67 207.617 349.514 207.617Z" fill="white"/>
<path d="M245.393 202.257C245.393 202.338 245.408 202.418 245.439 202.492C245.47 202.567 245.514 202.635 245.571 202.692C245.628 202.75 245.696 202.795 245.77 202.826C245.844 202.858 245.924 202.874 246.005 202.874H254.198C254.36 202.87 254.514 202.803 254.627 202.688C254.74 202.572 254.804 202.416 254.804 202.254C254.804 202.092 254.74 201.937 254.627 201.821C254.514 201.705 254.36 201.638 254.198 201.634H246.005C245.841 201.636 245.685 201.703 245.571 201.819C245.456 201.936 245.392 202.093 245.393 202.257Z" fill="white"/>
<path d="M245.393 204.586C245.393 204.667 245.408 204.747 245.439 204.821C245.47 204.896 245.514 204.964 245.571 205.021C245.628 205.079 245.696 205.124 245.77 205.155C245.844 205.187 245.924 205.203 246.005 205.203H254.198C254.36 205.2 254.514 205.133 254.628 205.017C254.741 204.901 254.805 204.745 254.805 204.583C254.805 204.421 254.741 204.265 254.628 204.149C254.514 204.033 254.36 203.967 254.198 203.963H246.005C245.841 203.965 245.685 204.032 245.571 204.148C245.456 204.265 245.392 204.422 245.393 204.586Z" fill="white"/>
<path d="M245.393 206.909C245.392 207.073 245.456 207.23 245.571 207.347C245.685 207.463 245.841 207.53 246.005 207.532H254.198C254.36 207.528 254.514 207.461 254.627 207.345C254.74 207.23 254.804 207.074 254.804 206.912C254.804 206.75 254.74 206.594 254.627 206.479C254.514 206.363 254.36 206.296 254.198 206.292H246.005C245.924 206.292 245.844 206.308 245.77 206.34C245.696 206.371 245.628 206.416 245.571 206.474C245.514 206.531 245.47 206.599 245.439 206.674C245.408 206.748 245.393 206.828 245.393 206.909Z" fill="white"/>
<path d="M247.925 224.907H244.981C244.088 224.907 243.365 225.631 243.365 226.524C243.365 227.416 244.088 228.14 244.981 228.14H247.925C248.818 228.14 249.541 227.416 249.541 226.524C249.541 225.631 248.818 224.907 247.925 224.907Z" fill="#E6E6E6"/>
<path d="M281.594 224.907H278.65C277.758 224.907 277.034 225.631 277.034 226.524C277.034 227.416 277.758 228.14 278.65 228.14H281.594C282.487 228.14 283.211 227.416 283.211 226.524C283.211 225.631 282.487 224.907 281.594 224.907Z" fill="#E6E6E6"/>
<path d="M291.134 224.907H288.19C287.298 224.907 286.574 225.631 286.574 226.524C286.574 227.416 287.298 228.14 288.19 228.14H291.134C292.027 228.14 292.751 227.416 292.751 226.524C292.751 225.631 292.027 224.907 291.134 224.907Z" fill="#E6E6E6"/>
<path d="M272.436 224.638H254.138C253.246 224.638 252.522 225.362 252.522 226.254C252.522 227.147 253.246 227.87 254.138 227.87H272.436C273.328 227.87 274.052 227.147 274.052 226.254C274.052 225.362 273.328 224.638 272.436 224.638Z" fill="#E6E6E6"/>
<path d="M317.33 224.638H299.033C298.14 224.638 297.416 225.362 297.416 226.254C297.416 227.147 298.14 227.87 299.033 227.87H317.33C318.222 227.87 318.946 227.147 318.946 226.254C318.946 225.362 318.222 224.638 317.33 224.638Z" fill="#E6E6E6"/>
<path d="M256.903 232.202H253.959C253.067 232.202 252.343 232.926 252.343 233.818C252.343 234.711 253.067 235.434 253.959 235.434H256.903C257.796 235.434 258.52 234.711 258.52 233.818C258.52 232.926 257.796 232.202 256.903 232.202Z" fill="#E6E6E6"/>
<path d="M290.574 232.202H287.63C286.737 232.202 286.014 232.926 286.014 233.818C286.014 234.711 286.737 235.434 287.63 235.434H290.574C291.466 235.434 292.19 234.711 292.19 233.818C292.19 232.926 291.466 232.202 290.574 232.202Z" fill="#E6E6E6"/>
<path d="M300.113 232.202H297.169C296.276 232.202 295.553 232.926 295.553 233.818C295.553 234.711 296.276 235.434 297.169 235.434H300.113C301.005 235.434 301.729 234.711 301.729 233.818C301.729 232.926 301.005 232.202 300.113 232.202Z" fill="#E6E6E6"/>
<path d="M281.416 231.934H263.119C262.226 231.934 261.503 232.657 261.503 233.55C261.503 234.442 262.226 235.166 263.119 235.166H281.416C282.309 235.166 283.032 234.442 283.032 233.55C283.032 232.657 282.309 231.934 281.416 231.934Z" fill="#E6E6E6"/>
<path d="M326.308 231.934H308.011C307.118 231.934 306.395 232.657 306.395 233.55C306.395 234.442 307.118 235.166 308.011 235.166H326.308C327.201 235.166 327.925 234.442 327.925 233.55C327.925 232.657 327.201 231.934 326.308 231.934Z" fill="#E6E6E6"/>
<path d="M265.882 239.498H262.938C262.045 239.498 261.322 240.221 261.322 241.114C261.322 242.006 262.045 242.73 262.938 242.73H265.882C266.774 242.73 267.498 242.006 267.498 241.114C267.498 240.221 266.774 239.498 265.882 239.498Z" fill="#E6E6E6"/>
<path d="M299.553 239.498H296.609C295.717 239.498 294.993 240.221 294.993 241.114C294.993 242.006 295.717 242.73 296.609 242.73H299.553C300.446 242.73 301.169 242.006 301.169 241.114C301.169 240.221 300.446 239.498 299.553 239.498Z" fill="#E6E6E6"/>
<path d="M309.093 239.498H306.149C305.257 239.498 304.533 240.221 304.533 241.114C304.533 242.006 305.257 242.73 306.149 242.73H309.093C309.986 242.73 310.709 242.006 310.709 241.114C310.709 240.221 309.986 239.498 309.093 239.498Z" fill="#E6E6E6"/>
<path d="M290.394 239.228H272.097C271.205 239.228 270.481 239.952 270.481 240.844C270.481 241.737 271.205 242.461 272.097 242.461H290.394C291.287 242.461 292.011 241.737 292.011 240.844C292.011 239.952 291.287 239.228 290.394 239.228Z" fill="#E6E6E6"/>
<path d="M335.288 239.228H316.99C316.098 239.228 315.374 239.952 315.374 240.844C315.374 241.737 316.098 242.461 316.99 242.461H335.288C336.18 242.461 336.904 241.737 336.904 240.844C336.904 239.952 336.18 239.228 335.288 239.228Z" fill="#E6E6E6"/>
<path d="M274.86 246.792H271.916C271.024 246.792 270.3 247.516 270.3 248.409C270.3 249.301 271.024 250.025 271.916 250.025H274.86C275.753 250.025 276.477 249.301 276.477 248.409C276.477 247.516 275.753 246.792 274.86 246.792Z" fill="#E6E6E6"/>
<path d="M308.532 246.792H305.588C304.695 246.792 303.971 247.516 303.971 248.409C303.971 249.301 304.695 250.025 305.588 250.025H308.532C309.424 250.025 310.148 249.301 310.148 248.409C310.148 247.516 309.424 246.792 308.532 246.792Z" fill="#E6E6E6"/>
<path d="M318.071 246.792H315.128C314.235 246.792 313.511 247.516 313.511 248.409C313.511 249.301 314.235 250.025 315.128 250.025H318.071C318.964 250.025 319.688 249.301 319.688 248.409C319.688 247.516 318.964 246.792 318.071 246.792Z" fill="#E6E6E6"/>
<path d="M299.373 246.523H281.076C280.183 246.523 279.459 247.247 279.459 248.139C279.459 249.032 280.183 249.755 281.076 249.755H299.373C300.266 249.755 300.989 249.032 300.989 248.139C300.989 247.247 300.266 246.523 299.373 246.523Z" fill="#E6E6E6"/>
<path d="M281.594 275.802H278.65C277.758 275.802 277.034 276.525 277.034 277.418C277.034 278.31 277.758 279.034 278.65 279.034H281.594C282.487 279.034 283.211 278.31 283.211 277.418C283.211 276.525 282.487 275.802 281.594 275.802Z" fill="#E6E6E6"/>
<path d="M291.134 275.802H288.19C287.298 275.802 286.574 276.525 286.574 277.418C286.574 278.31 287.298 279.034 288.19 279.034H291.134C292.027 279.034 292.751 278.31 292.751 277.418C292.751 276.525 292.027 275.802 291.134 275.802Z" fill="#E6E6E6"/>
<path d="M317.33 276.071H299.033C298.14 276.071 297.416 276.795 297.416 277.687C297.416 278.58 298.14 279.303 299.033 279.303H317.33C318.222 279.303 318.946 278.58 318.946 277.687C318.946 276.795 318.222 276.071 317.33 276.071Z" fill="#E6E6E6"/>
<path d="M247.925 275.802H244.981C244.088 275.802 243.365 276.525 243.365 277.418C243.365 278.31 244.088 279.034 244.981 279.034H247.925C248.818 279.034 249.541 278.31 249.541 277.418C249.541 276.525 248.818 275.802 247.925 275.802Z" fill="#E6E6E6"/>
<path d="M272.436 276.071H254.138C253.246 276.071 252.522 276.795 252.522 277.687C252.522 278.58 253.246 279.303 254.138 279.303H272.436C273.328 279.303 274.052 278.58 274.052 277.687C274.052 276.795 273.328 276.071 272.436 276.071Z" fill="#E6E6E6"/>
<path d="M256.903 268.506H253.959C253.067 268.506 252.343 269.23 252.343 270.122C252.343 271.015 253.067 271.738 253.959 271.738H256.903C257.796 271.738 258.52 271.015 258.52 270.122C258.52 269.23 257.796 268.506 256.903 268.506Z" fill="#E6E6E6"/>
<path d="M290.574 268.506H287.63C286.737 268.506 286.014 269.23 286.014 270.122C286.014 271.015 286.737 271.738 287.63 271.738H290.574C291.466 271.738 292.19 271.015 292.19 270.122C292.19 269.23 291.466 268.506 290.574 268.506Z" fill="#E6E6E6"/>
<path d="M300.113 268.506H297.169C296.276 268.506 295.553 269.23 295.553 270.122C295.553 271.015 296.276 271.738 297.169 271.738H300.113C301.005 271.738 301.729 271.015 301.729 270.122C301.729 269.23 301.005 268.506 300.113 268.506Z" fill="#E6E6E6"/>
<path d="M281.416 268.775H263.119C262.226 268.775 261.503 269.499 261.503 270.392C261.503 271.284 262.226 272.008 263.119 272.008H281.416C282.309 272.008 283.032 271.284 283.032 270.392C283.032 269.499 282.309 268.775 281.416 268.775Z" fill="#E6E6E6"/>
<path d="M265.882 261.21H262.938C262.045 261.21 261.322 261.934 261.322 262.827C261.322 263.719 262.045 264.443 262.938 264.443H265.882C266.774 264.443 267.498 263.719 267.498 262.827C267.498 261.934 266.774 261.21 265.882 261.21Z" fill="#E6E6E6"/>
<path d="M299.553 261.21H296.609C295.717 261.21 294.993 261.934 294.993 262.827C294.993 263.719 295.717 264.443 296.609 264.443H299.553C300.446 264.443 301.169 263.719 301.169 262.827C301.169 261.934 300.446 261.21 299.553 261.21Z" fill="#E6E6E6"/>
<path d="M309.093 261.21H306.149C305.257 261.21 304.533 261.934 304.533 262.827C304.533 263.719 305.257 264.443 306.149 264.443H309.093C309.986 264.443 310.709 263.719 310.709 262.827C310.709 261.934 309.986 261.21 309.093 261.21Z" fill="#E6E6E6"/>
<path d="M290.394 261.48H272.097C271.205 261.48 270.481 262.203 270.481 263.096C270.481 263.989 271.205 264.712 272.097 264.712H290.394C291.287 264.712 292.011 263.989 292.011 263.096C292.011 262.203 291.287 261.48 290.394 261.48Z" fill="#E6E6E6"/>
<path d="M274.86 253.916H271.916C271.024 253.916 270.3 254.639 270.3 255.532C270.3 256.424 271.024 257.148 271.916 257.148H274.86C275.753 257.148 276.477 256.424 276.477 255.532C276.477 254.639 275.753 253.916 274.86 253.916Z" fill="#E6E6E6"/>
<path d="M308.532 253.916H305.588C304.695 253.916 303.971 254.639 303.971 255.532C303.971 256.424 304.695 257.148 305.588 257.148H308.532C309.424 257.148 310.148 256.424 310.148 255.532C310.148 254.639 309.424 253.916 308.532 253.916Z" fill="#E6E6E6"/>
<path d="M318.071 253.916H315.128C314.235 253.916 313.511 254.639 313.511 255.532C313.511 256.424 314.235 257.148 315.128 257.148H318.071C318.964 257.148 319.688 256.424 319.688 255.532C319.688 254.639 318.964 253.916 318.071 253.916Z" fill="#E6E6E6"/>
<path d="M299.373 254.186H281.076C280.183 254.186 279.459 254.91 279.459 255.802C279.459 256.695 280.183 257.418 281.076 257.418H299.373C300.266 257.418 300.989 256.695 300.989 255.802C300.989 254.91 300.266 254.186 299.373 254.186Z" fill="#E6E6E6"/>
<path d="M237.34 381.191C237.682 381.365 238.03 381.539 238.372 381.707C247.239 386.14 254.332 388.66 264.034 391.421C264.854 382.274 265.645 366.196 266.414 356.23C266.616 353.643 266.818 351.471 267.014 349.939C267.064 349.125 267.23 348.322 267.508 347.554L267.474 349.939L267.39 356.23L266.902 392.207C278.971 395.4 291.369 397.187 303.849 397.532C304.5 397.549 305.14 397.56 305.757 397.571C305.976 397.577 306.189 397.583 306.403 397.583C307.104 397.588 307.8 397.594 308.501 397.594C321.653 397.604 334.757 396.015 347.525 392.863C347.25 383.812 346.975 367.914 346.711 356.23C346.655 353.946 346.605 351.819 346.549 349.939C346.442 345.921 346.33 343.026 346.223 342.055C346.318 342.227 346.391 342.41 346.442 342.599C346.962 345.019 347.316 347.471 347.503 349.939C347.699 351.819 347.895 353.946 348.092 356.23C349.136 368.368 350.224 384.872 351.347 391.87C358.027 390.046 364.582 387.791 370.971 385.119C374.338 383.716 377.645 382.203 380.892 380.579C380.275 376.539 379.63 372.01 378.967 367.313C378.451 363.671 377.918 359.928 377.374 356.23C376.532 350.517 364.023 310.596 363.232 309.081C362.553 307.784 361.908 306.561 361.296 305.433C359.815 302.695 358.558 300.512 357.626 299.131C353.732 293.224 347.934 288.826 341.195 286.668L341.027 286.623L340.909 286.673L329.433 283.149L327.755 282.633L326.627 282.285L322.654 279.26L320.494 277.616L318.468 276.073L314.506 273.059L289.977 274.569L285.202 286.067L274.506 289.978L274.321 289.894L274.158 289.827L273.99 289.872C267.252 292.032 261.455 296.429 257.559 302.335C257.031 303.127 256.391 304.17 255.667 305.433C255.05 306.505 254.377 307.728 253.647 309.081C252.609 311.006 251.476 313.177 250.275 315.529C250.011 316.045 249.741 316.572 249.472 317.105C248.973 318.093 248.466 319.101 247.951 320.13C246.756 322.515 245.521 325.007 244.287 327.538C243.215 329.732 242.132 334.243 241.066 339.984C240.185 344.754 239.309 350.377 238.462 356.23C237.351 363.817 238.535 372.902 237.53 379.883C237.469 380.327 237.401 380.759 237.34 381.191Z" fill="white"/>
<path opacity="0.2" d="M354.899 339.959L350.131 321.558L345.921 337.436L354.899 339.959Z" fill="black"/>
<path d="M228.013 327.97C229.719 351.471 227.951 361.819 237.368 381.197C245.935 385.39 254.859 388.812 264.034 391.421C264.988 391.69 265.944 391.952 266.902 392.207C278.971 395.4 291.369 397.187 303.849 397.532C304.5 397.549 305.14 397.56 305.757 397.571C305.976 397.577 306.189 397.583 306.403 397.583C307.104 397.588 307.8 397.594 308.501 397.594C321.653 397.604 334.757 396.015 347.525 392.863C348.805 392.549 350.078 392.218 351.347 391.87C358.027 390.046 364.582 387.791 370.971 385.119C374.338 383.716 377.645 382.203 380.892 380.579C381.627 380.209 382.362 379.839 383.086 379.457C386.807 372.914 388.923 364.956 388.967 355.394C386.392 338.918 233.703 313.761 228.013 327.97Z" fill="#2F2E41"/>
<path opacity="0.2" d="M228.018 331.994C227.931 330.539 227.834 329.036 227.72 327.471C233.41 313.262 386.099 338.419 388.675 354.895C388.667 356.406 388.603 357.872 388.494 359.303C382.257 343.041 237.2 319.131 228.018 331.994Z" fill="black"/>
<path d="M193.417 339.746C193.664 340.466 194.133 341.089 194.756 341.526C195.38 341.963 196.126 342.19 196.887 342.177L211.753 341.794C212.52 341.779 213.261 341.517 213.866 341.046C214.471 340.575 214.907 339.921 215.109 339.181L217.213 316.685C217.959 317.023 218.772 317.19 219.591 317.174C221.028 317.137 222.391 316.531 223.381 315.489C224.372 314.447 224.907 313.055 224.871 311.618C224.835 310.181 224.23 308.817 223.189 307.827C222.148 306.836 220.756 306.299 219.319 306.334C218.992 306.333 218.665 306.367 218.345 306.435C217.996 306.059 217.573 305.759 217.102 305.556C216.631 305.352 216.123 305.25 215.61 305.255L192.742 305.846C192.552 305.853 192.363 305.876 192.178 305.916C191.676 306.009 191.2 306.209 190.783 306.502C190.365 306.795 190.015 307.173 189.756 307.613C189.496 308.052 189.334 308.542 189.281 309.049C189.227 309.557 189.282 310.07 189.443 310.554L193.417 339.746ZM217.644 315.158L219.141 309.797C219.312 309.178 219.316 308.525 219.153 307.903C219.225 307.903 219.29 307.869 219.362 307.869C220.389 307.847 221.382 308.234 222.123 308.944C222.865 309.654 223.295 310.629 223.319 311.655C223.343 312.681 222.959 313.675 222.252 314.419C221.544 315.163 220.57 315.596 219.544 315.622C218.88 315.643 218.223 315.482 217.644 315.158Z" fill="#2F2E41"/>
<path d="M192.178 305.915C192.665 308.7 198.142 310.659 204.729 310.318C210.785 310.039 215.737 307.913 216.645 305.392C216.309 305.293 215.96 305.246 215.61 305.254L192.742 305.845C192.552 305.852 192.363 305.875 192.178 305.915Z" fill="white"/>
<path d="M205.936 327.384C205.966 327.377 205.995 327.364 206.021 327.347L209.249 325.234C209.288 325.208 209.32 325.173 209.342 325.133C209.365 325.092 209.376 325.046 209.376 324.999C209.376 324.953 209.365 324.907 209.342 324.866C209.32 324.825 209.288 324.79 209.249 324.764L205.894 322.567C205.863 322.546 205.828 322.532 205.792 322.525C205.756 322.518 205.718 322.518 205.682 322.526C205.646 322.533 205.612 322.548 205.581 322.568C205.551 322.589 205.525 322.616 205.504 322.647C205.484 322.678 205.47 322.712 205.463 322.748C205.456 322.785 205.457 322.822 205.464 322.858C205.472 322.894 205.487 322.929 205.508 322.959C205.528 322.989 205.555 323.015 205.586 323.036L208.583 324.999L205.713 326.877C205.658 326.914 205.617 326.969 205.598 327.032C205.579 327.096 205.583 327.164 205.61 327.225C205.637 327.286 205.684 327.335 205.744 327.364C205.803 327.393 205.871 327.4 205.936 327.384H205.936Z" fill="#4141DB"/>
<path d="M200.836 327.619C200.891 327.606 200.939 327.576 200.977 327.534C201.014 327.493 201.038 327.441 201.046 327.386C201.053 327.33 201.044 327.274 201.019 327.224C200.995 327.173 200.956 327.132 200.907 327.104L197.931 325.398L200.808 323.261C200.837 323.239 200.862 323.212 200.881 323.18C200.9 323.149 200.912 323.114 200.918 323.077C200.923 323.041 200.921 323.004 200.912 322.968C200.903 322.932 200.887 322.899 200.865 322.869C200.843 322.84 200.816 322.815 200.784 322.796C200.753 322.777 200.718 322.764 200.681 322.759C200.645 322.754 200.608 322.755 200.572 322.764C200.536 322.773 200.503 322.789 200.473 322.811L197.253 325.203C197.215 325.231 197.185 325.268 197.166 325.31C197.146 325.352 197.137 325.399 197.14 325.445C197.143 325.492 197.157 325.537 197.181 325.576C197.206 325.616 197.24 325.649 197.28 325.672L200.628 327.591C200.691 327.627 200.766 327.637 200.836 327.619Z" fill="#4141DB"/>
<path d="M205.615 329.237C205.642 329.23 205.668 329.219 205.692 329.204C205.723 329.185 205.751 329.16 205.772 329.13C205.794 329.101 205.81 329.067 205.819 329.031C205.827 328.995 205.829 328.958 205.823 328.922C205.818 328.885 205.805 328.85 205.786 328.819L201.209 321.295C201.17 321.231 201.108 321.186 201.036 321.169C200.963 321.151 200.887 321.163 200.824 321.202C200.76 321.241 200.715 321.303 200.697 321.375C200.68 321.447 200.691 321.523 200.73 321.587L205.306 329.111C205.337 329.162 205.384 329.202 205.44 329.225C205.495 329.247 205.557 329.252 205.615 329.237Z" fill="#4141DB"/>
<path d="M561.084 297.658H511.14V341.429H561.084V297.658Z" fill="white"/>
<path d="M568.486 236.519C567.56 242.006 568.374 247.646 570.812 252.648C571.715 254.488 572.832 256.704 571.733 258.434C571.425 258.866 571.024 259.224 570.559 259.482C570.095 259.739 569.579 259.89 569.049 259.922C567.988 259.978 566.926 259.841 565.915 259.516" fill="#CCCCCC"/>
<path d="M524.607 219.655C525.537 219.655 526.29 219.027 526.29 218.252C526.29 217.478 525.537 216.849 524.607 216.849C523.677 216.849 522.923 217.478 522.923 218.252C522.923 219.027 523.677 219.655 524.607 219.655Z" fill="white"/>
<path d="M530.78 220.217C531.71 220.217 532.464 219.589 532.464 218.814C532.464 218.039 531.71 217.411 530.78 217.411C529.851 217.411 529.097 218.039 529.097 218.814C529.097 219.589 529.851 220.217 530.78 220.217Z" fill="white"/>
<path d="M536.953 223.023C537.883 223.023 538.636 222.395 538.636 221.62C538.636 220.845 537.883 220.217 536.953 220.217C536.023 220.217 535.269 220.845 535.269 221.62C535.269 222.395 536.023 223.023 536.953 223.023Z" fill="white"/>
<path d="M544.248 221.339C545.178 221.339 545.932 220.711 545.932 219.936C545.932 219.161 545.178 218.533 544.248 218.533C543.319 218.533 542.565 219.161 542.565 219.936C542.565 220.711 543.319 221.339 544.248 221.339Z" fill="white"/>
<path d="M391.007 247.929C399.183 245.659 408.29 248.092 414.608 253.664C418.018 256.691 420.519 260.605 421.835 264.97C423.449 270.166 423.715 275.647 423.884 281.048C424.071 287.019 424.234 292.992 424.407 298.964C424.573 304.658 424.593 310.379 424.973 316.064C425.292 320.834 426.055 325.786 428.608 329.924C430.975 333.76 434.714 336.35 438.94 337.777C443.223 339.224 447.841 339.561 452.334 339.531C457.563 339.515 462.783 339.102 467.95 338.295C477.763 336.723 487.456 332.713 493.449 324.441C496.209 320.684 497.76 316.177 497.895 311.518C498.022 306.089 496.287 300.83 494.387 295.815C492.538 290.935 490.538 286.127 489.368 281.025C488.281 276.25 487.763 271.364 487.825 266.467C487.925 256.671 490.273 247.028 494.688 238.283C496.922 233.791 499.756 229.623 503.113 225.895C506.575 222.128 510.861 219.019 515.958 217.999C518.445 217.484 521.021 217.588 523.46 218.301C524.5 218.613 524.944 216.988 523.907 216.678C518.858 215.166 513.372 216.315 508.895 218.94C504.493 221.52 501.014 225.391 498.062 229.495C492.39 237.541 488.613 246.768 487.017 256.483C485.42 266.198 486.044 276.148 488.843 285.587C491.839 295.401 498.355 305.617 495.556 316.238C493.105 325.535 484.617 331.853 475.849 334.707C470.53 336.438 464.952 337.171 459.389 337.55C454.688 337.87 449.923 338.074 445.235 337.469C440.93 336.914 436.501 335.598 433.162 332.708C429.503 329.54 427.831 324.988 427.103 320.316C426.279 315.03 426.4 309.579 426.245 304.245L425.714 286.039C425.415 275.757 425.673 264.361 418.983 255.84C416.308 252.52 412.912 249.854 409.052 248.045C405.191 246.235 400.969 245.33 396.707 245.397C394.628 245.445 392.563 245.75 390.559 246.305C390.351 246.371 390.176 246.514 390.071 246.706C389.967 246.898 389.941 247.123 389.999 247.333C390.057 247.544 390.194 247.723 390.382 247.835C390.57 247.946 390.794 247.979 391.007 247.929H391.007Z" fill="white"/>
<path d="M271.496 237.279C272.688 245.758 277.197 253.418 284.033 258.574C290.869 263.731 299.472 265.963 307.953 264.78C316.434 263.597 324.098 259.095 329.261 252.265C334.425 245.434 336.665 236.833 335.491 228.351L335.427 227.893C334.06 219.525 329.459 212.031 322.616 207.025C315.773 202.019 307.237 199.904 298.849 201.136C290.461 202.367 282.893 206.847 277.778 213.608C272.662 220.37 270.41 228.871 271.506 237.278L271.496 237.279Z" fill="#FFB6B6"/>
<path d="M299.977 263.992C298.306 260.628 296.59 257.015 297.044 253.286C297.497 249.557 301.141 245.982 304.734 247.078C306.882 247.733 308.512 249.847 310.756 249.948C313.843 250.087 315.601 246.548 316.552 243.607L320.426 231.631C327.897 237.5 318.435 231.347 327.689 229.198C331.32 228.355 334.985 226.723 337.107 223.659C339.228 220.594 339.199 215.851 336.268 213.548C334.831 212.419 332.921 211.995 331.548 210.79C330.695 210.042 330.106 209.04 329.868 207.932C329.629 206.823 329.754 205.668 330.223 204.636C330.693 203.604 331.482 202.75 332.474 202.202C333.466 201.653 334.609 201.438 335.732 201.589L325.874 200.391L328.793 195.071C326.683 196.746 323.739 196.98 321.087 196.511C318.434 196.043 315.934 194.96 313.338 194.241C300.876 190.788 286.426 196.912 280.241 208.269C277.814 207.467 275.2 207.422 272.747 208.14C270.293 208.857 268.115 210.303 266.502 212.286C263.875 215.643 263.173 220.113 263.085 224.374C262.921 232.776 264.781 241.095 268.507 248.627C269.669 250.968 271.041 253.264 273.015 254.977C274.989 256.689 297.298 266.175 299.872 265.727" fill="#2F2E41"/>
<path d="M533.025 241.822C533.03 243.278 532.843 244.729 532.47 246.137V246.143C532.464 246.171 532.453 246.199 532.447 246.227C531.314 250.396 528.609 253.326 525.45 253.326C522.307 253.326 519.614 250.419 518.463 246.283C518.385 245.997 518.317 245.71 518.255 245.413C518.177 245.082 518.115 244.74 518.065 244.386C518.02 244.106 517.986 243.819 517.958 243.528C517.919 243.123 517.891 242.719 517.885 242.299V242.293C517.874 242.136 517.874 241.979 517.874 241.822V241.681L517.88 241.676C517.88 240.964 517.927 240.254 518.02 239.549C518.059 239.251 518.104 238.965 518.16 238.679C518.227 238.331 518.3 237.989 518.39 237.652C518.463 237.355 518.547 237.068 518.637 236.782C518.761 236.401 518.895 236.03 519.047 235.677C519.142 235.447 519.243 235.222 519.344 235.003C520.725 232.164 522.947 230.318 525.45 230.318C528.912 230.318 531.83 233.847 532.734 238.662C532.745 238.735 532.762 238.808 532.767 238.881V238.887C532.94 239.855 533.027 240.838 533.025 241.822Z" fill="#E6E6E6"/>
<path d="M519.417 235.251C519.414 235.354 519.375 235.452 519.307 235.53C519.24 235.608 519.148 235.66 519.046 235.677C519.142 235.447 519.243 235.223 519.344 235.004C519.391 235.078 519.416 235.163 519.417 235.251Z" fill="#4141DB"/>
<path d="M526.051 234.739H521.113C520.872 234.739 520.677 234.935 520.677 235.176C520.677 235.417 520.872 235.612 521.113 235.612H526.051C526.292 235.612 526.487 235.417 526.487 235.176C526.487 234.935 526.292 234.739 526.051 234.739Z" fill="#4141DB"/>
<path d="M519.265 237.214C519.265 237.33 519.219 237.442 519.136 237.524C519.054 237.606 518.943 237.652 518.827 237.652H518.389C518.462 237.355 518.547 237.068 518.636 236.782H518.827C518.942 236.782 519.053 236.827 519.135 236.908C519.217 236.989 519.263 237.099 519.265 237.214Z" fill="#4141DB"/>
<path d="M521.404 236.781H520.61C520.369 236.781 520.174 236.977 520.174 237.218C520.174 237.458 520.369 237.654 520.61 237.654H521.404C521.645 237.654 521.84 237.458 521.84 237.218C521.84 236.977 521.645 236.781 521.404 236.781Z" fill="#4141DB"/>
<path d="M528.474 236.709H523.536C523.295 236.709 523.1 236.904 523.1 237.145C523.1 237.386 523.295 237.581 523.536 237.581H528.474C528.715 237.581 528.911 237.386 528.911 237.145C528.911 236.904 528.715 236.709 528.474 236.709Z" fill="#4141DB"/>
<path d="M521.253 238.75H520.458C520.217 238.75 520.022 238.945 520.022 239.186C520.022 239.427 520.217 239.622 520.458 239.622H521.253C521.494 239.622 521.689 239.427 521.689 239.186C521.689 238.945 521.494 238.75 521.253 238.75Z" fill="#4141DB"/>
<path d="M523.828 238.75H523.033C522.792 238.75 522.597 238.945 522.597 239.186C522.597 239.427 522.792 239.622 523.033 239.622H523.828C524.069 239.622 524.264 239.427 524.264 239.186C524.264 238.945 524.069 238.75 523.828 238.75Z" fill="#4141DB"/>
<path d="M519.22 239.111C519.22 239.227 519.174 239.339 519.092 239.421C519.01 239.503 518.899 239.549 518.783 239.549H518.02C518.059 239.252 518.104 238.966 518.16 238.679H518.783C518.84 238.679 518.897 238.69 518.95 238.711C519.003 238.732 519.051 238.764 519.091 238.804C519.132 238.844 519.164 238.892 519.187 238.945C519.209 238.998 519.22 239.054 519.22 239.111Z" fill="#4141DB"/>
<path d="M530.897 238.678H525.959C525.718 238.678 525.523 238.873 525.523 239.114C525.523 239.355 525.718 239.55 525.959 239.55H530.897C531.138 239.55 531.333 239.355 531.333 239.114C531.333 238.873 531.138 238.678 530.897 238.678Z" fill="#4141DB"/>
<path d="M519.417 241.985C519.417 242.042 519.405 242.099 519.383 242.151C519.361 242.204 519.329 242.252 519.288 242.292C519.247 242.332 519.199 242.364 519.146 242.385C519.093 242.407 519.037 242.418 518.979 242.417H518.188C518.076 242.417 517.968 242.375 517.885 242.299V242.294C517.874 242.136 517.874 241.979 517.874 241.822V241.682L517.88 241.676C517.92 241.635 517.968 241.603 518.021 241.581C518.074 241.558 518.131 241.547 518.188 241.547H518.979C519.095 241.547 519.207 241.593 519.289 241.676C519.371 241.758 519.417 241.869 519.417 241.985Z" fill="#CCCCCC"/>
<path d="M526.051 241.474H521.113C520.872 241.474 520.677 241.669 520.677 241.91C520.677 242.151 520.872 242.346 521.113 242.346H526.051C526.292 242.346 526.487 242.151 526.487 241.91C526.487 241.669 526.292 241.474 526.051 241.474Z" fill="#CCCCCC"/>
<path d="M519.265 243.95C519.265 244.066 519.219 244.177 519.137 244.259C519.055 244.341 518.943 244.387 518.827 244.387H518.064C518.019 244.107 517.986 243.821 517.958 243.529C517.983 243.52 518.01 243.516 518.036 243.518H518.827C518.943 243.517 519.053 243.563 519.135 243.644C519.217 243.724 519.264 243.834 519.265 243.95Z" fill="#CCCCCC"/>
<path d="M521.404 243.515H520.61C520.369 243.515 520.174 243.711 520.174 243.952C520.174 244.192 520.369 244.388 520.61 244.388H521.404C521.645 244.388 521.84 244.192 521.84 243.952C521.84 243.711 521.645 243.515 521.404 243.515Z" fill="#CCCCCC"/>
<path d="M528.474 243.443H523.536C523.295 243.443 523.1 243.638 523.1 243.879C523.1 244.12 523.295 244.315 523.536 244.315H528.474C528.715 244.315 528.911 244.12 528.911 243.879C528.911 243.638 528.715 243.443 528.474 243.443Z" fill="#CCCCCC"/>
<path d="M521.253 245.484H520.458C520.217 245.484 520.022 245.679 520.022 245.92C520.022 246.161 520.217 246.356 520.458 246.356H521.253C521.494 246.356 521.689 246.161 521.689 245.92C521.689 245.679 521.494 245.484 521.253 245.484Z" fill="#CCCCCC"/>
<path d="M523.828 245.484H523.033C522.792 245.484 522.597 245.679 522.597 245.92C522.597 246.161 522.792 246.356 523.033 246.356H523.828C524.069 246.356 524.264 246.161 524.264 245.92C524.264 245.679 524.069 245.484 523.828 245.484Z" fill="#CCCCCC"/>
<path d="M519.22 245.845C519.22 245.962 519.174 246.073 519.092 246.155C519.009 246.237 518.898 246.283 518.782 246.283H518.462C518.384 245.997 518.316 245.711 518.255 245.413H518.782C518.839 245.413 518.896 245.424 518.949 245.445C519.002 245.466 519.05 245.498 519.091 245.538C519.132 245.579 519.164 245.626 519.186 245.679C519.208 245.732 519.22 245.788 519.22 245.845Z" fill="#CCCCCC"/>
<path d="M530.897 245.412H525.959C525.718 245.412 525.523 245.607 525.523 245.848C525.523 246.089 525.718 246.284 525.959 246.284H530.897C531.138 246.284 531.333 246.089 531.333 245.848C531.333 245.607 531.138 245.412 530.897 245.412Z" fill="#CCCCCC"/>
</g>
<defs>
<clipPath id="clip0_208_18816">
<rect width="414.603" height="323.385" fill="white" transform="translate(184.535 74.2086)"/>
</clipPath>
</defs>
</svg>
