<svg width="10" height="6" viewBox="0 0 10 6" fill="none" xmlns="http://www.w3.org/2000/svg">
<path d="M5.95217 5.0884C5.82993 5.00719 5.77125 4.90905 5.77614 4.794C5.78144 4.67894 5.84521 4.58081 5.96745 4.49959L7.69407 3.35243H0.87926C0.706088 3.35243 0.560828 3.31345 0.443479 3.23548C0.326537 3.15779 0.268066 3.06141 0.268066 2.94636C0.268066 2.83131 0.326537 2.73479 0.443479 2.65683C0.560828 2.57913 0.706088 2.54029 0.87926 2.54029H7.69407L5.95217 1.38297C5.82993 1.30176 5.76881 1.20525 5.76881 1.09344C5.76881 0.981907 5.82993 0.885532 5.95217 0.804317C6.0744 0.723102 6.21966 0.682495 6.38795 0.682495C6.55582 0.682495 6.70088 0.723102 6.82312 0.804317L9.61933 2.66211C9.68045 2.70272 9.72384 2.74671 9.74951 2.79408C9.77477 2.84146 9.78741 2.89222 9.78741 2.94636C9.78741 3.0005 9.77477 3.05126 9.74951 3.09864C9.72384 3.14601 9.68045 3.19 9.61933 3.23061L6.80784 5.09855C6.69578 5.173 6.55582 5.21023 6.38795 5.21023C6.21966 5.21023 6.0744 5.16962 5.95217 5.0884Z" fill="white"/>
</svg>
