<svg width="1334" height="471" viewBox="0 0 1334 471" fill="none" xmlns="http://www.w3.org/2000/svg">
<path d="M912.056 28.5139C911.934 28.4082 911.875 28.2806 911.88 28.131C911.885 27.9813 911.949 27.8537 912.071 27.7481L913.797 26.2561H906.987C906.814 26.2561 906.669 26.2054 906.551 26.104C906.434 26.003 906.376 25.8776 906.376 25.728C906.376 25.5783 906.434 25.4528 906.551 25.3514C906.669 25.2504 906.814 25.1998 906.987 25.1998H913.797L912.056 23.6947C911.934 23.589 911.873 23.4635 911.873 23.3181C911.873 23.173 911.934 23.0477 912.056 22.9421C912.178 22.8364 912.323 22.7836 912.491 22.7836C912.659 22.7836 912.804 22.8364 912.926 22.9421L915.72 25.3583C915.781 25.4111 915.825 25.4683 915.851 25.5299C915.876 25.5915 915.888 25.6576 915.888 25.728C915.888 25.7984 915.876 25.8644 915.851 25.926C915.825 25.9876 915.781 26.0449 915.72 26.0977L912.911 28.5271C912.799 28.6239 912.659 28.6723 912.491 28.6723C912.323 28.6723 912.178 28.6195 912.056 28.5139Z" fill="white"/>
<path d="M720.09 470.475L566.8 0.610121L0.513702 0.61017L0.513743 470.475L720.09 470.475Z" fill="#000066" stroke="black" stroke-width="0.610746"/>
<g clip-path="url(#clip0_208_18828)">
<path d="M383.523 142.986H381.75V94.4016C381.75 86.9439 378.787 79.7916 373.514 74.5182C368.24 69.2447 361.088 66.2822 353.63 66.2822H250.7C243.242 66.2822 236.09 69.2447 230.817 74.5182C225.543 79.7916 222.581 86.9439 222.581 94.4016V360.939C222.581 368.396 225.543 375.549 230.817 380.822C236.09 386.095 243.242 389.058 250.7 389.058H353.632C361.09 389.058 368.242 386.095 373.516 380.822C378.789 375.549 381.752 368.396 381.752 360.939V177.569H383.523V142.986Z" fill="#3F3D56"/>
<path d="M376.018 92.5195V362.821C376.017 368.475 373.771 373.898 369.774 377.897C365.776 381.895 360.354 384.143 354.7 384.145H249.652C243.996 384.145 238.57 381.899 234.57 377.899C230.569 373.9 228.321 368.475 228.32 362.819V92.5195C228.322 86.8633 230.57 81.4393 234.571 77.4406C238.571 73.4418 243.996 71.1958 249.652 71.1964H262.395C261.769 72.7351 261.531 74.4039 261.701 76.0562C261.872 77.7084 262.445 79.2936 263.372 80.6722C264.298 82.0509 265.549 83.1809 267.015 83.9628C268.48 84.7448 270.115 85.1549 271.776 85.1569H331.664C333.325 85.1547 334.961 84.7444 336.426 83.9622C337.891 83.18 339.142 82.0498 340.068 80.6709C340.995 79.292 341.568 77.7067 341.738 76.0544C341.908 74.402 341.67 72.7332 341.044 71.1945H354.693C360.348 71.1955 365.77 73.4418 369.768 77.4395C373.767 81.4372 376.014 86.8592 376.016 92.5134L376.018 92.5195Z" fill="#E6E6E6"/>
<path d="M364.826 370.036H239.514C238.444 370.035 237.418 369.609 236.662 368.853C235.906 368.097 235.48 367.071 235.479 366.001V102.56C235.48 101.49 235.906 100.465 236.662 99.7081C237.418 98.9517 238.444 98.5263 239.514 98.5251H364.826C365.896 98.5263 366.922 98.9517 367.678 99.7081C368.434 100.465 368.86 101.49 368.861 102.56V366.001C368.86 367.071 368.434 368.097 367.678 368.853C366.922 369.609 365.896 370.035 364.826 370.036Z" fill="white"/>
<path d="M301.695 187.468C320.763 187.468 336.22 172.011 336.22 152.943C336.22 133.875 320.763 118.417 301.695 118.417C282.627 118.417 267.169 133.875 267.169 152.943C267.169 172.011 282.627 187.468 301.695 187.468Z" fill="#E6E6E6"/>
<path d="M301.221 182.794C317.707 182.794 331.072 169.429 331.072 152.943C331.072 136.456 317.707 123.091 301.221 123.091C284.734 123.091 271.369 136.456 271.369 152.943C271.369 169.429 284.734 182.794 301.221 182.794Z" fill="white"/>
<path d="M301.885 136.011C298.519 136.011 295.228 137.01 292.429 138.88C289.63 140.75 287.449 143.408 286.161 146.518C284.872 149.628 284.535 153.05 285.192 156.352C285.849 159.653 287.47 162.686 289.85 165.066C292.23 167.446 295.263 169.067 298.564 169.724C301.866 170.381 305.288 170.044 308.398 168.755C311.508 167.467 314.166 165.286 316.036 162.487C317.906 159.688 318.905 156.397 318.905 153.031C318.905 148.517 317.111 144.188 313.92 140.996C310.728 137.805 306.399 136.011 301.885 136.011ZM301.885 141.117C302.895 141.117 303.882 141.417 304.722 141.978C305.561 142.539 306.216 143.337 306.602 144.27C306.989 145.203 307.09 146.229 306.893 147.22C306.696 148.21 306.209 149.12 305.495 149.834C304.781 150.548 303.871 151.034 302.881 151.231C301.89 151.428 300.864 151.327 299.931 150.941C298.998 150.554 298.2 149.9 297.639 149.06C297.078 148.221 296.779 147.233 296.779 146.224C296.779 145.553 296.911 144.889 297.167 144.27C297.424 143.65 297.8 143.087 298.274 142.613C298.748 142.139 299.311 141.763 299.931 141.506C300.55 141.25 301.214 141.117 301.885 141.117ZM301.885 165.698C299.868 165.689 297.883 165.187 296.104 164.238C294.324 163.288 292.803 161.919 291.673 160.248C291.754 156.844 298.48 154.97 301.885 154.97C305.289 154.97 312.015 156.844 312.097 160.248C310.965 161.918 309.444 163.286 307.665 164.236C305.886 165.186 303.902 165.688 301.885 165.699V165.698Z" fill="#4141DB"/>
<path d="M330.188 199.071H270.457V203.56H330.188V199.071Z" fill="#E6E6E6"/>
<path d="M337.638 210.737H262.465V215.226H337.638V210.737Z" fill="#E6E6E6"/>
<path d="M355.118 244.247H249.222V350.143H355.118V244.247Z" fill="#E6E6E6"/>
<path d="M352.321 246.487H250.905V347.902H352.321V246.487Z" fill="white"/>
<path d="M311.268 256.276H271.79V259.243H311.268V256.276Z" fill="#E6E6E6"/>
<path d="M332.752 264.988H271.79V267.955H332.752V264.988Z" fill="#4141DB"/>
<path d="M322.106 273.284H272.424V276.251H322.106V273.284Z" fill="#E6E6E6"/>
<path d="M300.794 282.386H271.79V285.353H300.794V282.386Z" fill="#E6E6E6"/>
<path d="M315.564 291.277H271.79V294.244H315.564V291.277Z" fill="#4141DB"/>
<path d="M311.268 300.223H271.79V303.191H311.268V300.223Z" fill="#E6E6E6"/>
<path d="M332.752 308.934H271.79V311.901H332.752V308.934Z" fill="#4141DB"/>
<path d="M322.106 317.23H272.424V320.197H322.106V317.23Z" fill="#E6E6E6"/>
<path d="M300.794 326.333H271.79V329.3H300.794V326.333Z" fill="#E6E6E6"/>
<path d="M315.564 335.223H271.79V338.191H315.564V335.223Z" fill="#E6E6E6"/>
<path d="M449.01 296.51C448.727 297.005 448.35 297.438 447.9 297.786C447.45 298.135 446.936 298.391 446.387 298.541C445.838 298.69 445.265 298.73 444.7 298.658C444.136 298.586 443.591 298.404 443.097 298.122C442.603 297.839 442.169 297.462 441.821 297.012C441.472 296.562 441.216 296.048 441.066 295.499C440.917 294.949 440.877 294.376 440.949 293.812C441.021 293.247 441.203 292.702 441.486 292.208C441.495 292.191 441.505 292.175 441.515 292.158C441.636 291.955 441.773 291.761 441.923 291.579L438.278 265.595L438.168 264.817L437.428 259.515L437.319 258.75L437.722 258.769L444.785 259.092L446.679 259.178L446.917 264.015L448.26 291.208C448.962 291.88 449.417 292.768 449.553 293.73C449.689 294.691 449.498 295.671 449.01 296.51Z" fill="#FFB8B8"/>
<path d="M438.19 265.052L447.159 264.229C447.624 264.185 448.053 263.959 448.352 263.6C448.651 263.241 448.796 262.778 448.756 262.313L447.094 243.662C447.015 242.773 446.761 241.908 446.348 241.116C445.934 240.325 445.368 239.623 444.683 239.05C443.998 238.477 443.207 238.045 442.355 237.778C441.502 237.511 440.606 237.414 439.717 237.494C438.827 237.573 437.962 237.827 437.171 238.241C436.379 238.655 435.677 239.22 435.104 239.905C434.532 240.59 434.099 241.382 433.832 242.234C433.565 243.086 433.469 243.982 433.548 244.872C433.56 245 433.575 245.128 433.593 245.256L436.283 263.55C436.345 263.969 436.555 264.352 436.875 264.629C437.196 264.906 437.605 265.059 438.029 265.059C438.083 265.06 438.137 265.058 438.19 265.052Z" fill="#4141DB"/>
<path d="M444.988 249.984C445.895 247.415 445.937 244.619 445.108 242.023C444.278 239.428 442.623 237.175 440.394 235.607C437.012 233.293 432.384 232.463 427.4 238.396C417.432 250.263 414.821 263.316 414.821 263.316L435.232 266.639C435.232 266.639 442.173 258.154 444.988 249.984Z" fill="#4141DB"/>
<path d="M411.976 383.654H406.156L403.388 361.208H411.977L411.976 383.654Z" fill="#FFB8B8"/>
<path d="M394.935 389.057H413.225V381.991H402.002C400.128 381.991 398.33 382.735 397.005 384.061C395.68 385.386 394.935 387.183 394.935 389.057Z" fill="#2F2E41"/>
<path d="M459.82 378.579L454.295 380.405L444.621 359.962L452.776 357.267L459.82 378.579Z" fill="#FFB8B8"/>
<path d="M445.335 389.058L462.7 383.318L460.483 376.608L449.827 380.131C448.946 380.422 448.131 380.884 447.428 381.49C446.725 382.096 446.149 382.835 445.732 383.664C445.315 384.493 445.065 385.396 444.997 386.321C444.929 387.247 445.044 388.176 445.335 389.058Z" fill="#2F2E41"/>
<path d="M432.175 229.722C438.614 229.722 443.834 224.502 443.834 218.063C443.834 211.625 438.614 206.405 432.175 206.405C425.737 206.405 420.517 211.625 420.517 218.063C420.517 224.502 425.737 229.722 432.175 229.722Z" fill="#FFB8B8"/>
<path d="M421.968 377.405L427.372 341.736C427.43 341.355 427.618 341.006 427.904 340.749C428.191 340.492 428.557 340.342 428.942 340.325C429.327 340.308 429.705 340.426 430.013 340.657C430.321 340.888 430.538 341.219 430.629 341.594L438.859 375.586C438.989 376.106 439.308 376.56 439.755 376.857C440.202 377.154 440.744 377.274 441.274 377.192L463.975 373.544C464.276 373.496 464.563 373.383 464.817 373.215C465.072 373.046 465.287 372.825 465.448 372.567C465.61 372.308 465.714 372.018 465.754 371.716C465.794 371.414 465.769 371.106 465.681 370.815L436.08 273.223C435.996 272.945 435.986 272.651 436.051 272.368L437.036 268.096C437.145 267.633 437.095 267.147 436.894 266.716C436.694 266.284 436.355 265.932 435.932 265.716C431.901 263.659 421.692 259.384 413.987 264.067C413.737 264.22 413.521 264.422 413.351 264.66C413.181 264.899 413.062 265.17 413 265.456L389.876 374.142C389.813 374.437 389.814 374.743 389.878 375.038C389.942 375.333 390.068 375.612 390.247 375.855C390.427 376.098 390.656 376.3 390.919 376.448C391.182 376.596 391.474 376.687 391.775 376.714L419.665 379.212C419.729 379.217 419.792 379.22 419.855 379.22C420.366 379.219 420.859 379.036 421.247 378.703C421.634 378.37 421.889 377.909 421.966 377.404L421.968 377.405Z" fill="#2F2E41"/>
<path d="M439.906 209.827C439.027 209.298 438.247 208.62 437.601 207.824C437.282 207.421 437.072 206.943 436.992 206.436C436.911 205.929 436.962 205.41 437.141 204.928C437.73 203.629 439.48 203.219 440.836 203.66C442.193 204.101 443.241 205.166 444.232 206.192C445.105 207.094 446.003 208.039 446.415 209.225C446.828 210.412 446.616 211.916 445.586 212.636C444.575 213.342 443.122 213.053 442.15 212.295C441.178 211.536 440.576 210.41 440.002 209.318L439.906 209.827Z" fill="#2F2E41"/>
<path d="M443.854 206.505C443.919 203.22 447.663 200.864 450.897 201.447C454.131 202.029 456.616 204.786 457.86 207.827C460.489 214.251 458.516 221.582 455.983 228.048C453.45 234.513 450.316 241.072 450.685 248.004C450.935 251.751 452.193 255.36 454.324 258.452C456.456 261.543 459.383 264.001 462.796 265.567C459.147 267.221 454.785 265.512 451.718 262.933C444.908 257.206 442.279 247.01 445.471 238.704C447.046 234.607 449.82 231.102 451.987 227.286C454.153 223.469 455.743 218.97 454.624 214.726C453.505 210.482 448.745 207.047 444.676 208.689L443.854 206.505Z" fill="#2F2E41"/>
<path d="M431.476 223.237C432.492 221.519 433.517 219.264 431.66 217.763C431.256 217.452 430.794 217.224 430.301 217.093C429.808 216.963 429.293 216.932 428.788 217.004C426.694 217.256 424.413 217.36 422.386 216.599C421.626 216.338 420.926 215.926 420.327 215.388C419.729 214.851 419.245 214.199 418.904 213.471C417.86 210.991 419.168 207.978 421.356 206.41C422.694 205.486 424.276 204.978 425.902 204.949C427.528 204.92 429.127 205.372 430.497 206.249C433.331 204.997 436.769 205.554 439.343 207.277C441.918 209 443.68 211.759 444.636 214.705C445.518 217.241 445.67 219.974 445.075 222.592C444.596 224.413 443.685 226.092 442.419 227.487C441.154 228.882 439.571 229.951 437.805 230.604C437.117 230.875 436.369 230.961 435.638 230.853C434.906 230.744 434.216 230.446 433.636 229.987C433.636 229.987 432.029 228.584 431.527 226.895C431.14 225.596 430.933 224.154 431.476 223.237Z" fill="#2F2E41"/>
<path d="M396.891 233.64C396.949 233.896 396.987 234.156 397.004 234.418L417.395 246.181L422.351 243.328L427.634 250.245L419.351 256.149C418.682 256.626 417.876 256.873 417.054 256.853C416.233 256.833 415.44 256.547 414.794 256.038L393.766 239.45C392.817 239.802 391.783 239.856 390.803 239.606C389.822 239.355 388.941 238.812 388.276 238.049C387.611 237.285 387.195 236.338 387.082 235.332C386.969 234.326 387.166 233.309 387.645 232.418C388.124 231.526 388.863 230.801 389.764 230.34C390.665 229.879 391.685 229.703 392.688 229.835C393.692 229.968 394.631 230.403 395.381 231.083C396.132 231.762 396.657 232.654 396.888 233.64H396.891Z" fill="#FFB8B8"/>
<path d="M418.077 246.739L424.667 255.28C424.855 255.523 425.092 255.722 425.364 255.865C425.635 256.007 425.934 256.09 426.24 256.107C426.547 256.124 426.853 256.074 427.138 255.962C427.424 255.85 427.682 255.678 427.895 255.457L435.355 247.71C436.618 246.77 437.455 245.368 437.683 243.811C437.912 242.254 437.512 240.67 436.573 239.408C435.633 238.145 434.231 237.308 432.674 237.079C431.117 236.851 429.533 237.251 428.27 238.19C428.206 238.238 428.142 238.287 428.08 238.338L418.723 243.57C418.455 243.72 418.223 243.926 418.042 244.173C417.861 244.421 417.735 244.705 417.674 245.006C417.612 245.307 417.616 245.617 417.686 245.916C417.755 246.215 417.888 246.496 418.075 246.739L418.077 246.739Z" fill="#4141DB"/>
<path d="M178.891 267.096C178.658 267.203 178.434 267.327 178.221 267.47L156.931 258.383L156.172 252.775L147.665 252.723L148.168 265.586L176.268 273.019C176.327 273.214 176.398 273.405 176.481 273.592C176.887 274.459 177.54 275.186 178.359 275.683C179.177 276.18 180.124 276.424 181.081 276.384C182.037 276.345 182.961 276.023 183.736 275.461C184.51 274.898 185.101 274.119 185.434 273.221C185.767 272.323 185.828 271.347 185.608 270.416C185.389 269.484 184.899 268.637 184.199 267.983C183.5 267.329 182.624 266.896 181.679 266.738C180.735 266.581 179.765 266.706 178.891 267.098L178.891 267.096Z" fill="#A0616A"/>
<path d="M144.571 383.655H150.39L153.159 361.208H144.57L144.571 383.655Z" fill="#A0616A"/>
<path d="M154.547 381.992H143.324V389.056H161.614C161.614 387.182 160.869 385.384 159.544 384.059C158.219 382.734 156.421 381.99 154.547 381.99H154.547L154.547 381.992Z" fill="#2F2E41"/>
<path d="M121.938 382.011L127.729 382.58L132.685 360.514L124.138 359.674L121.938 382.011Z" fill="#A0616A"/>
<path d="M132.033 381.334L120.866 380.235L120.174 387.266L138.371 389.058C138.462 388.135 138.371 387.202 138.101 386.315C137.832 385.427 137.39 384.601 136.802 383.883C136.213 383.166 135.489 382.572 134.671 382.135C133.853 381.697 132.956 381.425 132.033 381.334L132.033 381.334Z" fill="#2F2E41"/>
<path d="M142.951 228.967C149.39 228.967 154.61 223.747 154.61 217.308C154.61 210.87 149.39 205.65 142.951 205.65C136.512 205.65 131.293 210.87 131.293 217.308C131.293 223.747 136.512 228.967 142.951 228.967Z" fill="#A0616A"/>
<path d="M151.691 379.115C152.191 379.117 152.676 378.941 153.06 378.62C153.443 378.298 153.701 377.852 153.787 377.359C156.797 360.642 166.645 305.969 166.88 304.453C166.885 304.418 166.888 304.383 166.888 304.348V300.271C166.888 300.123 166.842 299.978 166.755 299.857L165.455 298.036C165.393 297.948 165.312 297.876 165.218 297.824C165.124 297.773 165.019 297.744 164.912 297.739C157.496 297.392 133.211 296.372 132.038 297.838C130.86 299.31 131.279 303.775 131.373 304.654L131.369 304.746L120.458 374.523C120.373 375.079 120.51 375.647 120.84 376.103C121.17 376.559 121.667 376.867 122.222 376.96L129.036 378.083C129.544 378.164 130.064 378.061 130.501 377.791C130.939 377.522 131.266 377.104 131.421 376.614C133.529 369.88 140.596 347.224 143.046 338.457C143.061 338.402 143.096 338.354 143.144 338.323C143.193 338.292 143.25 338.279 143.307 338.287C143.364 338.295 143.416 338.323 143.453 338.367C143.491 338.41 143.512 338.466 143.511 338.523C143.389 346.88 143.093 368.201 142.989 375.565L142.978 376.358C142.974 376.895 143.171 377.414 143.53 377.813C143.89 378.211 144.386 378.461 144.921 378.511L151.492 379.106C151.558 379.113 151.625 379.116 151.691 379.115Z" fill="#2F2E41"/>
<path d="M150.35 233.551C152.384 234.76 153.602 236.983 154.301 239.247C155.594 243.434 156.373 247.763 156.619 252.138L157.358 265.239L166.497 299.971C158.576 306.674 154.006 305.15 143.342 299.668C132.679 294.185 131.461 301.496 131.461 301.496L129.328 271.944L126.282 239.651C126.966 238.827 127.74 238.083 128.59 237.432C131.406 235.242 134.682 233.72 138.172 232.98C141.661 232.24 145.273 232.301 148.736 233.16L150.35 233.551Z" fill="#E6E6E6"/>
<path d="M153.319 274.109C153.073 274.201 152.835 274.312 152.607 274.441L131.555 263.904L131.206 258.195L122.522 257.597L122.057 270.609L150.189 279.912C150.418 280.898 150.942 281.791 151.692 282.471C152.441 283.152 153.379 283.588 154.383 283.722C155.386 283.856 156.406 283.682 157.308 283.222C158.209 282.762 158.95 282.038 159.43 281.147C159.91 280.256 160.108 279.24 159.996 278.234C159.885 277.228 159.47 276.279 158.806 275.515C158.143 274.751 157.262 274.207 156.282 273.955C155.302 273.703 154.268 273.756 153.318 274.106L153.319 274.109Z" fill="#A0616A"/>
<path d="M126.434 239.797C121.255 241.625 120.342 261.429 120.342 261.429C126.436 258.078 133.748 263.562 133.748 263.562C133.748 263.562 135.271 258.382 137.099 251.68C137.651 249.795 137.717 247.8 137.291 245.883C136.865 243.965 135.96 242.186 134.662 240.712C134.662 240.712 131.614 237.968 126.434 239.797Z" fill="#E6E6E6"/>
<path d="M132.5 220.392C133.952 219.23 135.934 221.341 135.934 221.341L137.096 210.884C137.096 210.884 144.358 211.754 149.007 210.593C153.656 209.433 154.382 214.806 154.382 214.806C154.621 212.635 154.67 210.448 154.527 208.269C154.237 205.655 150.46 203.04 143.778 201.297C137.096 199.554 133.61 207.107 133.61 207.107C128.959 209.431 131.045 221.554 132.5 220.392Z" fill="#2F2E41"/>
</g>
<defs>
<clipPath id="clip0_208_18828">
<rect width="345.598" height="322.776" fill="white" transform="translate(120.175 66.282)"/>
</clipPath>
</defs>
</svg>
