<svg width="870" height="550" viewBox="0 0 870 550" fill="none" xmlns="http://www.w3.org/2000/svg">
<path d="M787.038 27.3177V521.857C787.038 535.665 775.793 547.149 761.338 548.92C760.05 549.078 758.762 549.158 757.441 549.158H0.703796C15.0732 498.78 58.2672 457.434 99.5556 420.2C146.406 377.921 196.261 331.071 204.519 271.123C207.043 252.839 205.481 234.016 210.579 216.175C220.21 182.579 251.627 158.189 284.057 140.458C313.191 124.53 344.539 112.034 377.089 103.382C400.678 97.1188 425.863 92.437 444.833 78.075C467.735 60.7394 477.074 32.9012 492.354 9.49176C494.603 6.07526 496.989 2.91182 499.564 0.00146484H757.441C773.733 0.00146484 787.038 12.323 787.038 27.3177Z" fill="#000066"/>
<rect x="640.835" y="0.00146484" width="237.166" height="549.156" fill="#000066"/>
<g opacity="0.4">
<path d="M658.374 357.789C635.427 344.54 598.338 344.54 575.54 357.789C575.431 357.852 575.328 357.913 575.225 357.977C560.548 366.633 555.547 378.735 560.196 389.759C562.666 395.628 567.873 401.195 575.803 405.774C598.753 419.026 635.851 419.026 658.652 405.774C681.451 392.526 681.327 371.041 658.374 357.789Z" fill="white"/>
<path d="M669.059 351.581C640.216 334.927 593.441 334.927 564.783 351.581C564.014 352.029 563.263 352.48 562.54 352.94L564.005 353.524C564.659 353.109 565.334 352.704 566.03 352.301C593.998 336.047 639.671 336.047 667.824 352.301C695.984 368.558 696.135 395.014 668.163 411.268C640.186 427.525 594.516 427.525 566.357 411.268C556.029 405.305 549.464 397.968 546.685 390.264L544.914 390.328C547.735 398.277 554.476 405.844 565.122 411.988C593.971 428.645 640.752 428.642 669.414 411.988C698.072 395.334 697.915 368.241 669.065 351.584L669.059 351.581Z" fill="white"/>
<path d="M679.472 345.527C644.853 325.54 588.692 325.54 554.3 345.527C552.89 346.347 551.534 347.192 550.235 348.055L554.137 349.601C555.254 348.869 556.416 348.151 557.624 347.449C590.196 328.519 643.382 328.519 676.169 347.449C708.963 366.382 709.135 397.19 676.563 416.12C643.981 435.054 590.796 435.054 558.002 416.12C545.546 408.929 537.801 400.023 534.768 390.704L530.058 390.876C533.191 400.832 541.403 410.36 554.7 418.039C589.328 438.032 645.486 438.032 679.886 418.039C714.281 398.053 714.096 365.523 679.472 345.53V345.527Z" fill="white"/>
<path d="M700.781 333.144C654.334 306.328 579 306.328 532.852 333.144C486.698 359.965 486.943 403.601 533.391 430.419C552.938 441.707 577.599 448.242 603.046 450.027L602.801 444.201C579.993 442.427 557.954 436.473 540.407 426.342C497.855 401.776 497.631 361.796 539.914 337.224C582.187 312.658 651.207 312.658 693.759 337.224C721.328 353.142 731.135 375.52 723.132 395.991L732.567 397.965C741.79 375.442 731.171 350.694 700.778 333.147L700.781 333.144Z" fill="white"/>
<path d="M525.756 434.863C475.065 405.596 474.793 357.977 525.154 328.706C575.516 299.439 657.732 299.439 708.424 328.706C759.115 357.974 759.382 405.593 709.017 434.863C658.656 464.13 576.445 464.13 525.753 434.863H525.756ZM710.077 327.747C685.077 313.312 651.899 305.363 616.66 305.363C581.421 305.363 548.334 313.315 523.495 327.747C498.657 342.182 485.042 361.373 485.16 381.783C485.275 402.197 499.105 421.387 524.104 435.822C549.103 450.258 582.284 458.203 617.523 458.203C652.756 458.203 685.846 450.255 710.685 435.822C735.524 421.387 749.136 402.197 749.024 381.786C748.909 361.373 735.076 342.182 710.077 327.75V327.747Z" fill="white"/>
<path d="M785.102 347.452L781.064 348.149C799.032 377.44 793.011 410.575 762.951 437.188L766.326 438.58C785.317 421.869 795.454 402.282 795.336 381.78C795.269 369.906 791.764 358.334 785.105 347.452H785.102ZM736.396 305.294C703.451 287.998 661.205 278.536 616.513 278.536C568.903 278.536 524.198 289.275 490.645 308.775C457.083 328.28 438.691 354.208 438.852 381.783C439.003 409.362 457.691 435.29 491.465 454.789C525.246 474.292 570.068 485.031 617.678 485.028C646.185 485.031 673.645 481.181 698.3 473.901L696.244 471.788C631.021 490.909 549.043 484.68 494.356 453.109C426.236 413.781 425.875 349.786 493.557 310.455C559.18 272.319 665.04 271.159 733.505 306.977L736.399 305.294H736.396Z" fill="white"/>
<path d="M761.265 297.996C741.681 286.688 718.855 277.931 693.448 271.971C668.909 266.214 642.995 263.296 616.425 263.296C589.855 263.296 563.975 266.214 539.5 271.971C514.158 277.934 491.432 286.691 471.975 297.999C452.509 309.311 437.472 322.499 427.259 337.197C417.397 351.394 412.442 366.395 412.533 381.784C412.621 397.175 417.739 412.177 427.762 426.37C428.412 427.293 429.081 428.207 429.768 429.115L433.721 428.359C401.449 385.846 415.118 334.407 474.884 299.673C552.785 254.403 679.963 254.4 758.375 299.673C836.79 344.946 837.204 418.612 759.304 463.882C710.828 492.054 643.274 502.699 580.26 495.807L579.258 498.174C591.877 499.566 604.741 500.272 617.757 500.266C644.324 500.266 670.207 497.348 694.686 491.591C720.03 485.628 742.744 476.871 762.21 465.559C781.667 454.251 796.716 441.062 806.926 426.364C816.785 412.165 821.737 397.166 821.649 381.775C821.567 366.386 816.443 351.385 806.421 337.188C796.051 322.493 780.856 309.302 761.265 297.99V297.996Z" fill="white"/>
<path d="M774.411 290.356C753.038 278.015 728.138 268.459 700.412 261.957C684.948 258.328 668.975 255.734 652.651 254.19L652.944 254.968C697.101 259.203 739.504 271.159 773.584 290.837C860.444 340.987 860.904 422.586 774.616 472.73C688.323 522.879 547.448 522.879 460.588 472.73C373.737 422.586 373.277 340.987 459.571 290.837C469.923 284.823 481.068 279.529 492.806 274.958L492.531 274.216C480.462 278.905 469.172 284.296 458.741 290.356C437.502 302.7 421.078 317.089 409.945 333.132C399.184 348.621 393.781 364.993 393.872 381.783C393.966 398.574 399.559 414.943 410.493 430.435C421.81 446.474 438.388 460.867 459.761 473.205C481.14 485.549 506.04 495.101 533.769 501.609C560.551 507.89 588.825 511.074 617.817 511.077C646.806 511.077 675.047 507.89 701.759 501.609C729.41 495.104 754.206 485.549 775.446 473.205C796.68 460.864 813.097 446.471 824.233 430.435C834.991 414.943 840.4 398.571 840.306 381.783C840.209 364.99 834.622 348.621 823.686 333.132C812.368 317.089 795.79 302.7 774.408 290.356H774.411Z" fill="white"/>
</g>
<g clip-path="url(#clip0_275_501)">
<path d="M678.429 287.429H420.915C418.838 287.427 416.846 286.603 415.377 285.138C413.909 283.672 413.082 281.686 413.08 279.614V134.782H686.263V279.614C686.261 281.686 685.435 283.672 683.966 285.138C682.497 286.603 680.506 287.427 678.429 287.429Z" fill="#E6E6E6"/>
<path d="M668.181 272.47H431.163C430.092 272.469 429.067 272.045 428.31 271.29C427.553 270.535 427.128 269.512 427.127 268.445V153.766C427.128 152.699 427.553 151.675 428.31 150.921C429.067 150.166 430.092 149.741 431.163 149.74H668.181C669.251 149.741 670.277 150.166 671.033 150.921C671.79 151.675 672.215 152.699 672.217 153.766V268.445C672.215 269.512 671.79 270.535 671.033 271.29C670.277 272.045 669.251 272.469 668.181 272.47Z" fill="white"/>
<path d="M686.811 140.061H412.532V133.787C412.534 131.715 413.361 129.729 414.829 128.264C416.298 126.799 418.289 125.975 420.367 125.972H678.977C681.054 125.975 683.045 126.799 684.514 128.264C685.983 129.729 686.809 131.715 686.811 133.787V140.061Z" fill="#4141DB"/>
<path d="M487.227 228.562H445.041C443.971 228.561 442.945 228.136 442.188 227.381C441.432 226.627 441.006 225.603 441.005 224.536V196.874C441.006 195.806 441.432 194.783 442.188 194.028C442.945 193.274 443.971 192.849 445.041 192.848H487.227C488.297 192.849 489.322 193.274 490.079 194.028C490.836 194.783 491.261 195.806 491.263 196.874V224.536C491.261 225.603 490.836 226.627 490.079 227.381C489.322 228.136 488.297 228.561 487.227 228.562Z" fill="#E6E6E6"/>
<path d="M656.094 197.326H522.804C522.209 197.326 521.638 197.09 521.217 196.67C520.796 196.25 520.56 195.681 520.56 195.087C520.56 194.493 520.796 193.924 521.217 193.504C521.638 193.084 522.209 192.848 522.804 192.848H656.094C656.689 192.848 657.26 193.084 657.681 193.504C658.102 193.924 658.338 194.493 658.338 195.087C658.338 195.681 658.102 196.25 657.681 196.67C657.26 197.09 656.689 197.326 656.094 197.326Z" fill="#E6E6E6"/>
<path d="M656.094 213.344H522.804C522.209 213.344 521.638 213.108 521.217 212.688C520.796 212.269 520.56 211.699 520.56 211.105C520.56 210.511 520.796 209.942 521.217 209.522C521.638 209.102 522.209 208.866 522.804 208.866H656.094C656.689 208.866 657.26 209.102 657.681 209.522C658.102 209.942 658.338 210.511 658.338 211.105C658.338 211.699 658.102 212.269 657.681 212.688C657.26 213.108 656.689 213.344 656.094 213.344Z" fill="#E6E6E6"/>
<path d="M656.094 229.363H522.804C522.209 229.363 521.638 229.127 521.217 228.707C520.796 228.287 520.56 227.718 520.56 227.124C520.56 226.53 520.796 225.96 521.217 225.54C521.638 225.12 522.209 224.885 522.804 224.885H656.094C656.689 224.885 657.26 225.12 657.681 225.54C658.102 225.96 658.338 226.53 658.338 227.124C658.338 227.718 658.102 228.287 657.681 228.707C657.26 229.127 656.689 229.363 656.094 229.363Z" fill="#E6E6E6"/>
<path d="M611.742 389.451H605.921L603.151 367.054H611.743L611.742 389.451Z" fill="#A0616A"/>
<path d="M601.763 387.792H612.989V394.842H594.694C594.694 393.916 594.877 392.999 595.232 392.144C595.587 391.289 596.108 390.511 596.764 389.857C597.421 389.202 598.2 388.683 599.058 388.328C599.915 387.974 600.834 387.792 601.763 387.792Z" fill="#2F2E41"/>
<path d="M635.958 389.451H630.136L627.367 367.054H635.959L635.958 389.451Z" fill="#A0616A"/>
<path d="M625.978 387.792H637.205V394.842H618.91C618.91 393.916 619.093 392.999 619.448 392.144C619.803 391.289 620.324 390.511 620.98 389.857C621.637 389.202 622.416 388.683 623.273 388.328C624.131 387.974 625.05 387.792 625.978 387.792Z" fill="#2F2E41"/>
<path d="M635.216 384.303H629.291C628.755 384.3 628.241 384.098 627.847 383.737C627.453 383.375 627.209 382.88 627.161 382.348L622.14 322.01C622.125 321.835 622.046 321.671 621.917 321.551C621.788 321.43 621.619 321.362 621.443 321.359C621.266 321.356 621.095 321.418 620.962 321.534C620.829 321.649 620.744 321.81 620.723 321.985L613.511 382.424C613.449 382.942 613.198 383.419 612.807 383.765C612.416 384.112 611.912 384.303 611.389 384.303H604.113C603.549 384.302 603.007 384.079 602.607 383.682C602.207 383.285 601.981 382.746 601.977 382.183C601.961 378.387 601.935 374.563 601.909 370.738C601.678 336.675 601.44 301.452 608.57 287.653L608.635 287.527L634.367 287.088L634.432 287.229C642.217 304.199 639.854 342.11 637.569 378.771L637.349 382.304C637.314 382.845 637.075 383.353 636.679 383.724C636.283 384.095 635.76 384.302 635.216 384.303Z" fill="#2F2E41"/>
<path d="M623.026 241.736C629.467 241.736 634.688 236.528 634.688 230.103C634.688 223.679 629.467 218.471 623.026 218.471C616.585 218.471 611.364 223.679 611.364 230.103C611.364 236.528 616.585 241.736 623.026 241.736Z" fill="#A0616A"/>
<path d="M607.127 289.665L607.448 276.328L605.135 265.922C604.55 263.345 604.584 260.667 605.234 258.106C605.884 255.545 607.131 253.173 608.874 251.184C610.57 249.205 612.71 247.653 615.121 246.656C617.533 245.659 620.146 245.244 622.748 245.446H622.748C622.916 245.459 623.085 245.473 623.253 245.488C625.477 245.688 627.637 246.332 629.606 247.382C631.574 248.432 633.311 249.867 634.711 251.601C636.141 253.345 637.205 255.358 637.838 257.52C638.472 259.682 638.662 261.95 638.398 264.187L635.599 288.586L607.127 289.665Z" fill="#4141DB"/>
<path d="M597.22 313.569C597.77 313.14 598.22 312.597 598.537 311.976C598.853 311.356 599.03 310.674 599.054 309.978C599.078 309.282 598.948 308.589 598.675 307.949C598.401 307.308 597.99 306.735 597.471 306.27L604.037 290.664L595.371 292.287L590.464 306.858C589.739 307.781 589.378 308.936 589.45 310.106C589.522 311.276 590.021 312.38 590.854 313.207C591.687 314.034 592.795 314.528 593.968 314.594C595.142 314.661 596.299 314.296 597.22 313.569Z" fill="#A0616A"/>
<path d="M646.765 315.439C646.24 314.98 645.822 314.412 645.541 313.775C645.261 313.137 645.123 312.446 645.139 311.75C645.155 311.054 645.324 310.37 645.633 309.746C645.943 309.122 646.386 308.573 646.931 308.138L641.266 292.185L649.825 294.297L653.893 309.123C654.564 310.085 654.858 311.259 654.72 312.424C654.582 313.588 654.02 314.661 653.141 315.439C652.263 316.218 651.128 316.648 649.953 316.648C648.778 316.648 647.643 316.218 646.765 315.439Z" fill="#A0616A"/>
<path d="M598.263 305.921C597.962 305.921 597.664 305.858 597.389 305.735L592.394 303.503C591.913 303.289 591.529 302.906 591.315 302.426C591.101 301.947 591.072 301.405 591.233 300.905L599.613 274.942L602.851 255.382C602.966 254.687 603.22 254.022 603.598 253.427C603.976 252.832 604.47 252.319 605.051 251.918C605.632 251.517 606.288 251.237 606.979 251.094C607.671 250.951 608.384 250.949 609.077 251.087C609.769 251.224 610.427 251.5 611.011 251.896C611.594 252.292 612.092 252.802 612.475 253.394C612.857 253.987 613.116 254.649 613.236 255.344C613.356 256.038 613.335 256.749 613.174 257.435L608.253 278.412L600.307 304.412C600.173 304.849 599.903 305.231 599.535 305.503C599.167 305.775 598.721 305.922 598.263 305.921V305.921Z" fill="#4141DB"/>
<path d="M645.917 305.922C645.459 305.922 645.013 305.775 644.645 305.503C644.277 305.232 644.006 304.849 643.873 304.412L635.931 278.427L631.005 257.435C630.844 256.749 630.823 256.038 630.943 255.344C631.063 254.65 631.322 253.987 631.705 253.394C632.087 252.802 632.585 252.292 633.169 251.896C633.752 251.5 634.41 251.224 635.103 251.087C635.795 250.949 636.509 250.951 637.2 251.094C637.892 251.237 638.547 251.517 639.128 251.918C639.709 252.319 640.203 252.832 640.581 253.427C640.959 254.022 641.213 254.687 641.328 255.382L644.575 274.976L652.946 300.906C653.108 301.405 653.079 301.947 652.865 302.426C652.65 302.906 652.266 303.289 651.785 303.503L646.79 305.736C646.515 305.858 646.218 305.922 645.917 305.922Z" fill="#4141DB"/>
<path d="M623.266 217.245C620.025 215.845 615.791 217.587 614.483 220.86C613.669 222.897 613.917 225.194 614.366 227.34C614.815 229.487 615.455 231.629 615.386 233.821C615.317 236.012 614.371 238.338 612.422 239.352C611.257 239.958 609.895 240.025 608.632 240.387C607.37 240.748 606.067 241.593 605.885 242.89C605.61 244.853 607.997 246.348 607.981 248.33C607.964 250.43 605.333 251.677 604.992 253.75C604.933 254.356 605.03 254.968 605.273 255.527C605.517 256.086 605.898 256.575 606.383 256.946C607.36 257.678 608.47 258.214 609.651 258.525C618.743 261.424 628.424 261.974 637.787 260.124C639.648 259.754 641.562 259.253 643.008 258.028C644.454 256.802 645.28 254.657 644.449 252.956C643.204 250.406 639.249 250.26 637.87 247.779C637.043 246.291 637.424 244.463 637.598 242.77C638.048 238.399 639.085 233.291 637.996 229.033C637.012 225.186 634.876 220.214 631.824 217.666C629.633 215.838 625.451 216.671 622.651 217.235L623.266 217.245Z" fill="#2F2E41"/>
<path d="M700.562 384.703C693.715 393.849 679.503 394.812 679.503 394.812C679.503 394.812 676.391 380.946 683.238 371.8C690.085 362.654 704.297 361.691 704.297 361.691C704.297 361.691 707.409 375.557 700.562 384.703Z" fill="#E6E6E6"/>
<path d="M665.684 388.141C670.201 394.176 679.58 394.812 679.58 394.812C679.58 394.812 681.633 385.662 677.115 379.627C672.597 373.592 663.219 372.956 663.219 372.956C663.219 372.956 661.166 382.106 665.684 388.141Z" fill="#E6E6E6"/>
</g>
<defs>
<clipPath id="clip0_275_501">
<rect width="306.004" height="269.516" fill="white" transform="translate(412.532 125.972)"/>
</clipPath>
</defs>
</svg>
