<svg width="10" height="5" viewBox="0 0 10 5" fill="none" xmlns="http://www.w3.org/2000/svg">
<path d="M3.93272 0.198341C4.05496 0.279555 4.11364 0.37769 4.10875 0.492745C4.10345 0.607799 4.03968 0.705933 3.91744 0.787148L2.19082 1.93431L9.00563 1.93431C9.1788 1.93431 9.32406 1.97329 9.44141 2.05126C9.55835 2.12895 9.61682 2.22533 9.61682 2.34038C9.61682 2.45544 9.55835 2.55195 9.44141 2.62991C9.32406 2.70761 9.1788 2.74646 9.00563 2.74646L2.19082 2.74646L3.93272 3.90377C4.05496 3.98498 4.11608 4.08149 4.11608 4.1933C4.11608 4.30484 4.05496 4.40121 3.93272 4.48243C3.81048 4.56364 3.66522 4.60425 3.49694 4.60425C3.32907 4.60425 3.18401 4.56364 3.06177 4.48243L0.265561 2.62463C0.204442 2.58403 0.161047 2.54004 0.135377 2.49266C0.110114 2.44529 0.097483 2.39453 0.097483 2.34038C0.097483 2.28624 0.110114 2.23548 0.135377 2.1881C0.161047 2.14073 0.204442 2.09674 0.265561 2.05613L3.07705 0.188189C3.1891 0.113742 3.32907 0.0765177 3.49694 0.0765177C3.66522 0.0765177 3.81048 0.117126 3.93272 0.198341Z" fill="white"/>
</svg>
