<svg width="678" height="430" viewBox="0 0 678 430" fill="none" xmlns="http://www.w3.org/2000/svg">
<path d="M2.41287 392.804C5.38287 393.848 8.5717 394.109 11.6721 393.563C14.7725 393.017 17.6801 391.682 20.1146 389.686C26.3146 384.481 28.2588 375.91 29.8401 367.972L34.5184 344.491L24.724 351.235C17.68 356.085 10.4778 361.091 5.60101 368.116C0.724252 375.14 -1.40332 384.731 2.51385 392.332" fill="#E6E6E6"/>
<path d="M3.92536 422.865C2.6926 413.884 1.42422 404.787 2.29102 395.709C3.05917 387.647 5.51885 379.774 10.5264 373.316C13.1843 369.895 16.4186 366.965 20.0838 364.655C21.0393 364.052 21.9189 365.567 20.9675 366.167C14.6256 370.175 9.7203 376.093 6.95882 383.069C3.90902 390.825 3.41931 399.281 3.94463 407.521C4.26216 412.504 4.93692 417.455 5.61458 422.399C5.66809 422.623 5.63468 422.858 5.52113 423.058C5.40757 423.258 5.22234 423.407 5.00289 423.476C4.77901 423.536 4.54038 423.506 4.33877 423.391C4.13716 423.277 3.98883 423.088 3.92597 422.864L3.92536 422.865Z" fill="#F2F2F2"/>
<path d="M12.7991 408.455C14.0727 410.392 15.8235 411.967 17.8829 413.031C19.9423 414.094 22.2408 414.609 24.557 414.526C30.5107 414.243 35.4721 410.09 39.938 406.145L53.1499 394.48L44.4061 394.061C38.118 393.76 31.6676 393.478 25.6783 395.419C19.689 397.36 14.1655 402.025 13.0705 408.225" fill="#E6E6E6"/>
<path d="M0.440855 428.029C6.37586 417.528 13.2594 405.857 25.5601 402.126C28.9801 401.093 32.566 400.723 36.125 401.036C37.2469 401.132 36.9667 402.861 35.8472 402.765C29.8813 402.27 23.927 403.845 18.9866 407.226C14.2324 410.462 10.5306 414.961 7.39793 419.731C5.47874 422.654 3.75976 425.7 2.04077 428.742C1.49149 429.715 -0.114822 429.013 0.440855 428.029Z" fill="#F2F2F2"/>
<path d="M76.252 420.998H85.5334L89.9484 385.198L76.2505 385.199L76.252 420.998Z" fill="#FFB6B6"/>
<path d="M73.8848 417.968L92.1628 417.967H92.1636C95.2528 417.967 98.2155 419.195 100.4 421.379C102.584 423.563 103.812 426.526 103.812 429.615V429.994L73.8853 429.995L73.8848 417.968Z" fill="#2F2E41"/>
<path d="M120.161 420.998H129.442L133.857 385.198L120.159 385.199L120.161 420.998Z" fill="#FFB6B6"/>
<path d="M117.793 417.968L136.071 417.967H136.072C139.161 417.967 142.124 419.195 144.308 421.379C146.493 423.563 147.72 426.526 147.72 429.615V429.994L117.794 429.995L117.793 417.968Z" fill="#2F2E41"/>
<path d="M626.933 420.998H617.652L613.236 385.198L626.935 385.199L626.933 420.998Z" fill="#9E616A"/>
<path d="M629.301 429.995L599.374 429.994V429.615C599.374 426.526 600.602 423.563 602.786 421.379C604.97 419.195 607.933 417.967 611.022 417.967H611.023L629.301 417.968L629.301 429.995Z" fill="#2F2E41"/>
<path d="M593.623 420.998H584.342L579.927 385.198L593.625 385.199L593.623 420.998Z" fill="#9E616A"/>
<path d="M595.99 429.995L566.063 429.994V429.615C566.064 426.526 567.291 423.563 569.475 421.379C571.66 419.195 574.622 417.967 577.712 417.967H577.712L595.99 417.968L595.99 429.995Z" fill="#2F2E41"/>
<path d="M596.117 13.9399H105.276V246.852H596.117V13.9399Z" fill="#E6E6E6"/>
<path d="M582.082 33.9128H119.312V228.239H582.082V33.9128Z" fill="white"/>
<path d="M595.908 0.483643H105.068V21.336H595.908V0.483643Z" fill="#4141DB"/>
<path d="M120.563 13.993C122.698 13.993 124.428 12.2626 124.428 10.1281C124.428 7.99356 122.698 6.26318 120.563 6.26318C118.429 6.26318 116.698 7.99356 116.698 10.1281C116.698 12.2626 118.429 13.993 120.563 13.993Z" fill="white"/>
<path d="M135.233 13.993C137.368 13.993 139.098 12.2626 139.098 10.1281C139.098 7.99356 137.368 6.26318 135.233 6.26318C133.099 6.26318 131.368 7.99356 131.368 10.1281C131.368 12.2626 133.099 13.993 135.233 13.993Z" fill="white"/>
<path d="M149.904 13.993C152.038 13.993 153.769 12.2626 153.769 10.1281C153.769 7.99356 152.038 6.26318 149.904 6.26318C147.769 6.26318 146.039 7.99356 146.039 10.1281C146.039 12.2626 147.769 13.993 149.904 13.993Z" fill="white"/>
<path d="M228.61 182.771H462.499V142.684C462.463 138.456 461.584 134.279 459.912 130.396C458.24 126.514 455.81 123.004 452.763 120.074L452.7 120.012C448.522 115.82 434.561 105.183 420.117 106.085C412.486 106.56 405.954 110.237 400.701 117.014C384.349 138.119 362.87 130.995 351.522 124.87C341.521 119.471 331.307 116.937 321.163 117.341C306.955 117.896 286.958 123.13 272.374 144.91C266.804 153.222 254.691 164.505 228.61 171.136V182.771Z" fill="#E4E4E4"/>
<path d="M475.733 183.704H229.061C228.856 183.704 228.659 183.623 228.515 183.478C228.37 183.334 228.289 183.137 228.289 182.932V64.7024C228.289 64.4977 228.37 64.3013 228.515 64.1565C228.659 64.0118 228.856 63.9304 229.061 63.9304C229.265 63.9304 229.462 64.0118 229.606 64.1565C229.751 64.3013 229.833 64.4977 229.833 64.7024V182.16H475.733C475.938 182.16 476.134 182.242 476.279 182.387C476.424 182.531 476.505 182.728 476.505 182.932C476.505 183.137 476.424 183.334 476.279 183.478C476.134 183.623 475.938 183.704 475.733 183.704Z" fill="#3F3D56"/>
<path d="M275.981 138.239H274.467V182.618H275.981V138.239Z" fill="#3F3D56"/>
<path d="M321.31 117.512H319.796V182.618H321.31V117.512Z" fill="#3F3D56"/>
<path d="M366.733 131.139H365.219V182.618H366.733V131.139Z" fill="#3F3D56"/>
<path d="M412.155 106.156H410.641V182.618H412.155V106.156Z" fill="#3F3D56"/>
<path d="M457.578 123.568H456.064V182.617H457.578V123.568Z" fill="#3F3D56"/>
<path d="M320.647 123.187C323.205 123.187 325.279 121.113 325.279 118.555C325.279 115.997 323.205 113.923 320.647 113.923C318.089 113.923 316.015 115.997 316.015 118.555C316.015 121.113 318.089 123.187 320.647 123.187Z" fill="#4141DB"/>
<path d="M411.493 111.074C414.051 111.074 416.124 109 416.124 106.442C416.124 103.884 414.051 101.81 411.493 101.81C408.935 101.81 406.861 103.884 406.861 106.442C406.861 109 408.935 111.074 411.493 111.074Z" fill="#4141DB"/>
<path d="M366.07 136.057C368.628 136.057 370.702 133.983 370.702 131.425C370.702 128.867 368.628 126.793 366.07 126.793C363.512 126.793 361.438 128.867 361.438 131.425C361.438 133.983 363.512 136.057 366.07 136.057Z" fill="#4141DB"/>
<path d="M275.225 142.87C277.783 142.87 279.856 140.796 279.856 138.238C279.856 135.68 277.783 133.606 275.225 133.606C272.667 133.606 270.593 135.68 270.593 138.238C270.593 140.796 272.667 142.87 275.225 142.87Z" fill="#4141DB"/>
<path d="M456.916 127.729C459.474 127.729 461.547 125.656 461.547 123.098C461.547 120.54 459.474 118.466 456.916 118.466C454.357 118.466 452.284 120.54 452.284 123.098C452.284 125.656 454.357 127.729 456.916 127.729Z" fill="#4141DB"/>
<path d="M137.482 257.336C138.266 256.442 138.845 255.388 139.178 254.246C139.511 253.105 139.589 251.904 139.408 250.729C139.227 249.554 138.79 248.433 138.129 247.445C137.467 246.457 136.597 245.626 135.58 245.011L120.476 172.495L104.021 178.978L124.042 248.22C123.121 249.998 122.885 252.051 123.377 253.992C123.869 255.932 125.056 257.624 126.713 258.748C128.37 259.871 130.381 260.348 132.366 260.088C134.351 259.828 136.171 258.848 137.482 257.336V257.336Z" fill="#FFB6B6"/>
<path d="M66.2983 243.372L59.4573 250.316C59.4573 250.316 52.1228 277.193 66.1578 310.341L75.5451 406.448L92.4347 407.72L97.4767 295.908L120.741 333.022L116.677 407.322L135.347 406.893L143.784 324.563L120.741 238.651L66.2983 243.372Z" fill="#2F2E41"/>
<path d="M90.218 252.727C79.9168 252.655 69.6287 251.975 59.4075 250.691L58.9961 250.637L69.1909 205.831L65.6804 148.181L98.8295 147.046C101.83 146.937 104.766 147.94 107.072 149.863C109.378 151.787 110.893 154.494 111.325 157.465L118.109 203.46L124.385 244.266L124.301 244.389C119.791 251.002 104.712 252.727 90.218 252.727Z" fill="#4141DB"/>
<path d="M95.8135 156.581L102.549 148.138C102.549 148.138 114.356 140.063 118.093 157.366C121.83 174.669 128.773 202.758 128.773 202.758L105.685 204.628L95.8135 156.581Z" fill="#4141DB"/>
<path d="M31.988 258.093C31.2035 257.2 30.6245 256.145 30.2917 255.004C29.9589 253.862 29.8804 252.662 30.0617 251.487C30.243 250.312 30.6798 249.191 31.3412 248.203C32.0027 247.215 32.8727 246.384 33.89 245.769L48.994 173.252L65.4491 179.735L45.4281 248.978C46.3486 250.756 46.5851 252.809 46.0927 254.749C45.6004 256.689 44.4134 258.382 42.7567 259.505C41.1001 260.629 39.0888 261.106 37.1041 260.845C35.1193 260.585 33.299 259.606 31.988 258.093V258.093Z" fill="#FFB6B6"/>
<path d="M73.6564 157.338L66.9211 148.895C66.9211 148.895 55.1136 140.82 51.3767 158.123C47.6398 175.426 40.6968 203.515 40.6968 203.515L63.7851 205.385L73.6564 157.338Z" fill="#4141DB"/>
<path d="M102.041 138.614H58.1328C57.2296 138.613 56.3637 138.254 55.725 137.615C55.0863 136.977 54.7271 136.111 54.7261 135.208V116.282C54.7261 109.555 57.398 103.105 62.1541 98.3487C66.9102 93.5926 73.3609 90.9207 80.087 90.9207C86.8131 90.9207 93.2638 93.5926 98.0199 98.3487C102.776 103.105 105.448 109.555 105.448 116.282V135.208C105.447 136.111 105.088 136.977 104.449 137.615C103.81 138.254 102.944 138.613 102.041 138.614Z" fill="#2F2E41"/>
<path d="M84.9346 137.475C95.2036 137.475 103.528 129.15 103.528 118.881C103.528 108.612 95.2036 100.288 84.9346 100.288C74.6655 100.288 66.3408 108.612 66.3408 118.881C66.3408 129.15 74.6655 137.475 84.9346 137.475Z" fill="#FFB6B6"/>
<path d="M111.447 118.175H84.5983L84.3229 114.32L82.9464 118.175H78.8122L78.2666 110.535L75.5382 118.175H67.5388V117.796C67.5448 112.477 69.6603 107.378 73.4213 103.617C77.1822 99.856 82.2815 97.7404 87.6003 97.7344H91.3857C96.7045 97.7404 101.804 99.856 105.565 103.617C109.326 107.378 111.441 112.477 111.447 117.796V118.175Z" fill="#2F2E41"/>
<path d="M84.3789 142.148C84.1767 142.148 83.975 142.13 83.776 142.095L64.116 138.626V106.134H85.7579L85.222 106.759C77.7673 115.453 83.3836 129.551 87.3948 137.18C87.6905 137.739 87.8223 138.37 87.7752 139C87.728 139.631 87.5037 140.235 87.1281 140.744C86.8136 141.178 86.4005 141.533 85.9225 141.777C85.4446 142.021 84.9156 142.148 84.3789 142.148Z" fill="#2F2E41"/>
<path d="M485.529 170.147C486.271 171.167 487.227 172.012 488.331 172.623C489.434 173.233 490.658 173.594 491.917 173.681C493.175 173.767 494.437 173.576 495.614 173.122C496.79 172.668 497.853 171.961 498.727 171.051L517.092 178.223L524.172 168.126L498.095 158.362C496.47 156.995 494.4 156.272 492.277 156.329C490.154 156.387 488.126 157.221 486.577 158.673C485.029 160.126 484.066 162.096 483.873 164.211C483.68 166.326 484.269 168.438 485.529 170.147Z" fill="#9E616A"/>
<path d="M593.506 231.325L569.326 239.212L577.404 410.452L596.065 410.914L605.615 290.153L607.784 410.437L630.858 411.709L639.364 231.325H593.506Z" fill="#2F2E41"/>
<path d="M577.191 130.382L639.25 116.898L646.151 170.334L640.404 195.866L642.706 234.667C642.706 234.667 593.636 259.091 569.326 239.212C569.326 239.212 588.865 187.893 577.539 163.869L577.191 130.382Z" fill="#3F3D56"/>
<path d="M587.938 137.94L577.191 130.382C577.191 130.382 576.556 129.503 567.6 139.973C558.643 150.444 540.474 167.099 540.474 167.099L510.192 155.743L504.676 176.126L539.869 192.527L589.695 159.251L587.938 137.94Z" fill="#3F3D56"/>
<path d="M642.717 254.698C643.858 254.159 644.866 253.377 645.672 252.406C646.477 251.436 647.06 250.3 647.379 249.08C647.698 247.86 647.746 246.584 647.519 245.344C647.292 244.103 646.795 242.927 646.065 241.899L656.532 225.192L647.931 216.355L633.48 240.156C631.834 241.498 630.738 243.397 630.399 245.493C630.06 247.59 630.501 249.738 631.64 251.53C632.778 253.322 634.535 254.635 636.577 255.219C638.618 255.803 640.803 255.617 642.717 254.698V254.698Z" fill="#9E616A"/>
<path d="M629.571 127.424L639.25 116.898C639.25 116.898 650.035 113.142 658.847 132.55C667.658 151.957 677.5 191.323 677.5 191.323L654.49 235.646L636.62 227.661L654.49 191.01L635.579 163.868L629.571 127.424Z" fill="#3F3D56"/>
<path d="M613.157 112.515C622.919 107.179 626.507 94.9389 621.171 85.1768C615.834 75.4148 603.595 71.8272 593.833 77.1635C584.071 82.4999 580.483 94.7396 585.819 104.502C591.156 114.264 603.395 117.851 613.157 112.515Z" fill="#9E616A"/>
<path d="M622.441 78.7352L623.418 76.7697L618.504 74.3282C618.504 74.3282 613.083 65.5079 603.274 67.9866C593.464 70.4653 589.051 71.9488 589.051 71.9488L584.149 74.415L586.609 76.8627L582.196 78.3462L585.145 79.8111L581.714 81.7828L583.561 91.8908C583.561 91.8908 586.628 84.2243 592.525 87.154C598.421 90.0837 609.207 85.6395 609.207 85.6395L618.578 103.775C618.578 103.775 620.511 97.4173 623.958 99.1125C623.958 99.1125 632.763 85.0892 622.441 78.7352Z" fill="#2F2E41"/>
</svg>
