<svg width="346" height="324" viewBox="0 0 346 324" fill="none" xmlns="http://www.w3.org/2000/svg">
<g clip-path="url(#clip0_207_12555)">
<path d="M263.35 77.3518H261.577V28.7674C261.577 21.3097 258.614 14.1574 253.341 8.884C248.067 3.61059 240.915 0.64801 233.457 0.64801H130.527C123.069 0.64801 115.917 3.61059 110.643 8.884C105.37 14.1574 102.407 21.3097 102.407 28.7674V295.304C102.407 302.762 105.37 309.914 110.643 315.188C115.917 320.461 123.069 323.424 130.527 323.424H233.459C240.917 323.424 248.069 320.461 253.342 315.188C258.616 309.914 261.578 302.762 261.578 295.304V111.935H263.35V77.3518Z" fill="#3F3D56"/>
<path d="M255.845 26.8854V297.187C255.844 302.841 253.598 308.264 249.6 312.262C245.603 316.261 240.18 318.508 234.526 318.511H129.479C123.822 318.511 118.397 316.265 114.397 312.265C110.396 308.266 108.148 302.841 108.147 297.185V26.8854C108.149 21.2291 110.397 15.8052 114.397 11.8064C118.398 7.80768 123.823 5.56163 129.479 5.56226H142.221C141.596 7.10095 141.358 8.76977 141.528 10.422C141.698 12.0743 142.272 13.6594 143.199 15.0381C144.125 16.4167 145.376 17.5467 146.841 18.3287C148.307 19.1107 149.942 19.5207 151.603 19.5228H211.491C213.152 19.5205 214.787 19.1103 216.253 18.328C217.718 17.5458 218.969 16.4156 219.895 15.0367C220.821 13.6579 221.395 12.0726 221.565 10.4202C221.735 8.76785 221.496 7.099 220.87 5.56036H234.52C240.174 5.56137 245.597 7.80764 249.595 11.8054C253.594 15.8031 255.841 21.225 255.843 26.8792L255.845 26.8854Z" fill="#E6E6E6"/>
<path d="M244.653 304.402H119.34C118.271 304.401 117.245 303.975 116.489 303.219C115.732 302.462 115.307 301.437 115.306 300.367V36.9256C115.307 35.8559 115.732 34.8304 116.489 34.074C117.245 33.3176 118.271 32.8921 119.34 32.8909H244.653C245.723 32.8921 246.748 33.3176 247.505 34.074C248.261 34.8304 248.687 35.8559 248.688 36.9256V300.367C248.687 301.437 248.261 302.462 247.505 303.219C246.748 303.975 245.723 304.401 244.653 304.402Z" fill="white"/>
<path d="M181.522 121.834C200.589 121.834 216.047 106.377 216.047 87.3087C216.047 68.2408 200.589 52.7831 181.522 52.7831C162.454 52.7831 146.996 68.2408 146.996 87.3087C146.996 106.377 162.454 121.834 181.522 121.834Z" fill="#E6E6E6"/>
<path d="M181.048 117.16C197.534 117.16 210.899 103.795 210.899 87.3086C210.899 70.8221 197.534 57.4571 181.048 57.4571C164.561 57.4571 151.196 70.8221 151.196 87.3086C151.196 103.795 164.561 117.16 181.048 117.16Z" fill="white"/>
<path d="M181.711 70.3773C178.345 70.3773 175.055 71.3755 172.256 73.2457C169.457 75.1158 167.275 77.7739 165.987 80.8839C164.699 83.9938 164.362 87.416 165.019 90.7175C165.675 94.019 167.296 97.0516 169.677 99.4319C172.057 101.812 175.09 103.433 178.391 104.09C181.693 104.747 185.115 104.409 188.225 103.121C191.335 101.833 193.993 99.6516 195.863 96.8527C197.733 94.0539 198.731 90.7633 198.731 87.3971C198.731 82.8832 196.938 78.5541 193.746 75.3623C190.554 72.1705 186.225 70.3773 181.711 70.3773ZM181.711 75.4833C182.721 75.4833 183.708 75.7828 184.548 76.3439C185.388 76.9049 186.042 77.7024 186.429 78.6354C186.815 79.5684 186.916 80.595 186.719 81.5855C186.522 82.576 186.036 83.4858 185.322 84.1999C184.608 84.9139 183.698 85.4003 182.708 85.5973C181.717 85.7943 180.69 85.6932 179.757 85.3067C178.824 84.9203 178.027 84.2658 177.466 83.4261C176.905 82.5864 176.605 81.5992 176.605 80.5894C176.605 79.9188 176.737 79.2549 176.994 78.6354C177.251 78.0159 177.627 77.453 178.101 76.9788C178.575 76.5047 179.138 76.1286 179.757 75.872C180.377 75.6154 181.041 75.4833 181.711 75.4833ZM181.711 100.064C179.694 100.054 177.71 99.5533 175.93 98.6036C174.151 97.654 172.63 96.2845 171.499 94.614C171.581 91.2101 178.307 89.3361 181.711 89.3361C185.116 89.3361 191.841 91.2101 191.923 94.614C190.792 96.2835 189.271 97.6523 187.491 98.6021C185.712 99.5518 183.728 100.054 181.711 100.065V100.064Z" fill="#4141DB"/>
<path d="M210.015 133.436H150.284V137.926H210.015V133.436Z" fill="#E6E6E6"/>
<path d="M217.464 145.103H142.292V149.592H217.464V145.103Z" fill="#E6E6E6"/>
<path d="M234.945 178.613H129.049V284.509H234.945V178.613Z" fill="#E6E6E6"/>
<path d="M232.148 180.853H130.732V282.268H232.148V180.853Z" fill="white"/>
<path d="M191.094 190.642H151.617V193.609H191.094V190.642Z" fill="#E6E6E6"/>
<path d="M212.579 199.354H151.617V202.321H212.579V199.354Z" fill="#4141DB"/>
<path d="M201.933 207.649H152.251V210.617H201.933V207.649Z" fill="#E6E6E6"/>
<path d="M180.621 216.751H151.617V219.719H180.621V216.751Z" fill="#E6E6E6"/>
<path d="M195.391 225.642H151.617V228.61H195.391V225.642Z" fill="#4141DB"/>
<path d="M191.095 234.589H151.617V237.556H191.095V234.589Z" fill="#E6E6E6"/>
<path d="M212.579 243.3H151.617V246.267H212.579V243.3Z" fill="#4141DB"/>
<path d="M201.933 251.596H152.251V254.563H201.933V251.596Z" fill="#E6E6E6"/>
<path d="M180.621 260.698H151.617V263.666H180.621V260.698Z" fill="#E6E6E6"/>
<path d="M195.391 269.589H151.617V272.556H195.391V269.589Z" fill="#E6E6E6"/>
<path d="M328.837 230.876C328.554 231.37 328.177 231.804 327.727 232.152C327.277 232.501 326.763 232.757 326.214 232.907C325.664 233.056 325.091 233.096 324.527 233.024C323.962 232.952 323.417 232.77 322.923 232.487C322.429 232.205 321.996 231.828 321.647 231.378C321.299 230.928 321.043 230.413 320.893 229.864C320.743 229.315 320.703 228.742 320.775 228.178C320.847 227.613 321.03 227.068 321.312 226.574C321.322 226.557 321.332 226.54 321.341 226.524C321.463 226.32 321.599 226.127 321.75 225.944L318.104 199.961L317.995 199.183L317.255 193.881L317.145 193.116L317.549 193.135L324.612 193.458L326.506 193.544L326.743 198.38L328.087 225.574C328.788 226.246 329.244 227.134 329.38 228.095C329.516 229.057 329.325 230.037 328.837 230.876Z" fill="#FFB8B8"/>
<path d="M318.017 199.418L326.986 198.595C327.451 198.551 327.88 198.325 328.179 197.966C328.478 197.607 328.623 197.144 328.583 196.679L326.921 178.028C326.842 177.139 326.588 176.274 326.174 175.482C325.76 174.691 325.195 173.989 324.51 173.416C323.825 172.843 323.033 172.411 322.181 172.144C321.329 171.877 320.433 171.78 319.543 171.86C318.654 171.939 317.789 172.193 316.997 172.607C316.206 173.02 315.504 173.586 314.931 174.271C314.358 174.956 313.926 175.747 313.659 176.6C313.392 177.452 313.295 178.348 313.375 179.238C313.386 179.366 313.401 179.494 313.42 179.622L316.11 197.915C316.171 198.335 316.382 198.717 316.702 198.995C317.023 199.272 317.432 199.425 317.855 199.425C317.909 199.426 317.963 199.424 318.017 199.418Z" fill="#4141DB"/>
<path d="M324.815 184.35C325.722 181.781 325.764 178.985 324.935 176.389C324.105 173.794 322.45 171.541 320.221 169.973C316.839 167.659 312.21 166.829 307.226 172.762C297.258 184.629 294.648 197.682 294.648 197.682L315.059 201.005C315.059 201.005 322 192.52 324.815 184.35Z" fill="#4141DB"/>
<path d="M291.802 318.02H285.983L283.214 295.574H291.803L291.802 318.02Z" fill="#FFB8B8"/>
<path d="M274.762 323.423H293.052V316.357H281.829C279.954 316.357 278.157 317.101 276.832 318.426C275.507 319.752 274.762 321.549 274.762 323.423Z" fill="#2F2E41"/>
<path d="M339.647 312.945L334.122 314.771L324.448 294.328L332.603 291.632L339.647 312.945Z" fill="#FFB8B8"/>
<path d="M325.162 323.423L342.527 317.684L340.309 310.974L329.653 314.496C328.772 314.788 327.957 315.25 327.255 315.856C326.552 316.462 325.976 317.201 325.559 318.03C325.142 318.859 324.892 319.762 324.824 320.687C324.756 321.612 324.87 322.542 325.162 323.423Z" fill="#2F2E41"/>
<path d="M312.002 164.087C318.441 164.087 323.66 158.868 323.66 152.429C323.66 145.99 318.441 140.771 312.002 140.771C305.563 140.771 300.344 145.99 300.344 152.429C300.344 158.868 305.563 164.087 312.002 164.087Z" fill="#FFB8B8"/>
<path d="M301.795 311.771L307.199 276.102C307.256 275.721 307.444 275.372 307.731 275.115C308.017 274.858 308.384 274.708 308.769 274.691C309.153 274.674 309.532 274.791 309.84 275.023C310.147 275.254 310.365 275.585 310.456 275.959L318.686 309.951C318.815 310.472 319.135 310.926 319.582 311.223C320.029 311.52 320.57 311.64 321.101 311.558L343.802 307.91C344.103 307.862 344.39 307.749 344.644 307.581C344.898 307.412 345.113 307.191 345.275 306.933C345.436 306.674 345.541 306.384 345.581 306.082C345.621 305.78 345.596 305.472 345.507 305.18L315.906 207.588C315.822 207.311 315.812 207.016 315.878 206.734L316.863 202.462C316.971 201.999 316.921 201.513 316.721 201.082C316.521 200.65 316.182 200.298 315.758 200.082C311.727 198.025 301.518 193.749 293.814 198.433C293.564 198.586 293.347 198.787 293.178 199.026C293.008 199.265 292.889 199.536 292.827 199.822L269.703 308.507C269.64 308.803 269.641 309.109 269.705 309.404C269.768 309.699 269.894 309.978 270.074 310.221C270.253 310.464 270.482 310.666 270.746 310.814C271.009 310.962 271.301 311.053 271.602 311.08L299.492 313.577C299.555 313.583 299.618 313.586 299.682 313.586C300.192 313.585 300.686 313.402 301.073 313.069C301.46 312.736 301.716 312.275 301.793 311.77L301.795 311.771Z" fill="#2F2E41"/>
<path d="M319.732 144.193C318.853 143.664 318.074 142.986 317.428 142.19C317.109 141.787 316.899 141.309 316.818 140.802C316.738 140.295 316.789 139.776 316.967 139.294C317.556 137.994 319.307 137.585 320.663 138.026C322.02 138.467 323.067 139.532 324.058 140.558C324.931 141.46 325.829 142.405 326.242 143.591C326.654 144.777 326.443 146.282 325.413 147.002C324.402 147.708 322.949 147.419 321.977 146.661C321.004 145.902 320.403 144.776 319.829 143.684L319.732 144.193Z" fill="#2F2E41"/>
<path d="M323.681 140.87C323.746 137.586 327.49 135.23 330.724 135.812C333.958 136.395 336.443 139.152 337.687 142.192C340.316 148.617 338.343 155.948 335.81 162.413C333.277 168.879 330.142 175.438 330.512 182.37C330.762 186.117 332.019 189.726 334.151 192.818C336.283 195.909 339.21 198.367 342.623 199.933C338.974 201.587 334.612 199.878 331.545 197.299C324.734 191.572 322.106 181.376 325.298 173.07C326.872 168.973 329.647 165.468 331.814 161.652C333.98 157.835 335.57 153.336 334.451 149.092C333.332 144.848 328.572 141.413 324.503 143.054L323.681 140.87Z" fill="#2F2E41"/>
<path d="M311.302 157.602C312.319 155.885 313.344 153.63 311.487 152.129C311.083 151.817 310.621 151.59 310.127 151.459C309.634 151.329 309.12 151.298 308.615 151.369C306.521 151.622 304.24 151.726 302.213 150.965C301.452 150.703 300.752 150.292 300.154 149.754C299.556 149.217 299.072 148.565 298.731 147.837C297.687 145.357 298.995 142.344 301.183 140.776C302.521 139.852 304.102 139.344 305.729 139.315C307.355 139.286 308.953 139.738 310.324 140.614C313.157 139.363 316.596 139.92 319.17 141.643C321.745 143.366 323.506 146.125 324.463 149.071C325.345 151.607 325.497 154.34 324.901 156.958C324.422 158.779 323.511 160.458 322.246 161.853C320.98 163.247 319.398 164.317 317.631 164.97C316.943 165.241 316.196 165.327 315.464 165.219C314.733 165.11 314.043 164.812 313.463 164.353C313.463 164.353 311.856 162.95 311.353 161.261C310.966 159.961 310.76 158.52 311.302 157.602Z" fill="#2F2E41"/>
<path d="M276.717 168.005C276.776 168.261 276.814 168.522 276.831 168.784L297.221 180.547L302.177 177.694L307.461 184.611L299.178 190.515C298.509 190.992 297.703 191.239 296.881 191.219C296.059 191.199 295.266 190.913 294.621 190.404L273.593 173.816C272.644 174.167 271.61 174.222 270.629 173.971C269.649 173.721 268.767 173.178 268.103 172.415C267.438 171.651 267.022 170.703 266.909 169.697C266.796 168.692 266.992 167.675 267.471 166.783C267.95 165.892 268.689 165.167 269.59 164.706C270.491 164.244 271.512 164.068 272.515 164.201C273.519 164.334 274.458 164.769 275.208 165.448C275.958 166.128 276.484 167.02 276.715 168.005H276.717Z" fill="#FFB8B8"/>
<path d="M297.903 181.104L304.494 189.646C304.681 189.888 304.919 190.088 305.19 190.231C305.462 190.373 305.761 190.456 306.067 190.473C306.373 190.489 306.68 190.44 306.965 190.328C307.251 190.216 307.509 190.043 307.721 189.823L315.182 182.076C316.444 181.136 317.282 179.734 317.51 178.177C317.738 176.62 317.339 175.036 316.399 173.773C315.46 172.511 314.057 171.674 312.5 171.445C310.943 171.217 309.359 171.616 308.097 172.556C308.033 172.604 307.969 172.653 307.907 172.704L298.55 177.936C298.282 178.086 298.05 178.291 297.869 178.539C297.687 178.787 297.562 179.071 297.5 179.372C297.439 179.672 297.443 179.983 297.512 180.282C297.582 180.581 297.714 180.861 297.902 181.104L297.903 181.104Z" fill="#4141DB"/>
<path d="M58.7176 201.462C58.4847 201.568 58.2607 201.693 58.0478 201.836L36.758 192.749L35.9985 187.141L27.4915 187.089L27.9941 199.952L56.0946 207.384C56.1538 207.58 56.2248 207.771 56.3072 207.958C56.7135 208.825 57.3669 209.552 58.1854 210.049C59.0038 210.546 59.9508 210.79 60.9074 210.75C61.864 210.711 62.7876 210.389 63.5621 209.826C64.3367 209.264 64.9277 208.484 65.2609 207.587C65.5941 206.689 65.6546 205.713 65.4349 204.781C65.2153 203.85 64.7251 203.003 64.0261 202.349C63.327 201.695 62.4503 201.262 61.5059 201.104C60.5615 200.947 59.5916 201.072 58.7181 201.463L58.7176 201.462Z" fill="#A0616A"/>
<path d="M24.3976 318.02H30.217L32.9853 295.574H24.3966L24.3976 318.02Z" fill="#A0616A"/>
<path d="M34.374 316.358H23.1509V323.422H41.4404C41.4404 321.548 40.6959 319.75 39.3707 318.425C38.0455 317.1 36.2481 316.355 34.374 316.355H34.3739L34.374 316.358Z" fill="#2F2E41"/>
<path d="M1.76501 316.377L7.55599 316.946L12.512 294.88L3.96463 294.04L1.76501 316.377Z" fill="#A0616A"/>
<path d="M11.86 315.7L0.692995 314.6L0.000488281 321.631L18.1981 323.424C18.289 322.5 18.1972 321.568 17.9279 320.68C17.6585 319.793 17.217 318.966 16.6284 318.249C16.0398 317.532 15.3157 316.938 14.4975 316.5C13.6792 316.063 12.7828 315.791 11.8595 315.7L11.86 315.7Z" fill="#2F2E41"/>
<path d="M22.7779 163.333C29.2166 163.333 34.4362 158.113 34.4362 151.674C34.4362 145.235 29.2166 140.016 22.7779 140.016C16.3391 140.016 11.1195 145.235 11.1195 151.674C11.1195 158.113 16.3391 163.333 22.7779 163.333Z" fill="#A0616A"/>
<path d="M31.5179 313.481C32.0182 313.483 32.5028 313.307 32.8862 312.986C33.2697 312.664 33.5273 312.218 33.6135 311.725C36.6234 295.008 46.4714 240.335 46.7068 238.819C46.7121 238.784 46.7146 238.749 46.7144 238.714V234.637C46.7148 234.489 46.6685 234.344 46.582 234.223L45.2814 232.402C45.2196 232.314 45.1385 232.242 45.0443 232.19C44.9502 232.139 44.8455 232.11 44.7384 232.105C37.3231 231.757 13.038 230.738 11.8646 232.204C10.6865 233.676 11.1052 238.141 11.2001 239.02L11.1954 239.112L0.285079 308.888C0.199616 309.445 0.336733 310.013 0.666758 310.469C0.996782 310.925 1.49316 311.233 2.04848 311.326L8.86283 312.448C9.37034 312.53 9.89024 312.427 10.328 312.157C10.7657 311.888 11.0922 311.47 11.2481 310.98C13.3556 304.246 20.4229 281.59 22.8722 272.823C22.8879 272.768 22.923 272.72 22.9711 272.689C23.0192 272.658 23.077 272.645 23.1338 272.653C23.1907 272.661 23.2426 272.689 23.2801 272.733C23.3177 272.776 23.3382 272.832 23.3379 272.889C23.2154 281.246 22.9197 302.567 22.8158 309.931L22.8048 310.724C22.8003 311.261 22.9974 311.78 23.3571 312.179C23.7169 312.577 24.2131 312.827 24.7477 312.877L31.3185 313.472C31.3848 313.479 31.4513 313.482 31.5179 313.481Z" fill="#2F2E41"/>
<path d="M30.1766 167.917C32.2111 169.126 33.4286 171.349 34.1273 173.613C35.4207 177.8 36.1992 182.129 36.4456 186.504L37.1842 199.605L46.324 234.337C38.4022 241.04 33.833 239.516 23.1691 234.033C12.5052 228.551 11.2872 235.861 11.2872 235.861L9.15495 206.309L6.10852 174.017C6.79247 173.193 7.56659 172.449 8.41636 171.798C11.2322 169.608 14.5084 168.086 17.9981 167.346C21.4878 166.606 25.0999 166.667 28.5623 167.526L30.1766 167.917Z" fill="#E6E6E6"/>
<path d="M33.1452 208.475C32.8995 208.567 32.6614 208.678 32.4332 208.807L11.3816 198.27L11.0322 192.561L2.3486 191.963L1.88342 204.975L30.0152 214.278C30.2447 215.264 30.769 216.157 31.5182 216.837C32.2674 217.518 33.2061 217.954 34.2093 218.088C35.2126 218.222 36.2329 218.047 37.1345 217.587C38.0361 217.127 38.7762 216.404 39.2565 215.513C39.7367 214.622 39.9343 213.606 39.8229 212.6C39.7115 211.594 39.2965 210.645 38.6329 209.881C37.9694 209.117 37.0889 208.572 36.1085 208.321C35.1281 208.069 34.0943 208.122 33.1447 208.472L33.1452 208.475Z" fill="#A0616A"/>
<path d="M6.26086 174.162C1.08173 175.99 0.168945 195.795 0.168945 195.795C6.26228 192.444 13.5741 197.928 13.5741 197.928C13.5741 197.928 15.0973 192.748 16.9253 186.046C17.4772 184.161 17.5433 182.166 17.1172 180.249C16.6911 178.331 15.7867 176.552 14.4883 175.078C14.4883 175.078 11.4405 172.334 6.26086 174.162Z" fill="#E6E6E6"/>
<path d="M12.3261 154.758C13.7786 153.596 15.7603 155.707 15.7603 155.707L16.9223 145.25C16.9223 145.25 24.1848 146.12 28.8337 144.959C33.4826 143.798 34.2084 149.172 34.2084 149.172C34.448 147.001 34.4966 144.814 34.3536 142.635C34.0631 140.021 30.2867 137.406 23.6047 135.663C16.9228 133.92 13.4368 141.473 13.4368 141.473C8.78605 143.797 10.8717 155.92 12.3261 154.758Z" fill="#2F2E41"/>
</g>
<defs>
<clipPath id="clip0_207_12555">
<rect width="345.598" height="322.776" fill="white" transform="translate(0.00146484 0.647827)"/>
</clipPath>
</defs>
</svg>
