<svg width="120" height="19" viewBox="0 0 120 19" fill="none" xmlns="http://www.w3.org/2000/svg">
<path d="M4.0305 18.02L5.54158 11.4874L0.473633 7.09364L7.16891 6.51245L9.77263 0.351868L12.3763 6.51245L19.0716 7.09364L14.0037 11.4874L15.5148 18.02L9.77263 14.5561L4.0305 18.02Z" fill="#FFB800"/>
<path d="M29.1374 18.0199L30.6485 11.4874L25.5806 7.09358L32.2758 6.51239L34.8796 0.351807L37.4833 6.51239L44.1786 7.09358L39.1106 11.4874L40.6217 18.0199L34.8796 14.556L29.1374 18.0199Z" fill="#FFB800"/>
<path d="M54.2444 18.0199L55.7555 11.4874L50.6875 7.09358L57.3828 6.51239L59.9865 0.351807L62.5902 6.51239L69.2855 7.09358L64.2175 11.4874L65.7286 18.0199L59.9865 14.556L54.2444 18.0199Z" fill="#FFB800"/>
<path d="M79.3518 18.0199L80.8629 11.4874L75.7949 7.09358L82.4902 6.51239L85.0939 0.351807L87.6976 6.51239L94.3929 7.09358L89.325 11.4874L90.836 18.0199L85.0939 14.556L79.3518 18.0199Z" fill="#FFB800"/>
<path d="M104.459 18.0199L105.97 11.4874L100.902 7.09358L107.598 6.51239L110.201 0.351807L112.805 6.51239L119.5 7.09358L114.432 11.4874L115.943 18.0199L110.201 14.556L104.459 18.0199Z" fill="#CCCCCC"/>
</svg>
