<svg width="120" height="18" viewBox="0 0 120 18" fill="none" xmlns="http://www.w3.org/2000/svg">
<path d="M4.22776 17.9735L5.73885 11.441L0.670898 7.04719L7.36617 6.466L9.96989 0.30542L12.5736 6.466L19.2689 7.04719L14.2009 11.441L15.712 17.9735L9.96989 14.5096L4.22776 17.9735Z" fill="#FFB800"/>
<path d="M29.3352 17.9734L30.8463 11.4409L25.7783 7.04713L32.4736 6.46594L35.0773 0.305359L37.681 6.46594L44.3763 7.04713L39.3084 11.4409L40.8194 17.9734L35.0773 14.5096L29.3352 17.9734Z" fill="#FFB800"/>
<path d="M54.4426 17.9734L55.9537 11.4409L50.8857 7.04713L57.581 6.46594L60.1847 0.305359L62.7885 6.46594L69.4837 7.04713L64.4158 11.4409L65.9269 17.9734L60.1847 14.5096L54.4426 17.9734Z" fill="#FFB800"/>
<path d="M79.5495 17.9734L81.0606 11.4409L75.9927 7.04713L82.688 6.46594L85.2917 0.305359L87.8954 6.46594L94.5907 7.04713L89.5227 11.4409L91.0338 17.9734L85.2917 14.5096L79.5495 17.9734Z" fill="#FFB800"/>
<path d="M104.657 17.9734L106.168 11.4409L101.1 7.04713L107.795 6.46594L110.399 0.305359L113.003 6.46594L119.698 7.04713L114.63 11.4409L116.141 17.9734L110.399 14.5096L104.657 17.9734Z" fill="#FFB800"/>
</svg>
