<svg width="411" height="244" viewBox="0 0 411 244" fill="none" xmlns="http://www.w3.org/2000/svg">
<g clip-path="url(#clip0_207_12369)">
<path d="M94.9332 227.705L101.511 225.619C102.33 222.089 102.276 218.412 101.352 214.908C98.7097 220.783 90.9571 222.223 86.5398 226.913C85.1733 228.386 84.1559 230.148 83.5629 232.067C82.9698 233.987 82.8164 236.016 83.114 238.003L81.7302 242.698C84.9622 242.421 88.0959 241.448 90.9155 239.844C93.735 238.24 96.1733 236.044 98.0624 233.407C99.1075 231.917 99.9608 230.302 100.602 228.599C97.7973 228.318 94.9332 227.705 94.9332 227.705Z" fill="#F2F2F2"/>
<path d="M328.027 227.705L321.449 225.619C320.63 222.089 320.684 218.412 321.608 214.908C324.25 220.783 332.003 222.223 336.42 226.913C337.787 228.386 338.804 230.148 339.397 232.067C339.99 233.987 340.144 236.016 339.846 238.003L341.23 242.698C337.998 242.421 334.864 241.448 332.045 239.844C329.225 238.24 326.787 236.044 324.898 233.407C323.852 231.917 322.999 230.302 322.358 228.599C325.163 228.318 328.027 227.705 328.027 227.705Z" fill="#F2F2F2"/>
<path d="M87.9044 219.025L92.861 214.224C92.0203 210.699 90.3318 207.433 87.9422 204.708C88.1974 211.145 81.9005 215.891 80.0383 222.059C79.4723 223.987 79.3473 226.018 79.6728 228C79.9982 229.983 80.7657 231.867 81.9184 233.513L82.7733 238.332C85.543 236.644 87.9136 234.375 89.7219 231.682C91.5302 228.989 92.7332 225.936 93.248 222.733C93.519 220.934 93.5623 219.107 93.3769 217.297C90.7411 218.296 87.9044 219.025 87.9044 219.025Z" fill="#F2F2F2"/>
<path d="M101.155 129.64C100.614 129.713 100.063 129.666 99.5417 129.503C99.0204 129.339 98.5413 129.064 98.138 128.695C97.7347 128.327 97.4172 127.874 97.2077 127.37C96.9982 126.865 96.9019 126.321 96.9256 125.775L73.0349 101.534L79.7042 96.8914L101.091 122.179C102.005 122.279 102.851 122.712 103.467 123.394C104.084 124.076 104.429 124.961 104.437 125.881C104.445 126.801 104.115 127.691 103.511 128.384C102.906 129.077 102.068 129.524 101.155 129.64L101.155 129.64Z" fill="#FFB6B6"/>
<path d="M65.6854 91.0492C65.6854 91.0492 63.9922 92.0641 66.8104 95.1545C69.0666 97.6286 78.9121 109.524 82.8419 112.007C82.6286 112.623 82.6262 113.292 82.8351 113.909C83.0439 114.527 83.4522 115.057 83.9956 115.416L90.0377 107.876C89.6925 105.715 88.235 105.825 87.4162 106.088L83.6253 101.375L75.0362 86.9686L66.8963 90.2939L65.6854 91.0492Z" fill="#4141DB"/>
<path d="M46.8175 235.485H51.3217L53.4652 218.112H46.8175V235.485Z" fill="#FFB6B6"/>
<path d="M45.3477 232.399L52.5434 231.97V235.053L59.3846 239.778C59.7225 240.011 59.977 240.346 60.1109 240.734C60.2448 241.123 60.2511 241.543 60.1289 241.935C60.0067 242.327 59.7624 242.67 59.4316 242.913C59.1009 243.157 58.701 243.288 58.2903 243.288H49.7236L48.247 240.239L47.6704 243.288H44.4404L45.3477 232.399Z" fill="white"/>
<path d="M72.1182 235.485H76.6223L78.7659 218.112H72.1182V235.485Z" fill="#FFB6B6"/>
<path d="M70.6475 232.399L77.8432 231.97V235.053L84.6844 239.778C85.0223 240.011 85.2768 240.346 85.4107 240.734C85.5446 241.123 85.5509 241.543 85.4287 241.935C85.3065 242.327 85.0622 242.67 84.7314 242.913C84.4007 243.157 84.0008 243.288 83.5901 243.288H75.0234L73.5468 240.239L72.9702 243.288H69.7402L70.6475 232.399Z" fill="white"/>
<path d="M44.8745 220.504H44.9235L45.7897 192.257C45.2291 191.175 44.9446 189.972 44.9616 188.755C44.9785 187.537 45.2962 186.342 45.8866 185.277L46.0106 185.052L45.6891 183.562C45.2761 181.647 45.4656 179.651 46.2316 177.848L47.0397 151.498C44.1527 132.788 57.9112 120.586 57.9112 120.586L55.3969 110.01L80.2885 107.562L78.5215 120.586L82.9463 135.789C85.8715 164.288 85.3407 192.06 80.6989 218.965L80.8254 219.029C81.2811 219.187 81.4765 219.818 81.262 220.439C81.0476 221.061 80.5043 221.437 80.0486 221.28L69.164 220.901C68.7083 220.744 68.5129 220.113 68.7274 219.491C68.9419 218.87 69.4851 218.494 69.9408 218.651L70.6809 219.025L69.1025 191.768L69.2777 186.789L68.9168 181.141L67.2484 155.735L60.9332 186.977L54.4826 220.818C54.6605 220.979 54.7854 221.191 54.8407 221.424C54.8961 221.658 54.8793 221.903 54.7926 222.126C54.7059 222.35 54.5534 222.542 54.3552 222.678C54.157 222.813 53.9224 222.885 53.6824 222.884H44.8745C44.5588 222.884 44.2561 222.759 44.0328 222.536C43.8096 222.313 43.6842 222.01 43.6842 221.694C43.6842 221.379 43.8096 221.076 44.0328 220.853C44.2561 220.629 44.5588 220.504 44.8745 220.504Z" fill="white"/>
<path d="M283.566 115.67H129.618C124.441 115.664 119.479 113.605 115.819 109.945C112.159 106.285 110.1 101.322 110.094 96.1461V29.9719C110.1 24.8054 112.151 19.8514 115.799 16.1928C119.447 12.5343 124.395 10.469 129.562 10.4485C153.47 3.83066 178.857 0.557424 205.027 0.719611C229.929 0.874029 256.368 4.14727 283.612 10.4485C288.78 10.4669 293.731 12.5312 297.381 16.1899C301.03 19.8487 303.083 24.804 303.089 29.9719V96.1461C303.083 101.322 301.024 106.285 297.364 109.945C293.704 113.605 288.742 115.664 283.566 115.67ZM129.618 11.2646C124.658 11.2702 119.903 13.243 116.396 16.7501C112.889 20.2572 110.916 25.0122 110.91 29.972V96.1461C110.916 101.106 112.889 105.861 116.396 109.368C119.903 112.875 124.658 114.848 129.618 114.853H283.566C288.525 114.848 293.28 112.875 296.787 109.368C300.294 105.861 302.267 101.106 302.273 96.1461V29.972C302.267 25.0122 300.294 20.2572 296.787 16.7501C293.28 13.243 288.525 11.2702 283.566 11.2646L283.473 11.254C227.096 -1.7915 176.805 -1.79329 129.726 11.2499L129.618 11.2646Z" fill="white"/>
<path d="M126.902 98.3998C126.842 98.3998 126.782 98.3879 126.725 98.3647C126.669 98.3415 126.618 98.3074 126.576 98.2645C126.533 98.2216 126.499 98.1707 126.475 98.1146C126.452 98.0586 126.44 97.9985 126.44 97.9378V28.1807C126.44 28.0582 126.489 27.9407 126.576 27.8541C126.662 27.7674 126.78 27.7188 126.902 27.7188C127.025 27.7188 127.142 27.7674 127.229 27.8541C127.316 27.9407 127.364 28.0582 127.364 28.1807V97.9378C127.364 97.9985 127.352 98.0586 127.329 98.1146C127.306 98.1707 127.272 98.2216 127.229 98.2645C127.186 98.3074 127.135 98.3415 127.079 98.3647C127.023 98.3879 126.963 98.3998 126.902 98.3998Z" fill="white"/>
<path d="M167.3 98.3998C167.239 98.3998 167.179 98.3879 167.123 98.3647C167.067 98.3415 167.016 98.3074 166.973 98.2645C166.93 98.2216 166.896 98.1707 166.873 98.1146C166.85 98.0586 166.838 97.9985 166.838 97.9378V28.1807C166.838 28.0582 166.886 27.9407 166.973 27.8541C167.06 27.7674 167.177 27.7188 167.3 27.7188C167.422 27.7188 167.54 27.7674 167.626 27.8541C167.713 27.9407 167.762 28.0582 167.762 28.1807V97.9378C167.762 97.9985 167.75 98.0586 167.727 98.1146C167.703 98.1707 167.669 98.2216 167.626 98.2645C167.584 98.3074 167.533 98.3415 167.477 98.3647C167.42 98.3879 167.36 98.3998 167.3 98.3998Z" fill="white"/>
<path d="M207.698 98.3998C207.637 98.3998 207.577 98.3879 207.521 98.3647C207.465 98.3415 207.414 98.3074 207.371 98.2645C207.328 98.2216 207.294 98.1707 207.271 98.1146C207.248 98.0586 207.236 97.9985 207.236 97.9378V28.1807C207.236 28.0582 207.285 27.9407 207.371 27.8541C207.458 27.7674 207.575 27.7188 207.698 27.7188C207.821 27.7188 207.938 27.7674 208.025 27.8541C208.111 27.9407 208.16 28.0582 208.16 28.1807V97.9378C208.16 97.9985 208.148 98.0586 208.125 98.1146C208.102 98.1707 208.068 98.2216 208.025 98.2645C207.982 98.3074 207.931 98.3415 207.875 98.3647C207.819 98.3879 207.759 98.3998 207.698 98.3998Z" fill="white"/>
<path d="M248.095 98.3998C248.035 98.3998 247.975 98.3879 247.919 98.3647C247.863 98.3415 247.812 98.3074 247.769 98.2645C247.726 98.2216 247.692 98.1707 247.669 98.1146C247.645 98.0586 247.633 97.9985 247.633 97.9378V28.1807C247.633 28.0582 247.682 27.9407 247.769 27.8541C247.855 27.7674 247.973 27.7188 248.095 27.7188C248.218 27.7188 248.335 27.7674 248.422 27.8541C248.509 27.9407 248.557 28.0582 248.557 28.1807V97.9378C248.557 97.9985 248.545 98.0586 248.522 98.1146C248.499 98.1707 248.465 98.2216 248.422 98.2645C248.379 98.3074 248.328 98.3415 248.272 98.3647C248.216 98.3879 248.156 98.3998 248.095 98.3998Z" fill="white"/>
<path d="M123.304 38.5756C123.304 38.5149 123.316 38.4549 123.339 38.3988C123.362 38.3428 123.396 38.2918 123.439 38.2489C123.482 38.206 123.533 38.172 123.589 38.1488C123.645 38.1256 123.705 38.1136 123.766 38.1136H289.417C289.477 38.1136 289.537 38.1256 289.593 38.1488C289.65 38.172 289.7 38.2061 289.743 38.249C289.786 38.2919 289.82 38.3428 289.844 38.3988C289.867 38.4549 289.879 38.5149 289.879 38.5756C289.879 38.6363 289.867 38.6964 289.844 38.7524C289.82 38.8085 289.786 38.8594 289.743 38.9023C289.7 38.9452 289.65 38.9792 289.593 39.0024C289.537 39.0256 289.477 39.0376 289.417 39.0376H123.766C123.705 39.0376 123.645 39.0257 123.589 39.0025C123.533 38.9792 123.482 38.9452 123.439 38.9023C123.396 38.8594 123.362 38.8085 123.339 38.7524C123.316 38.6964 123.304 38.6363 123.304 38.5756Z" fill="white"/>
<path d="M123.304 89.9908C123.304 89.9301 123.316 89.87 123.339 89.814C123.362 89.7579 123.396 89.707 123.439 89.6641C123.482 89.6212 123.533 89.5871 123.589 89.5639C123.645 89.5407 123.705 89.5288 123.766 89.5288H289.417C289.539 89.5288 289.657 89.5775 289.743 89.6641C289.83 89.7507 289.879 89.8683 289.879 89.9908C289.879 90.1133 289.83 90.2308 289.743 90.3174C289.657 90.4041 289.539 90.4527 289.417 90.4527H123.766C123.705 90.4528 123.645 90.4408 123.589 90.4176C123.533 90.3944 123.482 90.3604 123.439 90.3175C123.396 90.2746 123.362 90.2236 123.339 90.1676C123.316 90.1115 123.304 90.0514 123.304 89.9908Z" fill="white"/>
<path d="M123.304 64.2831C123.304 64.2225 123.316 64.1624 123.339 64.1063C123.362 64.0503 123.396 63.9993 123.439 63.9564C123.482 63.9135 123.533 63.8795 123.589 63.8563C123.645 63.8331 123.705 63.8212 123.766 63.8212H289.417C289.539 63.8212 289.657 63.8698 289.743 63.9565C289.83 64.0431 289.879 64.1606 289.879 64.2831C289.879 64.4057 289.83 64.5232 289.743 64.6098C289.657 64.6964 289.539 64.7451 289.417 64.7451H123.766C123.705 64.7451 123.645 64.7332 123.589 64.71C123.533 64.6868 123.482 64.6527 123.439 64.6098C123.396 64.5669 123.362 64.516 123.339 64.4599C123.316 64.4039 123.304 64.3438 123.304 64.2831Z" fill="white"/>
<path d="M287.204 98.3998C287.265 98.3998 287.325 98.3879 287.381 98.3647C287.437 98.3415 287.488 98.3074 287.531 98.2645C287.574 98.2216 287.608 98.1707 287.631 98.1146C287.654 98.0586 287.666 97.9985 287.666 97.9378V28.1807C287.666 28.0582 287.618 27.9407 287.531 27.8541C287.444 27.7674 287.327 27.7188 287.204 27.7188C287.082 27.7188 286.964 27.7674 286.878 27.8541C286.791 27.9407 286.742 28.0582 286.742 28.1807V97.9378C286.742 97.9985 286.754 98.0586 286.778 98.1146C286.801 98.1707 286.835 98.2216 286.878 98.2645C286.921 98.3074 286.972 98.3415 287.028 98.3647C287.084 98.3879 287.144 98.3998 287.204 98.3998Z" fill="white"/>
<path d="M152.1 61.1537H140.465C139.825 61.1532 139.206 60.9218 138.723 60.5021C138.24 60.0823 137.925 59.5024 137.835 58.8687C137.116 53.5818 137.116 48.222 137.835 42.9351C137.924 42.309 138.233 41.7351 138.706 41.3164C139.18 40.8977 139.788 40.6616 140.42 40.6505C144.081 39.0095 148.023 39.0097 152.14 40.6503C152.524 40.6554 152.901 40.7443 153.247 40.9109C153.592 41.0775 153.897 41.3176 154.14 41.6145C154.393 41.9233 154.574 42.2846 154.67 42.6722C154.766 43.0597 154.774 43.4638 154.694 43.855C153.76 48.5064 153.76 53.2973 154.694 57.9488C154.774 58.34 154.766 58.7441 154.67 59.1316C154.574 59.5192 154.393 59.8805 154.14 60.1893C153.893 60.4914 153.581 60.7347 153.229 60.9015C152.876 61.0684 152.49 61.1545 152.1 61.1537Z" fill="#4141DB"/>
<path d="M150.881 46.7253H141.088C140.926 46.7253 140.77 46.6608 140.655 46.546C140.54 46.4312 140.476 46.2755 140.476 46.1132C140.476 45.9509 140.54 45.7952 140.655 45.6804C140.77 45.5656 140.926 45.5011 141.088 45.5011H150.881C151.044 45.5011 151.199 45.5656 151.314 45.6804C151.429 45.7952 151.493 45.9509 151.493 46.1132C151.493 46.2755 151.429 46.4312 151.314 46.546C151.199 46.6608 151.044 46.7253 150.881 46.7253Z" fill="white"/>
<path d="M150.881 51.6216H141.088C140.926 51.6216 140.77 51.5572 140.655 51.4424C140.54 51.3276 140.476 51.1719 140.476 51.0095C140.476 50.8472 140.54 50.6915 140.655 50.5767C140.77 50.462 140.926 50.3975 141.088 50.3975H150.881C151.044 50.3975 151.199 50.462 151.314 50.5767C151.429 50.6915 151.493 50.8472 151.493 51.0095C151.493 51.1719 151.429 51.3276 151.314 51.4424C151.199 51.5572 151.044 51.6216 150.881 51.6216Z" fill="white"/>
<path d="M150.881 56.5179H141.088C140.926 56.5179 140.77 56.4534 140.655 56.3386C140.54 56.2238 140.476 56.0681 140.476 55.9058C140.476 55.7435 140.54 55.5878 140.655 55.473C140.77 55.3582 140.926 55.2937 141.088 55.2937H150.881C151.044 55.2937 151.199 55.3582 151.314 55.473C151.429 55.5878 151.493 55.7435 151.493 55.9058C151.493 56.0681 151.429 56.2238 151.314 56.3386C151.199 56.4534 151.044 56.5179 150.881 56.5179Z" fill="white"/>
<path d="M235.752 88.0856H224.117C223.477 88.0851 222.858 87.8537 222.375 87.434C221.892 87.0142 221.577 86.4342 221.487 85.8006C220.768 80.5137 220.768 75.1539 221.487 69.867C221.576 69.2409 221.885 68.667 222.359 68.2483C222.832 67.8296 223.44 67.5935 224.072 67.5824C227.733 65.9414 231.676 65.9416 235.792 67.5822C236.176 67.5873 236.554 67.6762 236.899 67.8428C237.244 68.0094 237.549 68.2495 237.792 68.5463C238.045 68.8552 238.226 69.2165 238.322 69.604C238.418 69.9916 238.426 70.3957 238.346 70.7869C237.412 75.4383 237.412 80.2292 238.346 84.8807C238.426 85.2719 238.418 85.676 238.322 86.0635C238.226 86.4511 238.045 86.8124 237.792 87.1212C237.545 87.4233 237.234 87.6666 236.881 87.8334C236.528 88.0002 236.143 88.0864 235.752 88.0856Z" fill="#4141DB"/>
<path d="M234.533 73.6572H224.74C224.578 73.6572 224.422 73.5927 224.307 73.4779C224.192 73.3631 224.128 73.2074 224.128 73.0451C224.128 72.8827 224.192 72.7271 224.307 72.6123C224.422 72.4975 224.578 72.433 224.74 72.433H234.533C234.696 72.433 234.851 72.4975 234.966 72.6123C235.081 72.7271 235.146 72.8827 235.146 73.0451C235.146 73.2074 235.081 73.3631 234.966 73.4779C234.851 73.5927 234.696 73.6572 234.533 73.6572Z" fill="white"/>
<path d="M234.533 78.5535H224.74C224.578 78.5535 224.422 78.489 224.307 78.3742C224.192 78.2595 224.128 78.1038 224.128 77.9414C224.128 77.7791 224.192 77.6234 224.307 77.5086C224.422 77.3938 224.578 77.3293 224.74 77.3293H234.533C234.696 77.3293 234.851 77.3938 234.966 77.5086C235.081 77.6234 235.146 77.7791 235.146 77.9414C235.146 78.1038 235.081 78.2595 234.966 78.3742C234.851 78.489 234.696 78.5535 234.533 78.5535Z" fill="white"/>
<path d="M271.254 61.1537H259.618C258.978 61.1532 258.36 60.9218 257.876 60.5021C257.393 60.0823 257.078 59.5024 256.988 58.8687C256.269 53.5818 256.269 48.222 256.988 42.9351C257.077 42.309 257.386 41.7351 257.86 41.3164C258.333 40.8977 258.941 40.6616 259.573 40.6505C263.234 39.0095 267.177 39.0097 271.294 40.6503C271.677 40.6554 272.055 40.7443 272.4 40.9109C272.745 41.0775 273.05 41.3176 273.293 41.6145C273.546 41.9233 273.727 42.2846 273.823 42.6722C273.919 43.0597 273.927 43.4638 273.847 43.855C272.913 48.5064 272.913 53.2973 273.847 57.9488C273.927 58.34 273.919 58.7441 273.823 59.1316C273.727 59.5192 273.546 59.8805 273.293 60.1893C273.046 60.4914 272.735 60.7347 272.382 60.9015C272.029 61.0684 271.644 61.1545 271.254 61.1537Z" fill="#FD6584"/>
<path d="M270.035 51.6216H260.242C260.08 51.6216 259.924 51.5572 259.809 51.4424C259.694 51.3276 259.63 51.1719 259.63 51.0095C259.63 50.8472 259.694 50.6915 259.809 50.5767C259.924 50.462 260.08 50.3975 260.242 50.3975H270.035C270.198 50.3975 270.353 50.462 270.468 50.5767C270.583 50.6915 270.647 50.8472 270.647 51.0095C270.647 51.1719 270.583 51.3276 270.468 51.4424C270.353 51.5572 270.198 51.6216 270.035 51.6216Z" fill="white"/>
<path d="M270.035 56.5179H260.242C260.08 56.5179 259.924 56.4534 259.809 56.3386C259.694 56.2238 259.63 56.0681 259.63 55.9058C259.63 55.7435 259.694 55.5878 259.809 55.473C259.924 55.3582 260.08 55.2937 260.242 55.2937H270.035C270.198 55.2937 270.353 55.3582 270.468 55.473C270.583 55.5878 270.647 55.7435 270.647 55.9058C270.647 56.0681 270.583 56.2238 270.468 56.3386C270.353 56.4534 270.198 56.5179 270.035 56.5179Z" fill="white"/>
<path d="M74.8472 59.3526C72.5321 55.805 68.7522 53.0171 64.5427 52.7815C60.3329 52.546 55.2738 56.1308 53.1962 59.8196C49.3957 66.567 49.3458 74.3044 54.5802 78.9973C55.2911 78.7561 58.2479 78.4105 58.9706 78.1777L59.4288 77.3502L59.9942 77.8533C66.463 78.4987 68.4543 74.1006 78.8049 71.3275C78.1996 67.1329 77.1623 62.9002 74.8472 59.3526Z" fill="white"/>
<path d="M65.9617 76.0618C70.6862 76.0618 74.5161 72.2318 74.5161 67.5074C74.5161 62.7829 70.6862 58.953 65.9617 58.953C61.2373 58.953 57.4073 62.7829 57.4073 67.5074C57.4073 72.2318 61.2373 76.0618 65.9617 76.0618Z" fill="#FFB7B7"/>
<path d="M75.4404 83.4017L70.5452 80.4646L60.7549 79.4856L52.1016 83.892L52.1883 97.353L57.6779 111.314L79.0643 115.722L81.5594 103.453C81.5594 103.453 87.9231 94.9054 81.0699 90.0102L75.4404 83.4017Z" fill="#4141DB"/>
<path d="M69.1602 54.5166C67.3066 53.9969 65.3475 53.9848 63.4876 54.4814C61.6277 54.9781 59.9355 55.9653 58.5877 57.3398C57.24 58.7144 56.2863 60.4258 55.8263 62.295C55.3664 64.1643 55.4171 66.1228 55.9731 67.9658C61.1832 68.3817 66.333 67.8952 70.3926 64.209L70.7538 61.0472L72.2351 63.6932C73.7291 63.2729 75.2254 62.85 76.724 62.4245C76.2656 60.5597 75.3258 58.8478 73.9984 57.4601C72.6711 56.0724 71.0028 55.0574 69.1602 54.5166Z" fill="white"/>
<path d="M54.4869 141.522C54.0218 141.236 53.6251 140.851 53.3248 140.394C53.0245 139.938 52.828 139.421 52.749 138.881C52.67 138.34 52.7105 137.789 52.8676 137.266C53.0247 136.742 53.2946 136.26 53.6583 135.852L50.5016 101.964L58.6038 102.59L59.1591 135.704C59.8033 136.361 60.1844 137.231 60.2302 138.149C60.2759 139.068 59.983 139.971 59.4071 140.688C58.8312 141.406 58.0122 141.886 57.1054 142.04C56.1986 142.194 55.2669 142.009 54.4869 141.522H54.4869Z" fill="#FFB6B6"/>
<path d="M52.4016 84.0273C52.4016 84.0273 50.4483 83.7415 50.6745 87.9178C50.8557 91.2613 49.9948 111.87 51.4658 116.28C50.911 116.621 50.4857 117.138 50.2568 117.748C50.0279 118.358 50.0085 119.027 50.2016 119.649L59.6516 117.635C60.7525 115.743 60.5244 113.8 59.7243 113.485L59.7713 107.437L61.8598 87.5035L53.8171 84.2089L52.4016 84.0273Z" fill="#4141DB"/>
<path d="M100.699 144.657C100.446 144.348 100.265 143.987 100.169 143.599C100.073 143.212 100.065 142.808 100.145 142.417C101.079 137.765 101.079 132.974 100.145 128.323C100.065 127.932 100.073 127.528 100.169 127.14C100.265 126.752 100.446 126.391 100.699 126.082C100.942 125.785 101.247 125.545 101.592 125.379C101.938 125.212 102.315 125.123 102.699 125.118C106.815 123.477 110.758 123.477 114.419 125.118C115.051 125.129 115.659 125.366 116.132 125.784C116.606 126.203 116.915 126.777 117.004 127.403C117.723 132.69 117.723 138.05 117.004 143.336C116.914 143.97 116.599 144.55 116.116 144.97C115.633 145.39 115.014 145.621 114.374 145.621H102.739C102.348 145.622 101.963 145.536 101.61 145.369C101.257 145.203 100.946 144.959 100.699 144.657Z" fill="#4141DB"/>
<path d="M103.958 131.193H113.751C113.914 131.193 114.069 131.128 114.184 131.014C114.299 130.899 114.363 130.743 114.363 130.581C114.363 130.419 114.299 130.263 114.184 130.148C114.069 130.033 113.914 129.969 113.751 129.969H103.958C103.796 129.969 103.64 130.033 103.525 130.148C103.41 130.263 103.346 130.419 103.346 130.581C103.346 130.743 103.41 130.899 103.525 131.014C103.64 131.128 103.796 131.193 103.958 131.193Z" fill="white"/>
<path d="M103.958 136.089H113.751C113.914 136.089 114.069 136.025 114.184 135.91C114.299 135.795 114.363 135.64 114.363 135.477C114.363 135.315 114.299 135.159 114.184 135.044C114.069 134.93 113.914 134.865 113.751 134.865H103.958C103.796 134.865 103.64 134.93 103.525 135.044C103.41 135.159 103.346 135.315 103.346 135.477C103.346 135.64 103.41 135.795 103.525 135.91C103.64 136.025 103.796 136.089 103.958 136.089Z" fill="white"/>
<path d="M103.958 140.987H113.751C113.914 140.987 114.069 140.922 114.184 140.807C114.299 140.692 114.363 140.537 114.363 140.374C114.363 140.212 114.299 140.056 114.184 139.942C114.069 139.827 113.914 139.762 113.751 139.762H103.958C103.796 139.762 103.64 139.827 103.525 139.942C103.41 140.056 103.346 140.212 103.346 140.374C103.346 140.537 103.41 140.692 103.525 140.807C103.64 140.922 103.796 140.987 103.958 140.987Z" fill="white"/>
<path d="M373.136 238.424H368.118L365.73 219.065L373.137 219.065L373.136 238.424Z" fill="#A0616A"/>
<path d="M374.417 243.288L358.234 243.287V243.083C358.234 241.412 358.898 239.81 360.079 238.629C361.261 237.448 362.863 236.784 364.533 236.784H364.534L367.49 234.541L373.005 236.784L374.417 236.784L374.417 243.288Z" fill="white"/>
<path d="M349.82 238.424H344.802L342.414 219.065L349.821 219.065L349.82 238.424Z" fill="#A0616A"/>
<path d="M351.101 243.288L334.918 243.287V243.083C334.918 241.412 335.582 239.81 336.763 238.629C337.945 237.448 339.547 236.784 341.217 236.784H341.217L344.173 234.541L349.689 236.784L351.101 236.784L351.101 243.288Z" fill="white"/>
<path d="M377.132 114.483L370.497 134.885L349.581 134.2L356.008 114.483H377.132Z" fill="white"/>
<path d="M345.809 132.485L385.241 133.514L384.555 152.715C384.555 152.715 385.241 157.859 383.869 159.23C382.498 160.602 381.812 160.602 382.498 163.002C383.184 165.402 379.56 169.323 380 169.763C380.441 170.203 381.469 172.603 381.469 172.603L378.04 192.148C378.04 192.148 375.64 226.094 374.954 226.78C374.269 227.466 373.583 226.78 374.269 228.494C374.954 230.209 375.64 229.523 374.954 230.209C374.347 230.864 373.775 231.551 373.24 232.266H364.95C364.95 232.266 364.325 228.837 364.325 228.494C364.325 228.152 363.639 226.094 363.639 225.751C363.639 225.408 364.245 224.802 364.245 224.802C364.455 224.105 364.596 223.39 364.668 222.665C364.668 221.979 366.725 195.577 366.725 195.577L362.61 161.288L352.666 194.891C352.666 194.891 352.666 224.38 351.981 225.066C351.295 225.751 351.295 225.408 351.638 226.78C351.981 228.152 353.352 227.809 352.324 228.837C351.295 229.866 350.952 228.152 351.295 229.866L351.638 231.58L341.351 231.728C341.351 231.728 339.979 228.837 340.665 227.809C341.351 226.78 341.31 227.061 340.473 225.377C339.637 223.694 339.294 223.351 339.637 223.008C339.979 222.665 339.979 220.841 339.979 220.841L341.694 188.033C341.694 188.033 342.037 153.401 342.037 152.373C342.063 151.843 341.965 151.315 341.752 150.83V149.434L343.065 144.486L345.809 132.485Z" fill="white"/>
<path d="M349.409 82.5937L361.41 78.1361L381.298 79.5077L385.903 81.6566C387.523 82.4125 388.841 83.6909 389.647 85.2865C390.452 86.8821 390.698 88.7022 390.344 90.4542L384.384 119.969L385.925 134.169C385.925 134.169 360.896 153.058 341.351 147.229C341.351 147.229 341.694 141.742 342.037 139.685C342.38 137.628 343.066 137.628 343.409 136.599C343.751 135.57 344.437 136.599 343.751 134.542C343.066 132.484 349.238 118.083 349.238 118.083L349.409 82.5937Z" fill="white"/>
<path d="M368.379 85.2033L378.162 79.2922L374.955 73.5079H364.562L360.444 78.4956L368.379 85.2033Z" fill="white"/>
<path d="M371.744 133.805C372.303 133.838 372.862 133.747 373.382 133.54C373.902 133.333 374.37 133.014 374.754 132.606C375.137 132.198 375.427 131.711 375.602 131.18C375.777 130.648 375.833 130.084 375.767 129.529L388.002 123.574L381.918 119.97L371.232 126.177C370.306 126.35 369.475 126.858 368.898 127.602C368.321 128.347 368.037 129.278 368.1 130.218C368.163 131.159 368.569 132.043 369.24 132.704C369.912 133.366 370.803 133.757 371.744 133.805Z" fill="#A0616A"/>
<path d="M376.551 131.333L374.42 123.517L386.036 108.127C382.276 103.594 380.957 96.9002 381.885 87.085C381.679 86.0264 381.883 84.9293 382.455 84.0151C383.027 83.1008 383.924 82.4375 384.966 82.159C386.007 81.8805 387.116 82.0076 388.068 82.5145C389.019 83.0214 389.743 83.8705 390.094 84.8903C392.722 92.5568 397.295 109.056 396.7 109.949C396.014 110.978 395.778 111.435 396.857 112.418C398.136 113.583 397.458 118.55 396.874 119.263C396.342 119.912 376.551 131.333 376.551 131.333Z" fill="white"/>
<path d="M315.052 121.665C315.574 121.867 316.134 121.953 316.693 121.915C317.251 121.877 317.795 121.717 318.285 121.447C318.775 121.177 319.2 120.802 319.53 120.35C319.859 119.897 320.086 119.378 320.193 118.829L333.665 116.915L328.981 111.618L316.906 114.247C315.971 114.128 315.025 114.356 314.247 114.888C313.469 115.42 312.913 116.219 312.684 117.133C312.456 118.047 312.571 119.014 313.007 119.849C313.444 120.684 314.171 121.331 315.052 121.665Z" fill="#A0616A"/>
<path d="M320.833 120.538L322.878 112.699L339.814 103.157C341.038 95.4041 341.806 92.8762 347.5 84.8277C347.849 83.8075 348.572 82.9577 349.523 82.4498C350.475 81.9419 351.583 81.8138 352.625 82.0913C353.667 82.3688 354.565 83.0312 355.138 83.9448C355.711 84.8585 355.915 85.9554 355.711 87.0142C354.171 94.9712 347.204 116.296 346.343 116.623C345.559 116.921 320.833 120.538 320.833 120.538Z" fill="white"/>
<path d="M369.639 69.9073C375.51 69.9073 380.269 65.1483 380.269 59.2777C380.269 53.4071 375.51 48.6481 369.639 48.6481C363.769 48.6481 359.01 53.4071 359.01 59.2777C359.01 65.1483 363.769 69.9073 369.639 69.9073Z" fill="#A0616A"/>
<path d="M358.384 51.5669C358.666 49.0247 362.338 46.4824 368.835 44.7876C375.332 43.0928 378.721 50.437 378.721 50.437C383.241 52.6967 380.557 64.7017 379.145 63.5718C379.131 63.5605 379.117 63.5495 379.103 63.5388C378.182 62.8605 377.409 62.0015 376.831 61.0143C376.253 60.0272 375.882 58.9325 375.742 57.7973L375.416 54.8718C373.929 56.0119 372.252 56.9773 370.452 56.6903L372.655 54.5213C370.567 55.4297 368.479 56.3382 366.391 57.2467L368.465 54.3935L368.367 54.2971C367.396 55.1156 366.282 55.7466 365.08 56.1578C363.71 56.5505 362.069 56.3381 361.13 55.2656C360.877 54.9696 360.686 54.626 360.568 54.255C358.864 55.4225 358.525 57.9224 358.525 57.9224C358.525 57.9224 358.101 54.1091 358.384 51.5669Z" fill="white"/>
<path d="M315.733 128.569H304.097C303.457 128.568 302.839 128.337 302.355 127.917C301.872 127.497 301.557 126.918 301.467 126.284C300.748 120.997 300.748 115.637 301.467 110.35C301.556 109.724 301.865 109.15 302.339 108.732C302.812 108.313 303.42 108.077 304.052 108.066C307.713 106.425 311.656 106.425 315.773 108.065C316.156 108.071 316.534 108.159 316.879 108.326C317.224 108.493 317.529 108.733 317.772 109.03C318.025 109.338 318.206 109.7 318.302 110.087C318.398 110.475 318.406 110.879 318.326 111.27C317.392 115.922 317.392 120.713 318.326 125.364C318.406 125.755 318.398 126.159 318.302 126.547C318.206 126.934 318.025 127.296 317.772 127.604C317.525 127.907 317.214 128.15 316.861 128.317C316.508 128.484 316.123 128.57 315.733 128.569Z" fill="#3F3D56"/>
<path d="M314.514 114.14H304.72C304.558 114.14 304.402 114.075 304.287 113.96C304.173 113.846 304.108 113.69 304.108 113.528C304.108 113.365 304.173 113.21 304.287 113.095C304.402 112.98 304.558 112.916 304.72 112.916H314.514C314.676 112.916 314.832 112.98 314.946 113.095C315.061 113.21 315.126 113.365 315.126 113.528C315.126 113.69 315.061 113.846 314.946 113.96C314.832 114.075 314.676 114.14 314.514 114.14Z" fill="white"/>
<path d="M314.514 119.037H304.72C304.558 119.037 304.402 118.972 304.287 118.858C304.173 118.743 304.108 118.587 304.108 118.425C304.108 118.262 304.173 118.107 304.287 117.992C304.402 117.877 304.558 117.813 304.72 117.813H314.514C314.676 117.813 314.832 117.877 314.946 117.992C315.061 118.107 315.126 118.262 315.126 118.425C315.126 118.587 315.061 118.743 314.946 118.858C314.832 118.972 314.676 119.037 314.514 119.037Z" fill="white"/>
<path d="M314.514 123.933H304.72C304.558 123.933 304.402 123.869 304.287 123.754C304.173 123.639 304.108 123.483 304.108 123.321C304.108 123.159 304.173 123.003 304.287 122.888C304.402 122.773 304.558 122.709 304.72 122.709H314.514C314.676 122.709 314.832 122.773 314.946 122.888C315.061 123.003 315.126 123.159 315.126 123.321C315.126 123.483 315.061 123.639 314.946 123.754C314.832 123.869 314.676 123.933 314.514 123.933Z" fill="white"/>
<path d="M265.956 30.4379C270.238 30.4379 273.709 26.9667 273.709 22.6848C273.709 18.4028 270.238 14.9316 265.956 14.9316C261.674 14.9316 258.202 18.4028 258.202 22.6848C258.202 26.9667 261.674 30.4379 265.956 30.4379Z" fill="white"/>
<path d="M269.936 19.4537C269.819 19.3425 269.664 19.2804 269.503 19.2804C269.342 19.2804 269.187 19.3425 269.07 19.4537C267.425 20.7658 265.947 22.2751 264.67 23.9476C264.357 23.3411 264.043 22.7345 263.73 22.128C263.368 21.4279 262.311 22.0463 262.673 22.7459C263.131 23.633 263.59 24.5202 264.048 25.4074C264.104 25.4979 264.181 25.5728 264.274 25.6247C264.366 25.6766 264.471 25.7039 264.577 25.7039C264.683 25.7039 264.787 25.6766 264.88 25.6247C264.972 25.5728 265.05 25.4979 265.105 25.4074C266.466 23.491 268.092 21.7778 269.936 20.3194C270.049 20.2041 270.113 20.0486 270.113 19.8866C270.113 19.7245 270.049 19.569 269.936 19.4537Z" fill="white"/>
<path d="M228.006 30.4379C232.288 30.4379 235.759 26.9667 235.759 22.6848C235.759 18.4028 232.288 14.9316 228.006 14.9316C223.724 14.9316 220.253 18.4028 220.253 22.6848C220.253 26.9667 223.724 30.4379 228.006 30.4379Z" fill="white"/>
<path d="M231.986 19.4537C231.869 19.3425 231.714 19.2804 231.553 19.2804C231.392 19.2804 231.237 19.3425 231.12 19.4537C229.475 20.7658 227.998 22.2751 226.721 23.9476C226.407 23.3411 226.094 22.7345 225.78 22.128C225.418 21.4279 224.362 22.0463 224.723 22.7459C225.182 23.633 225.64 24.5202 226.099 25.4074C226.154 25.4979 226.232 25.5728 226.324 25.6247C226.417 25.6766 226.521 25.7039 226.627 25.7039C226.733 25.7039 226.838 25.6766 226.93 25.6247C227.023 25.5728 227.1 25.4979 227.156 25.4074C228.516 23.491 230.143 21.7778 231.986 20.3194C232.1 20.2041 232.164 20.0486 232.164 19.8866C232.164 19.7245 232.1 19.569 231.986 19.4537Z" fill="white"/>
<path d="M148.027 29.6214C152.309 29.6214 155.78 26.1502 155.78 21.8682C155.78 17.5863 152.309 14.1151 148.027 14.1151C143.745 14.1151 140.274 17.5863 140.274 21.8682C140.274 26.1502 143.745 29.6214 148.027 29.6214Z" fill="white"/>
<path d="M152.007 18.6382C151.89 18.5269 151.735 18.4648 151.574 18.4648C151.413 18.4648 151.258 18.5269 151.141 18.6382C149.496 19.9502 148.018 21.4595 146.741 23.1321C146.428 22.5255 146.114 21.919 145.801 21.3124C145.439 20.6123 144.382 21.2308 144.744 21.9303C145.202 22.8175 145.661 23.7046 146.119 24.5918C146.175 24.6824 146.252 24.7572 146.345 24.8091C146.437 24.8611 146.542 24.8883 146.648 24.8883C146.754 24.8883 146.858 24.8611 146.951 24.8091C147.044 24.7572 147.121 24.6824 147.176 24.5918C148.537 22.6754 150.164 20.9623 152.007 19.5038C152.121 19.3885 152.184 19.233 152.184 19.071C152.184 18.909 152.121 18.7534 152.007 18.6382Z" fill="white"/>
<path d="M55.3969 61.4508C58.3267 61.4508 60.7017 59.0758 60.7017 56.1461C60.7017 53.2163 58.3267 50.8413 55.3969 50.8413C52.4672 50.8413 50.0922 53.2163 50.0922 56.1461C50.0922 59.0758 52.4672 61.4508 55.3969 61.4508Z" fill="white"/>
<path d="M115.888 243.143C115.888 243.207 115.876 243.27 115.851 243.329C115.827 243.388 115.791 243.442 115.746 243.487C115.701 243.532 115.647 243.568 115.588 243.592C115.529 243.617 115.466 243.629 115.402 243.629H1.02746C0.898675 243.629 0.775161 243.578 0.684096 243.487C0.59303 243.396 0.54187 243.272 0.54187 243.143C0.54187 243.015 0.59303 242.891 0.684096 242.8C0.775161 242.709 0.898675 242.658 1.02746 242.658H115.402C115.466 242.658 115.529 242.67 115.588 242.694C115.647 242.719 115.701 242.754 115.746 242.8C115.791 242.845 115.827 242.898 115.851 242.957C115.876 243.016 115.888 243.08 115.888 243.143Z" fill="#CCCCCC"/>
<path d="M410.099 243.143C410.099 243.207 410.087 243.27 410.062 243.329C410.038 243.388 410.002 243.442 409.957 243.487C409.912 243.532 409.858 243.568 409.799 243.592C409.74 243.617 409.677 243.629 409.613 243.629H295.238C295.11 243.629 294.986 243.578 294.895 243.487C294.804 243.396 294.753 243.272 294.753 243.143C294.753 243.015 294.804 242.891 294.895 242.8C294.986 242.709 295.11 242.658 295.238 242.658H409.613C409.677 242.658 409.74 242.67 409.799 242.694C409.858 242.719 409.912 242.754 409.957 242.8C410.002 242.845 410.038 242.898 410.062 242.957C410.087 243.016 410.099 243.08 410.099 243.143Z" fill="#CCCCCC"/>
<path d="M53.7997 50.8244C52.8815 50.569 51.9264 50.9967 51.0694 51.4138L48.021 52.8973C50.1314 53.0825 52.2419 53.2676 54.3524 53.4528L54.5856 53.014C55.316 52.4017 54.718 51.0798 53.7997 50.8244Z" fill="white"/>
</g>
<defs>
<clipPath id="clip0_207_12369">
<rect width="409.557" height="242.914" fill="white" transform="translate(0.541992 0.713379)"/>
</clipPath>
</defs>
</svg>
