<svg width="120" height="18" viewBox="0 0 120 18" fill="none" xmlns="http://www.w3.org/2000/svg">
<path d="M4.42454 17.9735L5.93563 11.441L0.867676 7.04719L7.56295 6.466L10.1667 0.30542L12.7704 6.466L19.4657 7.04719L14.3977 11.441L15.9088 17.9735L10.1667 14.5096L4.42454 17.9735Z" fill="#FFB800"/>
<path d="M29.531 17.9734L31.0421 11.4409L25.9741 7.04713L32.6694 6.46594L35.2731 0.305359L37.8768 6.46594L44.5721 7.04713L39.5042 11.4409L41.0152 17.9734L35.2731 14.5096L29.531 17.9734Z" fill="#FFB800"/>
<path d="M54.6384 17.9734L56.1495 11.4409L51.0815 7.04713L57.7768 6.46594L60.3805 0.305359L62.9843 6.46594L69.6795 7.04713L64.6116 11.4409L66.1227 17.9734L60.3805 14.5096L54.6384 17.9734Z" fill="#FFB800"/>
<path d="M79.7458 17.9734L81.2569 11.4409L76.189 7.04713L82.8842 6.46594L85.488 0.305359L88.0917 6.46594L94.787 7.04713L89.719 11.4409L91.2301 17.9734L85.488 14.5096L79.7458 17.9734Z" fill="#CCCCCC"/>
<path d="M104.853 17.9734L106.364 11.4409L101.296 7.04713L107.992 6.46594L110.595 0.305359L113.199 6.46594L119.894 7.04713L114.826 11.4409L116.338 17.9734L110.595 14.5096L104.853 17.9734Z" fill="#CCCCCC"/>
</svg>
