<svg width="120" height="18" viewBox="0 0 120 18" fill="none" xmlns="http://www.w3.org/2000/svg">
<path d="M3.72776 17.9735L5.23885 11.441L0.170898 7.04719L6.86617 6.466L9.46989 0.30542L12.0736 6.466L18.7689 7.04719L13.7009 11.441L15.212 17.9735L9.46989 14.5096L3.72776 17.9735Z" fill="#FFB800"/>
<path d="M28.8352 17.9734L30.3463 11.4409L25.2783 7.04713L31.9736 6.46594L34.5773 0.305359L37.181 6.46594L43.8763 7.04713L38.8084 11.4409L40.3194 17.9734L34.5773 14.5096L28.8352 17.9734Z" fill="#FFB800"/>
<path d="M53.9426 17.9734L55.4537 11.4409L50.3857 7.04713L57.081 6.46594L59.6847 0.305359L62.2885 6.46594L68.9837 7.04713L63.9158 11.4409L65.4269 17.9734L59.6847 14.5096L53.9426 17.9734Z" fill="#FFB800"/>
<path d="M79.0495 17.9734L80.5606 11.4409L75.4927 7.04713L82.188 6.46594L84.7917 0.305359L87.3954 6.46594L94.0907 7.04713L89.0227 11.4409L90.5338 17.9734L84.7917 14.5096L79.0495 17.9734Z" fill="#FFB800"/>
<path d="M104.157 17.9734L105.668 11.4409L100.6 7.04713L107.295 6.46594L109.899 0.305359L112.503 6.46594L119.198 7.04713L114.13 11.4409L115.641 17.9734L109.899 14.5096L104.157 17.9734Z" fill="#FFB800"/>
</svg>
