<svg width="120" height="19" viewBox="0 0 120 19" fill="none" xmlns="http://www.w3.org/2000/svg">
<path d="M4.5305 18.02L6.04158 11.4874L0.973633 7.09364L7.66891 6.51245L10.2726 0.351868L12.8763 6.51245L19.5716 7.09364L14.5037 11.4874L16.0148 18.02L10.2726 14.5561L4.5305 18.02Z" fill="#FFB800"/>
<path d="M29.6374 18.0199L31.1485 11.4874L26.0806 7.09358L32.7758 6.51239L35.3796 0.351807L37.9833 6.51239L44.6786 7.09358L39.6106 11.4874L41.1217 18.0199L35.3796 14.556L29.6374 18.0199Z" fill="#FFB800"/>
<path d="M54.7444 18.0199L56.2555 11.4874L51.1875 7.09358L57.8828 6.51239L60.4865 0.351807L63.0902 6.51239L69.7855 7.09358L64.7175 11.4874L66.2286 18.0199L60.4865 14.556L54.7444 18.0199Z" fill="#FFB800"/>
<path d="M79.8518 18.0199L81.3629 11.4874L76.2949 7.09358L82.9902 6.51239L85.5939 0.351807L88.1976 6.51239L94.8929 7.09358L89.825 11.4874L91.336 18.0199L85.5939 14.556L79.8518 18.0199Z" fill="#FFB800"/>
<path d="M104.959 18.0199L106.47 11.4874L101.402 7.09358L108.098 6.51239L110.701 0.351807L113.305 6.51239L120 7.09358L114.932 11.4874L116.443 18.0199L110.701 14.556L104.959 18.0199Z" fill="#CCCCCC"/>
</svg>
