<svg width="722" height="449" viewBox="0 0 722 449" fill="none" xmlns="http://www.w3.org/2000/svg">
<path d="M205.515 41.4483C205.198 38.946 204.558 36.4953 203.61 34.1577C203.366 33.2639 202.757 32.5141 201.933 32.0914C201.388 31.9496 200.816 31.9432 200.268 32.0727L191.721 33.3805C191.006 33.4132 190.321 33.6794 189.771 34.1382C188.658 35.3089 189.754 37.1941 189.72 38.8091C189.682 40.6253 188.068 42.0995 186.318 42.5872C184.532 42.9481 182.689 42.9253 180.912 42.5202L168.961 40.663C172.481 39.5394 175.614 37.4487 178.003 34.6296C179.575 32.7666 180.412 29.2882 178.139 28.4059C177.464 28.2206 176.759 28.164 176.063 28.2392C170.649 28.2813 166.388 23.7604 161.319 21.8564C154.663 19.5181 147.259 21.7253 142.971 27.326L149.337 27.6329C149.936 27.5998 150.53 27.7582 151.033 28.0851C152.428 29.2315 150.694 31.4334 150.89 33.2285C151.146 35.5606 154.242 36.0586 156.576 36.2944C158.911 36.5302 161.872 38.4268 160.749 40.4868C149.017 44.5278 137.078 32.5873 124.757 34.0571C121.638 34.4291 118.694 35.6542 115.649 36.4246C97.0505 41.1303 77.8226 28.5749 58.823 31.2339C54.5991 31.9539 50.4478 33.0488 46.4183 34.5055C43.8324 35.3545 41.1352 36.2721 39.2563 38.2412C37.3774 40.2103 36.6623 43.5778 38.4422 45.6368C33.5362 46.0408 28.5974 45.5714 23.8554 44.2503C26.4674 45.7022 28.0786 48.4641 28.0569 51.4525C20.3967 52.7016 12.9394 54.9755 5.88545 58.2129C7.20197 60.4021 8.73967 62.4506 10.4744 64.3259L0.776855 70.5561C4.05316 71.3816 5.74708 75.849 3.8418 78.6393C7.23895 77.128 9.34435 73.2184 12.977 72.4257C15.3569 71.9064 17.7785 72.88 20.0362 73.7946C22.2939 74.7092 24.7753 75.596 27.1125 74.9096C29.4497 74.2232 31.1736 71.1926 29.6885 69.2618C39.6782 66.3472 50.0024 64.7342 60.4052 64.4628C61.2077 64.3621 62.0216 64.5166 62.7315 64.9043C64.0857 65.8438 63.7294 67.8731 63.6564 69.5196C63.5835 71.1662 64.8668 73.3302 66.3384 72.588C64.607 74.0893 66.0871 76.9157 67.7482 78.4945C69.4092 80.0732 71.4113 82.2517 70.3944 84.3053C70.129 84.8413 69.6788 85.2702 69.4234 85.811C68.6696 87.4074 69.8665 89.2686 71.2782 90.3288C72.6898 91.3889 74.419 92.1299 75.3996 93.5979C76.3802 95.066 75.9349 97.6357 74.1814 97.8407L69.1973 91.5125C67.4945 93.2782 66.3271 95.4905 65.8305 97.8928C71.1157 102.213 71.9107 111.007 67.4859 116.206C65.2248 118.862 62.0092 120.476 59.2028 122.548C56.3963 124.62 53.7994 127.571 53.8065 131.059C53.8187 137.086 53.3262 142.686 55.5846 148.273C59.7492 158.577 64.5573 168.608 69.9805 178.308C71.4047 180.855 73.2453 183.647 76.1303 184.085C72.4842 175.209 69.2019 166.194 66.2835 157.042C68.1843 157.049 70.3809 157.2 71.4952 158.74C72.4179 160.015 72.2197 161.749 72.5064 163.297C72.8711 164.796 73.4792 166.226 74.3065 167.528L91.7181 198.544C93.1614 201.115 94.8171 203.874 97.5757 204.916C99.3394 205.581 101.38 205.456 103.003 206.414C104.276 207.166 105.133 208.499 106.43 209.207C110.098 211.208 115.198 207.37 118.626 209.759C119.606 210.442 120.229 211.527 121.132 212.309C124.298 215.051 129.491 213.217 133.146 215.262C135.501 216.58 136.722 219.216 137.978 221.605C141.125 227.589 146.217 233.451 152.96 233.927C155.079 234.077 157.243 233.675 159.313 234.147C161.384 234.618 163.423 236.425 163.09 238.522C162.52 242.118 164.297 246.056 163.82 249.665C162.951 256.24 153.625 259.129 152.824 265.712C152.649 267.154 152.923 268.641 152.58 270.052C152.159 271.781 150.861 273.189 150.399 274.908C149.525 278.165 151.858 281.407 154.422 283.598C156.985 285.789 160.043 287.679 161.445 290.747C162.926 293.989 162.199 297.769 162.68 301.301C163.732 309.012 170.392 314.728 177.246 318.414C179.334 319.537 181.577 320.624 182.928 322.572C184.692 325.115 184.517 328.467 185.106 331.505C186.548 338.945 192.812 345.076 192.99 352.653C193.116 358.039 190.123 362.924 188.334 368.006C184.942 377.858 186.009 388.699 191.258 397.7C192.596 399.959 194.196 402.088 195.142 404.537C196.831 408.907 196.283 413.875 197.84 418.293C199.899 424.135 205.555 428.96 205.014 435.13C207.582 440.463 213.253 443.084 218.955 444.671L229.174 447.516C231.131 448.06 233.176 448.609 235.169 448.215C237.161 447.821 239.063 446.166 239.011 444.136C234 443.005 228.827 441.803 224.696 438.75C220.565 435.696 217.735 430.257 219.302 425.365C220.029 423.096 221.576 420.476 220.105 418.602C219.264 417.529 217.725 417.248 216.775 416.269C215.294 414.742 215.803 412.176 216.868 410.334C217.932 408.492 219.471 406.846 219.9 404.762C220.344 402.375 219.258 399.963 217.176 398.714C219.071 397.999 220.794 396.893 222.234 395.469C223.564 393.95 224.179 391.608 223.132 389.881C226.24 390.275 229.909 390.468 231.948 388.091C233.577 386.193 233.466 383.355 232.822 380.938C232.178 378.52 231.09 376.173 231.056 373.672C238.225 374.011 245.409 373.768 252.538 372.943C251.507 369.471 249.164 366.538 246.007 364.764C249.236 364.217 252.177 360.352 253.197 357.24C254.217 354.129 253.957 350.74 253.326 347.526C253.084 346.699 253.051 345.824 253.23 344.981C253.593 343.822 254.732 343.115 255.785 342.511L271.811 333.307C272.767 332.828 273.634 332.188 274.373 331.415C276.052 329.443 275.804 326.465 274.944 324.022C274.084 321.579 272.707 319.281 272.376 316.712C271.385 309.029 279.61 303.517 282.385 296.285C283.475 293.447 283.697 290.362 283.907 287.329C284.134 284.072 284.151 280.288 281.65 278.189C279.252 276.177 275.506 276.626 272.998 274.754C270.698 273.038 269.904 269.706 267.392 268.32C265.11 267.061 262.249 267.862 259.711 267.27C255.243 266.228 252.431 261.078 247.867 260.601C245.293 260.332 242.379 261.59 240.268 260.091C238.409 258.77 238.334 256.114 237.98 253.86C236.71 246.687 231.106 241.065 223.937 239.772C221.282 239.346 218.392 239.508 216.134 238.049C213.847 236.571 212.799 233.806 211.002 231.76C208.107 228.463 203.547 227.291 199.276 226.287L181.902 222.203C178.818 221.477 174.842 221.093 173.187 223.795C172.697 224.823 172.35 225.914 172.156 227.037C170.884 231.204 167.069 234.075 162.713 234.144C161.257 231.661 158.898 229.835 156.129 229.049C154.367 228.558 152.481 228.504 150.801 227.781C148.951 226.879 147.555 225.254 146.941 223.29C146.327 221.326 146.548 219.195 147.553 217.4C149.613 213.733 148.96 209.142 145.962 206.194C143.007 203.542 138.733 202.901 134.771 203.166C133.733 200.902 135.468 198.348 137.338 196.702C139.208 195.057 141.478 193.439 141.885 190.982C142.525 187.117 137.594 184.182 133.85 185.334C130.105 186.487 127.716 190.124 126.136 193.708C125.229 195.765 124.459 197.931 123.029 199.666C121.599 201.4 119.297 202.642 117.119 202.085C114.036 201.298 112.845 197.635 112.163 194.526C111.248 190.356 110.327 186.128 110.519 181.863C110.71 177.598 112.148 173.218 115.293 170.331C120.418 165.626 128.281 166.087 135.197 166.838C133.563 164.996 133.967 161.894 135.716 160.161C137.589 158.496 140.164 157.863 142.596 158.47C144.68 158.904 146.558 160.027 147.927 161.657C149.892 164.054 150.451 167.289 151.937 170.009C153.423 172.729 156.763 175.049 159.498 173.59C161.859 172.33 162.234 169.055 161.646 166.443C161.059 163.831 159.81 161.292 160.023 158.623C160.429 153.531 165.708 150.466 170.365 148.369C175.023 146.272 180.357 143.452 181.095 138.397C181.12 137.408 181.307 136.429 181.648 135.499C182.164 134.679 182.882 134.003 183.733 133.538C197.327 124.554 211.147 115.461 226.684 110.552C227.493 110.297 227.588 110.581 228.411 110.381C229.564 109.714 228.8 107.871 227.695 107.128C226.59 106.386 225.112 105.816 224.832 104.514C224.625 103.557 225.189 102.618 225.336 101.65C225.696 99.2716 222.85 97.0757 220.641 98.0265C219.393 96.3736 221.862 94.453 223.859 93.9032C229.856 92.253 236.011 91.2475 242.22 90.9038C242.937 90.7899 243.671 90.9148 244.31 91.2592C245.353 91.9817 245.22 93.6387 244.48 94.6699C243.741 95.7011 242.591 96.3486 241.67 97.2211C239.619 99.2196 238.852 102.194 239.681 104.936C242.923 106.585 246.447 108.282 250.037 107.701C253.628 107.12 256.814 103.086 255.127 99.8645C253.555 96.8642 248.835 96.1875 248.023 92.8993C247.072 89.0494 252.522 85.6253 251.295 81.8545C250.757 80.2029 249.111 79.2308 247.848 78.0383C244.794 75.0457 243.894 70.4843 245.582 66.5561C241.407 67.2906 237.135 65.9539 234.124 62.9706C231.383 60.2049 229.197 55.8419 225.305 55.9657C221.734 56.0792 218.658 60.2456 215.319 58.9745C214.498 58.6618 213.631 58.0253 212.835 58.3983C212.307 58.7414 211.965 59.3084 211.909 59.9361C211.06 63.9933 212.52 68.6159 210.309 72.1218C207.903 75.9368 202.337 76.4658 199.42 79.9061C197.836 81.7735 197.223 84.29 195.767 86.2589C194.312 88.2278 191.222 89.4795 189.476 87.7638C191.243 84.1294 190.266 79.7556 187.12 77.2191C185.498 76.1611 183.75 75.3107 181.916 74.6882C179.868 73.8209 177.919 72.7347 176.103 71.4483C175.194 70.8998 174.455 70.1093 173.969 69.1649C173.585 67.9825 173.637 66.7016 174.115 65.554C175.92 60.3785 180.444 56.629 185.865 55.8154C188.19 55.499 190.897 55.6105 192.436 53.8385C193.251 52.9009 193.678 51.4833 194.86 51.1024C195.616 50.9505 196.401 51.0472 197.098 51.3781L205.779 54.4335C206.747 54.8708 207.813 55.047 208.871 54.9449C209.959 54.7984 210.75 53.8374 210.684 52.7416C210.407 51.3 208.189 50.6082 208.39 49.1542C208.503 48.683 208.757 48.2571 209.117 47.9329C215.46 41.1815 224.487 37.6166 233.732 38.2126C234.828 40.012 233.095 42.143 231.653 43.6791C230.211 45.2153 229.052 47.9601 230.796 49.1425C231.511 49.5072 232.305 49.6863 233.107 49.6631C235.245 49.9524 237.322 50.5824 239.259 51.5291C242.259 52.8345 245.201 54.2629 248.086 55.814C247.831 53.9121 247.588 51.9085 248.309 50.1301C249.03 48.3517 251.078 46.9569 252.868 47.6494C254.593 48.3169 255.477 50.6005 257.315 50.8098C259.766 51.0888 260.733 47.4678 259.709 45.2234C258.685 42.979 256.658 41.0997 256.489 38.6386C256.375 36.9782 257.007 34.919 255.681 33.9137C255.209 33.6118 254.673 33.424 254.116 33.365L221 27.2711C219.034 26.9092 216.193 27.1866 216.105 29.1842C216.057 30.2992 217.053 31.4023 216.612 32.4275C216.141 33.5217 214.594 33.4217 213.467 33.8087C211.719 34.4092 210.842 36.4848 211.01 38.3254C211.317 40.1544 212.026 41.8927 213.084 43.4156C210.93 42.5151 207.669 42.349 205.515 41.4483Z" fill="black"/>
<path d="M179.091 13.3385C174.814 11.9229 170.107 13.3323 167.312 16.8662C166.767 17.5842 166.309 18.5739 166.765 19.3513C167.42 20.4658 169.087 20.0256 170.317 19.6269C172.124 18.9813 174.091 18.9343 175.926 19.4931C177.081 19.8894 178.114 20.5899 179.273 20.9713C180.423 21.4524 181.745 21.2592 182.709 20.4692C183.505 19.6576 183.555 18.3958 183.557 17.2592C183.668 16.489 183.427 15.7094 182.899 15.1374C182.435 14.8686 181.913 14.7144 181.377 14.6875C180.178 14.4654 179.093 13.8317 178.311 12.8955" fill="black"/>
<path d="M191.033 10.0128C190.083 9.96108 189.174 10.4084 188.635 11.1932C188.097 11.9779 188.006 12.9866 188.396 13.8548C189.832 14.2462 191.331 14.344 192.805 14.1422C194.308 13.9089 195.524 12.7945 195.886 11.3172C194.151 11.633 192.36 11.2909 190.864 10.3579" fill="black"/>
<path d="M231.095 4.46073C227.189 5.2912 223.394 6.5802 219.791 8.30091C223.279 9.64161 225.481 13.1045 225.215 16.8318C225.063 17.5289 225.081 18.2523 225.267 18.9411C225.682 19.9476 226.885 20.3253 227.943 20.5836C229.843 21.1619 231.827 21.4152 233.812 21.3328C235.829 21.2272 237.656 20.1106 238.67 18.364C238.958 17.548 239.295 16.7504 239.681 15.9758C242.216 12.1146 249.747 16.7833 252.469 13.0515C253.428 11.7369 253.341 9.75805 254.59 8.71636C255.237 8.2625 255.987 7.97655 256.771 7.88422C262.245 6.79664 267.774 6.00914 273.334 5.52523C275.969 5.29599 279.403 4.35006 279.424 1.7058C269.502 -0.243038 259.213 1.14107 250.158 5.64295C246.895 7.277 242.581 10.7142 239.438 8.5479C238.261 7.73681 238.32 5.5526 236.7 4.64054C235.044 3.70832 232.852 4.08709 231.095 4.46073Z" fill="black"/>
<path d="M263.546 10.5293L268.204 11.4243C266.469 11.3474 264.786 12.0213 263.583 13.2736C262.381 14.5259 261.776 16.2355 261.923 17.9655C266.285 19.4227 271.04 18.0046 275.635 18.1983C280.23 18.3921 285.576 21.6742 284.792 26.2058C284.554 27.5759 283.763 28.9452 284.174 30.2734C284.463 31.2044 285.284 31.865 285.747 32.7224C286.713 34.5091 285.941 36.769 284.722 38.3931C283.503 40.0173 281.864 41.3132 280.793 43.0392C278.131 47.3321 279.644 52.8819 281.229 57.6778C281.688 59.4899 282.535 61.1808 283.711 62.6335C286.06 65.1315 289.889 65.3487 293.318 65.3988C295.814 65.4352 298.673 65.3119 300.251 63.3783C302.311 60.8539 300.87 56.9152 302.227 53.9524C303.459 51.2616 306.598 50.1073 309.442 49.2885C314.652 47.7886 319.962 46.5134 324.887 44.2478C331.004 41.4346 336.72 37.0503 343.442 36.6882C345.328 36.5866 347.261 36.8092 349.078 36.2924C350.895 35.7757 352.62 34.205 352.483 32.3213C352.365 30.7118 351.003 29.5299 349.939 28.3166C348.875 27.1033 348.04 25.2375 349.018 23.9538L366.639 20.6626C365.389 17.2586 364.416 12.7755 367.287 10.5598C368.322 9.76042 369.709 9.44089 370.59 8.47443C372.093 6.82721 371.338 3.98969 369.603 2.58881C367.868 1.18793 365.523 0.862747 363.3 0.678162C355.574 0.036484 347.803 0.46048 340.062 0.884842C324.93 1.71431 309.797 2.54381 294.664 3.37326C291.618 3.54024 288.101 3.28516 285.307 4.32443C282.942 5.20428 281.26 6.81935 278.555 7.38681C273.561 8.43477 268.065 7.72557 263.546 10.5293Z" fill="black"/>
<path d="M346.991 47.3466C346.517 47.2714 346.031 47.3816 345.635 47.6541C345.374 47.9423 345.218 48.311 345.194 48.6996C344.893 50.4143 345.252 52.1794 346.197 53.6412C347.178 55.1017 348.874 55.9149 350.627 55.765C352.724 55.4976 354.27 53.7082 356.198 52.8351C359.17 51.4906 371.791 49.3947 363.06 44.6779C360.051 43.0525 358.107 44.4874 355.736 45.5579C353.038 46.9382 350.015 47.5565 346.991 47.3466V47.3466Z" fill="black"/>
<path d="M423.46 7.86592C422.44 8.28244 421.588 9.02477 421.035 9.97704C420.505 10.9813 420.857 12.2242 421.833 12.8028C422.214 12.9408 422.618 13.0049 423.023 12.9914L427.168 13.1153C428.929 13.1678 431.128 13.5429 431.601 15.2399C431.953 16.4999 431.166 18.1191 432.115 19.0196C432.522 19.3349 433.012 19.5259 433.525 19.5695C434.891 19.9203 436.317 19.9663 437.702 19.7043C440.718 18.8953 439.133 17.0546 440.083 15.4155C441.536 12.9077 441.285 14.4258 443.846 12.9885C445.737 11.927 448.181 10.0015 446.602 7.29613C443.857 2.59149 427.511 5.84509 423.46 7.86592Z" fill="black"/>
<path d="M505.273 5.50178L502.866 5.82294C497.438 6.54728 491.98 7.27822 486.752 8.90816C489.015 9.80283 491.389 10.3854 493.81 10.6398C495.142 10.7051 496.465 10.8932 497.762 11.2017C500.071 11.8891 502.398 13.664 504.629 12.7548C506.012 12.191 506.463 10.7509 507.609 9.98768C508.4 9.46062 511.401 8.60763 511.736 8.0757C514.448 3.77497 507.358 5.22385 505.273 5.50178Z" fill="black"/>
<path d="M515.842 16.4406C512.627 18.2383 509.644 20.4227 506.96 22.9452C505.829 24.0084 504.674 25.3305 504.776 26.8793C504.913 28.9377 507.106 30.1316 509.005 30.9359L516.7 34.1936C517.633 32.878 516.779 31.0619 515.814 29.769C514.849 28.4761 513.703 26.9803 514.129 25.4244C514.615 23.649 516.78 23.0439 518.595 22.7381C521.553 22.2397 529.532 22.2797 528.573 17.5131C527.443 11.8966 518.811 14.7808 515.842 16.4406Z" fill="black"/>
<path d="M514.296 334.284C513.563 336.404 513.494 338.903 514.761 340.754C516.183 342.832 519.028 343.606 521.49 343.079C523.941 342.427 526.127 341.022 527.737 339.063C529.211 337.421 530.423 335.562 531.331 333.552C532.599 330.419 533.493 327.148 533.994 323.806L536.383 311.262C536.917 308.459 536.897 299.865 531.744 302.665C530.337 303.43 527.078 309.47 525.603 311.182C522.944 314.269 522.592 317.264 521.193 321.004C519.44 325.688 515.917 329.592 514.296 334.284Z" fill="black"/>
<path d="M448.253 153.463C448.56 155.113 448.863 156.85 448.322 158.438C447.781 160.027 446.081 161.354 444.475 160.867C443.229 160.49 442.509 159.237 441.624 158.281C436.703 152.968 425.6 156.044 422.56 149.471C421.319 146.789 422.162 143.575 421.316 140.743C420.218 137.377 416.983 135.179 413.449 135.399C411.882 135.625 410.356 136.081 408.922 136.75C399.31 140.6 389.219 143.124 378.926 144.253C376.97 144.372 375.035 144.724 373.163 145.301C368.937 146.833 366.049 150.751 363.994 154.749C361.939 158.747 360.422 163.076 357.667 166.628C354.771 170.361 350.714 172.975 346.929 175.803C345.471 176.742 344.257 178.015 343.387 179.515C342.566 181.2 342.613 183.159 342.676 185.032L343.45 207.776C343.549 210.702 343.674 213.732 344.984 216.35C346.619 219.619 349.849 221.76 352.089 224.648C354.376 227.616 355.567 231.283 355.461 235.028C355.414 236.534 355.264 238.315 356.437 239.26C357.15 239.723 357.985 239.963 358.835 239.95L389.601 242.468C395.014 242.911 401.011 243.639 404.545 247.763C406.212 249.709 407.552 252.507 410.106 252.716C411.202 252.806 412.268 252.356 413.364 252.269C416.129 252.05 418.557 254.149 420.09 256.46C422.41 259.983 423.463 264.19 423.077 268.39C422.825 271.027 422.008 273.59 421.832 276.233C421.161 286.288 429.685 295.025 429.851 305.101C429.948 311.028 427.134 316.566 424.391 321.821C428.818 328.528 425.193 337.46 426.956 345.3C428.628 352.739 434.83 358.563 436.376 366.029C437.083 369.447 437.124 373.654 440.138 375.414C441.461 376.059 442.927 376.352 444.396 376.266C453.255 376.371 462.014 374.378 469.955 370.448C473.681 368.598 477.544 365.837 478.195 361.728C478.72 358.414 477.039 354.707 478.749 351.821C480.765 348.419 485.929 348.688 488.895 346.073C493.706 341.829 489.954 333.736 491.904 327.624C493.656 322.13 499.688 319.212 502.678 314.281C503.855 312.16 504.699 309.872 505.182 307.495C506.552 301.815 507.404 296.022 507.729 290.188C507.809 286.643 508.07 283.105 508.512 279.587C511.736 259.559 531.536 246.148 537.965 226.907C538.579 225.07 538.867 222.622 537.232 221.583C536.263 221.12 535.163 221.005 534.119 221.257L519.936 223.045C518.175 223.267 516.308 223.474 514.69 222.743C513.072 222.011 511.913 219.965 512.771 218.41C515.18 214.047 510.224 208.533 508.023 204.061C502.094 192.021 495.034 180.571 486.938 169.867C486.42 169.317 486.096 168.612 486.014 167.86L490.039 167.994C488.681 163.119 486.438 157.783 481.701 156C479.032 154.995 476.076 155.342 473.229 155.498C465.071 155.943 456.326 154.711 448.253 153.463Z" fill="black"/>
<path d="M473.234 43.5898C475.369 45.8565 477.76 48.2598 480.849 48.6549C486.304 49.3528 490.226 43.7119 492.723 38.8122C492.915 41.4095 495.14 43.3819 497.741 43.2615C499.088 43.035 500.373 42.5326 501.516 41.7858C512.324 35.8795 524.43 32.75 536.746 32.6786C536.501 30.7463 537.755 28.941 539.651 28.496C542.155 27.9996 544.411 30.1646 545.619 32.4135C546.827 34.6625 547.58 37.2692 549.499 38.9526C551.418 40.6359 555.134 40.5627 555.892 38.125C556.62 35.7846 554.182 33.7889 552.156 32.4091C550.131 31.0293 547.996 28.4756 549.36 26.4394C559.708 24.1488 570.121 21.8494 580.71 21.3941C582.512 21.4568 584.309 21.1474 585.987 20.485C587.602 19.6926 588.885 17.8937 588.451 16.1481C583.724 17.2592 578.796 15.4001 575.98 11.4444C590.673 10.2319 606.301 9.19841 619.322 16.112C620.884 19.4664 612.921 22.2573 615.051 25.2829C615.731 26.2478 617.093 26.361 618.273 26.3829C627.321 26.5509 636.422 26.7157 645.369 25.3495C648.638 24.8503 651.94 24.1455 655.223 24.5503C660.69 25.2246 665.366 28.8726 670.745 30.062C672.935 30.5461 675.389 30.5625 677.235 29.2892C679.08 28.0159 679.874 25.1164 678.361 23.4611C683.426 18.4975 691.831 19.7277 698.512 22.104C705.193 24.4803 711.523 28.3125 718.594 28.8422C723.665 29.2221 728.806 27.8581 733.817 28.7251C736.965 29.2699 739.896 30.6706 742.973 31.5312C748.794 33.1589 754.95 32.8153 760.994 32.8936C776.413 33.1013 791.663 36.1317 805.99 41.8347C807.854 42.4415 809.562 43.4503 810.992 44.79C812.325 46.2176 813.005 48.4359 812.109 50.1715L797.305 48.0084C798.699 50.7543 802.308 51.2222 805.239 52.1695C808.169 53.1168 811.208 56.3531 809.447 58.8798C806.271 57.8687 803.394 61.0433 801.79 63.9643C800.186 66.8853 798.231 70.3834 794.904 70.5613C791.924 70.7207 788.32 68.1835 786.378 70.4489C789.061 73.834 791.359 77.5075 793.229 81.4015C795.147 85.3991 796.514 90.4363 793.921 94.0331C793.513 94.6751 792.894 95.155 792.17 95.3904C790.052 95.9267 788.676 93.3354 787.157 91.7649C785.243 89.7857 782.348 89.2252 779.756 88.297C777.164 87.3688 774.433 85.5429 774.23 82.7971C774.104 81.0886 775.006 79.5005 775.67 77.9216C776.787 75.2601 777.275 72.3771 777.098 69.4964C776.952 67.1788 776.302 64.7681 774.638 63.1488C772.974 61.5295 770.1 61.0158 768.313 62.4989C767.479 63.1909 766.811 64.2979 765.729 64.3392C763.815 64.4124 762.347 61.0771 760.808 62.2157C760.988 63.4288 760.737 64.6667 760.097 65.7132C755.504 69.7077 748.448 68.0178 742.527 69.4289C739.712 70.2347 737.016 71.4119 734.511 72.9295C733.574 73.3302 732.777 73.9994 732.22 74.8528C731.481 76.2891 732.296 78.1286 733.599 79.0836C734.98 79.9309 736.533 80.4608 738.144 80.635C745.362 82.0022 752.686 84.1185 758.385 88.7551C764.084 93.3916 767.822 101.056 766.018 108.178L751.783 94.576C752.324 100.287 752.63 106.014 752.703 111.757C752.796 112.878 752.642 114.006 752.252 115.062C751.237 117.303 748.487 118.057 746.077 118.552C744.721 118.81 743.54 119.634 742.83 120.818C742.121 122.002 741.951 123.433 742.363 124.75C743.22 127.541 745.355 129.717 747.31 131.886C749.265 134.054 751.189 136.519 751.445 139.427C751.701 142.336 749.507 145.614 746.594 145.412C744.386 145.258 742.748 143.282 741.806 141.279C740.864 139.276 740.304 137.044 738.889 135.343C734.606 130.191 724.986 132.398 721.149 126.907C719.16 129.163 718.481 132.287 719.354 135.165C721.139 134.047 723.583 135.085 724.924 136.709C726.265 138.333 726.898 140.414 727.951 142.238C729.372 144.699 731.634 146.88 731.832 149.715C731.78 150.787 731.798 151.861 731.887 152.931C732.239 154.648 733.691 155.882 734.697 157.318C737.039 160.658 736.924 165.247 735.414 169.038C733.904 172.828 731.192 175.995 728.506 179.066C723.814 184.429 719.026 189.761 713.463 194.215C711.876 195.486 710.182 196.736 709.193 198.513C708.205 200.29 708.154 202.784 709.673 204.135C708.586 204.19 706.637 204.724 705.55 204.779C705.168 200.418 705.085 196.037 705.301 191.665C701.012 189.605 696.393 195.121 696.947 199.847C697.5 204.573 700.919 208.366 703.352 212.455C705.132 215.445 706.455 218.932 705.861 222.36C705.266 225.789 702.206 228.952 698.739 228.649C693.225 228.168 690.919 220.253 685.459 219.347C684.977 219.234 684.472 219.284 684.022 219.489C683.211 219.934 683.07 221.019 683.025 221.942C682.802 226.474 682.608 231.187 684.377 235.365C686.966 241.479 693.652 246.613 692.25 253.102C684.694 249.589 680.765 241.116 678.981 232.976C677.198 224.837 676.9 216.292 673.703 208.598C671.275 211.71 666.172 209.137 663.953 205.872C661.85 202.777 660.555 199.197 658.515 196.06C656.475 192.924 653.349 190.115 649.611 189.942C645.692 189.762 642.293 192.451 639.304 194.992C636.846 197.082 634.322 199.254 632.885 202.142C630.794 206.345 631.341 211.301 631.241 215.994C631.132 221.068 630.056 226.422 626.598 230.137C623.14 233.851 616.757 235.145 612.942 231.797C610.951 230.049 609.986 227.438 609.127 224.932C604.988 212.849 601.54 200.54 598.801 188.065C598.16 190.913 595.659 194.583 593.271 192.905C592.735 192.454 592.301 191.895 591.997 191.264C587.542 183.713 579.291 179.183 570.954 176.468C562.618 173.752 553.847 172.485 545.603 169.5C540.983 167.827 536.571 165.629 532.452 162.95C530.313 166.092 530.07 170.155 531.82 173.53C533.649 176.768 537.787 178.641 541.329 177.509C543.16 176.924 544.706 175.654 546.522 175.026C548.338 174.398 550.776 174.707 551.57 176.457C552.331 178.132 551.182 180.158 551.752 181.907C552.62 184.57 556.637 184.775 558.042 187.199C559.087 189.003 558.227 191.398 556.735 192.853C555.242 194.308 553.251 195.106 551.429 196.119C545.519 199.406 541.315 205.017 536.15 209.383C530.984 213.748 523.695 216.935 517.539 214.135C519.006 206.704 510.155 201.249 508.526 193.851C507.99 191.417 508.268 188.83 507.503 186.457C506.395 183.022 503.347 180.66 500.847 178.057C494.72 171.608 491.459 162.958 491.804 154.07C491.939 151.013 492.501 147.906 491.804 144.926C491.108 141.946 488.641 139.062 485.584 139.197C478.601 139.505 469.804 140.024 466.141 134.072C464.833 131.948 464.264 128.836 466.155 127.209C467.488 126.06 469.457 126.169 471.208 126.341L486.941 127.888C490.621 128.251 494.598 128.549 497.756 126.626C500.914 124.702 502.282 119.596 499.358 117.332C497.222 115.679 493.394 115.768 492.773 113.139C492.256 110.949 494.68 108.465 493.371 106.635C492.432 105.323 490.322 105.687 489.043 106.67C487.764 107.654 486.836 109.092 485.405 109.837C482.895 111.144 479.895 109.9 477.194 109.055C474.493 108.21 470.872 108.138 469.562 110.647C468.097 113.453 470.862 117.129 469.408 119.94C467.485 123.657 460.975 121.541 458.275 124.738C455.177 128.407 460.383 133.877 459.338 138.564C456.625 139.908 453.405 139.727 450.859 138.087C448.351 136.382 446.984 133.436 447.3 130.419C447.559 128.311 448.658 126.159 447.921 124.166C447.326 122.555 445.709 121.596 444.205 120.766L428.917 112.317C427.497 114.95 429.292 118.215 431.536 120.193C433.78 122.17 436.591 123.66 438.066 126.263C440.002 130.006 438.688 134.61 435.068 136.767C434.625 137.073 434.072 137.169 433.552 137.032C433.059 136.742 432.705 136.265 432.569 135.71C429.872 128.807 425.822 122.001 419.346 118.394C412.871 114.788 403.567 115.53 399.321 121.604C398.313 123.047 397.636 124.692 396.757 126.217C392.089 134.322 382.083 138.16 372.733 137.909C371.819 137.96 370.909 137.746 370.112 137.293C368.601 136.25 368.67 134.035 368.901 132.214L369.882 124.483C370.079 122.93 370.365 121.214 371.594 120.245C373.326 118.879 375.824 119.741 378.03 119.71C381.453 119.549 384.411 117.267 385.433 113.996C386.342 110.71 385.356 107.191 382.874 104.854C381.863 103.905 380.506 102.712 381.04 101.432C381.472 100.715 382.198 100.226 383.024 100.096C386.986 98.9451 391.173 98.6436 395.069 97.286C398.965 95.9284 402.743 93.1509 403.666 89.1297C403.948 87.8974 404.077 86.4046 405.184 85.7936C405.739 85.5592 406.336 85.4372 406.939 85.4352C411.317 84.8123 414.495 80.9497 414.263 76.5336C416.13 75.2289 418.746 76.1886 420.552 77.5763C422.358 78.964 423.953 80.7973 426.151 81.3954C430.247 82.5102 434.205 78.8837 438.45 78.8669C440.235 78.8598 442.083 79.491 443.763 78.8857C445.465 78.2722 446.482 76.5775 447.788 75.3254C449.095 74.0734 451.388 73.3097 452.594 74.6585L451.567 67.0481C455.753 68.1057 460.192 67.3032 463.743 64.8467L450.464 60.36C450.002 60.2446 449.575 60.0166 449.223 59.6961C448.257 58.6566 449.216 57.0366 450.001 55.8549C451.879 53.028 452.194 48.3714 449.106 46.9639C446.998 46.0033 444.578 47.1564 442.555 48.2845L432.863 53.6886C432.555 55.5309 434.808 56.575 436.204 57.8159C437.933 59.3527 438.539 61.794 437.73 63.9611C436.922 66.1281 434.864 67.5752 432.551 67.6036C433.844 69.2843 434.303 71.4617 433.798 73.5211L427.277 73.9901C426.545 74.1373 425.784 73.9889 425.162 73.5773C424.464 72.9579 424.559 71.8724 424.397 70.9538C424.007 68.7365 421.836 67.1824 419.62 66.7839C417.404 66.3854 415.137 66.8962 412.943 67.4005C412.012 67.7358 410.989 67.7122 410.073 67.3343C409.548 66.9934 409.15 66.49 408.938 65.9012C407.976 63.5688 408.875 60.8273 410.42 58.8326C411.965 56.838 414.08 55.3799 415.979 53.7194C420.522 49.7339 423.859 44.5576 425.614 38.7752C429.204 37.2711 432.921 35.2276 436.51 33.7235C442.045 30.9214 448.251 29.7189 454.432 30.2512L466.589 30.4834C470.188 30.5521 473.885 30.6402 477.213 32.0124C480.541 33.3846 483.466 36.3524 483.695 39.9451C483.836 40.7718 483.542 41.6129 482.916 42.1713C482.446 42.4278 481.913 42.5478 481.379 42.5177C478.022 42.6357 476.591 43.472 473.234 43.5898Z" fill="black"/>
<path d="M376.335 81.6911C377.303 80.7745 377.678 79.3934 377.305 78.1133C374.947 77.2036 372.278 77.7076 370.415 79.4144C369.695 80.1428 369.074 80.9634 368.569 81.8546C366.971 84.4609 365.558 87.5741 366.484 90.4874C366.637 91.1292 367.041 91.6826 367.607 92.0225C368.022 92.189 368.469 92.2591 368.915 92.2274C370.675 92.2252 372.433 92.1169 374.18 91.9034C375.252 91.7722 376.498 91.4693 376.913 90.4712C377.458 89.1593 376.139 87.6745 376.523 86.3069C376.776 85.6954 377.16 85.1463 377.647 84.6981C378.137 84.2406 378.382 83.5789 378.309 82.9127C378.154 82.271 377.171 81.9069 376.818 82.4644" fill="black"/>
<path d="M385.461 69.8599C383.898 69.501 382.286 69.3997 380.69 69.5603C380.337 69.5498 379.987 69.6293 379.674 69.7914C379.37 70.0156 379.149 70.3348 379.047 70.6985C378.348 72.9421 379.49 75.3463 381.671 76.2217C382.244 76.3535 382.793 76.5741 383.298 76.8756C384.648 77.9225 383.787 80.0624 384.043 81.751C384.33 83.6472 386.165 85.2388 385.829 87.1268C385.564 88.6142 383.975 89.792 384.231 91.2811C384.499 92.8407 386.478 93.3093 388.055 93.4342C388.969 93.5943 389.91 93.4865 390.765 93.1237C391.621 92.5382 392.23 91.6562 392.474 90.648C393.12 88.7257 393.391 86.6974 393.274 84.6729C393.267 83.7521 393.035 82.8468 392.6 82.0356C392.125 81.3929 391.598 80.7899 391.025 80.2326C388.003 76.717 391.185 71.4731 385.461 69.8599Z" fill="black"/>
<path opacity="0.8" d="M782.896 345.261C782.896 345.261 551.412 212.385 451.755 237.562C451.755 237.562 240.555 260.291 216.077 310.293C216.077 310.293 148.94 100.491 124.463 93.498" stroke="white" stroke-width="2"/>
<path opacity="0.8" d="M216.077 310.294C254.891 206.791 604.562 92.0996 604.562 92.0996C554.909 104.688 451.755 237.562 451.755 237.562C451.755 237.562 233.561 78.8115 124.463 93.4977C124.463 93.4977 604.911 109.233 782.893 345.26" stroke="white" stroke-width="2"/>
<circle cx="124.464" cy="93.4978" r="10.1404" fill="white"/>
<circle cx="216.078" cy="310.294" r="10.1404" fill="white"/>
<circle cx="604.562" cy="92.0994" r="10.1404" fill="white"/>
<circle cx="451.755" cy="237.561" r="10.1404" fill="white"/>
<path d="M790.141 310.768C790.633 308.07 793.324 305.687 792.485 303.075C791.906 301.269 789.812 300.377 787.915 300.333C786.019 300.288 784.156 300.853 782.26 300.906C781.025 300.841 779.788 300.858 778.556 300.959C774.792 301.578 772.472 305.523 768.925 306.926C766.768 307.779 764.345 307.616 762.101 308.205C757.009 309.544 753.787 314.356 750.228 318.235C744.476 324.476 736.983 328.845 728.72 330.778C725.825 331.449 722.712 331.877 720.411 333.758C717.363 336.248 716.613 340.517 715.935 344.393C714.062 355.1 711.199 365.609 707.383 375.786L719.474 377.33C721.773 377.624 724.155 377.911 726.371 377.23C727.98 376.623 729.505 375.811 730.906 374.814C736.292 371.471 742.319 369.295 748.597 368.428C751.764 367.993 755.083 367.914 758.055 369.091C761.026 370.268 763.575 372.937 763.824 376.123C766.443 375.308 769.297 376.002 771.249 377.929C773.142 379.858 774.382 382.333 774.793 385.004C775.112 386.659 775.43 388.641 776.965 389.335C778.217 389.901 779.654 389.291 781.024 389.181C785.673 388.809 789.53 394.23 794.099 393.296C799 392.295 800.203 384.956 804.984 383.486C807.729 382.642 811.581 383.669 812.895 381.115C814.054 378.864 811.742 376.266 811.981 373.745C812.274 370.641 815.935 369.324 818.758 368C828.488 363.434 833.105 350.338 828.39 340.679C825.596 334.956 820.1 330.451 819.084 324.164C818.303 319.327 820.21 313.687 817.126 309.88C815.557 307.943 812.901 306.874 811.968 304.563C811.38 303.108 811.616 301.457 811.3 299.921C810.984 298.384 809.643 296.777 808.125 297.175C803.721 298.331 802.315 311.939 799.956 315.245C796.368 320.271 789.005 316.96 790.141 310.768Z" fill="black"/>
<path d="M708.717 283.444C707.212 283.022 705.568 282.607 704.126 283.21C702.683 283.813 701.841 285.931 702.999 286.981C712.055 286.629 721.167 286.278 730.146 287.508C740.491 288.925 750.73 292.435 761.121 291.402C755.186 289.651 749.152 288.251 743.052 287.209L732.879 285.266C730.15 284.695 727.393 284.269 724.619 283.99C718.816 283.51 714.424 285.044 708.717 283.444Z" fill="black"/>
<path d="M717.784 251.903C717.032 251.84 716.101 251.786 715.712 252.433C715.34 253.05 715.766 253.866 715.566 254.559C715.293 255.505 714.054 255.747 713.078 255.618C712.101 255.489 711.045 255.181 710.18 255.651C709.279 256.267 708.893 257.403 709.231 258.44C709.585 259.443 710.157 260.355 710.906 261.11C712.185 262.722 713.642 264.184 715.25 265.468C718.363 267.765 722.58 268.872 724.54 272.208C724.817 272.854 725.242 273.426 725.781 273.877C726.722 274.474 727.949 274.02 728.963 273.557L732.515 271.934C733.154 271.704 733.725 271.315 734.175 270.805C734.986 269.704 734.488 268.138 733.807 266.952C733.126 265.766 732.254 264.539 732.4 263.179C732.661 260.754 735.778 259.827 737.06 257.752C738.352 255.661 737.511 252.967 737.66 250.513C737.834 247.643 739.637 243.91 736.736 241.766C734.271 239.944 731.914 241.628 730.144 243.64C726.411 247.882 724.646 252.477 717.784 251.903Z" fill="black"/>
<path d="M674.579 244.751C673.392 243.423 671.605 242.033 670.015 242.834C668.801 243.446 668.467 245.125 668.943 246.398C669.522 247.634 670.414 248.698 671.531 249.484C674.846 252.218 678.416 254.685 681.308 257.863C686.484 263.551 689.225 271.226 694.854 276.465C695.985 277.68 697.483 278.491 699.119 278.774C700.759 278.926 702.6 277.876 702.789 276.24C702.944 274.893 702.005 273.686 701.087 272.688C698.9 270.309 696.506 268.12 694.442 265.635C693.489 264.681 692.89 263.429 692.744 262.088C692.733 260.75 693.953 259.35 695.25 259.681C693.673 259.278 692.504 256.651 690.19 256.157C688.256 255.745 687.788 256.942 685.487 255.955C681.097 254.072 677.653 248.193 674.579 244.751Z" fill="black"/>
</svg>
