<svg width="722" height="449" viewBox="0 0 722 449" fill="none" xmlns="http://www.w3.org/2000/svg">
<path d="M204.973 41.4483C204.656 38.946 204.016 36.4953 203.068 34.1577C202.824 33.2639 202.215 32.5141 201.391 32.0914C200.846 31.9496 200.274 31.9432 199.726 32.0727L191.179 33.3805C190.464 33.4132 189.779 33.6794 189.229 34.1382C188.116 35.3089 189.212 37.1941 189.178 38.8091C189.14 40.6253 187.526 42.0995 185.776 42.5872C183.99 42.9481 182.147 42.9253 180.37 42.5202L168.419 40.663C171.939 39.5394 175.072 37.4487 177.461 34.6296C179.033 32.7666 179.87 29.2882 177.597 28.4059C176.922 28.2206 176.217 28.164 175.521 28.2392C170.107 28.2813 165.846 23.7604 160.777 21.8564C154.121 19.5181 146.717 21.7253 142.429 27.326L148.795 27.6329C149.394 27.5998 149.988 27.7582 150.491 28.0851C151.886 29.2315 150.152 31.4334 150.348 33.2285C150.604 35.5606 153.7 36.0586 156.034 36.2944C158.369 36.5302 161.33 38.4268 160.207 40.4868C148.475 44.5278 136.536 32.5873 124.215 34.0571C121.096 34.4291 118.152 35.6542 115.107 36.4246C96.5085 41.1303 77.2806 28.5749 58.281 31.2339C54.0572 31.9539 49.9058 33.0488 45.8763 34.5055C43.2904 35.3545 40.5932 36.2721 38.7143 38.2412C36.8354 40.2103 36.1203 43.5778 37.9002 45.6368C32.9942 46.0408 28.0555 45.5714 23.3134 44.2503C25.9254 45.7022 27.5366 48.4641 27.5149 51.4525C19.8547 52.7016 12.3974 54.9755 5.34346 58.2129C6.65997 60.4021 8.19768 62.4506 9.93239 64.3259L0.234863 70.5561C3.51117 71.3816 5.20509 75.849 3.2998 78.6393C6.69695 77.128 8.80235 73.2184 12.435 72.4257C14.8149 71.9064 17.2365 72.88 19.4942 73.7946C21.7519 74.7092 24.2333 75.596 26.5705 74.9096C28.9077 74.2232 30.6316 71.1926 29.1465 69.2618C39.1362 66.3472 49.4604 64.7342 59.8632 64.4628C60.6657 64.3621 61.4796 64.5166 62.1895 64.9043C63.5437 65.8438 63.1874 67.8731 63.1144 69.5196C63.0415 71.1662 64.3248 73.3302 65.7964 72.588C64.0651 74.0893 65.5451 76.9157 67.2062 78.4945C68.8673 80.0732 70.8693 82.2517 69.8524 84.3053C69.587 84.8413 69.1368 85.2702 68.8814 85.811C68.1276 87.4074 69.3245 89.2686 70.7362 90.3288C72.1479 91.3889 73.877 92.1299 74.8576 93.5979C75.8382 95.066 75.3929 97.6357 73.6394 97.8407L68.6553 91.5125C66.9525 93.2782 65.7851 95.4905 65.2885 97.8928C70.5737 102.213 71.3687 111.007 66.9439 116.206C64.6828 118.862 61.4672 120.476 58.6608 122.548C55.8543 124.62 53.2574 127.571 53.2645 131.059C53.2767 137.086 52.7842 142.686 55.0427 148.273C59.2072 158.577 64.0153 168.608 69.4385 178.308C70.8627 180.855 72.7033 183.647 75.5883 184.085C71.9422 175.209 68.6599 166.194 65.7415 157.042C67.6423 157.049 69.8389 157.2 70.9532 158.74C71.8759 160.015 71.6777 161.749 71.9644 163.297C72.3291 164.796 72.9372 166.226 73.7645 167.528L91.1761 198.544C92.6194 201.115 94.2751 203.874 97.0337 204.916C98.7974 205.581 100.838 205.456 102.461 206.414C103.734 207.166 104.591 208.499 105.888 209.207C109.556 211.208 114.656 207.37 118.084 209.759C119.064 210.442 119.687 211.527 120.59 212.309C123.756 215.051 128.949 213.217 132.604 215.262C134.959 216.58 136.18 219.216 137.436 221.605C140.583 227.589 145.675 233.451 152.418 233.927C154.537 234.077 156.701 233.675 158.771 234.147C160.842 234.618 162.881 236.425 162.548 238.522C161.978 242.118 163.755 246.056 163.278 249.665C162.409 256.24 153.083 259.129 152.282 265.712C152.107 267.154 152.381 268.641 152.038 270.052C151.617 271.781 150.319 273.189 149.857 274.908C148.983 278.165 151.316 281.407 153.88 283.598C156.443 285.789 159.501 287.679 160.903 290.747C162.384 293.989 161.657 297.769 162.138 301.301C163.19 309.012 169.85 314.728 176.704 318.414C178.792 319.537 181.035 320.624 182.386 322.572C184.15 325.115 183.975 328.467 184.564 331.505C186.006 338.945 192.27 345.076 192.448 352.653C192.574 358.039 189.581 362.924 187.792 368.006C184.4 377.858 185.467 388.699 190.716 397.7C192.054 399.959 193.654 402.088 194.6 404.537C196.289 408.907 195.741 413.875 197.298 418.293C199.357 424.135 205.013 428.96 204.472 435.13C207.04 440.463 212.711 443.084 218.413 444.671L228.633 447.516C230.589 448.06 232.634 448.609 234.627 448.215C236.619 447.821 238.521 446.166 238.469 444.136C233.458 443.005 228.285 441.803 224.154 438.75C220.023 435.696 217.193 430.257 218.76 425.365C219.487 423.096 221.034 420.476 219.563 418.602C218.722 417.529 217.183 417.248 216.233 416.269C214.752 414.742 215.261 412.176 216.326 410.334C217.39 408.492 218.929 406.846 219.358 404.762C219.802 402.375 218.716 399.963 216.634 398.714C218.529 397.999 220.252 396.893 221.692 395.469C223.022 393.95 223.637 391.608 222.59 389.881C225.698 390.275 229.367 390.468 231.406 388.091C233.035 386.193 232.924 383.355 232.28 380.938C231.636 378.52 230.548 376.173 230.514 373.672C237.683 374.011 244.867 373.768 251.996 372.943C250.965 369.471 248.622 366.538 245.465 364.764C248.694 364.217 251.635 360.352 252.655 357.24C253.675 354.129 253.415 350.74 252.784 347.526C252.542 346.699 252.509 345.824 252.688 344.981C253.051 343.822 254.19 343.115 255.243 342.511L271.269 333.307C272.225 332.828 273.092 332.188 273.831 331.415C275.51 329.443 275.262 326.465 274.402 324.022C273.542 321.579 272.165 319.281 271.834 316.712C270.844 309.029 279.068 303.517 281.843 296.285C282.933 293.447 283.155 290.362 283.365 287.329C283.592 284.072 283.609 280.288 281.108 278.189C278.71 276.177 274.964 276.626 272.456 274.754C270.156 273.038 269.362 269.706 266.85 268.32C264.568 267.061 261.707 267.862 259.169 267.27C254.701 266.228 251.889 261.078 247.325 260.601C244.751 260.332 241.837 261.59 239.726 260.091C237.867 258.77 237.792 256.114 237.438 253.86C236.168 246.687 230.564 241.065 223.395 239.772C220.74 239.346 217.85 239.508 215.592 238.049C213.305 236.571 212.257 233.806 210.46 231.76C207.565 228.463 203.005 227.291 198.734 226.287L181.36 222.203C178.276 221.477 174.3 221.093 172.645 223.795C172.155 224.823 171.808 225.914 171.614 227.037C170.342 231.204 166.527 234.075 162.171 234.144C160.715 231.661 158.356 229.835 155.587 229.049C153.825 228.558 151.939 228.504 150.259 227.781C148.409 226.879 147.013 225.254 146.399 223.29C145.785 221.326 146.006 219.195 147.011 217.4C149.071 213.733 148.418 209.142 145.42 206.194C142.465 203.542 138.191 202.901 134.229 203.166C133.191 200.902 134.926 198.348 136.796 196.702C138.666 195.057 140.936 193.439 141.343 190.982C141.983 187.117 137.052 184.182 133.308 185.334C129.563 186.487 127.174 190.124 125.594 193.708C124.687 195.765 123.917 197.931 122.487 199.666C121.057 201.4 118.755 202.642 116.577 202.085C113.494 201.298 112.303 197.635 111.621 194.526C110.706 190.356 109.785 186.128 109.977 181.863C110.168 177.598 111.606 173.218 114.751 170.331C119.876 165.626 127.739 166.087 134.655 166.838C133.021 164.996 133.425 161.894 135.174 160.161C137.047 158.496 139.622 157.863 142.054 158.47C144.139 158.904 146.016 160.027 147.385 161.657C149.35 164.054 149.909 167.289 151.395 170.009C152.881 172.729 156.221 175.049 158.956 173.59C161.317 172.33 161.692 169.055 161.104 166.443C160.517 163.831 159.268 161.292 159.481 158.623C159.887 153.531 165.166 150.466 169.823 148.369C174.481 146.272 179.815 143.452 180.553 138.397C180.578 137.408 180.765 136.429 181.106 135.499C181.622 134.679 182.34 134.003 183.191 133.538C196.785 124.554 210.605 115.461 226.142 110.552C226.951 110.297 227.046 110.581 227.869 110.381C229.022 109.714 228.258 107.871 227.153 107.128C226.048 106.386 224.57 105.816 224.29 104.514C224.083 103.557 224.647 102.618 224.794 101.65C225.154 99.2716 222.308 97.0757 220.099 98.0265C218.851 96.3736 221.32 94.453 223.317 93.9032C229.314 92.253 235.469 91.2475 241.678 90.9038C242.395 90.7899 243.129 90.9148 243.768 91.2592C244.811 91.9817 244.678 93.6387 243.938 94.6699C243.199 95.7011 242.049 96.3486 241.128 97.2211C239.077 99.2196 238.31 102.194 239.139 104.936C242.381 106.585 245.905 108.282 249.495 107.701C253.086 107.12 256.272 103.086 254.585 99.8645C253.013 96.8642 248.293 96.1875 247.481 92.8993C246.53 89.0494 251.98 85.6253 250.753 81.8545C250.215 80.2029 248.569 79.2308 247.306 78.0383C244.252 75.0457 243.352 70.4843 245.04 66.5561C240.865 67.2906 236.593 65.9539 233.582 62.9706C230.841 60.2049 228.655 55.8419 224.763 55.9657C221.192 56.0792 218.116 60.2456 214.777 58.9745C213.956 58.6618 213.089 58.0253 212.293 58.3983C211.765 58.7414 211.423 59.3084 211.367 59.9361C210.518 63.9933 211.978 68.6159 209.767 72.1218C207.361 75.9368 201.795 76.4658 198.878 79.9061C197.294 81.7735 196.681 84.29 195.225 86.2589C193.77 88.2278 190.68 89.4795 188.934 87.7638C190.702 84.1294 189.724 79.7556 186.578 77.2191C184.956 76.1611 183.208 75.3107 181.374 74.6882C179.326 73.8209 177.377 72.7347 175.561 71.4483C174.652 70.8998 173.913 70.1093 173.427 69.1649C173.043 67.9825 173.095 66.7016 173.573 65.554C175.378 60.3785 179.902 56.629 185.323 55.8154C187.648 55.499 190.355 55.6105 191.894 53.8385C192.709 52.9009 193.136 51.4833 194.318 51.1024C195.074 50.9505 195.859 51.0472 196.556 51.3781L205.237 54.4335C206.205 54.8708 207.271 55.047 208.329 54.9449C209.417 54.7984 210.208 53.8374 210.142 52.7416C209.865 51.3 207.647 50.6082 207.848 49.1542C207.961 48.683 208.215 48.2571 208.575 47.9329C214.918 41.1815 223.945 37.6166 233.19 38.2126C234.286 40.012 232.553 42.143 231.111 43.6791C229.669 45.2153 228.51 47.9601 230.254 49.1425C230.969 49.5072 231.764 49.6863 232.565 49.6631C234.703 49.9524 236.78 50.5824 238.717 51.5291C241.717 52.8345 244.659 54.2629 247.544 55.814C247.289 53.9121 247.046 51.9085 247.767 50.1301C248.488 48.3517 250.536 46.9569 252.326 47.6494C254.051 48.3169 254.935 50.6005 256.773 50.8098C259.224 51.0888 260.191 47.4678 259.167 45.2234C258.143 42.979 256.116 41.0997 255.947 38.6386C255.833 36.9782 256.465 34.919 255.139 33.9137C254.667 33.6118 254.131 33.424 253.574 33.365L220.458 27.2711C218.492 26.9092 215.651 27.1866 215.563 29.1842C215.515 30.2992 216.511 31.4023 216.07 32.4275C215.599 33.5217 214.052 33.4217 212.925 33.8087C211.177 34.4092 210.3 36.4848 210.468 38.3254C210.775 40.1544 211.484 41.8927 212.542 43.4156C210.388 42.5151 207.127 42.349 204.973 41.4483Z" fill="black"/>
<path d="M178.55 13.3385C174.272 11.9229 169.566 13.3323 166.77 16.8662C166.225 17.5842 165.767 18.5739 166.224 19.3513C166.878 20.4658 168.546 20.0256 169.775 19.6269C171.582 18.9813 173.549 18.9343 175.385 19.4931C176.539 19.8894 177.572 20.5899 178.732 20.9713C179.882 21.4524 181.204 21.2592 182.168 20.4692C182.964 19.6576 183.014 18.3958 183.015 17.2592C183.127 16.489 182.885 15.7094 182.357 15.1374C181.893 14.8686 181.372 14.7144 180.836 14.6875C179.636 14.4654 178.552 13.8317 177.769 12.8955" fill="black"/>
<path d="M190.492 10.0128C189.541 9.96108 188.633 10.4084 188.094 11.1932C187.555 11.9779 187.465 12.9866 187.855 13.8548C189.29 14.2462 190.79 14.344 192.263 14.1422C193.767 13.9089 194.982 12.7945 195.345 11.3172C193.609 11.633 191.819 11.2909 190.322 10.3579" fill="black"/>
<path d="M230.553 4.46073C226.646 5.2912 222.852 6.5802 219.248 8.30091C222.736 9.64161 224.938 13.1045 224.673 16.8318C224.52 17.5289 224.538 18.2523 224.724 18.9411C225.139 19.9476 226.343 20.3253 227.4 20.5836C229.301 21.1619 231.285 21.4152 233.27 21.3328C235.286 21.2272 237.114 20.1106 238.128 18.364C238.415 17.548 238.753 16.7504 239.138 15.9758C241.673 12.1146 249.205 16.7833 251.927 13.0515C252.886 11.7369 252.798 9.75805 254.048 8.71636C254.695 8.2625 255.444 7.97655 256.229 7.88422C261.703 6.79664 267.232 6.00914 272.792 5.52523C275.426 5.29599 278.86 4.35006 278.882 1.7058C268.959 -0.243038 258.67 1.14107 249.615 5.64295C246.353 7.277 242.038 10.7142 238.896 8.5479C237.719 7.73681 237.777 5.5526 236.158 4.64054C234.502 3.70832 232.31 4.08709 230.553 4.46073Z" fill="black"/>
<path d="M263.004 10.5293L267.662 11.4243C265.928 11.3474 264.244 12.0213 263.042 13.2736C261.839 14.5259 261.234 16.2355 261.381 17.9655C265.743 19.4227 270.499 18.0046 275.093 18.1983C279.688 18.3921 285.034 21.6742 284.25 26.2058C284.013 27.5759 283.221 28.9452 283.633 30.2734C283.921 31.2044 284.743 31.865 285.206 32.7224C286.172 34.5091 285.4 36.769 284.18 38.3931C282.961 40.0173 281.322 41.3132 280.252 43.0392C277.59 47.3321 279.102 52.8819 280.688 57.6778C281.146 59.4899 281.993 61.1808 283.169 62.6335C285.519 65.1315 289.347 65.3487 292.776 65.3988C295.272 65.4352 298.131 65.3119 299.709 63.3783C301.77 60.8539 300.329 56.9152 301.685 53.9524C302.917 51.2616 306.056 50.1073 308.9 49.2885C314.11 47.7886 319.42 46.5134 324.346 44.2478C330.462 41.4346 336.178 37.0503 342.901 36.6882C344.787 36.5866 346.72 36.8092 348.536 36.2924C350.353 35.7757 352.079 34.205 351.941 32.3213C351.824 30.7118 350.462 29.5299 349.398 28.3166C348.334 27.1033 347.498 25.2375 348.476 23.9538L366.097 20.6626C364.848 17.2586 363.875 12.7755 366.745 10.5598C367.781 9.76042 369.167 9.44089 370.049 8.47443C371.552 6.82721 370.796 3.98969 369.061 2.58881C367.327 1.18793 364.981 0.862747 362.759 0.678162C355.033 0.036484 347.262 0.46048 339.521 0.884842C324.388 1.71431 309.255 2.54381 294.123 3.37326C291.077 3.54024 287.559 3.28516 284.765 4.32443C282.4 5.20428 280.718 6.81935 278.013 7.38681C273.02 8.43477 267.523 7.72557 263.004 10.5293Z" fill="black"/>
<path d="M346.45 47.3466C345.975 47.2714 345.49 47.3816 345.094 47.6541C344.832 47.9423 344.677 48.311 344.653 48.6996C344.352 50.4143 344.71 52.1794 345.655 53.6412C346.636 55.1017 348.332 55.9149 350.085 55.765C352.182 55.4976 353.728 53.7082 355.656 52.8351C358.628 51.4906 371.249 49.3947 362.518 44.6779C359.51 43.0525 357.566 44.4874 355.194 45.5579C352.496 46.9382 349.473 47.5565 346.45 47.3466V47.3466Z" fill="black"/>
<path d="M422.917 7.86592C421.898 8.28244 421.045 9.02477 420.492 9.97704C419.963 10.9813 420.314 12.2242 421.291 12.8028C421.672 12.9408 422.075 13.0049 422.48 12.9914L426.625 13.1153C428.386 13.1678 430.586 13.5429 431.059 15.2399C431.41 16.4999 430.624 18.1191 431.573 19.0196C431.98 19.3349 432.47 19.5259 432.983 19.5695C434.348 19.9203 435.774 19.9663 437.159 19.7043C440.175 18.8953 438.591 17.0546 439.54 15.4155C440.994 12.9077 440.742 14.4258 443.303 12.9885C445.194 11.927 447.638 10.0015 446.06 7.29613C443.315 2.59149 426.968 5.84509 422.917 7.86592Z" fill="black"/>
<path d="M504.732 5.50178L502.325 5.82294C496.897 6.54728 491.439 7.27822 486.211 8.90816C488.474 9.80283 490.848 10.3854 493.268 10.6398C494.6 10.7051 495.923 10.8932 497.221 11.2017C499.53 11.8891 501.857 13.664 504.087 12.7548C505.47 12.191 505.922 10.7509 507.067 9.98768C507.859 9.46062 510.859 8.60763 511.195 8.0757C513.906 3.77497 506.816 5.22385 504.732 5.50178Z" fill="black"/>
<path d="M515.301 16.4406C512.086 18.2383 509.103 20.4227 506.418 22.9452C505.288 24.0084 504.132 25.3305 504.235 26.8793C504.371 28.9377 506.564 30.1316 508.464 30.9359L516.158 34.1936C517.091 32.878 516.237 31.0619 515.272 29.769C514.308 28.4761 513.161 26.9803 513.588 25.4244C514.074 23.649 516.239 23.0439 518.054 22.7381C521.012 22.2397 528.99 22.2797 528.032 17.5131C526.902 11.8966 518.269 14.7808 515.301 16.4406Z" fill="black"/>
<path d="M513.753 334.284C513.021 336.404 512.951 338.903 514.218 340.754C515.64 342.832 518.486 343.606 520.947 343.079C523.399 342.427 525.584 341.022 527.195 339.063C528.668 337.421 529.88 335.562 530.789 333.552C532.056 330.419 532.95 327.148 533.452 323.806L535.841 311.262C536.375 308.459 536.354 299.865 531.202 302.665C529.794 303.43 526.535 309.47 525.06 311.182C522.402 314.269 522.05 317.264 520.65 321.004C518.897 325.688 515.374 329.592 513.753 334.284Z" fill="black"/>
<path d="M447.711 153.463C448.019 155.113 448.321 156.85 447.781 158.438C447.24 160.027 445.54 161.354 443.934 160.867C442.688 160.49 441.968 159.237 441.083 158.281C436.161 152.968 425.058 156.044 422.018 149.471C420.778 146.789 421.621 143.575 420.775 140.743C419.677 137.377 416.441 135.179 412.907 135.399C411.34 135.625 409.815 136.081 408.38 136.75C398.768 140.6 388.677 143.124 378.385 144.253C376.429 144.372 374.494 144.724 372.621 145.301C368.395 146.833 365.508 150.751 363.453 154.749C361.398 158.747 359.881 163.076 357.125 166.628C354.23 170.361 350.172 172.975 346.388 175.803C344.93 176.742 343.716 178.015 342.845 179.515C342.025 181.2 342.071 183.159 342.135 185.032L342.908 207.776C343.008 210.702 343.133 213.732 344.442 216.35C346.077 219.619 349.307 221.76 351.548 224.648C353.835 227.616 355.026 231.283 354.92 235.028C354.872 236.534 354.723 238.315 355.895 239.26C356.609 239.723 357.443 239.963 358.293 239.95L389.06 242.468C394.472 242.911 400.47 243.639 404.003 247.763C405.671 249.709 407.011 252.507 409.565 252.716C410.661 252.806 411.727 252.356 412.822 252.269C415.587 252.05 418.016 254.149 419.549 256.46C421.869 259.983 422.922 264.19 422.535 268.39C422.284 271.027 421.466 273.59 421.29 276.233C420.62 286.288 429.144 295.025 429.309 305.101C429.406 311.028 426.593 316.566 423.849 321.821C428.277 328.528 424.651 337.46 426.414 345.3C428.086 352.739 434.289 358.563 435.834 366.029C436.542 369.447 436.583 373.654 439.597 375.414C440.919 376.059 442.385 376.352 443.854 376.266C452.714 376.371 461.472 374.378 469.413 370.448C473.14 368.598 477.002 365.837 477.653 361.728C478.178 358.414 476.498 354.707 478.208 351.821C480.224 348.419 485.387 348.688 488.353 346.073C493.165 341.829 489.413 333.736 491.362 327.624C493.115 322.13 499.147 319.212 502.137 314.281C503.313 312.16 504.158 309.872 504.641 307.495C506.01 301.815 506.863 296.022 507.188 290.188C507.268 286.643 507.529 283.105 507.971 279.587C511.195 259.559 530.995 246.148 537.423 226.907C538.037 225.07 538.325 222.622 536.691 221.583C535.721 221.12 534.622 221.005 533.578 221.257L519.395 223.045C517.633 223.267 515.766 223.474 514.148 222.743C512.531 222.011 511.371 219.965 512.229 218.41C514.638 214.047 509.683 208.533 507.482 204.061C501.553 192.021 494.493 180.571 486.397 169.867C485.879 169.317 485.554 168.612 485.473 167.86L489.498 167.994C488.139 163.119 485.897 157.783 481.16 156C478.491 154.995 475.535 155.342 472.687 155.498C464.529 155.943 455.785 154.711 447.711 153.463Z" fill="black"/>
<path d="M472.692 43.5898C474.826 45.8565 477.218 48.2598 480.306 48.6549C485.761 49.3528 489.683 43.7119 492.18 38.8122C492.373 41.4095 494.597 43.3819 497.199 43.2615C498.545 43.035 499.831 42.5326 500.974 41.7858C511.782 35.8795 523.887 32.75 536.203 32.6786C535.958 30.7463 537.212 28.941 539.109 28.496C541.613 27.9996 543.868 30.1646 545.076 32.4135C546.285 34.6625 547.038 37.2692 548.957 38.9526C550.876 40.6359 554.592 40.5627 555.35 38.125C556.078 35.7846 553.64 33.7889 551.614 32.4091C549.588 31.0293 547.453 28.4756 548.817 26.4394C559.166 24.1488 569.578 21.8494 580.167 21.3941C581.97 21.4568 583.766 21.1474 585.444 20.485C587.059 19.6926 588.343 17.8937 587.908 16.1481C583.182 17.2592 578.253 15.4001 575.438 11.4444C590.131 10.2319 605.758 9.19841 618.779 16.112C620.342 19.4664 612.378 22.2573 614.509 25.2829C615.188 26.2478 616.55 26.361 617.73 26.3829C626.779 26.5509 635.88 26.7157 644.826 25.3495C648.096 24.8503 651.398 24.1455 654.68 24.5503C660.148 25.2246 664.824 28.8726 670.203 30.062C672.392 30.5461 674.847 30.5625 676.692 29.2892C678.538 28.0159 679.331 25.1164 677.819 23.4611C682.883 18.4975 691.288 19.7277 697.97 22.104C704.651 24.4803 710.98 28.3125 718.052 28.8422C723.122 29.2221 728.264 27.8581 733.274 28.7251C736.423 29.2699 739.353 30.6706 742.431 31.5312C748.251 33.1589 754.408 32.8153 760.451 32.8936C775.87 33.1013 791.121 36.1317 805.448 41.8347C807.311 42.4415 809.019 43.4503 810.45 44.79C811.783 46.2176 812.463 48.4359 811.567 50.1715L796.762 48.0084C798.157 50.7543 801.766 51.2222 804.696 52.1695C807.627 53.1168 810.665 56.3531 808.904 58.8798C805.729 57.8687 802.851 61.0433 801.247 63.9643C799.643 66.8853 797.689 70.3834 794.361 70.5613C791.381 70.7207 787.778 68.1835 785.835 70.4489C788.519 73.834 790.817 77.5075 792.686 81.4015C794.605 85.3991 795.972 90.4363 793.378 94.0331C792.97 94.6751 792.351 95.155 791.628 95.3904C789.51 95.9267 788.133 93.3354 786.614 91.7649C784.7 89.7857 781.806 89.2252 779.213 88.297C776.621 87.3688 773.89 85.5429 773.688 82.7971C773.562 81.0886 774.464 79.5005 775.128 77.9216C776.245 75.2601 776.733 72.3771 776.555 69.4964C776.41 67.1788 775.76 64.7681 774.095 63.1488C772.431 61.5295 769.557 61.0158 767.771 62.4989C766.937 63.1909 766.269 64.2979 765.186 64.3392C763.273 64.4124 761.804 61.0771 760.265 62.2157C760.446 63.4288 760.194 64.6667 759.555 65.7132C754.961 69.7077 747.906 68.0178 741.985 69.4289C739.169 70.2347 736.474 71.4119 733.969 72.9295C733.032 73.3302 732.235 73.9994 731.678 74.8528C730.938 76.2891 731.753 78.1286 733.056 79.0836C734.438 79.9309 735.99 80.4608 737.602 80.635C744.82 82.0022 752.144 84.1185 757.843 88.7551C763.542 93.3916 767.279 101.056 765.476 108.178L751.241 94.576C751.781 100.287 752.088 106.014 752.161 111.757C752.253 112.878 752.099 114.006 751.71 115.062C750.695 117.303 747.945 118.057 745.534 118.552C744.178 118.81 742.997 119.634 742.288 120.818C741.578 122.002 741.408 123.433 741.821 124.75C742.677 127.541 744.812 129.717 746.767 131.886C748.722 134.054 750.646 136.519 750.902 139.427C751.158 142.336 748.964 145.614 746.052 145.412C743.843 145.258 742.205 143.282 741.264 141.279C740.322 139.276 739.761 137.044 738.346 135.343C734.063 130.191 724.443 132.398 720.606 126.907C718.618 129.163 717.939 132.287 718.812 135.165C720.597 134.047 723.04 135.085 724.381 136.709C725.723 138.333 726.355 140.414 727.409 142.238C728.83 144.699 731.092 146.88 731.29 149.715C731.237 150.787 731.255 151.861 731.344 152.931C731.696 154.648 733.148 155.882 734.155 157.318C736.497 160.658 736.381 165.247 734.872 169.038C733.362 172.828 730.65 175.995 727.963 179.066C723.271 184.429 718.483 189.761 712.921 194.215C711.334 195.486 709.64 196.736 708.651 198.513C707.662 200.29 707.612 202.784 709.131 204.135C708.044 204.19 706.094 204.724 705.008 204.779C704.625 200.418 704.542 196.037 704.759 191.665C700.469 189.605 695.851 195.121 696.404 199.847C696.958 204.573 700.376 208.366 702.81 212.455C704.59 215.445 705.912 218.932 705.318 222.36C704.724 225.789 701.663 228.952 698.197 228.649C692.683 228.168 690.377 220.253 684.916 219.347C684.435 219.234 683.929 219.284 683.479 219.489C682.669 219.934 682.528 221.019 682.482 221.942C682.259 226.474 682.066 231.187 683.835 235.365C686.423 241.479 693.11 246.613 691.707 253.102C684.151 249.589 680.223 241.116 678.439 232.976C676.655 224.837 676.358 216.292 673.16 208.598C670.732 211.71 665.629 209.137 663.411 205.872C661.308 202.777 660.013 199.197 657.972 196.06C655.932 192.924 652.806 190.115 649.068 189.942C645.149 189.762 641.75 192.451 638.761 194.992C636.303 197.082 633.78 199.254 632.343 202.142C630.252 206.345 630.799 211.301 630.698 215.994C630.589 221.068 629.514 226.422 626.056 230.137C622.597 233.851 616.214 235.145 612.4 231.797C610.408 230.049 609.444 227.438 608.585 224.932C604.445 212.849 600.997 200.54 598.258 188.065C597.617 190.913 595.117 194.583 592.728 192.905C592.192 192.454 591.758 191.895 591.454 191.264C586.999 183.713 578.748 179.183 570.412 176.468C562.075 173.752 553.305 172.485 545.061 169.5C540.441 167.827 536.028 165.629 531.91 162.95C529.771 166.092 529.528 170.155 531.278 173.53C533.106 176.768 537.244 178.641 540.787 177.509C542.617 176.924 544.163 175.654 545.98 175.026C547.796 174.398 550.234 174.707 551.028 176.457C551.788 178.132 550.639 180.158 551.209 181.907C552.077 184.57 556.095 184.775 557.499 187.199C558.545 189.003 557.685 191.398 556.192 192.853C554.7 194.308 552.709 195.106 550.887 196.119C544.976 199.406 540.773 205.017 535.607 209.383C530.441 213.748 523.153 216.935 516.997 214.135C518.464 206.704 509.612 201.249 507.984 193.851C507.448 191.417 507.726 188.83 506.961 186.457C505.853 183.022 502.805 180.66 500.305 178.057C494.178 171.608 490.917 162.958 491.261 154.07C491.397 151.013 491.958 147.906 491.262 144.926C490.565 141.946 488.098 139.062 485.041 139.197C478.058 139.505 469.262 140.024 465.598 134.072C464.291 131.948 463.722 128.836 465.612 127.209C466.946 126.06 468.914 126.169 470.666 126.341L486.398 127.888C490.078 128.251 494.056 128.549 497.213 126.626C500.371 124.702 501.739 119.596 498.815 117.332C496.679 115.679 492.851 115.768 492.23 113.139C491.713 110.949 494.137 108.465 492.828 106.635C491.889 105.323 489.779 105.687 488.5 106.67C487.222 107.654 486.294 109.092 484.863 109.837C482.352 111.144 479.353 109.9 476.652 109.055C473.951 108.21 470.33 108.138 469.02 110.647C467.555 113.453 470.319 117.129 468.865 119.94C466.943 123.657 460.433 121.541 457.733 124.738C454.635 128.407 459.841 133.877 458.796 138.564C456.083 139.908 452.863 139.727 450.317 138.087C447.809 136.382 446.441 133.436 446.758 130.419C447.016 128.311 448.115 126.159 447.379 124.166C446.783 122.555 445.166 121.596 443.663 120.766L428.374 112.317C426.955 114.95 428.749 118.215 430.993 120.193C433.238 122.17 436.049 123.66 437.523 126.263C439.459 130.006 438.145 134.61 434.525 136.767C434.083 137.073 433.529 137.169 433.01 137.032C432.517 136.742 432.162 136.265 432.027 135.71C429.329 128.807 425.279 122.001 418.804 118.394C412.329 114.788 403.025 115.53 398.779 121.604C397.77 123.047 397.093 124.692 396.215 126.217C391.547 134.322 381.54 138.16 372.191 137.909C371.276 137.96 370.366 137.746 369.57 137.293C368.059 136.25 368.127 134.035 368.358 132.214L369.34 124.483C369.537 122.93 369.822 121.214 371.051 120.245C372.783 118.879 375.282 119.741 377.487 119.71C380.91 119.549 383.868 117.267 384.891 113.996C385.799 110.71 384.814 107.191 382.332 104.854C381.321 103.905 379.964 102.712 380.498 101.432C380.929 100.715 381.656 100.226 382.482 100.096C386.444 98.9451 390.63 98.6436 394.526 97.286C398.422 95.9284 402.201 93.1509 403.123 89.1297C403.406 87.8974 403.535 86.4046 404.641 85.7936C405.197 85.5592 405.793 85.4372 406.396 85.4352C410.774 84.8123 413.952 80.9497 413.72 76.5336C415.587 75.2289 418.203 76.1886 420.01 77.5763C421.816 78.964 423.411 80.7973 425.609 81.3954C429.705 82.5102 433.663 78.8837 437.908 78.8669C439.693 78.8598 441.541 79.491 443.22 78.8857C444.923 78.2722 445.939 76.5775 447.246 75.3254C448.553 74.0734 450.845 73.3097 452.052 74.6585L451.024 67.0481C455.211 68.1057 459.65 67.3032 463.201 64.8467L449.922 60.36C449.459 60.2446 449.033 60.0166 448.68 59.6961C447.715 58.6566 448.674 57.0366 449.459 55.8549C451.337 53.028 451.652 48.3714 448.564 46.9639C446.455 46.0033 444.036 47.1564 442.013 48.2845L432.321 53.6886C432.013 55.5309 434.265 56.575 435.661 57.8159C437.39 59.3527 437.997 61.794 437.188 63.9611C436.379 66.1281 434.322 67.5752 432.009 67.6036C433.301 69.2843 433.76 71.4617 433.255 73.5211L426.734 73.9901C426.002 74.1373 425.242 73.9889 424.619 73.5773C423.922 72.9579 424.016 71.8724 423.855 70.9538C423.465 68.7365 421.293 67.1824 419.078 66.7839C416.862 66.3854 414.595 66.8962 412.401 67.4005C411.469 67.7358 410.446 67.7122 409.531 67.3343C409.006 66.9934 408.607 66.49 408.395 65.9012C407.433 63.5688 408.333 60.8273 409.878 58.8326C411.422 56.838 413.537 55.3799 415.437 53.7194C419.979 49.7339 423.317 44.5576 425.072 38.7752C428.662 37.2711 432.378 35.2276 435.968 33.7235C441.502 30.9214 447.709 29.7189 453.889 30.2512L466.046 30.4834C469.646 30.5521 473.342 30.6402 476.67 32.0124C479.999 33.3846 482.923 36.3524 483.153 39.9451C483.294 40.7718 482.999 41.6129 482.373 42.1713C481.903 42.4278 481.371 42.5478 480.836 42.5177C477.48 42.6357 476.049 43.472 472.692 43.5898Z" fill="black"/>
<path d="M375.793 81.6911C376.762 80.7745 377.136 79.3934 376.763 78.1133C374.406 77.2036 371.737 77.7076 369.873 79.4144C369.153 80.1428 368.532 80.9634 368.027 81.8546C366.43 84.4609 365.017 87.5741 365.943 90.4874C366.095 91.1292 366.5 91.6826 367.065 92.0225C367.48 92.189 367.927 92.2591 368.373 92.2274C370.133 92.2252 371.891 92.1169 373.638 91.9034C374.711 91.7722 375.957 91.4693 376.371 90.4712C376.916 89.1593 375.597 87.6745 375.982 86.3069C376.235 85.6954 376.618 85.1463 377.105 84.6981C377.595 84.2406 377.841 83.5789 377.768 82.9127C377.612 82.271 376.63 81.9069 376.276 82.4644" fill="black"/>
<path d="M384.92 69.8599C383.356 69.501 381.745 69.3997 380.149 69.5603C379.796 69.5498 379.446 69.6293 379.132 69.7914C378.828 70.0156 378.608 70.3348 378.506 70.6985C377.807 72.9421 378.949 75.3463 381.13 76.2217C381.703 76.3535 382.252 76.5741 382.757 76.8756C384.106 77.9225 383.246 80.0624 383.501 81.751C383.788 83.6472 385.624 85.2388 385.287 87.1268C385.022 88.6142 383.433 89.792 383.689 91.2811C383.957 92.8407 385.936 93.3093 387.514 93.4342C388.428 93.5943 389.369 93.4865 390.223 93.1237C391.08 92.5382 391.689 91.6562 391.933 90.648C392.579 88.7257 392.85 86.6974 392.732 84.6729C392.725 83.7521 392.494 82.8468 392.058 82.0356C391.583 81.3929 391.057 80.7899 390.484 80.2326C387.461 76.717 390.644 71.4731 384.92 69.8599Z" fill="black"/>
<path opacity="0.8" d="M782.354 345.261C782.354 345.261 550.87 212.385 451.213 237.562C451.213 237.562 240.013 260.291 215.535 310.293C215.535 310.293 148.398 100.491 123.921 93.498" stroke="white" stroke-width="2"/>
<path opacity="0.8" d="M215.535 310.294C254.349 206.791 604.02 92.0996 604.02 92.0996C554.367 104.688 451.213 237.562 451.213 237.562C451.213 237.562 233.019 78.8115 123.921 93.4977C123.921 93.4977 604.369 109.233 782.351 345.26" stroke="white" stroke-width="2"/>
<circle cx="123.922" cy="93.4978" r="10.1404" fill="white"/>
<circle cx="215.537" cy="310.294" r="10.1404" fill="white"/>
<circle cx="604.019" cy="92.0994" r="10.1404" fill="white"/>
<circle cx="451.213" cy="237.561" r="10.1404" fill="white"/>
<path d="M789.599 310.768C790.091 308.07 792.782 305.687 791.944 303.075C791.364 301.269 789.27 300.377 787.374 300.333C785.477 300.288 783.614 300.853 781.718 300.906C780.484 300.841 779.247 300.858 778.015 300.959C774.251 301.578 771.931 305.523 768.383 306.926C766.226 307.779 763.803 307.616 761.56 308.205C756.468 309.544 753.246 314.356 749.686 318.235C743.935 324.476 736.442 328.845 728.178 330.778C725.283 331.449 722.171 331.877 719.869 333.758C716.822 336.248 716.072 340.517 715.394 344.393C713.52 355.1 710.657 365.609 706.842 375.786L718.933 377.33C721.232 377.624 723.614 377.911 725.829 377.23C727.439 376.623 728.963 375.811 730.365 374.814C735.75 371.471 741.777 369.295 748.056 368.428C751.222 367.993 754.542 367.914 757.513 369.091C760.485 370.268 763.034 372.937 763.283 376.123C765.901 375.308 768.755 376.002 770.707 377.929C772.601 379.858 773.84 382.333 774.252 385.004C774.57 386.659 774.889 388.641 776.424 389.335C777.676 389.901 779.113 389.291 780.482 389.181C785.131 388.809 788.989 394.23 793.558 393.296C798.458 392.295 799.661 384.956 804.442 383.486C807.188 382.642 811.039 383.669 812.354 381.115C813.513 378.864 811.201 376.266 811.439 373.745C811.733 370.641 815.394 369.324 818.216 368C827.946 363.434 832.564 350.338 827.849 340.679C825.055 334.956 819.558 330.451 818.543 324.164C817.762 319.327 819.669 313.687 816.585 309.88C815.016 307.943 812.359 306.874 811.426 304.563C810.838 303.108 811.075 301.457 810.758 299.921C810.442 298.384 809.102 296.777 807.584 297.175C803.179 298.331 801.773 311.939 799.415 315.245C795.827 320.271 788.464 316.96 789.599 310.768Z" fill="black"/>
<path d="M708.176 283.444C706.67 283.022 705.026 282.607 703.584 283.21C702.142 283.813 701.299 285.931 702.457 286.981C711.513 286.629 720.625 286.278 729.604 287.508C739.95 288.925 750.189 292.435 760.58 291.402C754.644 289.651 748.61 288.251 742.51 287.209L732.338 285.266C729.609 284.695 726.851 284.269 724.077 283.99C718.275 283.51 713.882 285.044 708.176 283.444Z" fill="black"/>
<path d="M717.242 251.903C716.491 251.84 715.56 251.786 715.171 252.433C714.799 253.05 715.224 253.866 715.024 254.559C714.751 255.505 713.512 255.747 712.536 255.618C711.56 255.489 710.504 255.181 709.639 255.651C708.738 256.267 708.351 257.403 708.69 258.44C709.043 259.443 709.615 260.355 710.364 261.11C711.643 262.722 713.101 264.184 714.709 265.468C717.821 267.765 722.038 268.872 723.999 272.208C724.275 272.854 724.7 273.426 725.239 273.877C726.18 274.474 727.408 274.02 728.421 273.557L731.973 271.934C732.613 271.704 733.184 271.315 733.633 270.805C734.445 269.704 733.947 268.138 733.265 266.952C732.584 265.766 731.712 264.539 731.859 263.179C732.119 260.754 735.237 259.827 736.519 257.752C737.811 255.661 736.97 252.967 737.119 250.513C737.293 247.643 739.096 243.91 736.195 241.766C733.729 239.944 731.373 241.628 729.603 243.64C725.87 247.882 724.105 252.477 717.242 251.903Z" fill="black"/>
<path d="M674.038 244.751C672.851 243.423 671.064 242.033 669.473 242.834C668.259 243.446 667.926 245.125 668.401 246.398C668.981 247.634 669.873 248.698 670.99 249.484C674.305 252.218 677.874 254.685 680.766 257.863C685.942 263.551 688.684 271.226 694.312 276.465C695.444 277.68 696.942 278.491 698.578 278.774C700.218 278.926 702.059 277.876 702.248 276.24C702.403 274.893 701.463 273.686 700.545 272.688C698.359 270.309 695.965 268.12 693.901 265.635C692.947 264.681 692.348 263.429 692.202 262.088C692.192 260.75 693.412 259.35 694.708 259.681C693.132 259.278 691.962 256.651 689.648 256.157C687.714 255.745 687.247 256.942 684.945 255.955C680.556 254.072 677.111 248.193 674.038 244.751Z" fill="black"/>
</svg>
