<svg width="882" height="448" viewBox="0 0 882 448" fill="none" xmlns="http://www.w3.org/2000/svg">
<path d="M205.515 41.0987C205.198 38.5964 204.558 36.1457 203.61 33.8081C203.366 32.9143 202.757 32.1645 201.933 31.7418C201.387 31.6 200.816 31.5936 200.268 31.7231L191.721 33.0309C191.006 33.0636 190.321 33.3297 189.771 33.7886C188.658 34.9593 189.754 36.8445 189.72 38.4595C189.681 40.2757 188.068 41.7499 186.318 42.2376C184.532 42.5985 182.689 42.5757 180.912 42.1706L168.961 40.3134C172.481 39.1897 175.614 37.0991 178.002 34.28C179.575 32.417 180.412 28.9386 178.139 28.0562C177.464 27.871 176.759 27.8144 176.063 27.8896C170.648 27.9317 166.388 23.4108 161.318 21.5067C154.663 19.1685 147.259 21.3757 142.971 26.9764L149.337 27.2833C149.936 27.2502 150.53 27.4086 151.033 27.7355C152.428 28.8819 150.694 31.0838 150.89 32.8788C151.146 35.211 154.242 35.709 156.576 35.9448C158.911 36.1806 161.872 38.0771 160.749 40.1372C149.017 44.1782 137.078 32.2377 124.757 33.7075C121.638 34.0795 118.694 35.3046 115.649 36.075C97.0503 40.7807 77.8225 28.2253 58.8229 30.8843C54.599 31.6043 50.4477 32.6992 46.4182 34.1559C43.8323 35.0049 41.135 35.9225 39.2561 37.8916C37.3773 39.8607 36.6622 43.2282 38.4421 45.2872C33.5361 45.6912 28.5973 45.2218 23.8553 43.9007C26.4673 45.3526 28.0785 48.1145 28.0567 51.1029C20.3966 52.352 12.9392 54.6259 5.88533 57.8633C7.20184 60.0525 8.73955 62.101 10.4743 63.9763L0.776733 70.2065C4.05304 71.032 5.74696 75.4994 3.84167 78.2897C7.23882 76.7784 9.34422 72.8688 12.9769 72.0761C15.3568 71.5568 17.7784 72.5304 20.036 73.445C22.2938 74.3595 24.7752 75.2464 27.1124 74.56C29.4496 73.8736 31.1735 70.843 29.6883 68.9122C39.6781 65.9976 50.0023 64.3846 60.4051 64.1132C61.2076 64.0125 62.0215 64.167 62.7313 64.5547C64.0856 65.4942 63.7293 67.5235 63.6563 69.17C63.5834 70.8165 64.8667 72.9806 66.3383 72.2384C64.6069 73.7397 66.087 76.5661 67.7481 78.1449C69.4091 79.7236 71.4112 81.9021 70.3943 83.9557C70.1288 84.4917 69.6787 84.9206 69.4233 85.4614C68.6695 87.0578 69.8664 88.919 71.278 89.9791C72.6897 91.0393 74.4189 91.7803 75.3995 93.2483C76.3801 94.7164 75.9348 97.2861 74.1813 97.4911L69.1972 91.1629C67.4944 92.9286 66.327 95.1409 65.8304 97.5432C71.1156 101.864 71.9105 110.658 67.4858 115.856C65.2246 118.513 62.0091 120.127 59.2027 122.199C56.3962 124.271 53.7993 127.221 53.8064 130.71C53.8186 136.737 53.3261 142.336 55.5845 147.924C59.7491 158.227 64.5572 168.258 69.9804 177.958C71.4046 180.505 73.2452 183.297 76.1302 183.736C72.4841 174.859 69.2018 165.845 66.2834 156.692C68.1842 156.7 70.3808 156.851 71.4951 158.39C72.4178 159.666 72.2196 161.399 72.5063 162.947C72.871 164.447 73.4791 165.876 74.3064 167.179L91.7179 198.194C93.1613 200.765 94.817 203.525 97.5756 204.566C99.3393 205.232 101.38 205.106 103.003 206.065C104.276 206.816 105.133 208.149 106.43 208.857C110.098 210.858 115.198 207.021 118.626 209.41C119.606 210.093 120.229 211.178 121.132 211.96C124.298 214.701 129.491 212.867 133.146 214.912C135.501 216.231 136.722 218.867 137.978 221.255C141.125 227.239 146.216 233.101 152.96 233.578C155.079 233.727 157.243 233.326 159.313 233.797C161.384 234.268 163.422 236.075 163.09 238.173C162.52 241.769 164.297 245.706 163.82 249.316C162.95 255.89 153.625 258.779 152.824 265.363C152.648 266.804 152.923 268.292 152.58 269.703C152.159 271.432 150.86 272.84 150.399 274.558C149.525 277.816 151.858 281.057 154.422 283.249C156.985 285.44 160.043 287.329 161.445 290.397C162.926 293.639 162.198 297.42 162.68 300.952C163.732 308.662 170.392 314.379 177.246 318.064C179.334 319.187 181.576 320.274 182.928 322.222C184.692 324.765 184.516 328.117 185.105 331.155C186.548 338.596 192.812 344.727 192.99 352.303C193.116 357.689 190.122 362.575 188.334 367.656C184.942 377.508 186.009 388.349 191.258 397.35C192.596 399.609 194.196 401.739 195.142 404.188C196.831 408.558 196.283 413.525 197.84 417.944C199.898 423.786 205.555 428.611 205.014 434.781C207.582 440.114 213.252 442.734 218.955 444.321L229.174 447.166C231.131 447.711 233.176 448.26 235.169 447.866C237.161 447.471 239.063 445.817 239.011 443.786C234 442.656 228.827 441.454 224.696 438.4C220.565 435.346 217.735 429.908 219.302 425.015C220.029 422.747 221.575 420.127 220.105 418.252C219.264 417.179 217.724 416.899 216.775 415.919C215.294 414.392 215.803 411.826 216.868 409.984C217.932 408.142 219.471 406.496 219.9 404.413C220.344 402.026 219.258 399.614 217.176 398.365C219.071 397.649 220.794 396.544 222.234 395.119C223.564 393.6 224.179 391.258 223.132 389.531C226.24 389.925 229.908 390.118 231.948 387.741C233.577 385.843 233.465 383.005 232.822 380.588C232.178 378.171 231.09 375.823 231.056 373.322C238.225 373.662 245.409 373.418 252.538 372.594C251.507 369.122 249.164 366.188 246.007 364.414C249.235 363.868 252.177 360.002 253.197 356.891C254.217 353.779 253.957 350.39 253.326 347.177C253.084 346.349 253.051 345.475 253.23 344.632C253.593 343.473 254.731 342.766 255.785 342.161L271.811 332.957C272.767 332.478 273.634 331.838 274.373 331.065C276.052 329.093 275.804 326.116 274.944 323.672C274.084 321.229 272.707 318.932 272.376 316.363C271.385 308.68 279.61 303.167 282.385 295.935C283.475 293.097 283.697 290.012 283.907 286.979C284.134 283.722 284.151 279.939 281.65 277.84C279.252 275.827 275.506 276.276 272.998 274.405C270.698 272.689 269.904 269.356 267.391 267.97C265.11 266.712 262.249 267.512 259.711 266.92C255.243 265.878 252.431 260.728 247.867 260.251C245.293 259.982 242.379 261.241 240.268 259.741C238.409 258.42 238.334 255.764 237.98 253.511C236.71 246.338 231.105 240.715 223.937 239.422C221.282 238.996 218.392 239.158 216.134 237.699C213.847 236.222 212.798 233.456 211.002 231.41C208.107 228.113 203.547 226.942 199.276 225.937L181.902 221.853C178.817 221.128 174.842 220.743 173.187 223.445C172.697 224.474 172.35 225.565 172.156 226.687C170.883 230.854 167.069 233.725 162.713 233.795C161.257 231.311 158.898 229.486 156.128 228.7C154.367 228.209 152.481 228.154 150.801 227.432C148.951 226.529 147.555 224.905 146.941 222.94C146.326 220.976 146.548 218.846 147.553 217.05C149.613 213.384 148.96 208.792 145.961 205.845C143.007 203.192 138.733 202.551 134.771 202.817C133.733 200.552 135.468 197.998 137.338 196.353C139.207 194.707 141.478 193.09 141.885 190.633C142.525 186.768 137.594 183.832 133.85 184.985C130.105 186.137 127.715 189.774 126.136 193.359C125.229 195.416 124.459 197.582 123.029 199.316C121.599 201.051 119.297 202.292 117.119 201.736C114.036 200.948 112.845 197.285 112.163 194.177C111.247 190.007 110.327 185.778 110.518 181.513C110.71 177.248 112.148 172.869 115.293 169.981C120.418 165.276 128.281 165.737 135.197 166.488C133.563 164.647 133.967 161.544 135.715 159.811C137.589 158.146 140.164 157.513 142.596 158.121C144.68 158.554 146.558 159.677 147.927 161.308C149.892 163.704 150.451 166.94 151.937 169.66C153.423 172.38 156.763 174.7 159.497 173.241C161.859 171.98 162.234 168.705 161.646 166.093C161.058 163.482 159.81 160.942 160.023 158.273C160.429 153.182 165.708 150.117 170.365 148.02C175.023 145.923 180.357 143.102 181.095 138.048C181.12 137.058 181.307 136.079 181.648 135.15C182.164 134.329 182.882 133.654 183.733 133.189C197.327 124.205 211.147 115.111 226.684 110.203C227.493 109.947 227.587 110.231 228.411 110.031C229.564 109.365 228.8 107.521 227.695 106.779C226.589 106.036 225.112 105.467 224.832 104.165C224.625 103.208 225.189 102.268 225.336 101.3C225.696 98.922 222.85 96.7261 220.641 97.6769C219.393 96.024 221.862 94.1034 223.859 93.5536C229.855 91.9034 236.011 90.8978 242.22 90.5542C242.937 90.4403 243.671 90.5652 244.31 90.9096C245.353 91.6321 245.219 93.2891 244.48 94.3203C243.741 95.3515 242.591 95.9989 241.67 96.8715C239.619 98.8699 238.852 101.845 239.681 104.586C242.922 106.235 246.447 107.933 250.037 107.352C253.628 106.771 256.814 102.737 255.127 99.5149C253.555 96.5146 248.834 95.8379 248.023 92.5497C247.072 88.6998 252.522 85.2757 251.294 81.5049C250.757 79.8533 249.111 78.8812 247.848 77.6887C244.794 74.6961 243.894 70.1347 245.582 66.2065C241.407 66.941 237.135 65.6043 234.124 62.621C231.383 59.8553 229.197 55.4923 225.305 55.6161C221.734 55.7296 218.658 59.896 215.319 58.6249C214.497 58.3122 213.631 57.6757 212.835 58.0487C212.307 58.3918 211.965 58.9588 211.909 59.5865C211.06 63.6437 212.52 68.2663 210.309 71.7722C207.902 75.5872 202.337 76.1162 199.42 79.5565C197.836 81.4239 197.223 83.9404 195.767 85.9093C194.311 87.8782 191.222 89.1299 189.475 87.4142C191.243 83.7798 190.266 79.406 187.12 76.8695C185.498 75.8114 183.75 74.9611 181.916 74.3385C179.867 73.4713 177.918 72.3851 176.103 71.0987C175.194 70.5502 174.455 69.7597 173.969 68.8153C173.585 67.6329 173.637 66.3519 174.115 65.2044C175.92 60.0289 180.444 56.2794 185.865 55.4658C188.19 55.1494 190.897 55.2609 192.436 53.4888C193.251 52.5513 193.678 51.1337 194.86 50.7528C195.616 50.6009 196.401 50.6976 197.098 51.0285L205.779 54.0839C206.747 54.5212 207.813 54.6974 208.871 54.5953C209.959 54.4487 210.75 53.4878 210.684 52.392C210.407 50.9504 208.188 50.2586 208.39 48.8046C208.503 48.3334 208.757 47.9075 209.117 47.5833C215.46 40.8319 224.487 37.267 233.732 37.863C234.827 39.6624 233.095 41.7934 231.653 43.3295C230.211 44.8657 229.052 47.6105 230.796 48.7929C231.51 49.1576 232.305 49.3367 233.107 49.3135C235.244 49.6028 237.321 50.2327 239.259 51.1795C242.259 52.4849 245.201 53.9133 248.086 55.4644C247.831 53.5625 247.588 51.5589 248.309 49.7805C249.03 48.0021 251.078 46.6073 252.868 47.2998C254.593 47.9673 255.477 50.2509 257.315 50.4602C259.766 50.7392 260.733 47.1182 259.709 44.8738C258.685 42.6294 256.658 40.75 256.489 38.289C256.375 36.6286 257.007 34.5694 255.681 33.5641C255.209 33.2622 254.673 33.0744 254.116 33.0154L221 26.9215C219.034 26.5596 216.192 26.837 216.105 28.8346C216.057 29.9496 217.053 31.0527 216.611 32.0779C216.141 33.1721 214.594 33.0721 213.467 33.4591C211.719 34.0596 210.842 36.1352 211.01 37.9758C211.317 39.8048 212.026 41.5431 213.084 43.066C210.93 42.1655 207.668 41.9994 205.515 41.0987Z" fill="black"/>
<path d="M179.091 12.9889C174.814 11.5733 170.107 12.9827 167.312 16.5166C166.767 17.2346 166.309 18.2242 166.765 19.0017C167.42 20.1162 169.087 19.676 170.317 19.2773C172.124 18.6317 174.09 18.5847 175.926 19.1435C177.081 19.5398 178.114 20.2403 179.273 20.6217C180.423 21.1028 181.745 20.9096 182.709 20.1195C183.505 19.308 183.555 18.0462 183.556 16.9096C183.668 16.1393 183.427 15.3598 182.899 14.7878C182.434 14.519 181.913 14.3648 181.377 14.3379C180.178 14.1158 179.093 13.482 178.311 12.5459" fill="black"/>
<path d="M191.033 9.66323C190.083 9.61147 189.174 10.0588 188.635 10.8436C188.097 11.6283 188.006 12.637 188.396 13.5051C189.831 13.8966 191.331 13.9943 192.805 13.7926C194.308 13.5593 195.523 12.4449 195.886 10.9676C194.151 11.2833 192.36 10.9413 190.863 10.0083" fill="black"/>
<path d="M231.095 4.11112C227.189 4.94159 223.394 6.2306 219.79 7.9513C223.278 9.292 225.48 12.7549 225.215 16.4822C225.063 17.1792 225.08 17.9027 225.267 18.5914C225.682 19.598 226.885 19.9757 227.943 20.234C229.843 20.8123 231.827 21.0656 233.812 20.9831C235.829 20.8776 237.656 19.7609 238.67 18.0144C238.958 17.1984 239.295 16.4008 239.68 15.6262C242.216 11.765 249.747 16.4337 252.469 12.7019C253.428 11.3873 253.34 9.40844 254.59 8.36675C255.237 7.91289 255.986 7.62694 256.771 7.53461C262.245 6.44703 267.774 5.65953 273.334 5.17562C275.969 4.94638 279.402 4.00045 279.424 1.35619C269.502 -0.592647 259.213 0.791462 250.158 5.29334C246.895 6.92739 242.58 10.3646 239.438 8.19829C238.261 7.3872 238.319 5.20299 236.7 4.29093C235.044 3.35871 232.852 3.73748 231.095 4.11112Z" fill="black"/>
<path d="M263.546 10.1796L268.204 11.0747C266.469 10.9978 264.786 11.6717 263.583 12.924C262.38 14.1763 261.775 15.8859 261.922 17.6159C266.284 19.073 271.04 17.655 275.635 17.8487C280.23 18.0424 285.576 21.3246 284.791 25.8562C284.554 27.2263 283.763 28.5956 284.174 29.9238C284.463 30.8548 285.284 31.5154 285.747 32.3728C286.713 34.1595 285.941 36.4194 284.722 38.0435C283.502 39.6677 281.863 40.9636 280.793 42.6896C278.131 46.9825 279.643 52.5323 281.229 57.3282C281.688 59.1403 282.534 60.8312 283.711 62.2839C286.06 64.7819 289.889 64.9991 293.318 65.0492C295.813 65.0856 298.672 64.9622 300.251 63.0287C302.311 60.5042 300.87 56.5656 302.227 53.6028C303.459 50.912 306.598 49.7577 309.442 48.9389C314.652 47.439 319.961 46.1638 324.887 43.8982C331.003 41.0849 336.72 36.7007 343.442 36.3386C345.328 36.237 347.261 36.4596 349.078 35.9428C350.894 35.4261 352.62 33.8554 352.483 31.9717C352.365 30.3622 351.003 29.1803 349.939 27.967C348.875 26.7537 348.04 24.8879 349.018 23.6042L366.638 20.313C365.389 16.909 364.416 12.4259 367.287 10.2102C368.322 9.41081 369.709 9.09128 370.59 8.12482C372.093 6.4776 371.338 3.64008 369.603 2.2392C367.868 0.838318 365.522 0.513138 363.3 0.328553C355.574 -0.313125 347.803 0.110871 340.062 0.535233C324.929 1.3647 309.797 2.1942 294.664 3.02365C291.618 3.19063 288.101 2.93555 285.307 3.97482C282.942 4.85468 281.26 6.46974 278.555 7.0372C273.561 8.08516 268.064 7.37596 263.546 10.1796Z" fill="black"/>
<path d="M346.991 46.997C346.517 46.9218 346.031 47.032 345.635 47.3045C345.374 47.5927 345.218 47.9614 345.194 48.3499C344.893 50.0647 345.251 51.8297 346.197 53.2916C347.178 54.7521 348.874 55.5653 350.627 55.4154C352.724 55.148 354.27 53.3586 356.198 52.4855C359.169 51.141 371.79 49.045 363.06 44.3283C360.051 42.7029 358.107 44.1378 355.736 45.2083C353.038 46.5886 350.014 47.2069 346.991 46.9969V46.997Z" fill="black"/>
<path d="M423.46 7.51631C422.44 7.93283 421.588 8.67516 421.035 9.62743C420.505 10.6317 420.857 11.8746 421.833 12.4532C422.214 12.5912 422.618 12.6553 423.023 12.6418L427.168 12.7657C428.929 12.8182 431.128 13.1933 431.601 14.8903C431.953 16.1503 431.166 17.7695 432.115 18.67C432.522 18.9852 433.012 19.1763 433.525 19.2199C434.891 19.5707 436.317 19.6167 437.702 19.3547C440.718 18.5457 439.133 16.705 440.083 15.0659C441.536 12.5581 441.285 14.0762 443.846 12.6389C445.737 11.5774 448.181 9.65192 446.602 6.94652C443.857 2.24188 427.511 5.49548 423.46 7.51631Z" fill="black"/>
<path d="M505.273 5.15217L502.866 5.47333C497.438 6.19767 491.98 6.92861 486.752 8.55855C489.015 9.45322 491.389 10.0358 493.81 10.2902C495.142 10.3555 496.465 10.5436 497.762 10.8521C500.071 11.5394 502.398 13.3144 504.629 12.4052C506.012 11.8414 506.463 10.4013 507.609 9.63807C508.4 9.11101 511.401 8.25802 511.736 7.72609C514.448 3.42536 507.358 4.87424 505.273 5.15217Z" fill="black"/>
<path d="M515.842 16.091C512.627 17.8887 509.644 20.0731 506.96 22.5956C505.829 23.6588 504.674 24.9809 504.776 26.5296C504.913 28.5881 507.106 29.782 509.005 30.5863L516.7 33.844C517.633 32.5284 516.779 30.7123 515.814 29.4194C514.849 28.1265 513.703 26.6307 514.129 25.0748C514.615 23.2994 516.78 22.6943 518.595 22.3885C521.553 21.8901 529.532 21.9301 528.573 17.1635C527.443 11.5469 518.811 14.4311 515.842 16.091Z" fill="black"/>
<path d="M514.296 333.934C513.563 336.055 513.494 338.553 514.761 340.405C516.183 342.482 519.028 343.257 521.49 342.73C523.941 342.077 526.127 340.672 527.737 338.713C529.211 337.071 530.423 335.212 531.331 333.202C532.599 330.069 533.493 326.798 533.994 323.456L536.383 310.913C536.917 308.11 536.897 299.515 531.744 302.315C530.337 303.08 527.078 309.12 525.603 310.833C522.944 313.92 522.592 316.915 521.193 320.654C519.44 325.338 515.917 329.243 514.296 333.934Z" fill="black"/>
<path d="M448.253 153.114C448.56 154.763 448.863 156.5 448.322 158.089C447.781 159.677 446.081 161.004 444.475 160.518C443.229 160.14 442.509 158.887 441.624 157.932C436.703 152.619 425.6 155.695 422.56 149.122C421.319 146.439 422.162 143.225 421.316 140.394C420.218 137.028 416.983 134.83 413.449 135.049C411.882 135.276 410.356 135.731 408.921 136.401C399.309 140.25 389.219 142.774 378.926 143.903C376.97 144.022 375.035 144.374 373.163 144.952C368.937 146.484 366.049 150.402 363.994 154.4C361.939 158.398 360.422 162.726 357.667 166.278C354.771 170.011 350.714 172.625 346.929 175.453C345.471 176.393 344.257 177.665 343.387 179.166C342.566 180.85 342.612 182.81 342.676 184.682L343.45 207.427C343.549 210.352 343.674 213.382 344.983 216C346.619 219.27 349.848 221.411 352.089 224.299C354.376 227.267 355.567 230.933 355.461 234.679C355.413 236.184 355.264 237.965 356.437 238.911C357.15 239.373 357.985 239.613 358.835 239.6L389.601 242.119C395.013 242.562 401.011 243.29 404.545 247.413C406.212 249.359 407.552 252.158 410.106 252.366C411.202 252.456 412.268 252.006 413.364 251.919C416.129 251.701 418.557 253.799 420.09 256.11C422.41 259.633 423.463 263.84 423.076 268.041C422.825 270.677 422.008 273.241 421.832 275.883C421.161 285.939 429.685 294.675 429.85 304.751C429.948 310.679 427.134 316.217 424.391 321.471C428.818 328.179 425.193 337.11 426.955 344.951C428.628 352.39 434.83 358.213 436.376 365.68C437.083 369.098 437.124 373.304 440.138 375.064C441.461 375.709 442.927 376.003 444.396 375.917C453.255 376.022 462.013 374.028 469.954 370.098C473.681 368.249 477.544 365.488 478.195 361.378C478.72 358.065 477.039 354.358 478.749 351.471C480.765 348.069 485.929 348.339 488.895 345.723C493.706 341.479 489.954 333.387 491.904 327.275C493.656 321.781 499.688 318.862 502.678 313.931C503.855 311.811 504.699 309.522 505.182 307.145C506.552 301.465 507.404 295.672 507.729 289.838C507.809 286.294 508.07 282.755 508.512 279.237C511.736 259.209 531.536 245.798 537.964 226.558C538.578 224.72 538.867 222.273 537.232 221.233C536.263 220.77 535.163 220.655 534.119 220.907L519.936 222.695C518.175 222.917 516.307 223.125 514.69 222.393C513.072 221.661 511.912 219.615 512.771 218.061C515.179 213.697 510.224 208.183 508.023 203.712C502.094 191.671 495.034 180.222 486.938 169.518C486.42 168.967 486.096 168.263 486.014 167.511L490.039 167.645C488.68 162.769 486.438 157.434 481.701 155.65C479.032 154.645 476.076 154.993 473.228 155.148C465.071 155.594 456.326 154.362 448.253 153.114Z" fill="black"/>
<path d="M473.234 43.2401C475.369 45.5069 477.76 47.9102 480.849 48.3053C486.304 49.0032 490.226 43.3623 492.723 38.4626C492.915 41.0598 495.14 43.0323 497.741 42.9119C499.088 42.6854 500.373 42.183 501.516 41.4362C512.324 35.5299 524.43 32.4004 536.746 32.329C536.501 30.3967 537.755 28.5914 539.651 28.1464C542.155 27.65 544.411 29.815 545.619 32.0639C546.827 34.3129 547.58 36.9196 549.499 38.603C551.418 40.2863 555.134 40.2131 555.892 37.7753C556.62 35.435 554.182 33.4393 552.156 32.0595C550.131 30.6797 547.996 28.126 549.36 26.0898C559.708 23.7991 570.121 21.4998 580.71 21.0445C582.512 21.1072 584.309 20.7978 585.987 20.1354C587.602 19.343 588.885 17.5441 588.451 15.7985C583.724 16.9096 578.796 15.0505 575.98 11.0947C590.673 9.88226 606.301 8.8488 619.322 15.7624C620.884 19.1168 612.921 21.9077 615.051 24.9333C615.731 25.8982 617.093 26.0114 618.273 26.0333C627.321 26.2013 636.422 26.366 645.369 24.9999C648.638 24.5007 651.94 23.7959 655.223 24.2007C660.69 24.875 665.366 28.523 670.745 29.7124C672.935 30.1965 675.389 30.2129 677.235 28.9396C679.08 27.6662 679.874 24.7668 678.361 23.1115C683.426 18.1479 691.831 19.3781 698.512 21.7544C705.193 24.1307 711.523 27.9629 718.594 28.4926C723.665 28.8725 728.806 27.5085 733.817 28.3754C736.965 28.9202 739.896 30.321 742.973 31.1816C748.794 32.8092 754.95 32.4657 760.994 32.544C776.413 32.7517 791.663 35.7821 805.99 41.4851C807.854 42.0919 809.562 43.1007 810.992 44.4404C812.325 45.868 813.005 48.0863 812.109 49.8219L797.305 47.6588C798.699 50.4047 802.308 50.8726 805.239 51.8199C808.169 52.7672 811.208 56.0035 809.447 58.5302C806.271 57.5191 803.394 60.6937 801.79 63.6147C800.186 66.5356 798.231 70.0338 794.904 70.2117C791.924 70.3711 788.32 67.8339 786.378 70.0993C789.061 73.4844 791.359 77.1579 793.229 81.0519C795.147 85.0495 796.514 90.0867 793.921 93.6835C793.513 94.3255 792.894 94.8054 792.17 95.0408C790.052 95.5771 788.676 92.9858 787.157 91.4153C785.243 89.4361 782.348 88.8755 779.756 87.9474C777.164 87.0192 774.433 85.1933 774.23 82.4474C774.104 80.739 775.006 79.1509 775.67 77.572C776.787 74.9105 777.275 72.0275 777.098 69.1468C776.952 66.8292 776.302 64.4185 774.638 62.7992C772.974 61.1799 770.1 60.6662 768.313 62.1493C767.479 62.8413 766.811 63.9482 765.729 63.9896C763.815 64.0628 762.347 60.7275 760.808 61.8661C760.988 63.0792 760.737 64.3171 760.097 65.3636C755.504 69.3581 748.448 67.6682 742.527 69.0793C739.712 69.8851 737.016 71.0623 734.511 72.5799C733.574 72.9806 732.777 73.6498 732.22 74.5032C731.481 75.9395 732.296 77.779 733.599 78.734C734.98 79.5813 736.533 80.1112 738.144 80.2854C745.362 81.6526 752.686 83.7689 758.385 88.4055C764.084 93.042 767.822 100.706 766.018 107.828L751.783 94.2263C752.324 99.9376 752.63 105.665 752.703 111.407C752.796 112.529 752.642 113.656 752.252 114.712C751.237 116.953 748.487 117.708 746.077 118.203C744.721 118.46 743.54 119.285 742.83 120.469C742.121 121.653 741.951 123.083 742.363 124.4C743.22 127.192 745.355 129.368 747.31 131.536C749.265 133.705 751.189 136.169 751.445 139.077C751.701 141.986 749.507 145.264 746.594 145.062C744.386 144.909 742.748 142.932 741.806 140.929C740.864 138.926 740.304 136.695 738.889 134.993C734.606 129.842 724.986 132.049 721.149 126.557C719.16 128.813 718.481 131.937 719.354 134.815C721.139 133.698 723.583 134.736 724.924 136.359C726.265 137.983 726.898 140.065 727.951 141.888C729.372 144.349 731.634 146.531 731.832 149.366C731.78 150.437 731.798 151.512 731.887 152.581C732.239 154.299 733.691 155.532 734.697 156.968C737.039 160.309 736.924 164.898 735.414 168.688C733.904 172.479 731.192 175.646 728.506 178.716C723.814 184.08 719.026 189.412 713.463 193.866C711.876 195.137 710.182 196.386 709.193 198.163C708.205 199.94 708.154 202.434 709.673 203.786C708.586 203.84 706.637 204.375 705.55 204.429C705.168 200.069 705.085 195.687 705.301 191.315C701.012 189.256 696.393 194.772 696.947 199.498C697.5 204.224 700.919 208.016 703.352 212.105C705.132 215.095 706.455 218.582 705.861 222.011C705.266 225.439 702.206 228.602 698.739 228.3C693.225 227.819 690.919 219.903 685.459 218.997C684.977 218.884 684.472 218.934 684.022 219.14C683.211 219.584 683.07 220.669 683.025 221.592C682.802 226.125 682.608 230.837 684.377 235.016C686.966 241.129 693.652 246.263 692.25 252.752C684.694 249.24 680.765 240.766 678.981 232.627C677.198 224.487 676.9 215.943 673.703 208.248C671.275 211.36 666.172 208.788 663.953 205.523C661.85 202.428 660.555 198.847 658.515 195.711C656.475 192.574 653.349 189.765 649.611 189.593C645.692 189.412 642.293 192.101 639.304 194.643C636.846 196.732 634.322 198.904 632.885 201.793C630.794 205.996 631.341 210.951 631.241 215.645C631.132 220.719 630.056 226.072 626.598 229.787C623.14 233.502 616.757 234.796 612.942 231.448C610.951 229.7 609.986 227.088 609.127 224.582C604.988 212.499 601.54 200.191 598.801 187.716C598.16 190.563 595.659 194.233 593.271 192.556C592.735 192.105 592.301 191.545 591.997 190.914C587.542 183.363 579.291 178.834 570.954 176.118C562.618 173.402 553.847 172.135 545.603 169.151C540.983 167.478 536.571 165.28 532.452 162.6C530.313 165.743 530.07 169.805 531.82 173.18C533.649 176.418 537.787 178.292 541.329 177.16C543.16 176.575 544.706 175.304 546.522 174.676C548.338 174.049 550.776 174.357 551.57 176.107C552.331 177.782 551.182 179.808 551.752 181.557C552.62 184.221 556.637 184.426 558.042 186.85C559.087 188.653 558.227 191.048 556.735 192.503C555.242 193.959 553.251 194.757 551.429 195.77C545.519 199.057 541.315 204.668 536.15 209.033C530.984 213.398 523.695 216.586 517.539 213.785C519.006 206.355 510.155 200.899 508.526 193.502C507.99 191.067 508.268 188.481 507.503 186.108C506.395 182.673 503.347 180.311 500.847 177.707C494.72 171.259 491.459 162.608 491.804 153.72C491.939 150.663 492.501 147.556 491.804 144.576C491.108 141.596 488.641 138.712 485.584 138.847C478.601 139.155 469.804 139.675 466.141 133.722C464.833 131.598 464.264 128.487 466.155 126.859C467.488 125.711 469.457 125.819 471.208 125.991L486.941 127.539C490.621 127.901 494.598 128.2 497.756 126.276C500.914 124.352 502.282 119.246 499.358 116.983C497.222 115.329 493.394 115.419 492.773 112.789C492.256 110.6 494.68 108.115 493.371 106.285C492.432 104.973 490.322 105.337 489.043 106.321C487.764 107.304 486.836 108.743 485.405 109.488C482.895 110.794 479.895 109.551 477.194 108.706C474.493 107.861 470.872 107.789 469.562 110.297C468.097 113.103 470.862 116.779 469.408 119.59C467.485 123.307 460.975 121.191 458.275 124.388C455.177 128.057 460.383 133.527 459.338 138.214C456.625 139.558 453.405 139.377 450.859 137.738C448.351 136.032 446.984 133.086 447.3 130.069C447.559 127.961 448.658 125.809 447.921 123.817C447.326 122.206 445.709 121.247 444.205 120.416L428.917 111.968C427.497 114.601 429.292 117.865 431.536 119.843C433.78 121.821 436.591 123.31 438.066 125.913C440.002 129.657 438.688 134.26 435.068 136.418C434.625 136.723 434.072 136.82 433.552 136.682C433.059 136.393 432.705 135.916 432.569 135.361C429.872 128.457 425.822 121.651 419.346 118.045C412.871 114.439 403.567 115.18 399.321 121.255C398.313 122.698 397.636 124.342 396.757 125.868C392.089 133.973 382.083 137.81 372.733 137.56C371.819 137.61 370.909 137.396 370.112 136.944C368.601 135.9 368.67 133.686 368.901 131.864L369.882 124.133C370.079 122.581 370.365 120.865 371.594 119.896C373.326 118.53 375.824 119.392 378.03 119.36C381.453 119.2 384.411 116.917 385.433 113.646C386.342 110.36 385.356 106.841 382.874 104.504C381.863 103.555 380.506 102.362 381.04 101.082C381.472 100.365 382.198 99.8762 383.024 99.7461C386.986 98.5955 391.173 98.2939 395.069 96.9364C398.965 95.5788 402.743 92.8013 403.666 88.7801C403.948 87.5478 404.077 86.055 405.184 85.444C405.739 85.2096 406.336 85.0876 406.939 85.0855C411.317 84.4626 414.495 80.6001 414.263 76.184C416.13 74.8793 418.746 75.839 420.552 77.2267C422.358 78.6143 423.953 80.4477 426.151 81.0458C430.247 82.1606 434.205 78.5341 438.45 78.5173C440.235 78.5102 442.083 79.1414 443.763 78.5361C445.465 77.9226 446.482 76.2279 447.788 74.9758C449.095 73.7238 451.388 72.9601 452.594 74.3089L451.567 66.6985C455.753 67.7561 460.192 66.9536 463.743 64.4971L450.464 60.0104C450.002 59.895 449.575 59.667 449.223 59.3465C448.257 58.307 449.216 56.687 450.001 55.5053C451.879 52.6784 452.194 48.0218 449.106 46.6143C446.998 45.6537 444.578 46.8068 442.555 47.9349L432.863 53.339C432.555 55.1813 434.808 56.2254 436.204 57.4663C437.933 59.0031 438.539 61.4444 437.73 63.6115C436.922 65.7785 434.864 67.2256 432.551 67.254C433.844 68.9347 434.303 71.1121 433.798 73.1715L427.277 73.6405C426.545 73.7877 425.784 73.6393 425.162 73.2277C424.464 72.6083 424.559 71.5228 424.397 70.6042C424.007 68.3869 421.836 66.8328 419.62 66.4343C417.404 66.0358 415.137 66.5466 412.943 67.0509C412.012 67.3862 410.989 67.3626 410.073 66.9847C409.548 66.6438 409.15 66.1404 408.938 65.5516C407.976 63.2192 408.875 60.4777 410.42 58.483C411.965 56.4884 414.08 55.0303 415.979 53.3698C420.522 49.3843 423.859 44.208 425.614 38.4256C429.204 36.9215 432.921 34.8779 436.51 33.3739C442.045 30.5718 448.251 29.3693 454.432 29.9016L466.589 30.1338C470.188 30.2025 473.885 30.2906 477.213 31.6628C480.541 33.035 483.466 36.0028 483.695 39.5954C483.836 40.4222 483.542 41.2633 482.916 41.8217C482.446 42.0782 481.913 42.1982 481.379 42.1681C478.022 42.2861 476.591 43.1223 473.234 43.2401Z" fill="black"/>
<path d="M376.335 81.3415C377.303 80.4249 377.678 79.0438 377.305 77.7637C374.947 76.854 372.278 77.358 370.415 79.0648C369.695 79.7932 369.074 80.6138 368.569 81.505C366.971 84.1113 365.558 87.2245 366.484 90.1378C366.637 90.7796 367.041 91.333 367.607 91.6729C368.022 91.8394 368.469 91.9095 368.915 91.8778C370.675 91.8755 372.433 91.7673 374.18 91.5538C375.252 91.4226 376.498 91.1197 376.913 90.1216C377.458 88.8097 376.139 87.3249 376.523 85.9573C376.776 85.3458 377.16 84.7967 377.647 84.3485C378.137 83.891 378.382 83.2293 378.309 82.563C378.154 81.9214 377.171 81.5573 376.818 82.1148" fill="black"/>
<path d="M385.461 69.5103C383.898 69.1513 382.286 69.0501 380.69 69.2107C380.337 69.2002 379.987 69.2797 379.674 69.4417C379.37 69.666 379.149 69.9852 379.047 70.3489C378.348 72.5925 379.49 74.9967 381.671 75.8721C382.244 76.0039 382.793 76.2245 383.298 76.5259C384.648 77.5729 383.787 79.7128 384.043 81.4014C384.33 83.2976 386.165 84.8892 385.829 86.7772C385.564 88.2646 383.975 89.4424 384.231 90.9315C384.499 92.4911 386.478 92.9597 388.055 93.0846C388.969 93.2447 389.91 93.1368 390.765 92.7741C391.621 92.1885 392.23 91.3066 392.474 90.2984C393.12 88.376 393.391 86.3478 393.274 84.3232C393.267 83.4025 393.035 82.4972 392.6 81.686C392.125 81.0432 391.598 80.4403 391.025 79.883C388.003 76.3674 391.185 71.1235 385.461 69.5103Z" fill="black"/>
<path opacity="0.8" d="M782.896 344.911C782.896 344.911 551.412 212.036 451.755 237.212C451.755 237.212 240.554 259.941 216.077 309.944C216.077 309.944 148.94 100.141 124.463 93.1484" stroke="white" stroke-width="2"/>
<path opacity="0.8" d="M216.077 309.944C254.891 206.441 604.561 91.75 604.561 91.75C554.908 104.338 451.755 237.213 451.755 237.213C451.755 237.213 233.561 78.4619 124.463 93.1481C124.463 93.1481 604.911 108.883 782.893 344.911" stroke="white" stroke-width="2"/>
<circle cx="124.464" cy="93.1482" r="10.1404" fill="white"/>
<circle cx="216.078" cy="309.944" r="10.1404" fill="white"/>
<circle cx="604.562" cy="91.7498" r="10.1404" fill="white"/>
<circle cx="451.755" cy="237.212" r="10.1404" fill="white"/>
<path d="M786.429 398.123C784.743 397.465 783.107 396.686 781.533 395.792C779.955 400.13 779.116 404.703 779.051 409.319L790.588 402.791C792.323 401.809 794.291 400.444 794.253 398.451C794.285 397.949 794.041 397.47 793.615 397.202C793.359 397.099 793.08 397.066 792.807 397.107C791.096 397.25 789.536 398.091 787.922 398.677C786.309 399.262 784.422 399.572 782.941 398.703" fill="black"/>
<path d="M847.291 401.999C846.025 402.344 844.788 402.788 843.591 403.327C840.944 404.674 839.143 407.232 836.76 409.007C834.48 410.704 831.736 411.636 829.042 412.543C828.249 413.243 828.613 414.654 829.474 415.27C830.398 415.796 831.459 416.034 832.521 415.955C835.32 416.016 838.268 416.043 840.72 414.691C842.102 413.795 843.394 412.769 844.58 411.627C847.447 409.236 850.889 407.658 854.297 406.133C855.537 405.665 856.684 404.979 857.683 404.108C859.824 401.998 859.975 398.744 856.888 398.026C854.391 397.446 849.663 401.23 847.291 401.999Z" fill="black"/>
<path d="M874.175 384.434C874.456 381.493 873.37 378.586 871.23 376.549C871.199 379.453 871.11 382.547 869.477 384.949C868.313 386.66 866.488 387.816 865.213 389.446C863.938 391.076 863.372 393.659 864.868 395.089C865.824 395.817 866.988 396.218 868.19 396.233C871.167 396.584 874.613 396.779 876.701 394.628C877.841 393.454 878.395 391.715 879.785 390.852C880.303 390.635 880.765 390.304 881.138 389.884C881.712 388.972 880.8 387.769 879.774 387.44C878.747 387.112 877.616 387.266 876.584 386.954C875.552 386.642 874.606 385.482 875.135 384.543" fill="black"/>
<path d="M826.388 277.954C824.826 278.334 823.208 278.429 821.613 278.235C818.962 277.748 816.899 275.75 814.759 274.112C809.672 270.239 803.489 268.079 797.097 267.941C791.282 267.831 785.413 269.407 779.703 268.308C780.076 270.383 781.852 271.939 783.746 272.864C785.641 273.79 787.732 274.255 789.636 275.161C792.685 276.627 795.103 279.143 796.447 282.248C797.061 283.679 797.446 285.237 798.375 286.486C800.274 289.041 803.872 289.602 807.048 289.393C811.188 289.121 815.513 287.93 819.365 289.472C822.312 290.652 824.421 293.232 826.881 295.237C829.342 297.243 832.807 298.731 835.633 297.284C829.609 295.334 825.554 289.694 825.622 283.363C828.393 283.618 836.375 283.519 835.945 278.811C835.581 274.82 828.769 277.523 826.388 277.954Z" fill="black"/>
<path d="M790.141 310.419C790.633 307.72 793.324 305.337 792.485 302.725C791.906 300.919 789.812 300.028 787.915 299.983C786.019 299.938 784.156 300.503 782.26 300.557C781.025 300.491 779.788 300.509 778.556 300.609C774.792 301.228 772.472 305.173 768.925 306.576C766.768 307.429 764.345 307.266 762.101 307.856C757.009 309.194 753.787 314.006 750.228 317.886C744.476 324.126 736.983 328.496 728.72 330.428C725.825 331.099 722.712 331.528 720.411 333.408C717.363 335.898 716.613 340.167 715.935 344.044C714.062 354.75 711.199 365.26 707.383 375.437L719.474 376.981C721.773 377.274 724.155 377.561 726.371 376.88C727.98 376.273 729.505 375.461 730.906 374.464C736.292 371.121 742.319 368.945 748.597 368.079C751.764 367.644 755.083 367.564 758.055 368.741C761.026 369.918 763.575 372.587 763.824 375.773C766.443 374.959 769.297 375.653 771.249 377.579C773.142 379.508 774.382 381.983 774.793 384.655C775.112 386.309 775.43 388.291 776.965 388.985C778.217 389.551 779.654 388.941 781.024 388.832C785.673 388.46 789.53 393.88 794.099 392.947C799 391.946 800.203 384.607 804.984 383.137C807.729 382.292 811.581 383.319 812.895 380.765C814.054 378.514 811.742 375.916 811.981 373.395C812.274 370.292 815.935 368.974 818.758 367.65C828.488 363.084 833.105 349.988 828.39 340.329C825.596 334.606 820.1 330.102 819.084 323.815C818.303 318.978 820.21 313.337 817.126 309.53C815.557 307.593 812.901 306.524 811.968 304.213C811.38 302.758 811.616 301.108 811.3 299.571C810.984 298.034 809.643 296.427 808.125 296.825C803.721 297.981 802.315 311.589 799.956 314.895C796.368 319.921 789.005 316.611 790.141 310.419Z" fill="black"/>
<path d="M708.717 283.095C707.212 282.673 705.568 282.257 704.126 282.86C702.683 283.463 701.841 285.581 702.999 286.632C712.055 286.279 721.167 285.929 730.146 287.159C740.491 288.575 750.73 292.085 761.121 291.053C755.186 289.302 749.152 287.902 743.052 286.86L732.879 284.917C730.15 284.345 727.393 283.919 724.619 283.64C718.816 283.161 714.424 284.695 708.717 283.095Z" fill="black"/>
<path d="M717.784 251.553C717.032 251.491 716.101 251.437 715.712 252.083C715.34 252.701 715.766 253.517 715.566 254.209C715.293 255.155 714.054 255.397 713.078 255.268C712.101 255.139 711.045 254.831 710.18 255.302C709.279 255.917 708.893 257.054 709.231 258.091C709.585 259.094 710.157 260.005 710.906 260.76C712.185 262.372 713.642 263.834 715.25 265.118C718.363 267.416 722.58 268.523 724.54 271.858C724.817 272.505 725.242 273.076 725.781 273.528C726.722 274.124 727.949 273.671 728.963 273.208L732.515 271.585C733.154 271.354 733.725 270.966 734.175 270.455C734.986 269.354 734.488 267.789 733.807 266.603C733.126 265.417 732.254 264.189 732.4 262.829C732.661 260.404 735.778 259.477 737.06 257.402C738.352 255.311 737.511 252.617 737.66 250.163C737.834 247.293 739.637 243.561 736.736 241.417C734.271 239.595 731.914 241.278 730.144 243.29C726.411 247.532 724.646 252.127 717.784 251.553Z" fill="black"/>
<path d="M739.344 208.678C740.556 211 743.084 212.385 744.407 214.647C745.84 217.097 745.676 220.264 747.231 222.64C748.827 225.077 752.037 226.371 752.932 229.143C753.909 232.169 751.692 235.848 753.459 238.492C754.125 239.366 755.127 239.921 756.221 240.021C757.315 240.122 758.402 239.759 759.216 239.021C760.765 237.335 760.687 234.721 759.042 233.129C757.996 232.176 756.494 231.764 755.62 230.65C755.166 230.007 754.863 229.269 754.734 228.492C754.258 226.251 754.335 223.928 754.957 221.723C755.19 221.164 755.25 220.546 755.127 219.953C754.734 218.81 753.186 218.729 752.1 218.199C749.634 216.995 749.693 213.514 750.124 210.803C749.838 212.607 743.409 209.538 742.736 208.516C741.398 206.485 742.126 202.567 741.861 200.323C738.974 201.715 737.861 205.84 739.344 208.678Z" fill="black"/>
<path d="M674.579 244.402C673.392 243.073 671.605 241.684 670.015 242.485C668.801 243.096 668.467 244.775 668.943 246.048C669.522 247.285 670.414 248.348 671.531 249.134C674.846 251.868 678.416 254.336 681.308 257.514C686.484 263.201 689.225 270.876 694.854 276.116C695.985 277.33 697.483 278.141 699.119 278.424C700.759 278.577 702.6 277.527 702.789 275.891C702.944 274.543 702.005 273.337 701.087 272.338C698.9 269.96 696.506 267.771 694.442 265.285C693.489 264.331 692.89 263.08 692.744 261.738C692.733 260.4 693.953 259 695.25 259.331C693.673 258.928 692.504 256.302 690.19 255.808C688.256 255.395 687.788 256.592 685.487 255.605C681.097 253.723 677.653 247.843 674.579 244.402Z" fill="black"/>
<path d="M777.722 115.065C776.463 114.691 775.225 114.248 774.014 113.74C770.755 112.762 766.442 115.157 766.877 118.533C767.165 120.775 769.252 122.287 770.405 124.232C772.114 127.116 771.658 130.775 770.76 134.005C770.54 135.006 770.12 135.951 769.527 136.786C768.697 137.668 767.705 138.381 766.606 138.887C762.204 141.355 758.323 144.652 755.176 148.597C754.834 148.961 754.595 149.411 754.486 149.898C754.33 151.038 755.475 151.868 756.123 152.818C757.562 154.929 756.522 157.77 756.664 160.321C756.62 161.054 756.958 161.758 757.558 162.182C758.425 162.623 759.452 161.874 759.922 161.023C761.482 158.198 760.307 153.662 763.233 152.3C763.786 152.042 764.457 151.934 764.826 151.447C765.412 150.676 764.847 149.534 765.144 148.613C765.589 147.228 767.482 147.166 768.935 147.228C771.438 147.332 773.939 146.999 776.327 146.244C777.264 146.021 778.114 145.528 778.774 144.827C779.649 143.735 779.571 142.183 779.396 140.796C778.521 133.877 776.33 127.191 772.94 121.096C775.51 121.425 778.306 121.709 780.524 120.37C781.766 119.62 783.255 117.377 782.639 115.85C781.667 113.436 779.906 115.468 777.722 115.065Z" fill="black"/>
<circle cx="782.894" cy="344.911" r="10.1404" fill="white"/>
</svg>
