<svg width="17" height="17" viewBox="0 0 17 17" fill="none" xmlns="http://www.w3.org/2000/svg">
<path d="M8.61656 4.28597C6.32741 4.28597 4.48097 6.1324 4.48097 8.42155C4.48097 10.7107 6.32741 12.5571 8.61656 12.5571C10.9057 12.5571 12.7521 10.7107 12.7521 8.42155C12.7521 6.1324 10.9057 4.28597 8.61656 4.28597ZM8.61656 11.1102C7.13725 11.1102 5.92789 9.90446 5.92789 8.42155C5.92789 6.93864 7.13365 5.73288 8.61656 5.73288C10.0995 5.73288 11.3052 6.93864 11.3052 8.42155C11.3052 9.90446 10.0959 11.1102 8.61656 11.1102ZM13.8859 4.1168C13.8859 4.6531 13.454 5.08141 12.9213 5.08141C12.385 5.08141 11.9567 4.6495 11.9567 4.1168C11.9567 3.58411 12.3886 3.15219 12.9213 3.15219C13.454 3.15219 13.8859 3.58411 13.8859 4.1168ZM16.625 5.09581C16.5638 3.80366 16.2686 2.65909 15.322 1.71608C14.379 0.773063 13.2344 0.477921 11.9423 0.413134C10.6106 0.337549 6.61895 0.337549 5.28722 0.413134C3.99867 0.474322 2.8541 0.769464 1.90748 1.71248C0.96087 2.65549 0.669327 3.80007 0.60454 5.09221C0.528955 6.42395 0.528955 10.4156 0.60454 11.7473C0.665728 13.0394 0.96087 14.184 1.90748 15.127C2.8541 16.07 3.99507 16.3652 5.28722 16.43C6.61895 16.5056 10.6106 16.5056 11.9423 16.43C13.2344 16.3688 14.379 16.0736 15.322 15.127C16.265 14.184 16.5602 13.0394 16.625 11.7473C16.7006 10.4156 16.7006 6.42755 16.625 5.09581V5.09581ZM14.9045 13.1762C14.6238 13.8817 14.0803 14.4252 13.3712 14.7095C12.3094 15.1306 9.78993 15.0334 8.61656 15.0334C7.44319 15.0334 4.92009 15.127 3.8619 14.7095C3.15644 14.4288 2.61294 13.8853 2.3286 13.1762C1.90748 12.1144 2.00466 9.59492 2.00466 8.42155C2.00466 7.24818 1.91108 4.72508 2.3286 3.66689C2.60934 2.96143 3.15284 2.41794 3.8619 2.13359C4.92369 1.71248 7.44319 1.80966 8.61656 1.80966C9.78993 1.80966 12.313 1.71608 13.3712 2.13359C14.0767 2.41434 14.6202 2.95783 14.9045 3.66689C15.3256 4.72868 15.2284 7.24818 15.2284 8.42155C15.2284 9.59492 15.3256 12.118 14.9045 13.1762Z" fill="white"/>
</svg>
