<svg width="13" height="13" viewBox="0 0 13 13" fill="none" xmlns="http://www.w3.org/2000/svg">
<path d="M12.459 6.25745C12.459 9.55984 9.78188 12.2369 6.47949 12.2369C3.1771 12.2369 0.5 9.55984 0.5 6.25745C0.5 2.95505 3.1771 0.277954 6.47949 0.277954C9.78188 0.277954 12.459 2.95505 12.459 6.25745ZM5.78785 9.42354L10.2242 4.98714C10.3749 4.8365 10.3749 4.59223 10.2242 4.44159L9.67869 3.89603C9.52804 3.74536 9.28378 3.74536 9.13311 3.89603L5.51506 7.51406L3.82588 5.82487C3.67523 5.67423 3.43096 5.67423 3.2803 5.82487L2.73474 6.37043C2.58409 6.52107 2.58409 6.76534 2.73474 6.91599L5.24227 9.42351C5.39294 9.57418 5.63718 9.57418 5.78785 9.42354V9.42354Z" fill="#000066"/>
</svg>
