<svg width="17" height="17" viewBox="0 0 17 17" fill="none" xmlns="http://www.w3.org/2000/svg">
<path d="M8.61656 3.95882C6.32741 3.95882 4.48097 5.80526 4.48097 8.0944C4.48097 10.3836 6.32741 12.23 8.61656 12.23C10.9057 12.23 12.7521 10.3836 12.7521 8.0944C12.7521 5.80526 10.9057 3.95882 8.61656 3.95882ZM8.61656 10.7831C7.13725 10.7831 5.92789 9.57731 5.92789 8.0944C5.92789 6.6115 7.13365 5.40573 8.61656 5.40573C10.0995 5.40573 11.3052 6.6115 11.3052 8.0944C11.3052 9.57731 10.0959 10.7831 8.61656 10.7831ZM13.8859 3.78965C13.8859 4.32595 13.454 4.75426 12.9213 4.75426C12.385 4.75426 11.9567 4.32235 11.9567 3.78965C11.9567 3.25696 12.3886 2.82504 12.9213 2.82504C13.454 2.82504 13.8859 3.25696 13.8859 3.78965ZM16.625 4.76866C16.5638 3.47652 16.2686 2.33194 15.322 1.38893C14.379 0.445915 13.2344 0.150773 11.9423 0.0859857C10.6106 0.0104006 6.61895 0.0104006 5.28722 0.0859857C3.99867 0.147174 2.8541 0.442315 1.90748 1.38533C0.96087 2.32834 0.669327 3.47292 0.60454 4.76506C0.528955 6.0968 0.528955 10.0884 0.60454 11.4201C0.665728 12.7123 0.96087 13.8569 1.90748 14.7999C2.8541 15.7429 3.99507 16.038 5.28722 16.1028C6.61895 16.1784 10.6106 16.1784 11.9423 16.1028C13.2344 16.0416 14.379 15.7465 15.322 14.7999C16.265 13.8569 16.5602 12.7123 16.625 11.4201C16.7006 10.0884 16.7006 6.1004 16.625 4.76866V4.76866ZM14.9045 12.8491C14.6238 13.5545 14.0803 14.098 13.3712 14.3824C12.3094 14.8035 9.78993 14.7063 8.61656 14.7063C7.44319 14.7063 4.92009 14.7999 3.8619 14.3824C3.15644 14.1016 2.61294 13.5581 2.3286 12.8491C1.90748 11.7873 2.00466 9.26777 2.00466 8.0944C2.00466 6.92104 1.91108 4.39793 2.3286 3.33974C2.60934 2.63428 3.15284 2.09079 3.8619 1.80645C4.92369 1.38533 7.44319 1.48251 8.61656 1.48251C9.78993 1.48251 12.313 1.38893 13.3712 1.80645C14.0767 2.08719 14.6202 2.63068 14.9045 3.33974C15.3256 4.40153 15.2284 6.92104 15.2284 8.0944C15.2284 9.26777 15.3256 11.7909 14.9045 12.8491Z" fill="white"/>
</svg>
