<svg width="17" height="17" viewBox="0 0 17 17" fill="none" xmlns="http://www.w3.org/2000/svg">
<path d="M8.11656 4.42977C5.82741 4.42977 3.98097 6.2762 3.98097 8.56535C3.98097 10.8545 5.82741 12.7009 8.11656 12.7009C10.4057 12.7009 12.2521 10.8545 12.2521 8.56535C12.2521 6.2762 10.4057 4.42977 8.11656 4.42977ZM8.11656 11.254C6.63725 11.254 5.42789 10.0483 5.42789 8.56535C5.42789 7.08244 6.63365 5.87668 8.11656 5.87668C9.59947 5.87668 10.8052 7.08244 10.8052 8.56535C10.8052 10.0483 9.59587 11.254 8.11656 11.254ZM13.3859 4.2606C13.3859 4.7969 12.954 5.22521 12.4213 5.22521C11.885 5.22521 11.4567 4.7933 11.4567 4.2606C11.4567 3.72791 11.8886 3.29599 12.4213 3.29599C12.954 3.29599 13.3859 3.72791 13.3859 4.2606ZM16.125 5.23961C16.0638 3.94746 15.7686 2.80289 14.822 1.85988C13.879 0.916862 12.7344 0.62172 11.4423 0.556933C10.1106 0.481348 6.11895 0.481348 4.78722 0.556933C3.49867 0.618121 2.3541 0.913263 1.40748 1.85628C0.46087 2.79929 0.169327 3.94386 0.10454 5.23601C0.0289553 6.56775 0.0289553 10.5594 0.10454 11.8911C0.165728 13.1832 0.46087 14.3278 1.40748 15.2708C2.3541 16.2138 3.49507 16.509 4.78722 16.5738C6.11895 16.6493 10.1106 16.6493 11.4423 16.5738C12.7344 16.5126 13.879 16.2174 14.822 15.2708C15.765 14.3278 16.0602 13.1832 16.125 11.8911C16.2006 10.5594 16.2006 6.57134 16.125 5.23961V5.23961ZM14.4045 13.32C14.1238 14.0255 13.5803 14.569 12.8712 14.8533C11.8094 15.2744 9.28993 15.1772 8.11656 15.1772C6.94319 15.1772 4.42009 15.2708 3.3619 14.8533C2.65644 14.5726 2.11294 14.0291 1.8286 13.32C1.40748 12.2582 1.50466 9.73872 1.50466 8.56535C1.50466 7.39198 1.41108 4.86888 1.8286 3.81069C2.10934 3.10523 2.65284 2.56174 3.3619 2.27739C4.42369 1.85628 6.94319 1.95346 8.11656 1.95346C9.28993 1.95346 11.813 1.85988 12.8712 2.27739C13.5767 2.55814 14.1202 3.10163 14.4045 3.81069C14.8256 4.87248 14.7284 7.39198 14.7284 8.56535C14.7284 9.73872 14.8256 12.2618 14.4045 13.32Z" fill="white"/>
</svg>
