<svg width="13" height="13" viewBox="0 0 13 13" fill="none" xmlns="http://www.w3.org/2000/svg">
<path d="M12.459 6.25757C12.459 9.55996 9.78188 12.2371 6.47949 12.2371C3.1771 12.2371 0.5 9.55996 0.5 6.25757C0.5 2.95518 3.1771 0.278076 6.47949 0.278076C9.78188 0.278076 12.459 2.95518 12.459 6.25757ZM5.78785 9.42366L10.2242 4.98726C10.3749 4.83662 10.3749 4.59235 10.2242 4.44171L9.67869 3.89615C9.52804 3.74548 9.28378 3.74548 9.13311 3.89615L5.51506 7.51418L3.82588 5.825C3.67523 5.67435 3.43096 5.67435 3.2803 5.825L2.73474 6.37055C2.58409 6.5212 2.58409 6.76546 2.73474 6.91611L5.24227 9.42364C5.39294 9.57431 5.63718 9.57431 5.78785 9.42366V9.42366Z" fill="#000066"/>
</svg>
