<svg width="17" height="17" viewBox="0 0 17 17" fill="none" xmlns="http://www.w3.org/2000/svg">
<path d="M8.11656 4.42965C5.82741 4.42965 3.98097 6.27608 3.98097 8.56523C3.98097 10.8544 5.82741 12.7008 8.11656 12.7008C10.4057 12.7008 12.2521 10.8544 12.2521 8.56523C12.2521 6.27608 10.4057 4.42965 8.11656 4.42965ZM8.11656 11.2539C6.63725 11.2539 5.42789 10.0481 5.42789 8.56523C5.42789 7.08232 6.63365 5.87656 8.11656 5.87656C9.59947 5.87656 10.8052 7.08232 10.8052 8.56523C10.8052 10.0481 9.59587 11.2539 8.11656 11.2539ZM13.3859 4.26048C13.3859 4.79677 12.954 5.22509 12.4213 5.22509C11.885 5.22509 11.4567 4.79317 11.4567 4.26048C11.4567 3.72778 11.8886 3.29587 12.4213 3.29587C12.954 3.29587 13.3859 3.72778 13.3859 4.26048ZM16.125 5.23949C16.0638 3.94734 15.7686 2.80277 14.822 1.85975C13.879 0.91674 12.7344 0.621598 11.4423 0.556811C10.1106 0.481226 6.11895 0.481226 4.78722 0.556811C3.49867 0.617999 2.3541 0.913141 1.40748 1.85615C0.46087 2.79917 0.169327 3.94374 0.10454 5.23589C0.0289553 6.56762 0.0289553 10.5592 0.10454 11.891C0.165728 13.1831 0.46087 14.3277 1.40748 15.2707C2.3541 16.2137 3.49507 16.5089 4.78722 16.5736C6.11895 16.6492 10.1106 16.6492 11.4423 16.5736C12.7344 16.5125 13.879 16.2173 14.822 15.2707C15.765 14.3277 16.0602 13.1831 16.125 11.891C16.2006 10.5592 16.2006 6.57122 16.125 5.23948V5.23949ZM14.4045 13.3199C14.1238 14.0253 13.5803 14.5688 12.8712 14.8532C11.8094 15.2743 9.28993 15.1771 8.11656 15.1771C6.94319 15.1771 4.42009 15.2707 3.3619 14.8532C2.65644 14.5724 2.11294 14.0289 1.8286 13.3199C1.40748 12.2581 1.50466 9.7386 1.50466 8.56523C1.50466 7.39186 1.41108 4.86876 1.8286 3.81057C2.10934 3.10511 2.65284 2.56162 3.3619 2.27727C4.42369 1.85615 6.94319 1.95334 8.11656 1.95334C9.28993 1.95334 11.813 1.85975 12.8712 2.27727C13.5767 2.55802 14.1202 3.10151 14.4045 3.81057C14.8256 4.87236 14.7284 7.39186 14.7284 8.56523C14.7284 9.7386 14.8256 12.2617 14.4045 13.3199Z" fill="white"/>
</svg>
