<svg width="13" height="12" viewBox="0 0 13 12" fill="none" xmlns="http://www.w3.org/2000/svg">
<path d="M12.459 5.97949C12.459 9.28188 9.78188 11.959 6.47949 11.959C3.1771 11.959 0.5 9.28188 0.5 5.97949C0.5 2.6771 3.1771 0 6.47949 0C9.78188 0 12.459 2.6771 12.459 5.97949ZM5.78785 9.14558L10.2242 4.70919C10.3749 4.55854 10.3749 4.31428 10.2242 4.16363L9.67869 3.61807C9.52804 3.46741 9.28378 3.46741 9.13311 3.61807L5.51506 7.2361L3.82588 5.54692C3.67523 5.39627 3.43096 5.39627 3.2803 5.54692L2.73474 6.09248C2.58409 6.24312 2.58409 6.48739 2.73474 6.63803L5.24227 9.14556C5.39294 9.29623 5.63718 9.29623 5.78785 9.14559V9.14558Z" fill="#000066"/>
</svg>
