<svg width="17" height="14" viewBox="0 0 17 14" fill="none" xmlns="http://www.w3.org/2000/svg">
<path d="M15.0569 3.5486C15.0669 3.68899 15.0669 3.82941 15.0669 3.9698C15.0669 8.25183 11.8077 13.1857 5.85096 13.1857C4.01578 13.1857 2.311 12.6542 0.876953 11.7317C1.1377 11.7617 1.38838 11.7718 1.65915 11.7718C3.17339 11.7718 4.56734 11.2603 5.68047 10.3879C4.25646 10.3578 3.0631 9.42516 2.65193 8.14154C2.85252 8.17161 3.05307 8.19167 3.26368 8.19167C3.55449 8.19167 3.84533 8.15154 4.11607 8.08138C2.6319 7.78051 1.51873 6.47685 1.51873 4.90242V4.86232C1.94993 5.103 2.45138 5.25342 2.98284 5.27345C2.11038 4.6918 1.5388 3.69902 1.5388 2.57585C1.5388 1.97417 1.69922 1.42262 1.98003 0.941259C3.57452 2.90679 5.97128 4.19038 8.65882 4.3308C8.60869 4.09012 8.57859 3.83944 8.57859 3.58873C8.57859 1.80369 10.0227 0.349609 11.8177 0.349609C12.7503 0.349609 13.5927 0.740709 14.1844 1.37249C14.9164 1.2321 15.6184 0.961324 16.2402 0.590289C15.9995 1.34242 15.488 1.9742 14.8162 2.3753C15.468 2.30514 16.0998 2.12459 16.6814 1.87391C16.2402 2.51569 15.6886 3.08728 15.0569 3.5486V3.5486Z" fill="white"/>
</svg>
