<svg width="17" height="13" viewBox="0 0 17 13" fill="none" xmlns="http://www.w3.org/2000/svg">
<path d="M15.0569 3.22829C15.0669 3.36868 15.0669 3.5091 15.0669 3.64949C15.0669 7.93152 11.8077 12.8654 5.85096 12.8654C4.01578 12.8654 2.311 12.3339 0.876953 11.4114C1.1377 11.4414 1.38838 11.4514 1.65915 11.4514C3.17339 11.4514 4.56734 10.94 5.68047 10.0676C4.25646 10.0375 3.0631 9.10485 2.65193 7.82123C2.85252 7.85129 3.05307 7.87136 3.26368 7.87136C3.55449 7.87136 3.84533 7.83123 4.11607 7.76106C2.6319 7.46019 1.51873 6.15654 1.51873 4.58211V4.54201C1.94993 4.78269 2.45138 4.93311 2.98284 4.95314C2.11038 4.37149 1.5388 3.37871 1.5388 2.25554C1.5388 1.65386 1.69922 1.10231 1.98003 0.620947C3.57452 2.58648 5.97128 3.87007 8.65882 4.01049C8.60869 3.76981 8.57859 3.51913 8.57859 3.26842C8.57859 1.48337 10.0227 0.0292969 11.8177 0.0292969C12.7503 0.0292969 13.5927 0.420397 14.1844 1.05218C14.9164 0.911788 15.6184 0.641012 16.2402 0.269976C15.9995 1.02211 15.488 1.65389 14.8162 2.05499C15.468 1.98483 16.0998 1.80428 16.6814 1.5536C16.2402 2.19538 15.6886 2.76696 15.0569 3.22829V3.22829Z" fill="white"/>
</svg>
