<svg width="17" height="17" viewBox="0 0 17 17" fill="none" xmlns="http://www.w3.org/2000/svg">
<g filter="url(#filter0_d_195_45421)">
<path d="M8.61656 3.92952C6.32741 3.92952 4.48097 5.77596 4.48097 8.06511C4.48097 10.3543 6.32741 12.2007 8.61656 12.2007C10.9057 12.2007 12.7521 10.3543 12.7521 8.06511C12.7521 5.77596 10.9057 3.92952 8.61656 3.92952ZM8.61656 10.7538C7.13725 10.7538 5.92789 9.54801 5.92789 8.06511C5.92789 6.5822 7.13365 5.37644 8.61656 5.37644C10.0995 5.37644 11.3052 6.5822 11.3052 8.06511C11.3052 9.54801 10.0959 10.7538 8.61656 10.7538ZM13.8859 3.76036C13.8859 4.29665 13.454 4.72497 12.9213 4.72497C12.385 4.72497 11.9567 4.29305 11.9567 3.76036C11.9567 3.22766 12.3886 2.79575 12.9213 2.79575C13.454 2.79575 13.8859 3.22766 13.8859 3.76036ZM16.625 4.73936C16.5638 3.44722 16.2686 2.30265 15.322 1.35963C14.379 0.416618 13.2344 0.121476 11.9423 0.0566888C10.6106 -0.0188963 6.61895 -0.0188963 5.28722 0.0566888C3.99867 0.117877 2.8541 0.413018 1.90748 1.35603C0.96087 2.29905 0.669327 3.44362 0.60454 4.73576C0.528955 6.0675 0.528955 10.0591 0.60454 11.3908C0.665728 12.683 0.96087 13.8276 1.90748 14.7706C2.8541 15.7136 3.99507 16.0087 5.28722 16.0735C6.61895 16.1491 10.6106 16.1491 11.9423 16.0735C13.2344 16.0123 14.379 15.7172 15.322 14.7706C16.265 13.8276 16.5602 12.683 16.625 11.3908C16.7006 10.0591 16.7006 6.0711 16.625 4.73936V4.73936ZM14.9045 12.8198C14.6238 13.5252 14.0803 14.0687 13.3712 14.3531C12.3094 14.7742 9.78993 14.677 8.61656 14.677C7.44319 14.677 4.92009 14.7706 3.8619 14.3531C3.15644 14.0723 2.61294 13.5288 2.3286 12.8198C1.90748 11.758 2.00466 9.23847 2.00466 8.06511C2.00466 6.89174 1.91108 4.36864 2.3286 3.31045C2.60934 2.60499 3.15284 2.06149 3.8619 1.77715C4.92369 1.35603 7.44319 1.45321 8.61656 1.45321C9.78993 1.45321 12.313 1.35963 13.3712 1.77715C14.0767 2.05789 14.6202 2.60139 14.9045 3.31045C15.3256 4.37224 15.2284 6.89174 15.2284 8.06511C15.2284 9.23847 15.3256 11.7616 14.9045 12.8198Z" fill="white"/>
</g>
<defs>
<filter id="filter0_d_195_45421" x="0.547852" y="0" width="16.1338" height="16.1302" filterUnits="userSpaceOnUse" color-interpolation-filters="sRGB">
<feFlood flood-opacity="0" result="BackgroundImageFix"/>
<feColorMatrix in="SourceAlpha" type="matrix" values="0 0 0 0 0 0 0 0 0 0 0 0 0 0 0 0 0 0 127 0" result="hardAlpha"/>
<feOffset/>
<feComposite in2="hardAlpha" operator="out"/>
<feColorMatrix type="matrix" values="0 0 0 0 1 0 0 0 0 1 0 0 0 0 1 0 0 0 0.01 0"/>
<feBlend mode="normal" in2="BackgroundImageFix" result="effect1_dropShadow_195_45421"/>
<feBlend mode="normal" in="SourceGraphic" in2="effect1_dropShadow_195_45421" result="shape"/>
</filter>
</defs>
</svg>
