<svg width="17" height="13" viewBox="0 0 17 13" fill="none" xmlns="http://www.w3.org/2000/svg">
<g filter="url(#filter0_d_195_45420)">
<path d="M15.0569 3.19899C15.0669 3.33938 15.0669 3.4798 15.0669 3.62019C15.0669 7.90222 11.8077 12.8361 5.85096 12.8361C4.01578 12.8361 2.311 12.3046 0.876953 11.3821C1.1377 11.4121 1.38838 11.4222 1.65915 11.4222C3.17339 11.4222 4.56734 10.9107 5.68047 10.0383C4.25646 10.0082 3.0631 9.07555 2.65193 7.79193C2.85252 7.822 3.05307 7.84206 3.26368 7.84206C3.55449 7.84206 3.84533 7.80193 4.11607 7.73177C2.6319 7.4309 1.51873 6.12724 1.51873 4.55281V4.51271C1.94993 4.75339 2.45138 4.90381 2.98284 4.92384C2.11038 4.34219 1.5388 3.34941 1.5388 2.22624C1.5388 1.62456 1.69922 1.07301 1.98003 0.59165C3.57452 2.55718 5.97128 3.84077 8.65882 3.98119C8.60869 3.74051 8.57859 3.48983 8.57859 3.23912C8.57859 1.45408 10.0227 0 11.8177 0C12.7503 0 13.5927 0.3911 14.1844 1.02288C14.9164 0.882491 15.6184 0.611715 16.2402 0.240679C15.9995 0.992813 15.488 1.62459 14.8162 2.02569C15.468 1.95553 16.0998 1.77498 16.6814 1.5243C16.2402 2.16608 15.6886 2.73767 15.0569 3.19899V3.19899Z" fill="white"/>
</g>
<defs>
<filter id="filter0_d_195_45420" x="0.876953" y="0" width="15.8044" height="12.8362" filterUnits="userSpaceOnUse" color-interpolation-filters="sRGB">
<feFlood flood-opacity="0" result="BackgroundImageFix"/>
<feColorMatrix in="SourceAlpha" type="matrix" values="0 0 0 0 0 0 0 0 0 0 0 0 0 0 0 0 0 0 127 0" result="hardAlpha"/>
<feOffset/>
<feComposite in2="hardAlpha" operator="out"/>
<feColorMatrix type="matrix" values="0 0 0 0 1 0 0 0 0 1 0 0 0 0 1 0 0 0 0.01 0"/>
<feBlend mode="normal" in2="BackgroundImageFix" result="effect1_dropShadow_195_45420"/>
<feBlend mode="normal" in="SourceGraphic" in2="effect1_dropShadow_195_45420" result="shape"/>
</filter>
</defs>
</svg>
