<svg width="17" height="14" viewBox="0 0 17 14" fill="none" xmlns="http://www.w3.org/2000/svg">
<path d="M14.5569 3.69912C14.5669 3.8395 14.5669 3.97992 14.5669 4.12031C14.5669 8.40235 11.3077 13.3363 5.35096 13.3363C3.51578 13.3363 1.811 12.8047 0.376953 11.8822C0.637697 11.9122 0.888377 11.9223 1.15915 11.9223C2.67339 11.9223 4.06734 11.4108 5.18047 10.5384C3.75646 10.5083 2.5631 9.57568 2.15193 8.29205C2.35252 8.32212 2.55307 8.34218 2.76368 8.34218C3.05449 8.34218 3.34533 8.30205 3.61607 8.23189C2.1319 7.93102 1.01873 6.62736 1.01873 5.05293V5.01283C1.44993 5.25351 1.95138 5.40393 2.48284 5.42397C1.61038 4.84232 1.0388 3.84953 1.0388 2.72637C1.0388 2.12468 1.19922 1.57313 1.48003 1.09177C3.07452 3.0573 5.47128 4.34089 8.15882 4.48131C8.10869 4.24063 8.07859 3.98995 8.07859 3.73924C8.07859 1.9542 9.52267 0.500122 11.3177 0.500122C12.2503 0.500122 13.0927 0.891222 13.6844 1.523C14.4164 1.38261 15.1184 1.11184 15.7402 0.740801C15.4995 1.49294 14.988 2.12471 14.3162 2.52582C14.968 2.45565 15.5998 2.2751 16.1814 2.02442C15.7402 2.6662 15.1886 3.23779 14.5569 3.69911V3.69912Z" fill="white"/>
</svg>
