<svg width="17" height="14" viewBox="0 0 17 14" fill="none" xmlns="http://www.w3.org/2000/svg">
<path d="M15.0569 3.55544C15.0669 3.69583 15.0669 3.83625 15.0669 3.97663C15.0669 8.25867 11.8077 13.1926 5.85096 13.1926C4.01578 13.1926 2.311 12.6611 0.876953 11.7385C1.1377 11.7686 1.38838 11.7786 1.65915 11.7786C3.17339 11.7786 4.56734 11.2672 5.68047 10.3947C4.25646 10.3646 3.0631 9.432 2.65193 8.14837C2.85252 8.17844 3.05307 8.19851 3.26368 8.19851C3.55449 8.19851 3.84533 8.15838 4.11607 8.08821C2.6319 7.78734 1.51873 6.48369 1.51873 4.90925V4.86916C1.94993 5.10984 2.45138 5.26026 2.98284 5.28029C2.11038 4.69864 1.5388 3.70586 1.5388 2.58269C1.5388 1.98101 1.69922 1.42945 1.98003 0.948095C3.57452 2.91363 5.97128 4.19722 8.65882 4.33764C8.60869 4.09696 8.57859 3.84628 8.57859 3.59557C8.57859 1.81052 10.0227 0.356445 11.8177 0.356445C12.7503 0.356445 13.5927 0.747545 14.1844 1.37932C14.9164 1.23894 15.6184 0.96816 16.2402 0.597125C15.9995 1.34926 15.488 1.98104 14.8162 2.38214C15.468 2.31198 16.0998 2.13143 16.6814 1.88075C16.2402 2.52253 15.6886 3.09411 15.0569 3.55544V3.55544Z" fill="white"/>
</svg>
