<svg width="17" height="17" viewBox="0 0 17 17" fill="none" xmlns="http://www.w3.org/2000/svg">
<path d="M8.61656 4.39534C6.32741 4.39534 4.48097 6.24178 4.48097 8.53093C4.48097 10.8201 6.32741 12.6665 8.61656 12.6665C10.9057 12.6665 12.7521 10.8201 12.7521 8.53093C12.7521 6.24178 10.9057 4.39534 8.61656 4.39534ZM8.61656 11.2196C7.13725 11.2196 5.92789 10.0138 5.92789 8.53093C5.92789 7.04802 7.13365 5.84226 8.61656 5.84226C10.0995 5.84226 11.3052 7.04802 11.3052 8.53093C11.3052 10.0138 10.0959 11.2196 8.61656 11.2196ZM13.8859 4.22618C13.8859 4.76247 13.454 5.19079 12.9213 5.19079C12.385 5.19079 11.9567 4.75887 11.9567 4.22618C11.9567 3.69348 12.3886 3.26157 12.9213 3.26157C13.454 3.26157 13.8859 3.69348 13.8859 4.22618ZM16.625 5.20518C16.5638 3.91304 16.2686 2.76847 15.322 1.82545C14.379 0.882438 13.2344 0.587296 11.9423 0.522509C10.6106 0.446924 6.61895 0.446924 5.28722 0.522509C3.99867 0.583697 2.8541 0.878839 1.90748 1.82185C0.96087 2.76487 0.669327 3.90944 0.60454 5.20158C0.528955 6.53332 0.528955 10.5249 0.60454 11.8567C0.665728 13.1488 0.96087 14.2934 1.90748 15.2364C2.8541 16.1794 3.99507 16.4746 5.28722 16.5393C6.61895 16.6149 10.6106 16.6149 11.9423 16.5393C13.2344 16.4782 14.379 16.183 15.322 15.2364C16.265 14.2934 16.5602 13.1488 16.625 11.8567C16.7006 10.5249 16.7006 6.53692 16.625 5.20518V5.20518ZM14.9045 13.2856C14.6238 13.991 14.0803 14.5345 13.3712 14.8189C12.3094 15.24 9.78993 15.1428 8.61656 15.1428C7.44319 15.1428 4.92009 15.2364 3.8619 14.8189C3.15644 14.5381 2.61294 13.9946 2.3286 13.2856C1.90748 12.2238 2.00466 9.7043 2.00466 8.53093C2.00466 7.35756 1.91108 4.83446 2.3286 3.77627C2.60934 3.07081 3.15284 2.52731 3.8619 2.24297C4.92369 1.82185 7.44319 1.91903 8.61656 1.91903C9.78993 1.91903 12.313 1.82545 13.3712 2.24297C14.0767 2.52371 14.6202 3.06721 14.9045 3.77627C15.3256 4.83806 15.2284 7.35756 15.2284 8.53093C15.2284 9.7043 15.3256 12.2274 14.9045 13.2856Z" fill="white"/>
</svg>
