<svg width="17" height="14" viewBox="0 0 17 14" fill="none" xmlns="http://www.w3.org/2000/svg">
<path d="M15.0569 3.66481C15.0669 3.8052 15.0669 3.94562 15.0669 4.08601C15.0669 8.36804 11.8077 13.3019 5.85096 13.3019C4.01578 13.3019 2.311 12.7704 0.876953 11.8479C1.1377 11.8779 1.38838 11.888 1.65915 11.888C3.17339 11.888 4.56734 11.3765 5.68047 10.5041C4.25646 10.474 3.0631 9.54137 2.65193 8.25775C2.85252 8.28782 3.05307 8.30788 3.26368 8.30788C3.55449 8.30788 3.84533 8.26775 4.11607 8.19759C2.6319 7.89672 1.51873 6.59306 1.51873 5.01863V4.97853C1.94993 5.21921 2.45138 5.36963 2.98284 5.38966C2.11038 4.80801 1.5388 3.81523 1.5388 2.69206C1.5388 2.09038 1.69922 1.53883 1.98003 1.05747C3.57452 3.023 5.97128 4.30659 8.65882 4.44701C8.60869 4.20633 8.57859 3.95565 8.57859 3.70494C8.57859 1.9199 10.0227 0.46582 11.8177 0.46582C12.7503 0.46582 13.5927 0.85692 14.1844 1.4887C14.9164 1.34831 15.6184 1.07754 16.2402 0.7065C15.9995 1.45863 15.488 2.09041 14.8162 2.49151C15.468 2.42135 16.0998 2.2408 16.6814 1.99012C16.2402 2.6319 15.6886 3.20349 15.0569 3.66481V3.66481Z" fill="white"/>
</svg>
