<svg width="17" height="17" viewBox="0 0 17 17" fill="none" xmlns="http://www.w3.org/2000/svg">
<path d="M8.61656 4.27913C6.32741 4.27913 4.48097 6.12557 4.48097 8.41472C4.48097 10.7039 6.32741 12.5503 8.61656 12.5503C10.9057 12.5503 12.7521 10.7039 12.7521 8.41472C12.7521 6.12557 10.9057 4.27913 8.61656 4.27913ZM8.61656 11.1034C7.13725 11.1034 5.92789 9.89762 5.92789 8.41471C5.92789 6.93181 7.13365 5.72605 8.61656 5.72605C10.0995 5.72605 11.3052 6.93181 11.3052 8.41471C11.3052 9.89762 10.0959 11.1034 8.61656 11.1034ZM13.8859 4.10997C13.8859 4.64626 13.454 5.07458 12.9213 5.07458C12.385 5.07458 11.9567 4.64266 11.9567 4.10997C11.9567 3.57727 12.3886 3.14536 12.9213 3.14536C13.454 3.14536 13.8859 3.57727 13.8859 4.10997ZM16.625 5.08897C16.5638 3.79683 16.2686 2.65226 15.322 1.70924C14.379 0.766227 13.2344 0.471085 11.9423 0.406298C10.6106 0.330713 6.61895 0.330713 5.28722 0.406298C3.99867 0.467486 2.8541 0.762628 1.90748 1.70564C0.96087 2.64865 0.669327 3.79323 0.60454 5.08537C0.528955 6.41711 0.528955 10.4087 0.60454 11.7405C0.665728 13.0326 0.96087 14.1772 1.90748 15.1202C2.8541 16.0632 3.99507 16.3583 5.28722 16.4231C6.61895 16.4987 10.6106 16.4987 11.9423 16.4231C13.2344 16.3619 14.379 16.0668 15.322 15.1202C16.265 14.1772 16.5602 13.0326 16.625 11.7405C16.7006 10.4087 16.7006 6.42071 16.625 5.08897V5.08897ZM14.9045 13.1694C14.6238 13.8748 14.0803 14.4183 13.3712 14.7027C12.3094 15.1238 9.78993 15.0266 8.61656 15.0266C7.44319 15.0266 4.92009 15.1202 3.8619 14.7027C3.15644 14.4219 2.61294 13.8784 2.3286 13.1694C1.90748 12.1076 2.00466 9.58808 2.00466 8.41472C2.00466 7.24135 1.91108 4.71825 2.3286 3.66006C2.60934 2.95459 3.15284 2.4111 3.8619 2.12676C4.92369 1.70564 7.44319 1.80282 8.61656 1.80282C9.78993 1.80282 12.313 1.70924 13.3712 2.12676C14.0767 2.4075 14.6202 2.951 14.9045 3.66006C15.3256 4.72185 15.2284 7.24135 15.2284 8.41472C15.2284 9.58808 15.3256 12.1112 14.9045 13.1694Z" fill="white"/>
</svg>
