<svg width="17" height="14" viewBox="0 0 17 14" fill="none" xmlns="http://www.w3.org/2000/svg">
<path d="M14.5569 3.69924C14.5669 3.83963 14.5669 3.98005 14.5669 4.12043C14.5669 8.40247 11.3077 13.3364 5.35096 13.3364C3.51578 13.3364 1.811 12.8049 0.376953 11.8823C0.637697 11.9124 0.888377 11.9224 1.15915 11.9224C2.67339 11.9224 4.06734 11.411 5.18047 10.5385C3.75646 10.5084 2.5631 9.5758 2.15193 8.29217C2.35252 8.32224 2.55307 8.3423 2.76368 8.3423C3.05449 8.3423 3.34533 8.30218 3.61607 8.23201C2.1319 7.93114 1.01873 6.62748 1.01873 5.05305V5.01295C1.44993 5.25363 1.95138 5.40406 2.48284 5.42409C1.61038 4.84244 1.0388 3.84966 1.0388 2.72649C1.0388 2.1248 1.19922 1.57325 1.48003 1.09189C3.07452 3.05743 5.47128 4.34102 8.15882 4.48144C8.10869 4.24076 8.07859 3.99008 8.07859 3.73936C8.07859 1.95432 9.52267 0.500244 11.3177 0.500244C12.2503 0.500244 13.0927 0.891344 13.6844 1.52312C14.4164 1.38273 15.1184 1.11196 15.7402 0.740923C15.4995 1.49306 14.988 2.12484 14.3162 2.52594C14.968 2.45577 15.5998 2.27523 16.1814 2.02455C15.7402 2.66633 15.1886 3.23791 14.5569 3.69924V3.69924Z" fill="white"/>
</svg>
