<svg width="25" height="25" viewBox="0 0 25 25" fill="none" xmlns="http://www.w3.org/2000/svg">
<path d="M14.2102 17.6166C14.0102 17.4166 13.9142 17.1749 13.9222 16.8916C13.9308 16.6083 14.0352 16.3666 14.2352 16.1666L17.0602 13.3416H5.91016C5.62682 13.3416 5.38916 13.2456 5.19716 13.0536C5.00582 12.8623 4.91016 12.6249 4.91016 12.3416C4.91016 12.0583 5.00582 11.8206 5.19716 11.6286C5.38916 11.4373 5.62682 11.3416 5.91016 11.3416H17.0602L14.2102 8.4916C14.0102 8.2916 13.9102 8.05393 13.9102 7.7786C13.9102 7.50393 14.0102 7.2666 14.2102 7.0666C14.4102 6.8666 14.6478 6.7666 14.9232 6.7666C15.1978 6.7666 15.4352 6.8666 15.6352 7.0666L20.2102 11.6416C20.3102 11.7416 20.3812 11.8499 20.4232 11.9666C20.4645 12.0833 20.4852 12.2083 20.4852 12.3416C20.4852 12.4749 20.4645 12.5999 20.4232 12.7166C20.3812 12.8333 20.3102 12.9416 20.2102 13.0416L15.6102 17.6416C15.4268 17.8249 15.1978 17.9166 14.9232 17.9166C14.6478 17.9166 14.4102 17.8166 14.2102 17.6166Z" fill="white"/>
</svg>
