<svg width="136" height="43" viewBox="0 0 136 43" fill="none" xmlns="http://www.w3.org/2000/svg">
<path opacity="0.8" fill-rule="evenodd" clip-rule="evenodd" d="M85.854 10.2323C85.8518 9.89444 85.9184 9.55922 86.0523 9.2466C86.1854 8.93384 86.383 8.64988 86.6324 8.41126C86.8812 8.17257 87.1775 7.98409 87.5038 7.85665C87.8301 7.72924 88.179 7.66556 88.5316 7.66925H90.4155V3.89808C90.3562 3.50192 90.387 3.09826 90.504 2.71435C90.6218 2.33055 90.8244 1.97547 91.0981 1.6732C91.3702 1.37093 91.7082 1.12865 92.0872 0.962523C92.4669 0.796392 92.8788 0.710419 93.295 0.710419C93.712 0.710419 94.1239 0.796392 94.5036 0.962523C94.8826 1.12865 95.2206 1.37093 95.4927 1.6732C95.7663 1.97547 95.9683 2.33055 96.0868 2.71435C96.2038 3.09826 96.2346 3.50192 96.1753 3.89808V7.66925H102.3C102.653 7.66556 103.002 7.72924 103.328 7.85665C103.654 7.98409 103.951 8.17257 104.199 8.41126C104.449 8.64988 104.646 8.93384 104.78 9.2466C104.913 9.55922 104.98 9.89444 104.978 10.2323C104.973 10.9121 104.69 11.563 104.188 12.0431C103.688 12.5232 103.008 12.7936 102.3 12.7955H96.1753V21.8744C96.1753 26.3022 98.7432 28.5649 102.3 28.5649C103.016 28.5649 103.703 28.8379 104.21 29.3238C104.715 29.8097 105 30.4688 105 31.1559C105 31.8432 104.715 32.5022 104.21 32.988C103.703 33.4739 103.016 33.747 102.3 33.747C95.5432 33.747 90.4155 29.1725 90.4155 21.8744V12.7955H88.5316C87.8235 12.7936 87.1438 12.5232 86.6434 12.0431C86.1415 11.563 85.8584 10.9121 85.854 10.2323ZM26.5957 20.4346C26.6176 17.8971 27.385 15.4173 28.81 13.2841C30.235 11.1509 32.2582 9.45192 34.646 8.38472C37.0326 7.31756 39.685 6.92604 42.2934 7.25588C44.9018 7.58561 47.3599 8.62313 49.382 10.2477C49.6938 10.5089 49.9474 10.8291 50.1264 11.1888C50.3053 11.5483 50.4063 11.9394 50.4216 12.338C50.426 13.0889 50.1252 13.8117 49.5841 14.3517L41.5798 23.5422C41.3471 23.8332 41.0462 24.0669 40.7026 24.2244C40.3579 24.3817 39.9803 24.4584 39.5993 24.448C39.2492 24.4662 38.8968 24.4145 38.5674 24.2961C38.238 24.1778 37.9372 23.9954 37.6836 23.7601C37.4301 23.5248 37.2302 23.2418 37.0941 22.9286C36.9591 22.6155 36.8921 22.2788 36.8976 21.9396C36.8812 21.6371 36.9272 21.3344 37.0338 21.0495C37.1402 20.7646 37.306 20.5033 37.519 20.2813L43.8182 13.1603C42.7874 12.5506 41.5974 12.2363 40.3876 12.2544C35.915 12.2544 32.3757 15.8706 32.3757 20.4346C32.3757 24.9984 35.8645 28.6148 40.3876 28.6148C41.4184 28.6247 42.4405 28.4285 43.389 28.0388C44.3375 27.6491 45.1928 27.0741 45.8998 26.3502C46.0095 26.2643 46.1149 26.1792 46.2181 26.0962C46.8922 25.5538 47.4531 25.1029 48.3995 25.1029C48.7672 25.0877 49.135 25.1454 49.4797 25.2727C49.8234 25.3998 50.1374 25.594 50.4008 25.8428C50.6643 26.0916 50.8718 26.3899 51.0112 26.7194C51.1495 27.0487 51.2175 27.4022 51.2088 27.7577C51.1561 28.435 50.8597 29.0731 50.3712 29.5623C49.1218 30.9172 47.5816 31.9932 45.858 32.7151C44.1333 33.4371 42.266 33.788 40.3876 33.743C38.5674 33.7703 36.7615 33.4447 35.0741 32.7855C33.3879 32.1262 31.8564 31.1468 30.5697 29.9054C29.2831 28.664 28.2687 27.1859 27.5859 25.559C26.903 23.9321 26.5671 22.1894 26.5957 20.4346ZM15.4418 12.7236H3.88688C3.18109 12.7198 2.50538 12.4478 2.00631 11.9664C1.50735 11.4849 1.22532 10.833 1.22148 10.1522C1.21753 9.81354 1.28383 9.47748 1.41645 9.1638C1.54896 8.85013 1.74515 8.56518 1.99347 8.32565C2.2418 8.08611 2.53712 7.89685 2.86228 7.76899C3.18746 7.64105 3.53579 7.57716 3.88688 7.58085H21.1937C21.5449 7.57716 21.8932 7.64105 22.2183 7.76899C22.5435 7.89685 22.8389 8.08611 23.0871 8.32565C23.3355 8.56518 23.5316 8.85013 23.6641 9.1638C23.7967 9.47748 23.863 9.81354 23.8591 10.1522C23.8322 10.838 23.5331 11.4877 23.0239 11.9668L8.95621 28.1656H21.1937C21.5449 28.1618 21.8932 28.2257 22.2183 28.3537C22.5435 28.4815 22.8389 28.6708 23.0871 28.9103C23.3355 29.1499 23.5316 29.4348 23.6641 29.7485C23.7967 30.0622 23.863 30.3982 23.8591 30.7369C23.8553 31.4177 23.5732 32.0697 23.0743 32.5511C22.5752 33.0325 21.8995 33.3047 21.1937 33.3083H3.27683C2.56346 33.3009 1.88226 33.0209 1.38253 32.5297C0.882914 32.0384 0.605599 31.3761 0.611418 30.6878C0.629971 30.0079 0.909478 29.3588 1.39581 28.8662L15.4418 12.7236ZM62.2781 40.5545V30.6942C64.6757 32.721 67.7628 33.8301 70.9542 33.8111C78.4833 33.8111 84.1831 27.9266 84.1831 20.4768C84.1831 13.0271 78.4833 7.14266 70.9542 7.14266C67.753 7.11499 64.656 8.24475 62.2781 10.3085V9.95908C62.1793 9.29279 61.8346 8.68305 61.3065 8.24186C60.7785 7.80081 60.1023 7.55793 59.4029 7.55793C58.7036 7.55793 58.0284 7.80081 57.5004 8.24186C56.9713 8.68305 56.6266 9.29279 56.5277 9.95908V40.5545C56.6266 41.221 56.9713 41.8314 57.5004 42.2718C58.0284 42.7133 58.7036 42.9562 59.4029 42.9562C60.1023 42.9562 60.7785 42.7133 61.3065 42.2718C61.8346 41.8314 62.1793 41.221 62.2781 40.5545ZM70.3295 12.2722C74.8238 12.2722 78.3823 15.7945 78.3823 20.4768C78.3823 25.1593 74.8238 28.6815 70.3295 28.6815C65.8362 28.6815 62.2781 25.1593 62.2781 20.4768V20.1205C62.4384 15.6478 65.8362 12.2722 70.3295 12.2722ZM110.066 13.0537C108.547 15.2411 107.737 17.8127 107.737 20.4434C107.704 22.1987 108.039 23.9424 108.723 25.5703C109.407 27.1983 110.423 28.6769 111.714 29.9183C113.004 31.1597 114.541 32.1383 116.234 32.7958C117.925 33.4532 119.738 33.7759 121.563 33.7447C124.298 33.7447 126.971 32.9647 129.244 31.5031C131.518 30.0415 133.29 27.9642 134.337 25.5336C135.383 23.1032 135.656 20.4288 135.123 17.8485C134.59 15.2683 133.273 12.8983 131.338 11.038C129.406 9.17789 126.942 7.911 124.26 7.39772C121.578 6.88454 118.798 7.14794 116.271 8.15462C113.745 9.16134 111.586 10.8663 110.066 13.0537ZM121.563 12.2592C126.149 12.2592 129.599 15.9261 129.599 20.4434C129.599 24.9121 126.157 28.6279 121.563 28.6279C116.969 28.6279 113.526 24.9609 113.526 20.4434C113.526 15.9261 116.976 12.2592 121.563 12.2592Z" fill="#313131"/>
</svg>
