<svg width="11" height="8" viewBox="0 0 11 8" fill="none" xmlns="http://www.w3.org/2000/svg">
<path d="M6.47194 7.66738C6.3497 7.53174 6.29103 7.36784 6.29592 7.17567C6.30121 6.98351 6.36498 6.81961 6.48722 6.68397L8.21384 4.768H1.39904C1.22586 4.768 1.0806 4.70289 0.963254 4.57267C0.846313 4.44291 0.787842 4.28194 0.787842 4.08978C0.787842 3.89762 0.846313 3.73643 0.963254 3.60621C1.0806 3.47645 1.22586 3.41156 1.39904 3.41156H8.21384L6.47194 1.47864C6.3497 1.343 6.28858 1.18181 6.28858 0.995072C6.28858 0.808788 6.3497 0.647825 6.47194 0.512181C6.59418 0.376537 6.73944 0.308716 6.90772 0.308716C7.0756 0.308716 7.22065 0.376537 7.34289 0.512181L10.1391 3.61503C10.2002 3.68285 10.2436 3.75633 10.2693 3.83545C10.2945 3.91458 10.3072 3.99935 10.3072 4.08978C10.3072 4.18021 10.2945 4.26499 10.2693 4.34411C10.2436 4.42324 10.2002 4.49671 10.1391 4.56454L7.32761 7.68434C7.21556 7.80868 7.0756 7.87085 6.90772 7.87085C6.73944 7.87085 6.59418 7.80303 6.47194 7.66738Z" fill="white"/>
</svg>
