<svg width="10" height="8" viewBox="0 0 10 8" fill="none" xmlns="http://www.w3.org/2000/svg">
<path d="M5.94252 7.59817C5.82028 7.46253 5.76161 7.29862 5.7665 7.10646C5.7718 6.9143 5.83556 6.7504 5.9578 6.61475L7.68442 4.69879H0.869616C0.696445 4.69879 0.551185 4.63368 0.433835 4.50346C0.316894 4.37369 0.258423 4.21273 0.258423 4.02057C0.258423 3.82841 0.316894 3.66722 0.433835 3.537C0.551185 3.40723 0.696445 3.34235 0.869616 3.34235H7.68442L5.94252 1.40943C5.82028 1.27378 5.75916 1.11259 5.75916 0.925859C5.75916 0.739575 5.82028 0.578611 5.94252 0.442967C6.06476 0.307324 6.21002 0.239502 6.3783 0.239502C6.54618 0.239502 6.69123 0.307324 6.81347 0.442967L9.60968 3.54582C9.6708 3.61364 9.7142 3.68711 9.73987 3.76624C9.76513 3.84536 9.77776 3.93014 9.77776 4.02057C9.77776 4.111 9.76513 4.19578 9.73987 4.2749C9.7142 4.35403 9.6708 4.4275 9.60968 4.49532L6.79819 7.61512C6.68614 7.73946 6.54618 7.80164 6.3783 7.80164C6.21002 7.80164 6.06476 7.73381 5.94252 7.59817Z" fill="white"/>
</svg>
