<svg width="13" height="7" viewBox="0 0 13 7" fill="none" xmlns="http://www.w3.org/2000/svg">
<path d="M7.46703 6.34209C7.31239 6.23935 7.23816 6.1152 7.24435 5.96965C7.25105 5.8241 7.33172 5.69995 7.48636 5.59721L9.67065 4.14597H1.04945C0.830374 4.14597 0.646609 4.09665 0.498154 3.99802C0.350215 3.89973 0.276245 3.77781 0.276245 3.63226C0.276245 3.48671 0.350215 3.36461 0.498154 3.26598C0.646609 3.16769 0.830374 3.11855 1.04945 3.11855H9.67065L7.46703 1.65446C7.31239 1.55172 7.23507 1.42963 7.23507 1.28819C7.23507 1.14709 7.31239 1.02517 7.46703 0.922424C7.62167 0.819682 7.80543 0.768311 8.01832 0.768311C8.23069 0.768311 8.4142 0.819682 8.56884 0.922424L12.1062 3.27266C12.1836 3.32403 12.2385 3.37968 12.2709 3.43962C12.3029 3.49955 12.3189 3.56376 12.3189 3.63226C12.3189 3.70075 12.3029 3.76497 12.2709 3.8249C12.2385 3.88483 12.1836 3.94049 12.1062 3.99186L8.54951 6.35493C8.40776 6.44911 8.23069 6.49621 8.01832 6.49621C7.80543 6.49621 7.62167 6.44483 7.46703 6.34209Z" fill="white"/>
</svg>
