<svg width="17" height="9" viewBox="0 0 17 9" fill="none" xmlns="http://www.w3.org/2000/svg">
<path d="M10.2453 8.08385C10.0451 7.95087 9.94907 7.79019 9.95707 7.60181C9.96575 7.41342 10.0702 7.25274 10.2703 7.11977L13.0974 5.24147H1.93921C1.65567 5.24147 1.41783 5.17764 1.22569 5.04999C1.03421 4.92277 0.938477 4.76497 0.938477 4.57659C0.938477 4.38821 1.03421 4.23019 1.22569 4.10253C1.41783 3.97532 1.65567 3.91171 1.93921 3.91171H13.0974L10.2453 2.01679C10.0451 1.88382 9.94507 1.7258 9.94507 1.54273C9.94507 1.36011 10.0451 1.20231 10.2453 1.06934C10.4454 0.936361 10.6833 0.869873 10.9588 0.869873C11.2337 0.869873 11.4712 0.936361 11.6713 1.06934L16.2497 4.11117C16.3497 4.17766 16.4208 4.24969 16.4628 4.32726C16.5042 4.40483 16.5249 4.48794 16.5249 4.57659C16.5249 4.66524 16.5042 4.74835 16.4628 4.82592C16.4208 4.90349 16.3497 4.97552 16.2497 5.04201L11.6463 8.10047C11.4628 8.22236 11.2337 8.28331 10.9588 8.28331C10.6833 8.28331 10.4454 8.21682 10.2453 8.08385Z" fill="white"/>
</svg>
