<svg width="16" height="11" viewBox="0 0 16 11" fill="none" xmlns="http://www.w3.org/2000/svg">
<path d="M9.64863 9.96855C9.44863 9.7956 9.35263 9.58662 9.36063 9.34162C9.3693 9.09661 9.47363 8.88763 9.67363 8.71468L12.4986 6.27181H1.34863C1.0653 6.27181 0.827633 6.1888 0.635633 6.02277C0.4443 5.85731 0.348633 5.65208 0.348633 5.40707C0.348633 5.16207 0.4443 4.95655 0.635633 4.79052C0.827633 4.62507 1.0653 4.54234 1.34863 4.54234H12.4986L9.64863 2.07785C9.44863 1.9049 9.34863 1.69938 9.34863 1.46129C9.34863 1.22378 9.44863 1.01855 9.64863 0.845602C9.84863 0.672655 10.0863 0.586182 10.3616 0.586182C10.6363 0.586182 10.8736 0.672655 11.0736 0.845602L15.6486 4.80176C15.7486 4.88823 15.8196 4.98191 15.8616 5.0828C15.903 5.18369 15.9236 5.29178 15.9236 5.40707C15.9236 5.52237 15.903 5.63047 15.8616 5.73135C15.8196 5.83224 15.7486 5.92592 15.6486 6.01239L11.0486 9.99017C10.8653 10.1487 10.6363 10.228 10.3616 10.228C10.0863 10.228 9.84863 10.1415 9.64863 9.96855Z" fill="white"/>
</svg>
