<svg width="11" height="8" viewBox="0 0 11 8" fill="none" xmlns="http://www.w3.org/2000/svg">
<path d="M6.19448 7.51211C6.07224 7.37647 6.01356 7.21256 6.01845 7.0204C6.02375 6.82824 6.08752 6.66434 6.20975 6.52869L7.93638 4.61273H1.12157C0.948398 4.61273 0.803138 4.54762 0.685789 4.4174C0.568847 4.28763 0.510376 4.12667 0.510376 3.93451C0.510376 3.74235 0.568847 3.58116 0.685789 3.45094C0.803138 3.32117 0.948398 3.25629 1.12157 3.25629H7.93638L6.19448 1.32337C6.07224 1.18772 6.01112 1.02654 6.01112 0.839799C6.01112 0.653515 6.07224 0.492551 6.19448 0.356908C6.31671 0.221264 6.46197 0.153442 6.63026 0.153442C6.79813 0.153442 6.94319 0.221264 7.06543 0.356908L9.86164 3.45976C9.92276 3.52758 9.96615 3.60105 9.99182 3.68018C10.0171 3.7593 10.0297 3.84408 10.0297 3.93451C10.0297 4.02494 10.0171 4.10972 9.99182 4.18884C9.96615 4.26797 9.92276 4.34144 9.86164 4.40926L7.05015 7.52907C6.93809 7.65341 6.79813 7.71558 6.63026 7.71558C6.46197 7.71558 6.31671 7.64775 6.19448 7.51211Z" fill="white"/>
</svg>
