<svg width="10" height="5" viewBox="0 0 10 5" fill="none" xmlns="http://www.w3.org/2000/svg">
<path d="M3.85325 0.26255C3.97549 0.343764 4.03417 0.441899 4.02928 0.556954C4.02398 0.672008 3.96021 0.770142 3.83798 0.851357L2.11135 1.99852L8.92616 1.99852C9.09933 1.99852 9.24459 2.0375 9.36194 2.11547C9.47888 2.19316 9.53735 2.28954 9.53735 2.40459C9.53735 2.51965 9.47888 2.61616 9.36194 2.69412C9.24459 2.77182 9.09933 2.81067 8.92616 2.81067L2.11135 2.81067L3.85325 3.96798C3.97549 4.04919 4.03661 4.1457 4.03661 4.25751C4.03661 4.36904 3.97549 4.46542 3.85325 4.54663C3.73102 4.62785 3.58576 4.66846 3.41747 4.66846C3.2496 4.66846 3.10454 4.62785 2.9823 4.54663L0.186094 2.68884C0.124975 2.64824 0.0815795 2.60425 0.0559094 2.55687C0.0306466 2.50949 0.0180152 2.45873 0.0180152 2.40459C0.0180152 2.35045 0.0306466 2.29969 0.0559095 2.25231C0.0815795 2.20494 0.124975 2.16095 0.186094 2.12034L2.99758 0.252398C3.10964 0.177951 3.2496 0.140727 3.41747 0.140727C3.58576 0.140727 3.73102 0.181335 3.85325 0.26255Z" fill="white"/>
</svg>
