<svg width="136" height="43" viewBox="0 0 136 43" fill="none" xmlns="http://www.w3.org/2000/svg">
<path opacity="0.8" fill-rule="evenodd" clip-rule="evenodd" d="M85.854 10.2324C85.8518 9.89454 85.9184 9.55931 86.0523 9.2467C86.1854 8.93394 86.383 8.64997 86.6324 8.41136C86.8812 8.17267 87.1775 7.98418 87.5038 7.85674C87.8301 7.72933 88.179 7.66565 88.5316 7.66934H90.4155V3.89817C90.3562 3.50201 90.387 3.09835 90.504 2.71444C90.6218 2.33064 90.8244 1.97556 91.0981 1.67329C91.3702 1.37103 91.7082 1.12875 92.0872 0.962615C92.4669 0.796483 92.8788 0.71051 93.295 0.71051C93.712 0.71051 94.1239 0.796483 94.5036 0.962615C94.8826 1.12875 95.2206 1.37103 95.4927 1.67329C95.7663 1.97556 95.9683 2.33064 96.0868 2.71444C96.2038 3.09835 96.2346 3.50201 96.1753 3.89817V7.66934H102.3C102.653 7.66565 103.002 7.72933 103.328 7.85674C103.654 7.98418 103.951 8.17267 104.199 8.41136C104.449 8.64997 104.646 8.93394 104.78 9.2467C104.913 9.55931 104.98 9.89454 104.978 10.2324C104.973 10.9122 104.69 11.5631 104.188 12.0432C103.688 12.5233 103.008 12.7937 102.3 12.7956H96.1753V21.8745C96.1753 26.3023 98.7432 28.565 102.3 28.565C103.016 28.565 103.703 28.838 104.21 29.3239C104.715 29.8098 105 30.4689 105 31.156C105 31.8433 104.715 32.5023 104.21 32.9881C103.703 33.474 103.016 33.7471 102.3 33.7471C95.5432 33.7471 90.4155 29.1726 90.4155 21.8745V12.7956H88.5316C87.8235 12.7937 87.1438 12.5233 86.6434 12.0432C86.1415 11.5631 85.8584 10.9122 85.854 10.2324ZM26.5957 20.4347C26.6176 17.8972 27.385 15.4174 28.81 13.2842C30.235 11.151 32.2582 9.45201 34.646 8.38481C37.0326 7.31765 39.685 6.92613 42.2934 7.25597C44.9018 7.5857 47.3599 8.62322 49.382 10.2478C49.6938 10.509 49.9474 10.8292 50.1264 11.1889C50.3053 11.5484 50.4063 11.9395 50.4216 12.3381C50.426 13.089 50.1252 13.8118 49.5841 14.3518L41.5798 23.5422C41.3471 23.8333 41.0462 24.0669 40.7026 24.2245C40.3579 24.3818 39.9803 24.4585 39.5993 24.4481C39.2492 24.4663 38.8968 24.4146 38.5674 24.2962C38.238 24.1779 37.9372 23.9955 37.6836 23.7602C37.4301 23.5249 37.2302 23.2419 37.0941 22.9287C36.9591 22.6156 36.8921 22.2789 36.8976 21.9397C36.8812 21.6372 36.9272 21.3345 37.0338 21.0496C37.1402 20.7647 37.306 20.5034 37.519 20.2814L43.8182 13.1603C42.7874 12.5507 41.5974 12.2364 40.3876 12.2545C35.915 12.2545 32.3757 15.8707 32.3757 20.4347C32.3757 24.9985 35.8645 28.6148 40.3876 28.6148C41.4184 28.6248 42.4405 28.4286 43.389 28.0389C44.3375 27.6492 45.1928 27.0742 45.8998 26.3503C46.0095 26.2644 46.1149 26.1793 46.2181 26.0963C46.8922 25.5539 47.4531 25.103 48.3995 25.103C48.7672 25.0877 49.135 25.1455 49.4797 25.2728C49.8234 25.3999 50.1374 25.5941 50.4008 25.8429C50.6643 26.0917 50.8718 26.39 51.0112 26.7195C51.1495 27.0488 51.2175 27.4023 51.2088 27.7577C51.1561 28.4351 50.8597 29.0732 50.3712 29.5624C49.1218 30.9173 47.5816 31.9932 45.858 32.7152C44.1333 33.4372 42.266 33.7881 40.3876 33.7431C38.5674 33.7704 36.7615 33.4448 35.0741 32.7856C33.3879 32.1263 31.8564 31.1469 30.5697 29.9055C29.2831 28.6641 28.2687 27.186 27.5859 25.5591C26.903 23.9322 26.5671 22.1895 26.5957 20.4347ZM15.4418 12.7237H3.88688C3.18109 12.7199 2.50538 12.4479 2.00631 11.9665C1.50735 11.4849 1.22532 10.8331 1.22148 10.1523C1.21753 9.81363 1.28383 9.47757 1.41645 9.16389C1.54896 8.85022 1.74515 8.56527 1.99347 8.32574C2.2418 8.0862 2.53712 7.89694 2.86228 7.76908C3.18746 7.64114 3.53579 7.57725 3.88688 7.58094H21.1937C21.5449 7.57725 21.8932 7.64114 22.2183 7.76908C22.5435 7.89694 22.8389 8.0862 23.0871 8.32574C23.3355 8.56527 23.5316 8.85022 23.6641 9.16389C23.7967 9.47757 23.863 9.81363 23.8591 10.1523C23.8322 10.8381 23.5331 11.4878 23.0239 11.9669L8.95621 28.1657H21.1937C21.5449 28.1619 21.8932 28.2258 22.2183 28.3538C22.5435 28.4816 22.8389 28.6709 23.0871 28.9104C23.3355 29.15 23.5316 29.4349 23.6641 29.7486C23.7967 30.0623 23.863 30.3983 23.8591 30.737C23.8553 31.4178 23.5732 32.0698 23.0743 32.5512C22.5752 33.0326 21.8995 33.3048 21.1937 33.3084H3.27683C2.56346 33.301 1.88226 33.0209 1.38253 32.5298C0.882914 32.0385 0.605599 31.3762 0.611418 30.6879C0.629971 30.008 0.909478 29.3589 1.39581 28.8663L15.4418 12.7237ZM62.2781 40.5546V30.6943C64.6757 32.7211 67.7628 33.8302 70.9542 33.8111C78.4833 33.8111 84.1831 27.9267 84.1831 20.4769C84.1831 13.0272 78.4833 7.14275 70.9542 7.14275C67.753 7.11508 64.656 8.24484 62.2781 10.3085V9.95917C62.1793 9.29288 61.8346 8.68314 61.3065 8.24195C60.7785 7.8009 60.1023 7.55803 59.4029 7.55803C58.7036 7.55803 58.0284 7.8009 57.5004 8.24195C56.9713 8.68314 56.6266 9.29288 56.5277 9.95917V40.5546C56.6266 41.2211 56.9713 41.8315 57.5004 42.2719C58.0284 42.7134 58.7036 42.9563 59.4029 42.9563C60.1023 42.9563 60.7785 42.7134 61.3065 42.2719C61.8346 41.8315 62.1793 41.2211 62.2781 40.5546ZM70.3295 12.2723C74.8238 12.2723 78.3823 15.7946 78.3823 20.4769C78.3823 25.1593 74.8238 28.6816 70.3295 28.6816C65.8362 28.6816 62.2781 25.1593 62.2781 20.4769V20.1206C62.4384 15.6479 65.8362 12.2723 70.3295 12.2723ZM110.066 13.0537C108.547 15.2412 107.737 17.8128 107.737 20.4435C107.704 22.1988 108.039 23.9425 108.723 25.5704C109.407 27.1983 110.423 28.677 111.714 29.9184C113.004 31.1598 114.541 32.1384 116.234 32.7959C117.925 33.4533 119.738 33.7759 121.563 33.7448C124.298 33.7448 126.971 32.9648 129.244 31.5032C131.518 30.0416 133.29 27.9643 134.337 25.5337C135.383 23.1032 135.656 20.4289 135.123 17.8486C134.59 15.2684 133.273 12.8984 131.338 11.0381C129.406 9.17798 126.942 7.9111 124.26 7.39781C121.578 6.88463 118.798 7.14803 116.271 8.15471C113.745 9.16143 111.586 10.8664 110.066 13.0537ZM121.563 12.2592C126.149 12.2592 129.599 15.9262 129.599 20.4435C129.599 24.9122 126.157 28.6279 121.563 28.6279C116.969 28.6279 113.526 24.961 113.526 20.4435C113.526 15.9262 116.976 12.2592 121.563 12.2592Z" fill="#313131"/>
</svg>
