<svg width="84" height="51" viewBox="0 0 84 51" fill="none" xmlns="http://www.w3.org/2000/svg">
<path d="M74.3172 2.82735C70.101 1.51114 62.5117 0.853027 54.5074 0.853027L14.8106 1.20748C14.0805 1.20748 13.2179 1.49497 12.8342 1.96835L3.97703 7.8128C3.10611 8.88425 4.30062 10.0919 5.95345 10.0919H45.7933C50.2213 10.0919 53.2852 10.339 54.9861 10.832C57.8203 11.6552 59.1483 13.3825 58.9715 16.0149C58.6876 20.1044 54.8442 23.6894 47.4414 26.7686C43.183 28.5201 38.423 29.9033 33.1626 30.9147C31.4869 31.2368 30.0446 29.961 30.7026 28.7418L36.5801 18.1774C37.2898 16.8601 35.5708 15.5404 33.8398 16.0738L16.0773 21.498C15.5504 21.6608 15.1318 21.9783 14.9165 22.3801L0.861437 48.5958C0.293653 49.6546 1.31374 50.8138 2.81259 50.8138H15.2401C16.1002 50.8138 16.8737 50.4155 17.196 49.807L22.7079 39.3754C22.9809 38.8593 23.5848 38.4887 24.303 38.3917C37.1671 36.6575 52.1761 34.1579 61.5662 30.8939C76.0543 25.9108 83.2983 19.9405 83.2983 12.983C83.2983 8.30581 80.3042 4.68391 74.3185 2.82735H74.3172Z" fill="#595959"/>
</svg>
