<svg width="11" height="9" viewBox="0 0 11 9" fill="none" xmlns="http://www.w3.org/2000/svg">
<path d="M6.40554 8.13583C6.2833 8.00018 6.22462 7.83628 6.22951 7.64412C6.23481 7.45196 6.29858 7.28806 6.42081 7.15241L8.14744 5.23645H1.33263C1.15946 5.23645 1.0142 5.17134 0.896848 5.04112C0.779906 4.91135 0.721436 4.75039 0.721436 4.55823C0.721436 4.36607 0.779906 4.20488 0.896848 4.07466C1.0142 3.94489 1.15946 3.88001 1.33263 3.88001H8.14744L6.40554 1.94709C6.2833 1.81144 6.22218 1.65025 6.22218 1.46352C6.22218 1.27723 6.2833 1.11627 6.40554 0.980626C6.52777 0.844982 6.67303 0.777161 6.84132 0.777161C7.00919 0.777161 7.15425 0.844982 7.27649 0.980626L10.0727 4.08347C10.1338 4.1513 10.1772 4.22477 10.2029 4.3039C10.2281 4.38302 10.2408 4.4678 10.2408 4.55823C10.2408 4.64866 10.2281 4.73343 10.2029 4.81256C10.1772 4.89168 10.1338 4.96516 10.0727 5.03298L7.26121 8.15278C7.14915 8.27712 7.00919 8.33929 6.84132 8.33929C6.67303 8.33929 6.52777 8.27147 6.40554 8.13583Z" fill="white"/>
</svg>
