<svg width="16" height="8" viewBox="0 0 16 8" fill="none" xmlns="http://www.w3.org/2000/svg">
<path d="M9.67326 7.41051C9.47312 7.27753 9.37705 7.11685 9.38505 6.92847C9.39373 6.74008 9.49813 6.5794 9.69828 6.44643L12.5253 4.56813H1.36719C1.08365 4.56813 0.845806 4.5043 0.653665 4.37665C0.462192 4.24943 0.366455 4.09163 0.366455 3.90325C0.366455 3.71487 0.462192 3.55685 0.653665 3.42919C0.845806 3.30198 1.08365 3.23837 1.36719 3.23837H12.5253L9.67326 1.34345C9.47312 1.21048 9.37304 1.05246 9.37304 0.869394C9.37304 0.686773 9.47312 0.528974 9.67326 0.395998C9.87341 0.263021 10.1112 0.196533 10.3868 0.196533C10.6617 0.196533 10.8992 0.263021 11.0993 0.395998L15.6777 3.43783C15.7777 3.50432 15.8488 3.57635 15.8908 3.65392C15.9322 3.73149 15.9529 3.8146 15.9529 3.90325C15.9529 3.9919 15.9322 4.07501 15.8908 4.15258C15.8488 4.23015 15.7777 4.30218 15.6777 4.36867L11.0743 7.42713C10.8908 7.54902 10.6617 7.60997 10.3868 7.60997C10.1112 7.60997 9.87341 7.54348 9.67326 7.41051Z" fill="white"/>
</svg>
