<svg width="16" height="8" viewBox="0 0 16 8" fill="none" xmlns="http://www.w3.org/2000/svg">
<path d="M9.66814 7.44786C9.46799 7.31488 9.37192 7.1542 9.37993 6.96582C9.3886 6.77744 9.49301 6.61676 9.69315 6.48378L12.5202 4.60549H1.36206C1.07852 4.60549 0.840679 4.54166 0.648538 4.414C0.457065 4.28679 0.361328 4.12899 0.361328 3.94061C0.361328 3.75222 0.457065 3.5942 0.648538 3.46654C0.840679 3.33933 1.07852 3.27572 1.36206 3.27572H12.5202L9.66814 1.38081C9.46799 1.24783 9.36792 1.08981 9.36792 0.906747C9.36792 0.724126 9.46799 0.566328 9.66814 0.433351C9.86828 0.300375 10.1061 0.233887 10.3817 0.233887C10.6565 0.233887 10.894 0.300375 11.0942 0.433351L15.6725 3.47519C15.7726 3.54168 15.8437 3.6137 15.8857 3.69127C15.927 3.76884 15.9477 3.85195 15.9477 3.94061C15.9477 4.02926 15.927 4.11237 15.8857 4.18994C15.8437 4.26751 15.7726 4.33953 15.6725 4.40602L11.0692 7.46448C10.8857 7.58638 10.6565 7.64732 10.3817 7.64732C10.1061 7.64732 9.86828 7.58084 9.66814 7.44786Z" fill="white"/>
</svg>
