<svg width="16" height="10" viewBox="0 0 16 10" fill="none" xmlns="http://www.w3.org/2000/svg">
<path d="M9.60072 9.73686C9.40072 9.56391 9.30472 9.35493 9.31272 9.10993C9.32139 8.86492 9.42572 8.65594 9.62572 8.48299L12.4507 6.04012H1.30072C1.01739 6.04012 0.77972 5.95711 0.58772 5.79108C0.396387 5.62562 0.30072 5.42039 0.30072 5.17539C0.30072 4.93038 0.396387 4.72486 0.58772 4.55883C0.77972 4.39338 1.01739 4.31065 1.30072 4.31065H12.4507L9.60072 1.84616C9.40072 1.67321 9.30072 1.46769 9.30072 1.2296C9.30072 0.992089 9.40072 0.786859 9.60072 0.613912C9.80072 0.440965 10.0384 0.354492 10.3137 0.354492C10.5884 0.354492 10.8257 0.440965 11.0257 0.613912L15.6007 4.57007C15.7007 4.65655 15.7717 4.75022 15.8137 4.85111C15.8551 4.952 15.8757 5.06009 15.8757 5.17539C15.8757 5.29068 15.8551 5.39878 15.8137 5.49966C15.7717 5.60055 15.7007 5.69423 15.6007 5.7807L11.0007 9.75848C10.8174 9.91701 10.5884 9.99628 10.3137 9.99628C10.0384 9.99628 9.80072 9.90981 9.60072 9.73686Z" fill="white"/>
</svg>
