<svg width="16" height="8" viewBox="0 0 16 8" fill="none" xmlns="http://www.w3.org/2000/svg">
<path d="M9.32829 7.59434C9.12815 7.46137 9.03208 7.30069 9.04008 7.1123C9.04875 6.92392 9.15316 6.76324 9.35331 6.63026L12.1804 4.75197H1.02222C0.738676 4.75197 0.500835 4.68814 0.308695 4.56049C0.117221 4.43327 0.0214844 4.27547 0.0214844 4.08709C0.0214844 3.89871 0.117221 3.74069 0.308695 3.61303C0.500835 3.48581 0.738676 3.42221 1.02222 3.42221H12.1804L9.32829 1.52729C9.12815 1.39432 9.02807 1.2363 9.02807 1.05323C9.02807 0.870611 9.12815 0.712812 9.32829 0.579836C9.52844 0.446859 9.76628 0.380371 10.0418 0.380371C10.3167 0.380371 10.5542 0.446859 10.7543 0.579836L15.3327 3.62167C15.4328 3.68816 15.5038 3.76019 15.5458 3.83776C15.5872 3.91533 15.6079 3.99844 15.6079 4.08709C15.6079 4.17574 15.5872 4.25885 15.5458 4.33642C15.5038 4.41399 15.4328 4.48602 15.3327 4.55251L10.7293 7.61096C10.5458 7.73286 10.3167 7.79381 10.0418 7.79381C9.76628 7.79381 9.52844 7.72732 9.32829 7.59434Z" fill="white"/>
</svg>
