<svg width="12" height="5" viewBox="0 0 12 5" fill="none" xmlns="http://www.w3.org/2000/svg">
<path d="M7.26825 4.53611C7.12365 4.4549 7.05425 4.35676 7.06003 4.24171C7.0663 4.12666 7.14173 4.02852 7.28632 3.94731L9.3287 2.80016H1.26764C1.0628 2.80016 0.890978 2.76118 0.752169 2.68321C0.613841 2.60552 0.544678 2.50914 0.544678 2.39409C0.544678 2.27904 0.613841 2.18253 0.752169 2.10456C0.890978 2.02687 1.0628 1.98802 1.26764 1.98802H9.3287L7.26825 0.83072C7.12365 0.749506 7.05136 0.652996 7.05136 0.541192C7.05136 0.429658 7.12365 0.333284 7.26825 0.25207C7.41284 0.170856 7.58466 0.130249 7.78372 0.130249C7.9823 0.130249 8.15388 0.170856 8.29847 0.25207L11.606 2.10984C11.6783 2.15045 11.7297 2.19444 11.76 2.24181C11.7899 2.28919 11.8048 2.33995 11.8048 2.39409C11.8048 2.44823 11.7899 2.49899 11.76 2.54637C11.7297 2.59374 11.6783 2.63773 11.606 2.67834L8.2804 4.54626C8.14785 4.62071 7.9823 4.65793 7.78372 4.65793C7.58466 4.65793 7.41284 4.61732 7.26825 4.53611Z" fill="white"/>
</svg>
