<svg width="11" height="8" viewBox="0 0 11 8" fill="none" xmlns="http://www.w3.org/2000/svg">
<path d="M6.19484 7.74066C6.0726 7.60501 6.01393 7.44111 6.01882 7.24895C6.02412 7.05679 6.08788 6.89288 6.21012 6.75724L7.93674 4.84127H1.12194C0.948764 4.84127 0.803504 4.77616 0.686155 4.64595C0.569213 4.51618 0.510742 4.35522 0.510742 4.16306C0.510742 3.97089 0.569213 3.8097 0.686155 3.67949C0.803504 3.54972 0.948764 3.48484 1.12194 3.48484H7.93674L6.19484 1.55191C6.0726 1.41627 6.01148 1.25508 6.01148 1.06835C6.01148 0.882061 6.0726 0.721097 6.19484 0.585454C6.31708 0.44981 6.46234 0.381989 6.63062 0.381989C6.7985 0.381989 6.94355 0.44981 7.06579 0.585454L9.862 3.6883C9.92312 3.75612 9.96652 3.8296 9.99219 3.90872C10.0174 3.98785 10.0301 4.07263 10.0301 4.16306C10.0301 4.25348 10.0174 4.33826 9.99219 4.41739C9.96652 4.49651 9.92312 4.56999 9.862 4.63781L7.05051 7.75761C6.93846 7.88195 6.7985 7.94412 6.63062 7.94412C6.46234 7.94412 6.31708 7.8763 6.19484 7.74066Z" fill="white"/>
</svg>
