<svg width="347" height="324" viewBox="0 0 347 324" fill="none" xmlns="http://www.w3.org/2000/svg">
<g clip-path="url(#clip0_149_7315)">
<path d="M263.924 77.5338H262.151V28.9495C262.151 21.4918 259.188 14.3395 253.915 9.06607C248.641 3.79265 241.489 0.830078 234.031 0.830078H131.101C123.643 0.830078 116.491 3.79265 111.217 9.06607C105.944 14.3395 102.981 21.4918 102.981 28.9495V295.486C102.981 302.944 105.944 310.096 111.217 315.37C116.491 320.643 123.643 323.606 131.101 323.606H234.033C241.491 323.606 248.643 320.643 253.916 315.37C259.19 310.096 262.152 302.944 262.152 295.486V112.117H263.924V77.5338Z" fill="#3F3D56"/>
<path d="M256.419 27.0672V297.369C256.419 303.023 254.172 308.446 250.175 312.444C246.177 316.443 240.755 318.69 235.101 318.692H130.053C124.397 318.693 118.971 316.446 114.971 312.447C110.97 308.448 108.722 303.023 108.721 297.366V27.0672C108.723 21.4109 110.971 15.987 114.972 11.9882C118.972 7.9895 124.397 5.74346 130.053 5.74409H142.796C142.17 7.28277 141.932 8.95159 142.102 10.6039C142.273 12.2561 142.846 13.8412 143.773 15.2199C144.699 16.5985 145.95 17.7285 147.416 18.5105C148.881 19.2925 150.516 19.7025 152.177 19.7046H212.065C213.726 19.7023 215.362 19.2921 216.827 18.5099C218.292 17.7277 219.543 16.5974 220.469 15.2186C221.396 13.8397 221.969 12.2544 222.139 10.602C222.309 8.94967 222.071 7.28082 221.445 5.74219H235.094C240.749 5.74319 246.171 7.98946 250.169 11.9872C254.168 15.9849 256.415 21.4068 256.418 27.061L256.419 27.0672Z" fill="#E6E6E6"/>
<path d="M245.227 304.584H119.915C118.845 304.583 117.819 304.158 117.063 303.401C116.307 302.645 115.881 301.619 115.88 300.55V37.1079C115.881 36.0382 116.307 35.0127 117.063 34.2563C117.819 33.4999 118.845 33.0744 119.915 33.0732H245.227C246.297 33.0744 247.323 33.4999 248.079 34.2563C248.835 35.0127 249.261 36.0382 249.262 37.1079V300.55C249.261 301.619 248.835 302.645 248.079 303.401C247.323 304.158 246.297 304.583 245.227 304.584Z" fill="white"/>
<path d="M182.096 122.017C201.164 122.017 216.621 106.559 216.621 87.4914C216.621 68.4234 201.164 52.9658 182.096 52.9658C163.028 52.9658 147.57 68.4234 147.57 87.4914C147.57 106.559 163.028 122.017 182.096 122.017Z" fill="#E6E6E6"/>
<path d="M181.622 117.343C198.108 117.343 211.473 103.978 211.473 87.4911C211.473 71.0046 198.108 57.6396 181.622 57.6396C165.135 57.6396 151.77 71.0046 151.77 87.4911C151.77 103.978 165.135 117.343 181.622 117.343Z" fill="white"/>
<path d="M182.286 70.5596C178.92 70.5596 175.629 71.5578 172.83 73.4279C170.031 75.2981 167.85 77.9562 166.562 81.0661C165.273 84.1761 164.936 87.5982 165.593 90.8997C166.25 94.2012 167.871 97.2339 170.251 99.6141C172.631 101.994 175.664 103.615 178.965 104.272C182.267 104.929 185.689 104.592 188.799 103.304C191.909 102.015 194.567 99.8339 196.437 97.035C198.307 94.2361 199.306 90.9455 199.306 87.5793C199.306 83.0654 197.512 78.7364 194.321 75.5445C191.129 72.3527 186.8 70.5596 182.286 70.5596ZM182.286 75.6656C183.296 75.6656 184.283 75.9651 185.123 76.5261C185.962 77.0872 186.617 77.8846 187.003 78.8176C187.39 79.7506 187.491 80.7773 187.294 81.7677C187.097 82.7582 186.61 83.668 185.896 84.3821C185.182 85.0962 184.272 85.5825 183.282 85.7795C182.292 85.9765 181.265 85.8754 180.332 85.489C179.399 85.1025 178.601 84.448 178.04 83.6084C177.479 82.7687 177.18 81.7815 177.18 80.7716C177.18 80.1011 177.312 79.4371 177.569 78.8176C177.825 78.1981 178.201 77.6352 178.675 77.1611C179.15 76.687 179.712 76.3109 180.332 76.0543C180.951 75.7977 181.615 75.6656 182.286 75.6656ZM182.286 100.246C180.269 100.237 178.284 99.7355 176.505 98.7859C174.725 97.8362 173.204 96.4667 172.074 94.7962C172.155 91.3923 178.882 89.5183 182.286 89.5183C185.69 89.5183 192.416 91.3923 192.498 94.7962C191.366 96.4657 189.845 97.8346 188.066 98.7843C186.287 99.7341 184.303 100.236 182.286 100.247V100.246Z" fill="#4141DB"/>
<path d="M210.589 133.619H150.858V138.109H210.589V133.619Z" fill="#E6E6E6"/>
<path d="M218.039 145.285H142.866V149.775H218.039V145.285Z" fill="#E6E6E6"/>
<path d="M235.519 178.795H129.623V284.691H235.519V178.795Z" fill="#E6E6E6"/>
<path d="M232.722 181.035H131.306V282.451H232.722V181.035Z" fill="white"/>
<path d="M191.668 190.824H152.191V193.791H191.668V190.824Z" fill="#E6E6E6"/>
<path d="M213.152 199.536H152.191V202.503H213.152V199.536Z" fill="#4141DB"/>
<path d="M202.507 207.831H152.825V210.798H202.507V207.831Z" fill="#E6E6E6"/>
<path d="M181.195 216.934H152.191V219.901H181.195V216.934Z" fill="#E6E6E6"/>
<path d="M195.965 225.824H152.191V228.791H195.965V225.824Z" fill="#4141DB"/>
<path d="M191.668 234.771H152.191V237.739H191.668V234.771Z" fill="#E6E6E6"/>
<path d="M213.152 243.482H152.191V246.45H213.152V243.482Z" fill="#4141DB"/>
<path d="M202.507 251.777H152.825V254.745H202.507V251.777Z" fill="#E6E6E6"/>
<path d="M181.195 260.881H152.191V263.848H181.195V260.881Z" fill="#E6E6E6"/>
<path d="M195.965 269.771H152.191V272.739H195.965V269.771Z" fill="#E6E6E6"/>
<path d="M329.411 231.059C329.128 231.553 328.751 231.986 328.301 232.335C327.851 232.683 327.337 232.939 326.788 233.089C326.239 233.239 325.666 233.279 325.101 233.207C324.536 233.135 323.992 232.952 323.498 232.67C323.003 232.387 322.57 232.01 322.222 231.56C321.873 231.11 321.617 230.596 321.467 230.047C321.318 229.498 321.278 228.925 321.35 228.36C321.422 227.795 321.604 227.251 321.886 226.757C321.896 226.74 321.906 226.723 321.916 226.706C322.037 226.503 322.173 226.309 322.324 226.127L318.679 200.144L318.569 199.365L317.829 194.063L317.72 193.299L318.123 193.318L325.186 193.641L327.08 193.726L327.318 198.563L328.661 225.757C329.363 226.428 329.818 227.316 329.954 228.278C330.09 229.24 329.899 230.219 329.411 231.059Z" fill="#FFB8B8"/>
<path d="M318.591 199.601L327.56 198.778C328.025 198.734 328.454 198.508 328.753 198.149C329.052 197.79 329.198 197.327 329.157 196.862L327.496 178.211C327.416 177.322 327.162 176.456 326.749 175.665C326.335 174.874 325.769 174.172 325.084 173.599C324.399 173.026 323.608 172.594 322.756 172.327C321.904 172.06 321.007 171.963 320.118 172.043C319.228 172.122 318.363 172.376 317.572 172.79C316.78 173.203 316.078 173.769 315.506 174.454C314.933 175.139 314.501 175.93 314.233 176.782C313.966 177.635 313.87 178.531 313.949 179.42C313.961 179.549 313.976 179.677 313.995 179.805L316.684 198.098C316.746 198.517 316.956 198.9 317.277 199.178C317.597 199.455 318.006 199.608 318.43 199.608C318.484 199.609 318.538 199.607 318.591 199.601Z" fill="#4141DB"/>
<path d="M325.389 184.533C326.296 181.964 326.338 179.168 325.509 176.572C324.68 173.977 323.024 171.724 320.795 170.156C317.413 167.842 312.785 167.012 307.801 172.945C297.833 184.812 295.222 197.865 295.222 197.865L315.633 201.188C315.633 201.188 322.574 192.703 325.389 184.533Z" fill="#4141DB"/>
<path d="M292.377 318.202H286.557L283.789 295.756H292.378L292.377 318.202Z" fill="#FFB8B8"/>
<path d="M275.336 323.605H293.626V316.539H282.403C280.529 316.539 278.731 317.284 277.406 318.609C276.081 319.934 275.336 321.731 275.336 323.605Z" fill="#2F2E41"/>
<path d="M340.221 313.128L334.696 314.954L325.022 294.511L333.177 291.815L340.221 313.128Z" fill="#FFB8B8"/>
<path d="M325.736 323.606L343.101 317.867L340.884 311.157L330.228 314.679C329.347 314.971 328.531 315.432 327.829 316.039C327.126 316.645 326.55 317.384 326.133 318.213C325.716 319.042 325.466 319.945 325.398 320.87C325.33 321.795 325.445 322.725 325.736 323.606Z" fill="#2F2E41"/>
<path d="M312.576 164.27C319.015 164.27 324.235 159.05 324.235 152.611C324.235 146.173 319.015 140.953 312.576 140.953C306.138 140.953 300.918 146.173 300.918 152.611C300.918 159.05 306.138 164.27 312.576 164.27Z" fill="#FFB8B8"/>
<path d="M302.369 311.953L307.773 276.284C307.831 275.903 308.019 275.555 308.305 275.297C308.591 275.04 308.958 274.89 309.343 274.873C309.728 274.856 310.106 274.974 310.414 275.205C310.722 275.436 310.939 275.768 311.03 276.142L319.26 310.134C319.39 310.655 319.709 311.108 320.156 311.405C320.603 311.703 321.145 311.822 321.675 311.741L344.376 308.092C344.677 308.044 344.964 307.932 345.218 307.763C345.472 307.595 345.687 307.374 345.849 307.115C346.011 306.857 346.115 306.566 346.155 306.264C346.195 305.962 346.17 305.655 346.082 305.363L316.481 207.771C316.397 207.493 316.387 207.199 316.452 206.916L317.437 202.644C317.545 202.181 317.495 201.695 317.295 201.264C317.095 200.833 316.756 200.481 316.333 200.264C312.302 198.208 302.092 193.932 294.388 198.615C294.138 198.768 293.922 198.97 293.752 199.209C293.582 199.447 293.463 199.718 293.401 200.005L270.277 308.69C270.214 308.985 270.215 309.291 270.279 309.586C270.343 309.882 270.468 310.16 270.648 310.403C270.827 310.646 271.056 310.848 271.32 310.997C271.583 311.145 271.875 311.235 272.176 311.262L300.066 313.76C300.129 313.765 300.193 313.768 300.256 313.768C300.767 313.767 301.26 313.584 301.647 313.251C302.035 312.918 302.29 312.457 302.367 311.953L302.369 311.953Z" fill="#2F2E41"/>
<path d="M320.307 144.375C319.428 143.847 318.648 143.169 318.002 142.372C317.683 141.97 317.473 141.492 317.393 140.985C317.312 140.478 317.363 139.958 317.542 139.477C318.131 138.177 319.881 137.768 321.237 138.209C322.594 138.65 323.642 139.715 324.633 140.74C325.506 141.642 326.404 142.588 326.816 143.774C327.229 144.96 327.017 146.464 325.987 147.184C324.976 147.891 323.523 147.602 322.551 146.843C321.579 146.085 320.977 144.959 320.403 143.867L320.307 144.375Z" fill="#2F2E41"/>
<path d="M324.255 141.053C324.32 137.768 328.064 135.412 331.298 135.995C334.532 136.577 337.017 139.334 338.261 142.375C340.89 148.8 338.917 156.13 336.384 162.596C333.851 169.061 330.717 175.62 331.086 182.552C331.336 186.299 332.594 189.909 334.726 193C336.857 196.091 339.784 198.55 343.198 200.115C339.548 201.769 335.186 200.061 332.119 197.482C325.309 191.755 322.68 181.558 325.872 173.253C327.447 169.156 330.221 165.651 332.388 161.834C334.554 158.017 336.144 153.519 335.025 149.275C333.906 145.031 329.146 141.595 325.077 143.237L324.255 141.053Z" fill="#2F2E41"/>
<path d="M311.877 157.785C312.893 156.067 313.918 153.813 312.061 152.311C311.657 152 311.195 151.772 310.702 151.642C310.209 151.511 309.694 151.481 309.189 151.552C307.095 151.804 304.814 151.908 302.787 151.147C302.027 150.886 301.327 150.474 300.728 149.936C300.13 149.399 299.646 148.747 299.305 148.019C298.261 145.539 299.569 142.526 301.757 140.959C303.095 140.034 304.677 139.526 306.303 139.497C307.929 139.469 309.528 139.921 310.898 140.797C313.732 139.545 317.17 140.102 319.744 141.825C322.319 143.548 324.081 146.307 325.038 149.253C325.919 151.789 326.071 154.522 325.476 157.14C324.997 158.961 324.086 160.64 322.82 162.035C321.555 163.43 319.972 164.499 318.206 165.152C317.518 165.423 316.77 165.509 316.039 165.401C315.307 165.293 314.617 164.994 314.037 164.535C314.037 164.535 312.43 163.132 311.928 161.443C311.541 160.144 311.334 158.702 311.877 157.785Z" fill="#2F2E41"/>
<path d="M277.292 168.188C277.35 168.444 277.388 168.705 277.405 168.967L297.796 180.73L302.752 177.877L308.035 184.793L299.752 190.697C299.083 191.175 298.277 191.422 297.455 191.402C296.634 191.382 295.841 191.096 295.195 190.586L274.167 173.999C273.218 174.35 272.184 174.404 271.204 174.154C270.223 173.904 269.342 173.361 268.677 172.597C268.012 171.834 267.596 170.886 267.483 169.88C267.37 168.874 267.567 167.858 268.046 166.966C268.525 166.074 269.264 165.35 270.165 164.888C271.066 164.427 272.086 164.251 273.089 164.384C274.093 164.516 275.032 164.952 275.782 165.631C276.533 166.311 277.058 167.203 277.289 168.188H277.292Z" fill="#FFB8B8"/>
<path d="M298.478 181.287L305.068 189.828C305.255 190.07 305.493 190.27 305.764 190.413C306.036 190.555 306.335 190.638 306.641 190.655C306.948 190.672 307.254 190.622 307.539 190.51C307.825 190.398 308.083 190.226 308.296 190.005L315.756 182.258C317.018 181.318 317.856 179.916 318.084 178.359C318.313 176.802 317.913 175.218 316.974 173.955C316.034 172.693 314.632 171.856 313.075 171.627C311.518 171.399 309.934 171.798 308.671 172.738C308.607 172.786 308.543 172.835 308.481 172.886L299.124 178.118C298.856 178.268 298.624 178.473 298.443 178.721C298.262 178.969 298.136 179.253 298.075 179.554C298.013 179.854 298.017 180.165 298.086 180.464C298.156 180.763 298.289 181.044 298.476 181.287L298.478 181.287Z" fill="#4141DB"/>
<path d="M59.2921 201.645C59.0592 201.751 58.8352 201.876 58.6223 202.019L37.3324 192.932L36.5729 187.324L28.0659 187.271L28.5686 200.135L56.669 207.567C56.7282 207.763 56.7993 207.954 56.8817 208.141C57.288 209.008 57.9414 209.735 58.7598 210.232C59.5783 210.729 60.5253 210.973 61.4819 210.933C62.4385 210.894 63.3621 210.572 64.1366 210.009C64.9112 209.447 65.5021 208.667 65.8353 207.77C66.1685 206.872 66.2291 205.896 66.0094 204.964C65.7897 204.033 65.2996 203.186 64.6005 202.532C63.9015 201.878 63.0247 201.445 62.0804 201.287C61.136 201.13 60.1661 201.255 59.2925 201.646L59.2921 201.645Z" fill="#A0616A"/>
<path d="M24.9717 318.203H30.7911L33.5594 295.757H24.9707L24.9717 318.203Z" fill="#A0616A"/>
<path d="M34.9482 316.54H23.7251V323.605H42.0146C42.0146 321.73 41.2701 319.933 39.9449 318.608C38.6197 317.283 36.8223 316.538 34.9482 316.538H34.9482L34.9482 316.54Z" fill="#2F2E41"/>
<path d="M2.33936 316.559L8.13033 317.129L13.0864 295.062L4.53898 294.223L2.33936 316.559Z" fill="#A0616A"/>
<path d="M12.4342 315.883L1.26721 314.783L0.574707 321.814L18.7723 323.607C18.8632 322.683 18.7714 321.751 18.5021 320.863C18.2328 319.975 17.7912 319.149 17.2026 318.432C16.614 317.715 15.8899 317.121 15.0717 316.683C14.2534 316.246 13.3571 315.974 12.4337 315.883L12.4342 315.883Z" fill="#2F2E41"/>
<path d="M23.3522 163.515C29.7909 163.515 35.0106 158.295 35.0106 151.857C35.0106 145.418 29.7909 140.198 23.3522 140.198C16.9135 140.198 11.6938 145.418 11.6938 151.857C11.6938 158.295 16.9135 163.515 23.3522 163.515Z" fill="#A0616A"/>
<path d="M32.0921 313.664C32.5924 313.665 33.077 313.489 33.4604 313.168C33.8439 312.847 34.1015 312.4 34.1877 311.907C37.1976 295.19 47.0456 240.517 47.281 239.002C47.2863 238.967 47.2889 238.931 47.2886 238.896V234.82C47.2891 234.671 47.2427 234.526 47.1562 234.406L45.8556 232.584C45.7938 232.496 45.7127 232.424 45.6186 232.373C45.5244 232.321 45.4197 232.292 45.3126 232.287C37.8973 231.94 13.6122 230.921 12.4389 232.387C11.2607 233.858 11.6794 238.323 11.7743 239.203L11.7696 239.294L0.859298 309.071C0.773834 309.627 0.910952 310.195 1.24098 310.651C1.571 311.108 2.06738 311.415 2.62269 311.508L9.43705 312.631C9.94456 312.712 10.4645 312.609 10.9022 312.34C11.3399 312.07 11.6664 311.653 11.8223 311.163C13.9298 304.428 20.9972 281.772 23.4464 273.005C23.4621 272.95 23.4972 272.903 23.5453 272.871C23.5934 272.84 23.6512 272.827 23.7081 272.835C23.7649 272.843 23.8169 272.872 23.8544 272.915C23.8919 272.959 23.9124 273.014 23.9121 273.071C23.7896 281.428 23.4939 302.749 23.39 310.113L23.379 310.906C23.3745 311.443 23.5716 311.962 23.9313 312.361C24.2911 312.76 24.7873 313.009 25.3219 313.06L31.8927 313.655C31.959 313.661 32.0255 313.664 32.0921 313.664Z" fill="#2F2E41"/>
<path d="M30.7507 168.099C32.7852 169.309 34.0027 171.531 34.7014 173.796C35.9948 177.983 36.7733 182.312 37.0197 186.687L37.7583 199.788L46.8981 234.52C38.9763 241.222 34.4071 239.699 23.7432 234.216C13.0793 228.734 11.8613 236.044 11.8613 236.044L9.72905 206.492L6.68262 174.199C7.36657 173.376 8.14068 172.632 8.99046 171.981C11.8063 169.791 15.0825 168.268 18.5722 167.528C22.0619 166.788 25.674 166.85 29.1364 167.709L30.7507 168.099Z" fill="#E6E6E6"/>
<path d="M33.7193 208.658C33.4736 208.75 33.2355 208.861 33.0073 208.99L11.9557 198.452L11.6063 192.744L2.92269 192.146L2.45752 205.158L30.5893 214.461C30.8188 215.447 31.343 216.34 32.0923 217.02C32.8415 217.701 33.7802 218.137 34.7834 218.271C35.7867 218.405 36.807 218.23 37.7086 217.77C38.6102 217.31 39.3503 216.587 39.8306 215.696C40.3108 214.805 40.5084 213.789 40.397 212.783C40.2856 211.777 39.8706 210.828 39.207 210.064C38.5435 209.3 37.663 208.755 36.6826 208.504C35.7022 208.252 34.6684 208.305 33.7188 208.655L33.7193 208.658Z" fill="#A0616A"/>
<path d="M6.83507 174.345C1.65595 176.173 0.743164 195.978 0.743164 195.978C6.8365 192.627 14.1483 198.111 14.1483 198.111C14.1483 198.111 15.6715 192.931 17.4995 186.229C18.0515 184.343 18.1175 182.349 17.6914 180.431C17.2653 178.514 16.3609 176.735 15.0625 175.261C15.0625 175.261 12.0147 172.516 6.83507 174.345Z" fill="#E6E6E6"/>
<path d="M12.9006 154.94C14.3531 153.778 16.3348 155.889 16.3348 155.889L17.4968 145.432C17.4968 145.432 24.7592 146.302 29.4081 145.142C34.0571 143.981 34.7828 149.354 34.7828 149.354C35.0225 147.184 35.0711 144.996 34.9281 142.818C34.6376 140.203 30.8611 137.588 24.1792 135.845C17.4973 134.102 14.0113 141.656 14.0113 141.656C9.36051 143.979 11.4462 156.102 12.9006 154.94Z" fill="#2F2E41"/>
</g>
<defs>
<clipPath id="clip0_149_7315">
<rect width="345.598" height="322.776" fill="white" transform="translate(0.575684 0.830078)"/>
</clipPath>
</defs>
</svg>
