<svg width="403" height="467" viewBox="0 0 403 467" fill="none" xmlns="http://www.w3.org/2000/svg">
<g clip-path="url(#clip0_147_5422)">
<path d="M402.575 178.31C402.575 179.633 402.559 180.954 402.528 182.273C402.515 183.135 402.488 183.997 402.455 184.859C402.448 185.106 402.441 185.346 402.428 185.594C402.408 186.068 402.388 186.536 402.368 186.997C402.221 190.077 401.994 193.135 401.686 196.171C401.673 196.318 401.66 196.465 401.646 196.605C401.613 196.906 401.586 197.207 401.546 197.507C401.452 198.41 401.352 199.312 401.239 200.2C401.165 200.802 401.092 201.396 401.011 201.998C400.971 202.285 400.931 202.572 400.898 202.853C400.851 203.167 400.811 203.474 400.764 203.782C400.744 203.915 400.724 204.049 400.704 204.189C400.637 204.644 400.57 205.105 400.497 205.559C400.41 206.154 400.316 206.742 400.216 207.336C400.123 207.924 400.023 208.512 399.916 209.1C399.815 209.688 399.708 210.276 399.602 210.864C399.495 211.459 399.381 212.047 399.267 212.635C398.693 215.548 398.051 218.437 397.343 221.302C397.062 222.417 396.775 223.531 396.481 224.643C395.993 226.447 395.479 228.242 394.938 230.028C394.784 230.523 394.63 231.017 394.477 231.505C394.303 232.066 394.122 232.627 393.942 233.182C393.762 233.743 393.581 234.298 393.394 234.852C393.207 235.407 393.02 235.962 392.826 236.516C392.639 237.064 392.445 237.619 392.245 238.167C392.051 238.721 391.851 239.269 391.65 239.817C391.443 240.365 391.242 240.913 391.035 241.454C390.621 242.55 390.196 243.635 389.759 244.708C389.545 245.249 389.325 245.791 389.098 246.325C388.209 248.477 387.278 250.604 386.305 252.706C386.091 253.174 385.877 253.642 385.656 254.103C385.509 254.41 385.369 254.711 385.222 255.018C384.975 255.526 384.734 256.027 384.487 256.528C384.24 257.036 383.986 257.551 383.725 258.065C383.211 259.081 382.688 260.094 382.155 261.106C381.627 262.115 381.086 263.124 380.531 264.119C379.977 265.115 379.416 266.11 378.848 267.093C378.56 267.587 378.273 268.081 377.986 268.569C376.83 270.527 375.636 272.463 374.404 274.376C373.181 276.28 371.918 278.162 370.616 280.022C369.967 280.951 369.306 281.88 368.638 282.795C368.37 283.162 368.103 283.523 367.836 283.884C367.508 284.338 367.168 284.786 366.827 285.234C352.346 304.495 334.096 320.608 313.19 332.592C292.283 344.576 269.157 352.18 245.218 354.942C221.279 357.703 197.028 355.565 173.942 348.656C150.856 341.747 129.417 330.212 110.931 314.754C108.98 313.124 107.064 311.454 105.184 309.743C93.1217 298.758 82.6204 286.173 73.9734 272.338C72.8976 270.607 71.8419 268.857 70.8262 267.093C55.2346 240.105 47.0494 209.478 47.0989 178.31C47.0989 80.1468 126.673 0.572298 224.837 0.572298C254.374 0.554396 283.45 7.90426 309.431 21.9564C335.411 36.0085 357.477 56.319 373.629 81.0489C373.923 81.4966 374.217 81.9509 374.511 82.4053C390.571 107.399 400.069 136.038 402.127 165.675C402.428 169.844 402.577 174.056 402.575 178.31Z" fill="#F2F2F2"/>
<path d="M374.511 82.4052H128.317C128.14 82.4009 127.972 82.3276 127.848 82.2009C127.725 82.0742 127.655 81.9041 127.655 81.727C127.655 81.55 127.725 81.3799 127.848 81.2532C127.972 81.1265 128.14 81.0531 128.317 81.0488H373.629C373.923 81.4965 374.217 81.9509 374.511 82.4052Z" fill="#CACACA"/>
<path d="M143.254 72.9091C147.286 72.9091 150.554 69.5679 150.554 65.4463C150.554 61.3246 147.286 57.9834 143.254 57.9834C139.223 57.9834 135.954 61.3246 135.954 65.4463C135.954 69.5679 139.223 72.9091 143.254 72.9091Z" fill="#3F3D56"/>
<path d="M168.473 72.9091C172.505 72.9091 175.773 69.5679 175.773 65.4463C175.773 61.3246 172.505 57.9834 168.473 57.9834C164.441 57.9834 161.173 61.3246 161.173 65.4463C161.173 69.5679 164.441 72.9091 168.473 72.9091Z" fill="#3F3D56"/>
<path d="M193.692 72.9091C197.724 72.9091 200.992 69.5679 200.992 65.4463C200.992 61.3246 197.724 57.9834 193.692 57.9834C189.66 57.9834 186.392 61.3246 186.392 65.4463C186.392 69.5679 189.66 72.9091 193.692 72.9091Z" fill="#3F3D56"/>
<path d="M402.128 165.675C395.706 168.595 389.953 173.312 384.928 179.8C379.122 187.304 372.901 192.589 366.547 196.171C366.246 196.338 365.952 196.498 365.651 196.659C359.955 199.729 353.708 201.643 347.269 202.292C345.325 202.488 343.371 202.581 341.416 202.572C340.601 202.565 339.786 202.545 338.977 202.505C337.059 202.412 335.162 202.225 333.298 201.957C322.593 200.434 312.911 196.318 305.741 192.449C295.918 187.031 285.255 183.3 274.196 181.411C272.218 181.083 270.245 180.827 268.276 180.642C267.461 180.562 266.652 180.502 265.844 180.449C263.859 180.315 261.877 180.253 259.897 180.261C258.881 180.268 257.872 180.288 256.857 180.328C239.791 180.996 217.534 185.861 197.575 202.853C197.308 203.08 197.047 203.307 196.78 203.534C196.533 203.748 196.286 203.969 196.038 204.189C192.879 206.997 189.902 210.004 187.125 213.19C183.941 216.839 180.995 220.689 178.305 224.716C175.11 229.431 171.379 233.758 167.186 237.612C160.984 243.335 156.017 250.266 152.591 257.978C149.164 265.691 147.351 274.022 147.261 282.461V282.795C147.254 283.156 147.254 283.523 147.254 283.884H367.843C368.11 283.523 368.377 283.162 368.638 282.795C369.306 281.88 369.968 280.951 370.616 280.022C371.919 278.164 373.182 276.282 374.405 274.376C375.641 272.465 376.834 270.529 377.986 268.569C378.273 268.081 378.561 267.587 378.848 267.092C379.416 266.11 379.977 265.115 380.532 264.119C381.086 263.123 381.628 262.114 382.155 261.106C382.69 260.097 383.213 259.083 383.726 258.065C383.986 257.551 384.24 257.036 384.487 256.528C384.735 256.027 384.975 255.526 385.222 255.018C385.369 254.711 385.51 254.41 385.657 254.103C385.877 253.642 386.091 253.174 386.305 252.706C387.28 250.602 388.211 248.475 389.098 246.325C389.325 245.791 389.546 245.249 389.759 244.708C390.194 243.632 390.619 242.548 391.036 241.454C391.243 240.913 391.443 240.365 391.65 239.817C391.851 239.269 392.051 238.721 392.245 238.167C392.446 237.619 392.639 237.064 392.826 236.516C393.02 235.962 393.207 235.407 393.394 234.852C393.582 234.298 393.762 233.743 393.942 233.182C394.123 232.627 394.303 232.066 394.477 231.505C394.631 231.017 394.784 230.523 394.938 230.028C395.479 228.244 395.994 226.449 396.481 224.642C396.775 223.533 397.063 222.42 397.343 221.302C398.052 218.442 398.693 215.553 399.268 212.635C399.381 212.047 399.495 211.459 399.602 210.864C399.709 210.276 399.816 209.688 399.916 209.1C400.023 208.512 400.123 207.924 400.217 207.336C400.317 206.742 400.41 206.154 400.497 205.559C400.571 205.105 400.638 204.644 400.704 204.189C400.724 204.049 400.744 203.915 400.765 203.782C400.811 203.468 400.851 203.16 400.891 202.853C400.932 202.566 400.972 202.278 401.012 201.998C401.092 201.396 401.165 200.802 401.239 200.2C401.353 199.311 401.453 198.409 401.546 197.507H401.553C401.58 197.207 401.613 196.906 401.647 196.605C401.66 196.465 401.673 196.318 401.687 196.171C401.994 193.137 402.221 190.079 402.368 186.997C402.388 186.536 402.408 186.068 402.428 185.594C402.442 185.346 402.448 185.106 402.455 184.859C402.488 183.997 402.515 183.135 402.529 182.273C402.562 180.956 402.578 179.636 402.575 178.31C402.575 174.061 402.426 169.849 402.128 165.675Z" fill="#4141DB"/>
<path d="M195.294 210.487H192.856V281.943H195.294V210.487Z" fill="#3F3D56"/>
<path d="M268.28 177.115H265.842V281.943H268.28V177.115Z" fill="#3F3D56"/>
<path d="M341.415 199.056H338.978V281.943H341.415V199.056Z" fill="#3F3D56"/>
<path d="M267.211 186.253C271.33 186.253 274.668 182.914 274.668 178.796C274.668 174.677 271.33 171.338 267.211 171.338C263.092 171.338 259.753 174.677 259.753 178.796C259.753 182.914 263.092 186.253 267.211 186.253Z" fill="#3F3D56"/>
<path d="M340.346 206.975C344.465 206.975 347.804 203.636 347.804 199.517C347.804 195.399 344.465 192.06 340.346 192.06C336.228 192.06 332.889 195.399 332.889 199.517C332.889 203.636 336.228 206.975 340.346 206.975Z" fill="#3F3D56"/>
<path d="M192.738 211.931C196.857 211.931 200.196 208.592 200.196 204.473C200.196 200.355 196.857 197.016 192.738 197.016C188.619 197.016 185.28 200.355 185.28 204.473C185.28 208.592 188.619 211.931 192.738 211.931Z" fill="#3F3D56"/>
<path d="M368.638 282.796C368.371 283.163 368.104 283.524 367.837 283.885C367.509 284.339 367.168 284.787 366.828 285.235H147.014V282.796H368.638Z" fill="#3F3D56"/>
<path d="M85.1918 458.364H92.2552L95.6155 431.118L85.1904 431.119L85.1918 458.364Z" fill="#FFB8B8"/>
<path d="M103.568 458.655C102.748 457.827 101.771 457.171 100.695 456.724C99.6174 456.283 98.4645 456.056 97.3004 456.056L93.1375 452.902L92.917 452.989L85.3799 456.056H83.3887V465.21H106.167V464.923C106.171 463.758 105.943 462.604 105.496 461.528C105.05 460.452 104.395 459.476 103.568 458.655Z" fill="#2F2E41"/>
<path d="M118.008 458.364H125.072L128.432 431.118L118.007 431.119L118.008 458.364Z" fill="#FFB8B8"/>
<path d="M136.389 458.655C135.568 457.826 134.589 457.169 133.509 456.724C132.432 456.282 131.279 456.055 130.115 456.056L125.959 452.902L125.731 452.996L118.194 456.056H116.203L116.21 465.21H138.982V464.923C138.985 463.759 138.757 462.606 138.312 461.53C137.867 460.454 137.214 459.477 136.389 458.655Z" fill="#2F2E41"/>
<path d="M123.655 309.264L68.1562 310.711L69.1214 337.737C69.1214 337.737 68.1562 344.976 70.0866 346.906C72.017 348.837 72.9822 348.837 72.017 352.215C71.0518 355.593 76.1514 361.111 75.532 361.73C74.9126 362.349 73.4648 365.728 73.4648 365.728L78.2908 393.236C78.2908 393.236 81.669 441.013 82.6342 441.978C83.5994 442.943 84.5646 441.978 83.5994 444.391C82.6342 446.804 81.669 445.839 82.6342 446.804C83.4892 447.726 84.2946 448.693 85.0472 449.7H96.715C96.715 449.7 97.5947 444.874 97.5947 444.391C97.5947 443.909 98.5599 441.013 98.5599 440.53C98.5599 440.048 97.7068 439.195 97.7068 439.195C97.412 438.214 97.2129 437.206 97.1122 436.187C97.1122 435.222 94.2166 398.062 94.2166 398.062L100.008 349.802L114.003 397.097C114.003 397.097 114.003 438.6 114.968 439.565C115.933 440.53 115.933 440.048 115.451 441.978C114.968 443.909 113.038 443.426 114.486 444.874C115.933 446.322 116.416 443.909 115.934 446.322L115.451 448.735L129.929 448.942C129.929 448.942 131.859 444.874 130.894 443.426C129.929 441.978 129.987 442.373 131.164 440.004C132.342 437.635 132.824 437.152 132.342 436.67C131.859 436.187 131.859 433.62 131.859 433.62L129.446 387.445C129.446 387.445 128.964 338.702 128.964 337.254C128.927 336.509 129.065 335.766 129.365 335.083V333.118L127.516 326.155L123.655 309.264Z" fill="#2F2E41"/>
<path d="M186.462 204.007C186.195 204.748 185.769 205.422 185.214 205.981C184.659 206.54 183.988 206.97 183.248 207.242C182.509 207.513 181.719 207.619 180.934 207.552C180.149 207.485 179.388 207.247 178.705 206.854L154.614 227.037L153.305 217.172L176.868 199.134C177.603 198.031 178.719 197.235 180.002 196.899C181.285 196.562 182.647 196.708 183.829 197.309C185.012 197.91 185.933 198.923 186.418 200.158C186.904 201.392 186.919 202.762 186.462 204.007H186.462Z" fill="#FFB8B8"/>
<path d="M80.235 212.337C88.4974 212.337 95.1955 205.639 95.1955 197.377C95.1955 189.114 88.4974 182.416 80.235 182.416C71.9725 182.416 65.2744 189.114 65.2744 197.377C65.2744 205.639 71.9725 212.337 80.235 212.337Z" fill="#FFB8B8"/>
<path d="M92.3636 182.487C90.9708 179.167 85.0018 177.196 75.5567 177.493C66.1115 177.79 64.4575 189.054 64.4575 189.054C59.2551 193.903 67.6542 209.042 69.1114 206.955C70.5686 204.867 73.0151 206.84 73.0151 206.84L70.6836 193.726C73.1458 194.673 75.7938 195.309 78.1097 194.206L74.2726 192.154L83.8131 193.341L79.8786 190.314C79.9739 190.283 80.0693 190.25 80.1647 190.218C81.7426 190.898 83.4324 191.282 85.1494 191.349C87.1553 191.335 89.287 190.395 90.1276 188.573C90.351 188.073 90.4721 187.533 90.4836 186.986C93.2493 187.883 94.7016 191.124 94.7016 191.124C94.1765 188.182 93.3941 185.292 92.3636 182.487Z" fill="#2F2E41"/>
<path d="M92.2094 213.006C88.8685 213.006 86.7169 213.467 81.5184 214.343C71.9233 215.96 77.6697 225.077 77.6697 225.077C77.6697 225.077 78.104 224.856 76.928 225.077C75.752 225.297 71.7428 228.765 71.7428 228.765L64.5732 235.133C53.7686 243.612 56.1874 256.842 56.1874 256.842L71.9433 272.698L65.0409 304.511C65.0409 304.511 67.9742 309.235 66.4574 311.353C64.9406 313.471 79.8212 312.863 79.8212 312.863C90.0912 317.44 126.274 313.572 126.274 313.572C125.772 312.262 120.928 302.112 120.928 302.112C123.033 298.477 121.028 293.225 121.028 293.225C121.028 293.225 118.937 268.382 117.601 264.947C116.264 261.513 121.022 242.904 124.149 243.104C127.276 243.305 147.475 233.001 147.475 233.001C147.475 233.001 146.967 232.193 153.636 229.467C157.466 227.962 160.978 225.747 163.986 222.938L166.726 217.466C165.409 217.974 160.966 209.595 160.966 209.595L159.028 210.333L157.906 210.009C157.906 210.009 149.146 212.501 147.355 214.319C145.564 216.136 144.963 215.628 143.346 216.036C141.729 216.444 141.528 217.58 141.021 217.453C140.513 217.326 139.611 218.862 138.902 218.662C138.194 218.462 136.677 219.27 135.668 219.471C134.659 219.671 127.49 222.705 127.49 222.705C123.053 220.459 111.026 221.368 111.026 221.368C111.026 221.368 107.09 219.05 105.974 221.368C105.674 222.027 105.192 222.586 104.585 222.98C103.977 223.375 103.27 223.587 102.546 223.593L97.7486 221.542C97.4699 222.56 92.2368 211.951 92.2094 213.006Z" fill="#3F3D56"/>
<path d="M38.563 428.875L37.8963 413.884C30.9464 410.169 23.1948 408.207 15.3145 408.168C26.1601 417.035 24.8047 434.128 32.1579 446.052C34.4797 449.754 37.6048 452.885 41.3014 455.215C44.9981 457.544 49.1716 459.012 53.5126 459.509L62.5887 465.066C63.8341 458.123 63.5595 450.993 61.7839 444.167C60.0083 437.34 56.7738 430.98 52.3034 425.524C49.7651 422.488 46.8547 419.783 43.6407 417.475C41.467 423.206 38.563 428.875 38.563 428.875Z" fill="#F2F2F2"/>
<path d="M0.254886 465.45C0.254575 465.555 0.274944 465.658 0.314797 465.755C0.354649 465.852 0.413202 465.939 0.487105 466.013C0.561008 466.087 0.648786 466.146 0.745404 466.186C0.842021 466.226 0.945562 466.246 1.05007 466.246H190.341C190.552 466.246 190.754 466.162 190.903 466.013C191.053 465.864 191.136 465.661 191.136 465.45C191.136 465.24 191.053 465.037 190.903 464.888C190.754 464.739 190.552 464.655 190.341 464.655H1.05007C0.945563 464.655 0.842019 464.675 0.745404 464.715C0.648788 464.755 0.561007 464.814 0.487105 464.887C0.413202 464.961 0.35465 465.049 0.314797 465.146C0.274943 465.242 0.254578 465.346 0.254886 465.45Z" fill="#CCCCCC"/>
<path d="M197.701 202.853H193.691V204.189H197.701V202.853Z" fill="#3F3D56"/>
<path d="M205.794 202.854V204.19H213.892V202.854H205.794ZM221.991 202.854V204.19H230.083V202.854H221.991ZM238.181 202.854V204.19H246.279V202.854H238.181ZM254.371 202.854V204.19H262.47V202.854H254.371ZM270.568 202.854V204.19H278.66V202.854H270.568ZM286.758 202.854V204.19H294.857V202.854H286.758ZM302.949 202.854V204.19H311.047V202.854H302.949ZM319.145 202.854V204.19H327.237V202.854H319.145ZM335.336 202.854V204.19H343.434V202.854H335.336ZM351.526 202.854V204.19H359.624V202.854H351.526ZM367.716 202.854V204.19H375.814V202.854H367.716ZM383.913 202.854V204.19H392.005V202.854H383.913ZM400.103 202.854V204.19H400.704C400.725 204.05 400.745 203.916 400.765 203.782C400.811 203.475 400.851 203.168 400.898 202.854H400.103Z" fill="#3F3D56"/>
<path d="M267.192 176.125H263.183V177.461H267.192V176.125Z" fill="#3F3D56"/>
<path d="M275.285 176.126V177.462H283.384V176.126H275.285ZM291.482 176.126V177.462H299.574V176.126H291.482ZM307.672 176.126V177.462H315.771V176.126H307.672ZM323.862 176.126V177.462H331.961V176.126H323.862ZM340.059 176.126V177.462H348.151V176.126H340.059ZM356.25 176.126V177.462H364.348V176.126H356.25ZM372.44 176.126V177.462H380.538V176.126H372.44ZM388.637 176.126V177.462H396.728V176.126H388.637Z" fill="#3F3D56"/>
<path d="M341.361 196.17H337.352V197.506H341.361V196.17Z" fill="#3F3D56"/>
<path d="M349.455 196.171V197.507H357.554V196.171H349.455ZM365.652 196.171V197.507H373.744V196.171H365.652ZM381.842 196.171V197.507H389.941V196.171H381.842ZM398.032 196.171V197.507H401.554C401.58 197.207 401.614 196.906 401.647 196.605C401.661 196.465 401.674 196.318 401.687 196.171H398.032Z" fill="#3F3D56"/>
<path d="M102.559 335.541V292.503C102.56 291.632 102.906 290.797 103.522 290.181C104.138 289.565 104.973 289.219 105.844 289.218H138.347C139.218 289.219 140.053 289.565 140.669 290.181C141.285 290.797 141.632 291.632 141.633 292.503V335.541C141.632 336.412 141.285 337.247 140.669 337.863C140.053 338.479 139.218 338.826 138.347 338.827H105.844C104.973 338.826 104.138 338.479 103.522 337.863C102.906 337.247 102.56 336.412 102.559 335.541Z" fill="#E6E6E6"/>
<path d="M105.052 322.541V294.873C105.053 294.057 105.377 293.275 105.954 292.698C106.531 292.121 107.313 291.797 108.129 291.796H136.062C136.878 291.797 137.66 292.121 138.237 292.698C138.814 293.275 139.139 294.057 139.14 294.873V333.171C139.139 333.986 138.814 334.768 138.237 335.345C137.66 335.922 136.878 336.247 136.062 336.248H118.758C115.124 336.243 111.64 334.798 109.071 332.229C106.501 329.659 105.056 326.175 105.052 322.541Z" fill="white"/>
<path d="M109.575 302.594C109.576 301.797 109.893 301.032 110.457 300.469C111.021 299.905 111.785 299.588 112.582 299.587H131.96C132.757 299.587 133.522 299.904 134.086 300.468C134.65 301.031 134.966 301.796 134.966 302.594C134.966 303.391 134.65 304.156 134.086 304.72C133.522 305.284 132.757 305.601 131.96 305.601H112.582C111.785 305.6 111.021 305.283 110.457 304.719C109.893 304.155 109.576 303.391 109.575 302.594Z" fill="#E6E6E6"/>
<path d="M109.575 311.947C109.576 311.15 109.893 310.386 110.457 309.822C111.021 309.258 111.785 308.941 112.582 308.94H131.96C132.757 308.94 133.522 309.257 134.086 309.821C134.65 310.385 134.966 311.15 134.966 311.947C134.966 312.745 134.65 313.51 134.086 314.073C133.522 314.637 132.757 314.954 131.96 314.954H112.582C111.785 314.953 111.021 314.636 110.457 314.072C109.893 313.509 109.576 312.744 109.575 311.947Z" fill="#E6E6E6"/>
<path d="M109.575 321.303C109.576 320.506 109.893 319.741 110.457 319.178C111.021 318.614 111.785 318.297 112.582 318.296H131.96C132.757 318.296 133.522 318.613 134.086 319.177C134.65 319.74 134.966 320.505 134.966 321.303C134.966 322.1 134.65 322.865 134.086 323.429C133.522 323.993 132.757 324.31 131.96 324.31H112.582C111.785 324.309 111.021 323.992 110.457 323.428C109.893 322.864 109.576 322.1 109.575 321.303Z" fill="#E6E6E6"/>
<path d="M103.327 320.507C102.596 320.52 101.871 320.373 101.203 320.076C100.535 319.779 99.9406 319.339 99.461 318.788C98.9814 318.236 98.6286 317.586 98.4274 316.883C98.2263 316.181 98.1816 315.442 98.2967 314.72L70.5469 299.526L78.6686 295.134L104.384 310.578C105.584 310.852 106.642 311.556 107.357 312.558C108.073 313.559 108.396 314.788 108.265 316.012C108.135 317.236 107.56 318.369 106.65 319.198C105.74 320.026 104.558 320.492 103.327 320.507Z" fill="#FFB8B8"/>
<path d="M87.1903 309.275L77.35 307.527L73.8266 304.598L71.4568 303.391L63.2898 297.658L63.2654 297.586L50.2883 259.226C49.6924 256.076 50.3233 252.817 52.0518 250.117C53.7803 247.416 56.4756 245.479 59.5858 244.701C61.3057 244.273 63.0968 244.215 64.841 244.529C66.5853 244.843 68.2432 245.523 69.7057 246.524C71.1682 247.526 72.402 248.825 73.326 250.337C74.2501 251.85 74.8433 253.541 75.0667 255.299L79.243 288.176L86.1659 295.325L89.1949 295.911L89.8921 299.173L92.5358 303.261L87.1903 309.275Z" fill="#3F3D56"/>
</g>
<defs>
<clipPath id="clip0_147_5422">
<rect width="402.321" height="465.673" fill="white" transform="translate(0.254883 0.572266)"/>
</clipPath>
</defs>
</svg>
