<svg width="539" height="465" viewBox="0 0 539 465" fill="none" xmlns="http://www.w3.org/2000/svg">
<g opacity="0.4">
<path d="M318.963 279.931C291.292 263.955 246.568 263.955 219.076 279.931C218.945 280.008 218.821 280.081 218.697 280.158C200.998 290.597 194.968 305.19 200.574 318.483C203.553 325.56 209.831 332.273 219.394 337.795C247.068 353.775 291.803 353.775 319.299 337.795C346.791 321.819 346.641 295.911 318.963 279.931Z" fill="white"/>
<path d="M331.848 272.446C297.067 252.363 240.663 252.363 206.104 272.446C205.177 272.986 204.272 273.53 203.4 274.085L205.166 274.789C205.955 274.289 206.769 273.8 207.608 273.314C241.335 253.714 296.41 253.714 330.359 273.314C364.315 292.919 364.498 324.82 330.768 344.421C297.03 364.025 241.959 364.025 208.002 344.421C195.548 337.23 187.631 328.382 184.281 319.093L182.146 319.17C185.547 328.755 193.676 337.88 206.513 345.289C241.302 365.376 297.713 365.372 332.275 345.289C366.834 325.207 366.644 292.535 331.855 272.449L331.848 272.446Z" fill="white"/>
<path d="M344.405 265.146C302.659 241.045 234.936 241.045 193.465 265.146C191.764 266.135 190.128 267.154 188.563 268.194L193.268 270.059C194.614 269.176 196.016 268.311 197.472 267.464C236.75 244.637 300.885 244.637 340.422 267.464C379.967 290.295 380.175 327.445 340.897 350.272C301.608 373.103 237.473 373.103 197.929 350.272C182.909 341.6 173.568 330.861 169.911 319.623L164.231 319.831C168.009 331.836 177.912 343.326 193.946 352.586C235.703 376.695 303.422 376.695 344.905 352.586C386.38 328.485 386.157 289.258 344.405 265.15V265.146Z" fill="white"/>
<path d="M370.101 250.213C314.091 217.877 223.249 217.877 167.6 250.213C111.945 282.556 112.24 335.175 168.25 367.514C191.822 381.125 221.559 389.005 252.245 391.159L251.949 384.133C224.446 381.994 197.87 374.814 176.711 362.597C125.399 332.974 125.128 284.764 176.116 255.133C227.092 225.509 310.32 225.509 361.633 255.133C394.877 274.328 406.703 301.313 397.053 325.998L408.43 328.378C419.551 301.218 406.747 271.376 370.097 250.216L370.101 250.213Z" fill="white"/>
<path d="M159.044 372.873C97.917 337.581 97.5885 280.159 158.318 244.863C219.047 209.571 318.189 209.571 379.317 244.863C440.444 280.155 440.765 337.578 380.032 372.873C319.303 408.166 220.168 408.166 159.04 372.873H159.044ZM381.31 243.706C351.164 226.299 311.156 216.714 268.662 216.714C226.168 216.714 186.27 226.303 156.318 243.706C126.365 261.113 109.947 284.254 110.09 308.866C110.228 333.482 126.906 356.623 157.051 374.03C187.197 391.438 227.209 401.019 269.702 401.019C312.189 401.019 352.091 391.434 382.043 374.03C411.995 356.623 428.41 333.482 428.275 308.87C428.136 284.254 411.455 261.113 381.31 243.71V243.706Z" fill="white"/>
<path d="M471.781 267.467L466.912 268.307C488.578 303.628 481.318 343.585 445.07 375.676L449.14 377.355C472.04 357.204 484.264 333.584 484.121 308.862C484.041 294.543 479.815 280.589 471.784 267.467H471.781ZM413.048 216.63C373.321 195.773 322.377 184.363 268.485 184.363C211.073 184.363 157.166 197.314 116.705 220.827C76.2335 244.348 54.0558 275.614 54.2493 308.866C54.4318 342.122 76.9672 373.388 117.694 396.901C158.429 420.419 212.478 433.369 269.89 433.365C304.266 433.369 337.379 428.726 367.109 419.948L364.63 417.4C285.979 440.457 187.125 432.945 121.18 394.876C39.036 347.451 38.6016 270.282 120.216 222.853C199.349 176.866 327.002 175.468 409.562 218.659L413.052 216.63H413.048Z" fill="white"/>
<path d="M443.037 207.829C419.421 194.193 391.896 183.633 361.258 176.446C331.667 169.504 300.419 165.985 268.379 165.985C236.339 165.985 205.131 169.504 175.617 176.446C145.059 183.637 117.654 194.196 94.1916 207.833C70.7182 221.473 52.5848 237.376 40.2696 255.101C28.3778 272.22 22.4027 290.309 22.5122 308.866C22.6181 327.426 28.7903 345.516 40.8756 362.631C41.6603 363.744 42.467 364.847 43.2955 365.942L48.0625 365.029C9.14578 313.764 25.6293 251.736 97.6993 209.852C191.637 155.262 344.997 155.258 439.551 209.852C534.109 264.445 534.609 353.276 440.671 407.866C382.216 441.837 300.755 454.674 224.768 446.363L223.56 449.217C238.777 450.896 254.29 451.747 269.985 451.739C302.021 451.739 333.233 448.221 362.75 441.278C393.312 434.088 420.702 423.528 444.176 409.888C467.638 396.252 485.786 380.348 498.098 362.624C509.986 345.501 515.957 327.416 515.851 308.855C515.753 290.298 509.573 272.209 497.488 255.09C484.983 237.369 466.66 221.462 443.037 207.822V207.829Z" fill="white"/>
<path d="M458.888 198.617C433.115 183.735 403.09 172.212 369.656 164.372C351.008 159.995 331.746 156.867 312.062 155.006L312.416 155.944C365.663 161.05 416.796 175.468 457.892 199.197C562.633 259.671 563.188 358.068 459.136 418.535C355.077 479.009 185.201 479.009 80.4596 418.535C-24.2709 358.068 -24.8258 259.671 79.2332 199.197C91.7163 191.944 105.156 185.56 119.311 180.049L118.978 179.155C104.426 184.808 90.8111 191.309 78.2331 198.617C52.6207 213.501 32.8157 230.854 19.3908 250.199C6.41493 268.876 -0.100331 288.619 0.00917006 308.866C0.122321 329.113 6.86756 348.852 20.0515 367.533C33.699 386.875 53.6902 404.23 79.4632 419.108C105.243 433.993 135.269 445.512 168.707 453.36C201.002 460.934 235.097 464.774 270.057 464.777C305.014 464.777 339.068 460.934 371.28 453.36C404.623 445.516 434.524 433.993 460.136 419.108C485.741 404.227 505.539 386.871 518.968 367.533C531.94 348.852 538.463 329.109 538.349 308.866C538.233 288.615 531.495 268.876 518.307 250.199C504.66 230.854 484.668 213.501 458.885 198.617H458.888Z" fill="white"/>
</g>
<g clip-path="url(#clip0_147_5492)">
<path d="M343.147 195.087H32.6193C30.1145 195.084 27.7132 194.091 25.9421 192.324C24.171 190.557 23.1747 188.162 23.1719 185.664V11.0156H352.594V185.664C352.591 188.162 351.595 190.557 349.824 192.324C348.053 194.091 345.652 195.084 343.147 195.087Z" fill="#E6E6E6"/>
<path d="M330.788 177.049H44.9762C43.6859 177.048 42.4488 176.536 41.5364 175.626C40.6241 174.715 40.1108 173.482 40.1094 172.195V33.9072C40.1108 32.6202 40.6241 31.3863 41.5364 30.4762C42.4488 29.5661 43.6859 29.0542 44.9762 29.0527H330.788C332.079 29.0542 333.316 29.5661 334.228 30.4762C335.141 31.3863 335.654 32.6202 335.655 33.9072V172.195C335.654 173.482 335.141 174.715 334.228 175.626C333.316 176.536 332.079 177.048 330.788 177.049Z" fill="white"/>
<path d="M353.255 17.381H22.5107V9.81507C22.5136 7.31668 23.5098 4.92142 25.2809 3.15479C27.0521 1.38816 29.4534 0.394424 31.9581 0.391602H343.808C346.313 0.394424 348.714 1.38816 350.485 3.15479C352.256 4.92142 353.252 7.31668 353.255 9.81507V17.381Z" fill="#4141DB"/>
<path d="M112.583 124.101H61.7125C60.4222 124.1 59.1852 123.588 58.2728 122.678C57.3604 121.768 56.8472 120.534 56.8457 119.247V85.8897C56.8472 84.6026 57.3604 83.3687 58.2728 82.4586C59.1852 81.5485 60.4222 81.0366 61.7125 81.0352H112.583C113.873 81.0366 115.11 81.5485 116.023 82.4586C116.935 83.3687 117.448 84.6026 117.45 85.8897V119.247C117.448 120.534 116.935 121.768 116.023 122.678C115.11 123.588 113.873 124.1 112.583 124.101Z" fill="#E6E6E6"/>
<path d="M316.213 86.4354H155.484C154.766 86.4354 154.078 86.1509 153.57 85.6446C153.063 85.1382 152.777 84.4514 152.777 83.7353C152.777 83.0192 153.063 82.3324 153.57 81.826C154.078 81.3196 154.766 81.0352 155.484 81.0352H316.213C316.931 81.0352 317.62 81.3196 318.127 81.826C318.635 82.3324 318.92 83.0192 318.92 83.7353C318.92 84.4514 318.635 85.1382 318.127 85.6446C317.62 86.1509 316.931 86.4354 316.213 86.4354Z" fill="#E6E6E6"/>
<path d="M316.213 105.751H155.484C154.766 105.751 154.078 105.466 153.57 104.96C153.063 104.453 152.777 103.767 152.777 103.051C152.777 102.334 153.063 101.648 153.57 101.141C154.078 100.635 154.766 100.351 155.484 100.351H316.213C316.931 100.351 317.619 100.635 318.127 101.141C318.635 101.648 318.92 102.334 318.92 103.051C318.92 103.767 318.635 104.453 318.127 104.96C317.619 105.466 316.931 105.751 316.213 105.751Z" fill="#E6E6E6"/>
<path d="M316.213 125.067H155.484C154.766 125.067 154.078 124.783 153.57 124.276C153.063 123.77 152.777 123.083 152.777 122.367C152.777 121.651 153.063 120.964 153.57 120.458C154.078 119.951 154.766 119.667 155.484 119.667H316.213C316.931 119.667 317.62 119.951 318.127 120.458C318.635 120.964 318.92 121.651 318.92 122.367C318.92 123.083 318.635 123.77 318.127 124.276C317.62 124.783 316.931 125.067 316.213 125.067Z" fill="#E6E6E6"/>
<path d="M262.731 318.112H255.711L252.372 291.104H262.732L262.731 318.112Z" fill="#A0616A"/>
<path d="M250.698 316.11H264.235V324.613H242.174C242.174 323.496 242.394 322.39 242.823 321.359C243.251 320.327 243.879 319.39 244.67 318.601C245.462 317.811 246.402 317.185 247.436 316.758C248.47 316.33 249.578 316.11 250.698 316.11Z" fill="#2F2E41"/>
<path d="M291.932 318.112H284.912L281.573 291.104H291.933L291.932 318.112Z" fill="#A0616A"/>
<path d="M279.899 316.11H293.437V324.613H271.375C271.375 323.496 271.595 322.39 272.024 321.359C272.452 320.327 273.08 319.39 273.872 318.601C274.663 317.811 275.603 317.185 276.637 316.758C277.671 316.33 278.779 316.11 279.899 316.11Z" fill="#2F2E41"/>
<path d="M291.039 311.904H283.893C283.248 311.901 282.627 311.657 282.152 311.221C281.677 310.785 281.382 310.188 281.326 309.547L275.27 236.787C275.252 236.575 275.157 236.378 275.001 236.233C274.846 236.088 274.642 236.005 274.429 236.002C274.217 235.998 274.01 236.073 273.85 236.213C273.689 236.352 273.587 236.546 273.561 236.757L264.865 309.638C264.79 310.262 264.488 310.838 264.017 311.256C263.545 311.673 262.937 311.904 262.306 311.904H253.532C252.852 311.903 252.199 311.634 251.717 311.155C251.234 310.676 250.961 310.027 250.957 309.348C250.937 304.77 250.906 300.159 250.875 295.547C250.596 254.471 250.308 211.997 258.907 195.357L258.986 195.205L290.014 194.676L290.092 194.846C299.48 215.309 296.631 261.024 293.875 305.234L293.61 309.494C293.569 310.146 293.28 310.758 292.802 311.206C292.325 311.653 291.694 311.903 291.039 311.904Z" fill="#2F2E41"/>
<path d="M276.338 139.987C284.105 139.987 290.401 133.707 290.401 125.96C290.401 118.213 284.105 111.933 276.338 111.933C268.572 111.933 262.275 118.213 262.275 125.96C262.275 133.707 268.572 139.987 276.338 139.987Z" fill="#A0616A"/>
<path d="M257.167 197.784L257.554 181.701L254.764 169.153C254.06 166.046 254.101 162.816 254.884 159.728C255.668 156.639 257.172 153.779 259.273 151.381C261.318 148.994 263.899 147.123 266.807 145.92C269.714 144.718 272.866 144.218 276.004 144.461H276.004C276.206 144.477 276.409 144.494 276.613 144.512C279.294 144.753 281.899 145.53 284.273 146.796C286.647 148.063 288.741 149.793 290.43 151.884C292.154 153.986 293.437 156.414 294.2 159.021C294.964 161.629 295.194 164.363 294.875 167.061L291.501 196.483L257.167 197.784Z" fill="#4141DB"/>
<path d="M245.22 226.608C245.883 226.092 246.425 225.436 246.807 224.688C247.189 223.94 247.402 223.117 247.431 222.278C247.459 221.439 247.303 220.604 246.974 219.831C246.644 219.059 246.148 218.368 245.522 217.807L253.439 198.988L242.99 200.946L237.073 218.516C236.198 219.629 235.763 221.022 235.85 222.433C235.936 223.844 236.539 225.174 237.543 226.172C238.547 227.169 239.883 227.765 241.298 227.845C242.713 227.925 244.108 227.485 245.22 226.608Z" fill="#A0616A"/>
<path d="M304.964 228.864C304.331 228.31 303.827 227.625 303.489 226.857C303.15 226.088 302.984 225.255 303.004 224.415C303.023 223.576 303.226 222.751 303.599 221.998C303.973 221.246 304.507 220.584 305.164 220.06L298.333 200.822L308.654 203.37L313.559 221.248C314.369 222.408 314.724 223.824 314.557 225.227C314.39 226.631 313.712 227.925 312.653 228.864C311.593 229.803 310.226 230.321 308.808 230.321C307.391 230.321 306.023 229.803 304.964 228.864Z" fill="#A0616A"/>
<path d="M246.477 217.386C246.114 217.386 245.755 217.31 245.424 217.162L239.4 214.471C238.82 214.212 238.357 213.75 238.099 213.172C237.84 212.593 237.805 211.94 238.001 211.338L248.105 180.029L252.01 156.442C252.149 155.604 252.455 154.803 252.911 154.085C253.367 153.367 253.963 152.749 254.663 152.265C255.363 151.782 256.154 151.444 256.988 151.272C257.822 151.1 258.682 151.097 259.517 151.263C260.352 151.429 261.145 151.761 261.849 152.239C262.553 152.717 263.154 153.332 263.615 154.046C264.076 154.76 264.388 155.559 264.533 156.396C264.678 157.233 264.653 158.091 264.458 158.918L258.524 184.214L248.942 215.566C248.781 216.093 248.455 216.554 248.011 216.882C247.567 217.21 247.029 217.387 246.477 217.386V217.386Z" fill="#4141DB"/>
<path d="M303.942 217.387C303.389 217.387 302.852 217.21 302.408 216.882C301.964 216.555 301.638 216.093 301.477 215.566L291.9 184.232L285.96 158.918C285.766 158.091 285.741 157.234 285.886 156.397C286.031 155.559 286.343 154.76 286.804 154.046C287.265 153.332 287.865 152.717 288.569 152.239C289.273 151.761 290.066 151.429 290.901 151.263C291.737 151.097 292.597 151.1 293.431 151.272C294.265 151.444 295.055 151.782 295.756 152.265C296.456 152.749 297.052 153.368 297.508 154.085C297.963 154.803 298.27 155.604 298.408 156.443L302.323 180.071L312.418 211.338C312.613 211.94 312.578 212.594 312.32 213.172C312.062 213.75 311.598 214.213 311.019 214.471L304.995 217.162C304.663 217.31 304.305 217.387 303.942 217.387Z" fill="#4141DB"/>
<path d="M276.628 110.455C272.719 108.766 267.614 110.867 266.036 114.814C265.055 117.27 265.354 120.04 265.895 122.628C266.437 125.217 267.208 127.8 267.125 130.443C267.042 133.085 265.901 135.89 263.551 137.113C262.146 137.843 260.504 137.925 258.981 138.36C257.459 138.796 255.887 139.815 255.668 141.379C255.336 143.746 258.215 145.549 258.196 147.939C258.175 150.471 255.003 151.975 254.591 154.474C254.521 155.206 254.637 155.943 254.931 156.618C255.224 157.292 255.684 157.881 256.268 158.329C257.447 159.212 258.785 159.858 260.21 160.233C271.174 163.728 282.847 164.391 294.138 162.161C296.382 161.714 298.691 161.111 300.434 159.633C302.177 158.155 303.174 155.569 302.172 153.517C300.67 150.442 295.9 150.267 294.238 147.275C293.241 145.48 293.7 143.276 293.91 141.235C294.452 135.963 295.703 129.804 294.39 124.669C293.204 120.03 290.628 114.035 286.947 110.962C284.305 108.758 279.262 109.762 275.886 110.442L276.628 110.455Z" fill="#2F2E41"/>
<path d="M369.837 312.386C361.581 323.415 344.443 324.576 344.443 324.576C344.443 324.576 340.69 307.855 348.946 296.826C357.203 285.798 374.341 284.637 374.341 284.637C374.341 284.637 378.093 301.357 369.837 312.386Z" fill="#E6E6E6"/>
<path d="M327.778 316.533C333.226 323.81 344.535 324.576 344.535 324.576C344.535 324.576 347.011 313.543 341.563 306.265C336.115 298.988 324.806 298.222 324.806 298.222C324.806 298.222 322.329 309.255 327.778 316.533Z" fill="#E6E6E6"/>
</g>
<defs>
<clipPath id="clip0_147_5492">
<rect width="369" height="325" fill="white" transform="translate(22.5107 0.391602)"/>
</clipPath>
</defs>
</svg>
