<svg width="112" height="48" viewBox="0 0 112 48" fill="none" xmlns="http://www.w3.org/2000/svg">
<g opacity="0.8">
<g clip-path="url(#clip0_246_18109)">
<path d="M15.2185 37.3019V26.0712H4.20929V37.3019H0.0966797V11.3972H4.20929V22.1131H15.2185V11.3972H19.2994V37.3019H15.2185Z" fill="#313131"/>
<path d="M106.331 37.3018L101.333 28.1949H96.3024V37.366H92.1582V11.6222H102.218C104.406 11.6221 106.504 12.5015 108.057 14.0688C109.61 15.636 110.49 17.764 110.507 19.9889C110.481 21.5562 110.014 23.083 109.162 24.3889C108.31 25.6949 107.108 26.7252 105.698 27.3581L105.16 27.6477L110.823 37.3018H106.331ZM96.2709 24.4298H102.218C102.795 24.4049 103.36 24.2644 103.883 24.016C104.405 23.7675 104.874 23.4162 105.263 22.9823C105.651 22.5485 105.951 22.0407 106.145 21.4881C106.339 20.9358 106.424 20.3495 106.394 19.7636C106.428 18.5997 106.008 17.4692 105.226 16.6191C104.444 15.769 103.362 15.2683 102.218 15.2263H96.2709V24.4298Z" fill="#313131"/>
<path d="M52.9601 47.6961L41.9508 15.9989L34.643 37.3019H30.1509L39.072 11.3972H44.7665L57.4839 47.6961H52.9601Z" fill="#313131"/>
<path d="M58.4653 0.970734L69.4744 32.7001L76.8139 11.397H81.2745L72.3533 37.3017H66.6589L53.9731 0.970734H58.4653Z" fill="#313131"/>
</g>
</g>
<defs>
<clipPath id="clip0_246_18109">
<rect width="111.807" height="46.7252" fill="white" transform="translate(0.0966797 0.970734)"/>
</clipPath>
</defs>
</svg>
