<svg width="139" height="48" viewBox="0 0 139 48" fill="none" xmlns="http://www.w3.org/2000/svg">
<g opacity="0.8">
<path d="M12.9298 33.6231H24.7114V46.1945C28.699 46.2607 32.6942 46.1583 36.6743 45.8933V17.8351C36.6592 15.4498 34.2122 13.5222 31.2215 13.5342H24.6661V26.4128H12.9298V17.8351C12.9147 15.4498 10.4753 13.5222 7.47704 13.5342H0.921631V42.8272C4.80352 44.0079 8.8289 44.8572 12.9374 45.3692V33.6231H12.9298Z" fill="#313131"/>
<path d="M47.3083 10.9807H41.2061V18.8235H52.7611V15.2756C52.746 12.8902 50.3066 10.9626 47.3083 10.9747" fill="#313131"/>
<path d="M52.7611 22.1064H41.2061V45.5445C44.8463 45.2192 48.6904 44.7614 52.7611 44.1711V22.1064Z" fill="#313131"/>
<path d="M125.557 47.1531C128.737 47.1531 131.652 46.7435 134.288 45.9182C135.496 45.4303 136.032 44.2858 135.534 43.2859L134.786 41.7619C134.356 40.8042 133.057 40.2801 131.841 40.5753C129.703 41.1174 127.808 41.3885 126.161 41.3885C124.296 41.3885 122.74 41.0632 121.494 40.4066C120.24 39.75 119.553 38.9308 119.425 37.9369H136.433C137.309 37.9369 138.026 37.3948 138.056 36.696C138.056 32.2325 136.825 28.793 134.371 26.3836C131.916 23.9741 128.389 22.7754 123.79 22.7754C119.455 22.7754 115.958 23.9018 113.277 26.1486C110.604 28.3955 109.267 31.3169 109.267 34.901C109.267 38.6658 110.777 41.6656 113.791 43.8943H113.806C116.766 44.7918 119.659 45.8279 122.468 46.9905C123.495 47.0989 124.53 47.1531 125.565 47.1531M120.663 29.5821C121.509 28.8894 122.68 28.5099 123.888 28.534C125.112 28.5159 126.297 28.8894 127.166 29.5821C128.065 30.2809 128.646 31.2266 128.91 32.4193H119.062C119.266 31.2266 119.795 30.2748 120.656 29.5821" fill="#313131"/>
<path d="M87.7509 28.287H92.2748L92.2446 40.2379C96.202 40.4608 100.046 41.1836 103.762 41.8342L103.717 28.2328C103.717 28.2328 107.81 28.2388 107.81 28.2328C107.81 28.2267 109.154 24.3475 114.547 22.1067H105.846C104.608 22.1067 103.596 21.3116 103.588 20.3237C103.588 20.2575 103.588 20.1972 103.603 20.131C103.769 18.8178 104.645 17.3239 107.749 17.2517C108.943 17.2215 110.227 17.4203 111.609 17.7516L114.063 12.0773C112.039 11.5051 110.317 11.1256 108.89 10.9449C107.523 10.7642 106.133 10.6738 104.744 10.6738C100.726 10.6738 97.6369 11.4569 95.4921 13.0291C93.3472 14.6012 92.2748 16.8541 92.2672 19.7876V22.1007H87.7358V28.287H87.7509Z" fill="#313131"/>
<path d="M91.3154 5.7223C90.3412 2.09004 87.0408 1.35515 84.9941 1.25275C81.0065 1.05397 77.8723 3.24055 77.8723 3.24055C77.9403 3.19236 77.608 2.63216 77.5702 2.55988C77.4343 2.32496 77.2757 2.10208 77.0944 1.88523C76.7319 1.45755 76.2712 1.07806 75.7425 0.782903C74.5946 0.126325 72.918 -0.0423356 71.838 0.282941C69.9197 0.867235 68.3791 2.07799 68.3035 3.72244C68.2507 4.7043 68.6056 6.04155 69.1947 6.90293C70.32 8.53534 71.7323 8.92085 72.2911 8.71605C72.85 8.51125 72.5404 7.7101 71.8531 6.74632C71.332 6.01143 70.6296 4.35493 70.8109 3.52367C70.9619 2.84299 71.6568 2.29484 72.4422 2.0298C73.3258 1.71054 74.368 1.86716 75.0553 2.42134C75.7199 2.94539 76.2032 3.59595 76.4525 4.31276C76.6035 4.69225 76.7168 5.07777 76.7848 5.4693C76.8678 5.90903 77.0416 6.50537 76.9509 6.9451C77.2228 6.07769 77.7892 5.28257 78.5898 4.65611C78.839 4.48142 79.0807 4.31276 79.3375 4.15012C80.1078 3.72847 80.9688 3.43933 81.8826 3.29477C82.298 3.24055 82.7133 3.22248 83.1287 3.24658C84.9413 3.36705 86.5877 4.43926 86.9879 5.83675C87.9622 9.25216 84.7525 9.91475 83.2118 10.5533C75.2214 13.8602 78.2122 17.9262 78.2122 17.9262C78.2122 17.9262 79.2015 14.0831 83.748 12.9627C87.6601 11.9929 92.5842 10.487 91.3079 5.72832" fill="#313131"/>
<path d="M84.254 39.8643V22.1006H72.699V40.3522C75.6066 40.033 78.5445 39.8643 81.4823 39.8523C82.4037 39.8463 83.3326 39.8523 84.2616 39.8643" fill="#313131"/>
<path d="M68.8624 16.0221V15.1788C68.8624 12.8055 66.423 10.9502 63.4172 10.9502H57.3074V43.1888C61.1062 42.2671 64.9579 41.5082 68.8624 40.9239V16.0221Z" fill="#313131"/>
<path d="M68.8624 41.0881V40.9375C64.9654 41.5218 61.1062 42.2747 57.3074 43.1964V43.4674C61.0986 42.4976 64.9579 41.7025 68.8624 41.0821" fill="#313131"/>
</g>
</svg>
