<svg width="411" height="243" viewBox="0 0 411 243" fill="none" xmlns="http://www.w3.org/2000/svg">
<g clip-path="url(#clip0_149_7245)">
<path d="M95.2841 227.04L101.862 224.953C102.681 221.423 102.627 217.746 101.703 214.242C99.0606 220.118 91.3079 221.557 86.8907 226.247C85.5242 227.72 84.5067 229.482 83.9137 231.402C83.3207 233.322 83.1673 235.35 83.4649 237.338L82.0811 242.032C85.3131 241.756 88.4468 240.782 91.2663 239.178C94.0858 237.575 96.5241 235.379 98.4132 232.742C99.4583 231.252 100.312 229.636 100.953 227.933C98.1481 227.652 95.2841 227.04 95.2841 227.04Z" fill="#F2F2F2"/>
<path d="M328.377 227.04L321.8 224.953C320.98 221.423 321.034 217.746 321.958 214.242C324.601 220.118 332.353 221.557 336.771 226.247C338.137 227.72 339.154 229.482 339.747 231.402C340.341 233.322 340.494 235.35 340.196 237.338L341.58 242.032C338.348 241.756 335.214 240.782 332.395 239.178C329.575 237.575 327.137 235.379 325.248 232.742C324.203 231.252 323.35 229.636 322.708 227.933C325.513 227.652 328.377 227.04 328.377 227.04Z" fill="#F2F2F2"/>
<path d="M88.2551 218.36L93.2117 213.559C92.371 210.034 90.6825 206.767 88.2929 204.043C88.5481 210.48 82.2512 215.226 80.389 221.394C79.823 223.322 79.698 225.352 80.0235 227.335C80.3489 229.318 81.1164 231.202 82.2691 232.848L83.1241 237.667C85.8937 235.978 88.2643 233.709 90.0726 231.017C91.8809 228.324 93.0839 225.271 93.5987 222.068C93.8697 220.268 93.913 218.442 93.7276 216.631C91.0918 217.631 88.2551 218.36 88.2551 218.36Z" fill="#F2F2F2"/>
<path d="M101.506 128.975C100.965 129.047 100.414 129 99.8926 128.837C99.3712 128.674 98.8921 128.398 98.4888 128.029C98.0856 127.661 97.768 127.208 97.5585 126.704C97.3491 126.199 97.2528 125.655 97.2764 125.109L73.3857 100.869L80.0551 96.2256L101.442 121.513C102.356 121.614 103.202 122.046 103.818 122.728C104.435 123.411 104.78 124.296 104.788 125.215C104.796 126.135 104.466 127.026 103.861 127.719C103.257 128.411 102.418 128.858 101.506 128.975L101.506 128.975Z" fill="#FFB6B6"/>
<path d="M66.0356 90.3833C66.0356 90.3833 64.3424 91.3982 67.1606 94.4886C69.4168 96.9627 79.2623 108.858 83.1921 111.342C82.9788 111.957 82.9764 112.626 83.1853 113.244C83.3942 113.861 83.8024 114.391 84.3458 114.751L90.3879 107.21C90.0428 105.049 88.5852 105.159 87.7664 105.422L83.9755 100.71L75.3864 86.3027L67.2465 89.628L66.0356 90.3833Z" fill="#4141DB"/>
<path d="M47.168 234.819H51.6721L53.8157 217.446H47.168V234.819Z" fill="#FFB6B6"/>
<path d="M45.6983 231.734L52.894 231.305V234.388L59.7352 239.112C60.0731 239.346 60.3276 239.681 60.4615 240.069C60.5954 240.457 60.6017 240.878 60.4795 241.27C60.3573 241.662 60.113 242.005 59.7822 242.248C59.4515 242.492 59.0516 242.623 58.6409 242.623H50.0742L48.5976 239.573L48.021 242.623H44.791L45.6983 231.734Z" fill="white"/>
<path d="M72.4688 234.819H76.9729L79.1164 217.446H72.4688V234.819Z" fill="#FFB6B6"/>
<path d="M70.9981 231.734L78.1938 231.305V234.388L85.035 239.112C85.3729 239.346 85.6274 239.681 85.7613 240.069C85.8952 240.457 85.9015 240.878 85.7793 241.27C85.6571 241.662 85.4128 242.005 85.082 242.248C84.7513 242.492 84.3514 242.623 83.9407 242.623H75.374L73.8974 239.573L73.3208 242.623H70.0908L70.9981 231.734Z" fill="white"/>
<path d="M45.2255 219.839H45.2744L46.1406 191.592C45.5801 190.51 45.2956 189.307 45.3125 188.09C45.3294 186.872 45.6472 185.677 46.2376 184.612L46.3616 184.387L46.04 182.897C45.627 180.982 45.8165 178.986 46.5826 177.183L47.3907 150.833C44.5037 132.123 58.2621 119.921 58.2621 119.921L55.7479 109.345L80.6395 106.896L78.8725 119.921L83.2973 135.124C86.2224 163.623 85.6917 191.394 81.0498 218.3L81.1764 218.364C81.632 218.522 81.8275 219.153 81.613 219.774C81.3985 220.396 80.8552 220.772 80.3996 220.615L69.515 220.236C69.0593 220.079 68.8638 219.448 69.0783 218.826C69.2928 218.205 69.8361 217.829 70.2917 217.986L71.0318 218.36L69.4535 191.103L69.6286 186.124L69.2678 180.476L67.5994 155.07L61.2842 186.312L54.8335 220.153C55.0114 220.314 55.1363 220.526 55.1917 220.759C55.247 220.993 55.2302 221.238 55.1436 221.461C55.0569 221.685 54.9044 221.877 54.7062 222.013C54.508 222.148 54.2734 222.22 54.0334 222.219H45.2255C44.9098 222.219 44.607 222.094 44.3838 221.871C44.1606 221.648 44.0352 221.345 44.0352 221.029C44.0352 220.713 44.1606 220.411 44.3838 220.187C44.607 219.964 44.9098 219.839 45.2255 219.839Z" fill="white"/>
<path d="M283.917 115.004H129.969C124.792 114.998 119.83 112.939 116.17 109.279C112.51 105.619 110.451 100.656 110.445 95.48V29.3059C110.451 24.1394 112.502 19.1853 116.15 15.5268C119.798 11.8683 124.746 9.803 129.913 9.78246C153.822 3.16465 179.208 -0.108592 205.378 0.0535954C230.28 0.208013 256.719 3.48125 283.963 9.78246C289.131 9.80086 294.082 11.8652 297.732 15.5239C301.382 19.1826 303.434 24.1379 303.44 29.3059V95.48C303.434 100.656 301.375 105.619 297.715 109.279C294.055 112.939 289.093 114.998 283.917 115.004ZM129.969 10.5986C125.009 10.6042 120.254 12.577 116.747 16.0841C113.24 19.5912 111.267 24.3462 111.261 29.3059V95.4801C111.267 100.44 113.24 105.195 116.747 108.702C120.254 112.209 125.009 114.182 129.969 114.187H283.917C288.876 114.182 293.631 112.209 297.138 108.702C300.646 105.195 302.618 100.44 302.624 95.4801V29.3059C302.618 24.3462 300.646 19.5912 297.138 16.0841C293.631 12.577 288.876 10.6042 283.917 10.5986L283.825 10.588C227.447 -2.45751 177.156 -2.4593 130.078 10.5838L129.969 10.5986Z" fill="white"/>
<path d="M127.253 97.7348C127.192 97.7348 127.132 97.7228 127.076 97.6996C127.02 97.6764 126.969 97.6424 126.926 97.5995C126.883 97.5566 126.849 97.5057 126.826 97.4496C126.803 97.3935 126.791 97.3335 126.791 97.2728V27.5157C126.791 27.3932 126.84 27.2757 126.926 27.189C127.013 27.1024 127.13 27.0537 127.253 27.0537C127.376 27.0537 127.493 27.1024 127.58 27.189C127.666 27.2757 127.715 27.3932 127.715 27.5157V97.2728C127.715 97.3335 127.703 97.3935 127.68 97.4496C127.657 97.5057 127.623 97.5566 127.58 97.5995C127.537 97.6424 127.486 97.6764 127.43 97.6996C127.374 97.7228 127.314 97.7348 127.253 97.7348Z" fill="white"/>
<path d="M167.65 97.7348C167.59 97.7348 167.53 97.7228 167.474 97.6996C167.418 97.6764 167.367 97.6424 167.324 97.5995C167.281 97.5566 167.247 97.5057 167.224 97.4496C167.2 97.3935 167.188 97.3335 167.188 97.2728V27.5157C167.188 27.3932 167.237 27.2757 167.324 27.189C167.41 27.1024 167.528 27.0537 167.65 27.0537C167.773 27.0537 167.89 27.1024 167.977 27.189C168.064 27.2757 168.112 27.3932 168.112 27.5157V97.2728C168.112 97.3335 168.1 97.3935 168.077 97.4496C168.054 97.5057 168.02 97.5566 167.977 97.5995C167.934 97.6424 167.883 97.6764 167.827 97.6996C167.771 97.7228 167.711 97.7348 167.65 97.7348Z" fill="white"/>
<path d="M208.049 97.7348C207.988 97.7348 207.928 97.7228 207.872 97.6996C207.816 97.6764 207.765 97.6424 207.722 97.5995C207.679 97.5566 207.645 97.5057 207.622 97.4496C207.599 97.3935 207.587 97.3335 207.587 97.2728V27.5157C207.587 27.3932 207.636 27.2757 207.722 27.189C207.809 27.1024 207.926 27.0537 208.049 27.0537C208.171 27.0537 208.289 27.1024 208.376 27.189C208.462 27.2757 208.511 27.3932 208.511 27.5157V97.2728C208.511 97.3335 208.499 97.3935 208.476 97.4496C208.453 97.5057 208.418 97.5566 208.376 97.5995C208.333 97.6424 208.282 97.6764 208.226 97.6996C208.17 97.7228 208.11 97.7348 208.049 97.7348Z" fill="white"/>
<path d="M248.446 97.7348C248.386 97.7348 248.326 97.7228 248.27 97.6996C248.213 97.6764 248.163 97.6424 248.12 97.5995C248.077 97.5566 248.043 97.5057 248.02 97.4496C247.996 97.3935 247.984 97.3335 247.984 97.2728V27.5157C247.984 27.3932 248.033 27.2757 248.12 27.189C248.206 27.1024 248.324 27.0537 248.446 27.0537C248.569 27.0537 248.686 27.1024 248.773 27.189C248.86 27.2757 248.908 27.3932 248.908 27.5157V97.2728C248.908 97.3335 248.896 97.3935 248.873 97.4496C248.85 97.5057 248.816 97.5566 248.773 97.5995C248.73 97.6424 248.679 97.6764 248.623 97.6996C248.567 97.7228 248.507 97.7348 248.446 97.7348Z" fill="white"/>
<path d="M123.654 37.9102C123.654 37.8495 123.666 37.7895 123.689 37.7334C123.713 37.6774 123.747 37.6264 123.79 37.5835C123.832 37.5406 123.883 37.5066 123.939 37.4834C123.996 37.4602 124.056 37.4482 124.116 37.4482H289.767C289.828 37.4482 289.888 37.4602 289.944 37.4834C290 37.5066 290.051 37.5407 290.094 37.5835C290.137 37.6264 290.171 37.6774 290.194 37.7334C290.217 37.7895 290.229 37.8495 290.229 37.9102C290.229 37.9709 290.217 38.031 290.194 38.087C290.171 38.143 290.137 38.194 290.094 38.2369C290.051 38.2798 290 38.3138 289.944 38.337C289.888 38.3602 289.828 38.3722 289.767 38.3722H124.116C124.056 38.3722 123.996 38.3603 123.939 38.337C123.883 38.3138 123.832 38.2798 123.79 38.2369C123.747 38.194 123.713 38.1431 123.689 38.087C123.666 38.031 123.654 37.9709 123.654 37.9102Z" fill="white"/>
<path d="M123.654 89.3252C123.654 89.2646 123.666 89.2045 123.689 89.1484C123.713 89.0924 123.747 89.0414 123.79 88.9985C123.832 88.9556 123.883 88.9216 123.939 88.8984C123.996 88.8752 124.056 88.8633 124.116 88.8633H289.767C289.89 88.8633 290.007 88.9119 290.094 88.9986C290.181 89.0852 290.229 89.2027 290.229 89.3252C290.229 89.4478 290.181 89.5653 290.094 89.6519C290.007 89.7385 289.89 89.7872 289.767 89.7872H124.116C124.056 89.7872 123.996 89.7753 123.939 89.7521C123.883 89.7289 123.832 89.6948 123.79 89.6519C123.747 89.609 123.713 89.5581 123.689 89.5021C123.666 89.446 123.654 89.3859 123.654 89.3252Z" fill="white"/>
<path d="M123.654 63.6172C123.654 63.5566 123.666 63.4965 123.689 63.4404C123.713 63.3844 123.747 63.3334 123.79 63.2905C123.832 63.2476 123.883 63.2136 123.939 63.1904C123.996 63.1672 124.056 63.1553 124.116 63.1553H289.767C289.89 63.1553 290.007 63.2039 290.094 63.2906C290.181 63.3772 290.229 63.4947 290.229 63.6172C290.229 63.7398 290.181 63.8573 290.094 63.9439C290.007 64.0305 289.89 64.0792 289.767 64.0792H124.116C124.056 64.0792 123.996 64.0673 123.939 64.0441C123.883 64.0209 123.832 63.9868 123.79 63.9439C123.747 63.901 123.713 63.8501 123.689 63.794C123.666 63.738 123.654 63.6779 123.654 63.6172Z" fill="white"/>
<path d="M287.555 97.7348C287.615 97.7348 287.676 97.7228 287.732 97.6996C287.788 97.6764 287.839 97.6424 287.881 97.5995C287.924 97.5566 287.958 97.5057 287.982 97.4496C288.005 97.3935 288.017 97.3335 288.017 97.2728V27.5157C288.017 27.3932 287.968 27.2757 287.881 27.189C287.795 27.1024 287.677 27.0537 287.555 27.0537C287.432 27.0537 287.315 27.1024 287.228 27.189C287.141 27.2757 287.093 27.3932 287.093 27.5157V97.2728C287.093 97.3335 287.105 97.3935 287.128 97.4496C287.151 97.5057 287.185 97.5566 287.228 97.5995C287.271 97.6424 287.322 97.6764 287.378 97.6996C287.434 97.7228 287.494 97.7348 287.555 97.7348Z" fill="white"/>
<path d="M152.451 60.4878H140.815C140.175 60.4873 139.557 60.256 139.074 59.8362C138.591 59.4164 138.275 58.8365 138.185 58.2028C137.467 52.9159 137.467 47.5561 138.185 42.2692C138.274 41.6431 138.583 41.0693 139.057 40.6505C139.531 40.2318 140.138 39.9957 140.771 39.9846C144.432 38.3436 148.374 38.3438 152.491 39.9844C152.874 39.9895 153.252 40.0784 153.597 40.245C153.943 40.4116 154.247 40.6517 154.49 40.9486C154.743 41.2574 154.924 41.6187 155.02 42.0063C155.116 42.3938 155.125 42.7979 155.045 43.1891C154.11 47.8405 154.11 52.6315 155.045 57.2829C155.125 57.6741 155.116 58.0782 155.02 58.4657C154.924 58.8533 154.743 59.2146 154.49 59.5234C154.243 59.8255 153.932 60.0688 153.579 60.2356C153.227 60.4025 152.841 60.4886 152.451 60.4878Z" fill="#4141DB"/>
<path d="M151.232 46.0601H141.438C141.276 46.0601 141.12 45.9956 141.005 45.8808C140.891 45.7661 140.826 45.6104 140.826 45.448C140.826 45.2857 140.891 45.13 141.005 45.0152C141.12 44.9004 141.276 44.8359 141.438 44.8359H151.232C151.394 44.8359 151.55 44.9004 151.664 45.0152C151.779 45.13 151.844 45.2857 151.844 45.448C151.844 45.6104 151.779 45.7661 151.664 45.8808C151.55 45.9956 151.394 46.0601 151.232 46.0601Z" fill="white"/>
<path d="M151.232 50.9556H141.438C141.276 50.9556 141.12 50.8911 141.005 50.7763C140.891 50.6616 140.826 50.5059 140.826 50.3435C140.826 50.1812 140.891 50.0255 141.005 49.9107C141.12 49.7959 141.276 49.7314 141.438 49.7314H151.232C151.394 49.7314 151.55 49.7959 151.664 49.9107C151.779 50.0255 151.844 50.1812 151.844 50.3435C151.844 50.5059 151.779 50.6616 151.664 50.7763C151.55 50.8911 151.394 50.9556 151.232 50.9556Z" fill="white"/>
<path d="M151.232 55.8521H141.438C141.276 55.8521 141.12 55.7876 141.005 55.6728C140.891 55.558 140.826 55.4024 140.826 55.24C140.826 55.0777 140.891 54.922 141.005 54.8072C141.12 54.6924 141.276 54.6279 141.438 54.6279H151.232C151.394 54.6279 151.55 54.6924 151.664 54.8072C151.779 54.922 151.844 55.0777 151.844 55.24C151.844 55.4024 151.779 55.558 151.664 55.6728C151.55 55.7876 151.394 55.8521 151.232 55.8521Z" fill="white"/>
<path d="M236.103 87.4204H224.468C223.828 87.4199 223.209 87.1886 222.726 86.7688C222.243 86.3491 221.928 85.7691 221.838 85.1354C221.119 79.8485 221.119 74.4887 221.838 69.2018C221.926 68.5758 222.236 68.0019 222.709 67.5832C223.183 67.1645 223.791 66.9283 224.423 66.9172C228.084 65.2762 232.026 65.2764 236.143 66.917C236.527 66.9221 236.904 67.0111 237.25 67.1776C237.595 67.3442 237.9 67.5843 238.143 67.8812C238.396 68.19 238.577 68.5513 238.673 68.9389C238.769 69.3264 238.777 69.7305 238.697 70.1217C237.763 74.7732 237.763 79.5641 238.697 84.2155C238.777 84.6067 238.769 85.0108 238.673 85.3983C238.577 85.7859 238.396 86.1472 238.143 86.456C237.896 86.7582 237.584 87.0015 237.232 87.1683C236.879 87.3351 236.493 87.4212 236.103 87.4204Z" fill="#4141DB"/>
<path d="M234.884 72.9918H225.091C224.928 72.9918 224.773 72.9273 224.658 72.8125C224.543 72.6977 224.479 72.542 224.479 72.3797C224.479 72.2173 224.543 72.0617 224.658 71.9469C224.773 71.8321 224.928 71.7676 225.091 71.7676H234.884C235.046 71.7676 235.202 71.8321 235.317 71.9469C235.432 72.0617 235.496 72.2173 235.496 72.3797C235.496 72.542 235.432 72.6977 235.317 72.8125C235.202 72.9273 235.046 72.9918 234.884 72.9918Z" fill="white"/>
<path d="M234.884 77.8882H225.091C224.928 77.8882 224.773 77.8238 224.658 77.709C224.543 77.5942 224.479 77.4385 224.479 77.2762C224.479 77.1138 224.543 76.9581 224.658 76.8433C224.773 76.7286 224.928 76.6641 225.091 76.6641H234.884C235.046 76.6641 235.202 76.7286 235.317 76.8433C235.432 76.9581 235.496 77.1138 235.496 77.2762C235.496 77.4385 235.432 77.5942 235.317 77.709C235.202 77.8238 235.046 77.8882 234.884 77.8882Z" fill="white"/>
<path d="M271.604 60.4878H259.969C259.329 60.4873 258.71 60.256 258.227 59.8362C257.744 59.4164 257.429 58.8365 257.339 58.2028C256.62 52.9159 256.62 47.5561 257.339 42.2692C257.427 41.6431 257.737 41.0693 258.21 40.6505C258.684 40.2318 259.292 39.9957 259.924 39.9846C263.585 38.3436 267.527 38.3438 271.644 39.9844C272.028 39.9895 272.405 40.0784 272.751 40.245C273.096 40.4116 273.401 40.6517 273.643 40.9486C273.897 41.2574 274.078 41.6187 274.174 42.0063C274.27 42.3938 274.278 42.7979 274.198 43.1891C273.264 47.8405 273.264 52.6315 274.198 57.2829C274.278 57.6741 274.27 58.0782 274.174 58.4657C274.078 58.8533 273.897 59.2146 273.643 59.5234C273.397 59.8255 273.085 60.0688 272.733 60.2356C272.38 60.4025 271.994 60.4886 271.604 60.4878Z" fill="#FD6584"/>
<path d="M270.386 50.9556H260.593C260.43 50.9556 260.275 50.8911 260.16 50.7763C260.045 50.6616 259.98 50.5059 259.98 50.3435C259.98 50.1812 260.045 50.0255 260.16 49.9107C260.275 49.7959 260.43 49.7314 260.593 49.7314H270.386C270.548 49.7314 270.704 49.7959 270.819 49.9107C270.934 50.0255 270.998 50.1812 270.998 50.3435C270.998 50.5059 270.934 50.6616 270.819 50.7763C270.704 50.8911 270.548 50.9556 270.386 50.9556Z" fill="white"/>
<path d="M270.386 55.8521H260.593C260.43 55.8521 260.275 55.7876 260.16 55.6728C260.045 55.558 259.98 55.4024 259.98 55.24C259.98 55.0777 260.045 54.922 260.16 54.8072C260.275 54.6924 260.43 54.6279 260.593 54.6279H270.386C270.548 54.6279 270.704 54.6924 270.819 54.8072C270.934 54.922 270.998 55.0777 270.998 55.24C270.998 55.4024 270.934 55.558 270.819 55.6728C270.704 55.7876 270.548 55.8521 270.386 55.8521Z" fill="white"/>
<path d="M75.1976 58.6876C72.8826 55.14 69.1026 52.352 64.8931 52.1165C60.6833 51.8809 55.6243 55.4658 53.5466 59.1545C49.7462 65.9019 49.6963 73.6394 54.9307 78.3322C55.6416 78.0911 58.5984 77.7454 59.321 77.5127L59.7793 76.6852L60.3446 77.1882C66.8135 77.8337 68.8047 73.4355 79.1554 70.6624C78.5501 66.4678 77.5127 62.2352 75.1976 58.6876Z" fill="white"/>
<path d="M66.3122 75.3959C71.0366 75.3959 74.8666 71.5659 74.8666 66.8415C74.8666 62.117 71.0366 58.2871 66.3122 58.2871C61.5877 58.2871 57.7578 62.117 57.7578 66.8415C57.7578 71.5659 61.5877 75.3959 66.3122 75.3959Z" fill="#FFB7B7"/>
<path d="M75.791 82.7365L70.8958 79.7994L61.1055 78.8203L52.4521 83.2267L52.5389 96.6877L58.0285 110.649L79.4148 115.057L81.91 102.787C81.91 102.787 88.2737 94.2401 81.4205 89.345L75.791 82.7365Z" fill="#4141DB"/>
<path d="M69.5112 53.851C67.6577 53.3314 65.6985 53.3192 63.8387 53.8159C61.9788 54.3126 60.2865 55.2998 58.9388 56.6743C57.5911 58.0488 56.6373 59.7602 56.1774 61.6295C55.7175 63.4988 55.7682 65.4573 56.3242 67.3003C61.5342 67.7162 66.6841 67.2297 70.7437 63.5435L71.1049 60.3816L72.5862 63.0276C74.0802 62.6074 75.5765 62.1845 77.0751 61.7589C76.6167 59.8941 75.6769 58.1823 74.3495 56.7946C73.0222 55.4069 71.3538 54.3919 69.5112 53.851Z" fill="white"/>
<path d="M54.8379 140.857C54.3727 140.57 53.976 140.185 53.6758 139.729C53.3755 139.272 53.1789 138.756 53.0999 138.215C53.0209 137.675 53.0614 137.123 53.2185 136.6C53.3756 136.077 53.6456 135.594 54.0093 135.187L50.8525 101.299L58.9548 101.925L59.51 135.039C60.1543 135.695 60.5354 136.565 60.5811 137.484C60.6268 138.402 60.334 139.306 59.7581 140.023C59.1822 140.74 58.3632 141.221 57.4564 141.375C56.5495 141.528 55.6179 141.344 54.8379 140.857H54.8379Z" fill="#FFB6B6"/>
<path d="M52.7518 83.3616C52.7518 83.3616 50.7985 83.0758 51.0248 87.2521C51.2059 90.5955 50.345 111.204 51.816 115.614C51.2612 115.955 50.8359 116.472 50.607 117.082C50.3781 117.692 50.3587 118.361 50.5518 118.983L60.0018 116.969C61.1027 115.077 60.8746 113.134 60.0745 112.819L60.1215 106.772L62.21 86.8377L54.1674 83.5431L52.7518 83.3616Z" fill="#4141DB"/>
<path d="M101.05 143.991C100.797 143.682 100.616 143.321 100.52 142.934C100.424 142.546 100.416 142.142 100.496 141.751C101.43 137.099 101.43 132.308 100.496 127.657C100.416 127.266 100.424 126.862 100.52 126.474C100.616 126.086 100.797 125.725 101.05 125.416C101.293 125.119 101.598 124.879 101.943 124.713C102.288 124.546 102.666 124.457 103.05 124.452C107.166 122.812 111.109 122.811 114.77 124.452C115.402 124.464 116.01 124.7 116.483 125.118C116.957 125.537 117.266 126.111 117.355 126.737C118.074 132.024 118.074 137.384 117.355 142.671C117.265 143.304 116.95 143.884 116.467 144.304C115.984 144.724 115.365 144.955 114.725 144.956H103.09C102.699 144.956 102.314 144.87 101.961 144.703C101.608 144.537 101.297 144.293 101.05 143.991Z" fill="#4141DB"/>
<path d="M104.308 130.528H114.102C114.264 130.528 114.42 130.463 114.535 130.349C114.649 130.234 114.714 130.078 114.714 129.916C114.714 129.753 114.649 129.598 114.535 129.483C114.42 129.368 114.264 129.304 114.102 129.304H104.308C104.146 129.304 103.99 129.368 103.876 129.483C103.761 129.598 103.696 129.753 103.696 129.916C103.696 130.078 103.761 130.234 103.876 130.349C103.99 130.463 104.146 130.528 104.308 130.528Z" fill="white"/>
<path d="M104.308 135.423H114.102C114.264 135.423 114.42 135.359 114.535 135.244C114.649 135.129 114.714 134.974 114.714 134.811C114.714 134.649 114.649 134.493 114.535 134.379C114.42 134.264 114.264 134.199 114.102 134.199H104.308C104.146 134.199 103.99 134.264 103.876 134.379C103.761 134.493 103.696 134.649 103.696 134.811C103.696 134.974 103.761 135.129 103.876 135.244C103.99 135.359 104.146 135.423 104.308 135.423Z" fill="white"/>
<path d="M104.308 140.321H114.102C114.264 140.321 114.42 140.256 114.535 140.142C114.649 140.027 114.714 139.871 114.714 139.709C114.714 139.546 114.649 139.391 114.535 139.276C114.42 139.161 114.264 139.097 114.102 139.097H104.308C104.146 139.097 103.99 139.161 103.876 139.276C103.761 139.391 103.696 139.546 103.696 139.709C103.696 139.871 103.761 140.027 103.876 140.142C103.99 140.256 104.146 140.321 104.308 140.321Z" fill="white"/>
<path d="M373.487 237.758H368.469L366.081 218.399L373.488 218.4L373.487 237.758Z" fill="#A0616A"/>
<path d="M374.768 242.623L358.585 242.622V242.417C358.585 240.747 359.249 239.145 360.43 237.963C361.611 236.782 363.213 236.119 364.884 236.119H364.884L367.84 233.876L373.355 236.119L374.768 236.119L374.768 242.623Z" fill="white"/>
<path d="M350.171 237.758H345.152L342.765 218.399L350.172 218.4L350.171 237.758Z" fill="#A0616A"/>
<path d="M351.451 242.623L335.269 242.622V242.417C335.269 240.747 335.932 239.145 337.114 237.963C338.295 236.782 339.897 236.119 341.567 236.119H341.568L344.524 233.876L350.039 236.119L351.452 236.119L351.451 242.623Z" fill="white"/>
<path d="M377.483 113.818L370.848 134.22L349.932 133.535L356.359 113.818H377.483Z" fill="white"/>
<path d="M346.159 131.819L385.592 132.848L384.906 152.05C384.906 152.05 385.592 157.193 384.22 158.565C382.849 159.936 382.163 159.936 382.849 162.337C383.534 164.737 379.911 168.657 380.351 169.097C380.791 169.537 381.82 171.938 381.82 171.938L378.391 191.482C378.391 191.482 375.991 225.429 375.305 226.114C374.619 226.8 373.933 226.114 374.619 227.829C375.305 229.543 375.991 228.858 375.305 229.543C374.698 230.198 374.125 230.885 373.591 231.601H365.3C365.3 231.601 364.675 228.172 364.675 227.829C364.675 227.486 363.99 225.429 363.99 225.086C363.99 224.743 364.596 224.137 364.596 224.137C364.805 223.44 364.947 222.724 365.018 222C365.018 221.314 367.076 194.911 367.076 194.911L362.961 160.622L353.017 194.226C353.017 194.226 353.017 223.714 352.331 224.4C351.646 225.086 351.646 224.743 351.988 226.114C352.331 227.486 353.703 227.143 352.674 228.172C351.646 229.2 351.303 227.486 351.646 229.2L351.988 230.915L341.702 231.062C341.702 231.062 340.33 228.172 341.016 227.143C341.702 226.114 341.661 226.395 340.824 224.712C339.987 223.028 339.644 222.686 339.987 222.343C340.33 222 340.33 220.176 340.33 220.176L342.045 187.368C342.045 187.368 342.387 152.736 342.387 151.707C342.413 151.178 342.316 150.65 342.103 150.164V148.768L343.416 143.821L346.159 131.819Z" fill="white"/>
<path d="M349.76 81.9283L361.761 77.4707L381.649 78.8423L386.254 80.9912C387.874 81.7471 389.192 83.0255 389.997 84.6211C390.803 86.2167 391.048 88.0368 390.695 89.7888L384.735 119.303L386.276 133.504C386.276 133.504 361.247 152.392 341.702 146.563C341.702 146.563 342.045 141.077 342.388 139.02C342.731 136.962 343.417 136.962 343.76 135.934C344.102 134.905 344.788 135.934 344.102 133.876C343.417 131.819 349.589 117.418 349.589 117.418L349.76 81.9283Z" fill="white"/>
<path d="M368.73 84.5382L378.513 78.627L375.306 72.8428H364.912L360.795 77.8305L368.73 84.5382Z" fill="white"/>
<path d="M372.094 133.14C372.653 133.173 373.212 133.082 373.732 132.875C374.252 132.667 374.721 132.349 375.104 131.941C375.488 131.533 375.777 131.046 375.952 130.515C376.127 129.983 376.183 129.419 376.117 128.863L388.352 122.909L382.268 119.305L371.583 125.512C370.656 125.685 369.826 126.192 369.248 126.937C368.671 127.682 368.387 128.613 368.45 129.553C368.513 130.494 368.919 131.378 369.591 132.039C370.262 132.7 371.153 133.092 372.094 133.14Z" fill="#A0616A"/>
<path d="M376.902 130.667L374.771 122.851L386.387 107.462C382.627 102.928 381.307 96.2343 382.235 86.4191C382.03 85.3605 382.234 84.2634 382.805 83.3492C383.377 82.4349 384.275 81.7716 385.316 81.4931C386.358 81.2146 387.467 81.3417 388.418 81.8486C389.37 82.3555 390.094 83.2046 390.444 84.2244C393.073 91.8909 397.646 108.39 397.05 109.283C396.364 110.312 396.129 110.769 397.208 111.752C398.487 112.917 397.809 117.884 397.225 118.597C396.693 119.246 376.902 130.667 376.902 130.667Z" fill="white"/>
<path d="M315.403 121C315.925 121.202 316.485 121.287 317.043 121.25C317.602 121.212 318.145 121.052 318.635 120.782C319.125 120.511 319.55 120.137 319.88 119.684C320.21 119.232 320.436 118.713 320.543 118.163L334.015 116.25L329.331 110.953L317.256 113.582C316.321 113.463 315.375 113.691 314.597 114.223C313.819 114.755 313.263 115.554 313.035 116.468C312.806 117.382 312.921 118.349 313.358 119.184C313.794 120.019 314.522 120.666 315.403 121Z" fill="#A0616A"/>
<path d="M321.184 119.873L323.229 112.033L340.165 102.492C341.389 94.7384 342.156 92.2105 347.85 84.162C348.2 83.1418 348.923 82.292 349.874 81.7842C350.825 81.2763 351.934 81.1482 352.976 81.4256C354.018 81.7031 354.916 82.3655 355.489 83.2792C356.061 84.1928 356.266 85.2897 356.062 86.3485C354.522 94.3055 347.555 115.63 346.694 115.957C345.909 116.255 321.184 119.873 321.184 119.873Z" fill="white"/>
<path d="M369.99 69.2417C375.861 69.2417 380.62 64.4826 380.62 58.6121C380.62 52.7415 375.861 47.9824 369.99 47.9824C364.119 47.9824 359.36 52.7415 359.36 58.6121C359.36 64.4826 364.119 69.2417 369.99 69.2417Z" fill="#A0616A"/>
<path d="M358.734 50.9013C359.016 48.3591 362.688 45.8169 369.185 44.1221C375.682 42.4273 379.072 49.7714 379.072 49.7714C383.591 52.0312 380.908 64.0361 379.495 62.9062C379.481 62.8949 379.467 62.8839 379.453 62.8732C378.532 62.1949 377.759 61.336 377.181 60.3488C376.603 59.3616 376.232 58.267 376.092 57.1318L375.767 54.2063C374.279 55.3464 372.602 56.3117 370.802 56.0248L373.005 53.8558C370.917 54.7642 368.829 55.6727 366.741 56.5811L368.815 53.7279L368.717 53.6316C367.746 54.4501 366.632 55.081 365.431 55.4923C364.06 55.885 362.419 55.6725 361.48 54.6001C361.227 54.3041 361.036 53.9605 360.919 53.5895C359.214 54.757 358.875 57.2569 358.875 57.2569C358.875 57.2569 358.451 53.4435 358.734 50.9013Z" fill="white"/>
<path d="M316.083 127.904H304.447C303.807 127.903 303.189 127.672 302.706 127.252C302.223 126.832 301.907 126.252 301.817 125.619C301.099 120.332 301.099 114.972 301.817 109.685C301.906 109.059 302.215 108.485 302.689 108.067C303.163 107.648 303.77 107.412 304.402 107.401C308.063 105.76 312.006 105.76 316.123 107.4C316.506 107.406 316.884 107.494 317.229 107.661C317.575 107.828 317.879 108.068 318.122 108.365C318.375 108.673 318.556 109.035 318.652 109.422C318.748 109.81 318.756 110.214 318.677 110.605C317.742 115.257 317.742 120.047 318.677 124.699C318.756 125.09 318.748 125.494 318.652 125.882C318.556 126.269 318.375 126.631 318.122 126.939C317.875 127.242 317.564 127.485 317.211 127.652C316.858 127.818 316.473 127.905 316.083 127.904Z" fill="#3F3D56"/>
<path d="M314.864 113.474H305.071C304.909 113.474 304.753 113.41 304.638 113.295C304.523 113.18 304.459 113.024 304.459 112.862C304.459 112.7 304.523 112.544 304.638 112.429C304.753 112.314 304.909 112.25 305.071 112.25H314.864C315.027 112.25 315.183 112.314 315.297 112.429C315.412 112.544 315.477 112.7 315.477 112.862C315.477 113.024 315.412 113.18 315.297 113.295C315.183 113.41 315.027 113.474 314.864 113.474Z" fill="white"/>
<path d="M314.864 118.372H305.071C304.909 118.372 304.753 118.307 304.638 118.192C304.523 118.078 304.459 117.922 304.459 117.76C304.459 117.597 304.523 117.442 304.638 117.327C304.753 117.212 304.909 117.147 305.071 117.147H314.864C315.027 117.147 315.183 117.212 315.297 117.327C315.412 117.442 315.477 117.597 315.477 117.76C315.477 117.922 315.412 118.078 315.297 118.192C315.183 118.307 315.027 118.372 314.864 118.372Z" fill="white"/>
<path d="M314.864 123.268H305.071C304.909 123.268 304.753 123.204 304.638 123.089C304.523 122.974 304.459 122.818 304.459 122.656C304.459 122.494 304.523 122.338 304.638 122.223C304.753 122.108 304.909 122.044 305.071 122.044H314.864C315.027 122.044 315.183 122.108 315.297 122.223C315.412 122.338 315.477 122.494 315.477 122.656C315.477 122.818 315.412 122.974 315.297 123.089C315.183 123.204 315.027 123.268 314.864 123.268Z" fill="white"/>
<path d="M266.306 29.7719C270.588 29.7719 274.059 26.3007 274.059 22.0187C274.059 17.7368 270.588 14.2656 266.306 14.2656C262.024 14.2656 258.553 17.7368 258.553 22.0187C258.553 26.3007 262.024 29.7719 266.306 29.7719Z" fill="white"/>
<path d="M270.286 18.7886C270.17 18.6773 270.015 18.6152 269.853 18.6152C269.692 18.6152 269.537 18.6773 269.421 18.7886C267.775 20.1006 266.298 21.6099 265.021 23.2825C264.707 22.6759 264.394 22.0694 264.081 21.4628C263.719 20.7627 262.662 21.3812 263.023 22.0807C263.482 22.9679 263.94 23.855 264.399 24.7422C264.454 24.8328 264.532 24.9076 264.624 24.9595C264.717 25.0115 264.821 25.0387 264.927 25.0387C265.034 25.0387 265.138 25.0115 265.231 24.9595C265.323 24.9076 265.401 24.8328 265.456 24.7422C266.817 22.8258 268.443 21.1126 270.286 19.6542C270.4 19.5389 270.464 19.3834 270.464 19.2214C270.464 19.0593 270.4 18.9038 270.286 18.7886Z" fill="white"/>
<path d="M228.357 29.7719C232.639 29.7719 236.11 26.3007 236.11 22.0187C236.11 17.7368 232.639 14.2656 228.357 14.2656C224.075 14.2656 220.604 17.7368 220.604 22.0187C220.604 26.3007 224.075 29.7719 228.357 29.7719Z" fill="white"/>
<path d="M232.337 18.7886C232.22 18.6773 232.065 18.6152 231.904 18.6152C231.743 18.6152 231.588 18.6773 231.471 18.7886C229.826 20.1006 228.349 21.6099 227.072 23.2825C226.758 22.6759 226.445 22.0694 226.131 21.4628C225.769 20.7627 224.713 21.3812 225.074 22.0807C225.533 22.9679 225.991 23.855 226.45 24.7422C226.505 24.8328 226.583 24.9076 226.675 24.9595C226.768 25.0115 226.872 25.0387 226.978 25.0387C227.084 25.0387 227.189 25.0115 227.281 24.9595C227.374 24.9076 227.452 24.8328 227.507 24.7422C228.868 22.8258 230.494 21.1126 232.337 19.6542C232.451 19.5389 232.515 19.3834 232.515 19.2214C232.515 19.0593 232.451 18.9038 232.337 18.7886Z" fill="white"/>
<path d="M148.377 28.9555C152.659 28.9555 156.13 25.4843 156.13 21.2023C156.13 16.9204 152.659 13.4492 148.377 13.4492C144.095 13.4492 140.624 16.9204 140.624 21.2023C140.624 25.4843 144.095 28.9555 148.377 28.9555Z" fill="white"/>
<path d="M152.357 17.9722C152.241 17.8609 152.086 17.7988 151.925 17.7988C151.763 17.7988 151.608 17.8609 151.492 17.9722C149.847 19.2842 148.369 20.7935 147.092 22.466C146.779 21.8595 146.465 21.253 146.152 20.6464C145.79 19.9463 144.733 20.5648 145.095 21.2643C145.553 22.1515 146.012 23.0386 146.47 23.9258C146.526 24.0164 146.603 24.0912 146.696 24.1431C146.788 24.195 146.893 24.2223 146.999 24.2223C147.105 24.2223 147.209 24.195 147.302 24.1431C147.394 24.0912 147.472 24.0164 147.527 23.9258C148.888 22.0094 150.514 20.2962 152.357 18.8378C152.471 18.7225 152.535 18.567 152.535 18.405C152.535 18.2429 152.471 18.0874 152.357 17.9722Z" fill="white"/>
<path d="M55.7471 60.7853C58.6769 60.7853 61.0519 58.4103 61.0519 55.4805C61.0519 52.5508 58.6769 50.1758 55.7471 50.1758C52.8174 50.1758 50.4424 52.5508 50.4424 55.4805C50.4424 58.4103 52.8174 60.7853 55.7471 60.7853Z" fill="white"/>
<path d="M116.239 242.478C116.239 242.542 116.226 242.605 116.202 242.664C116.178 242.723 116.142 242.776 116.097 242.822C116.052 242.867 115.998 242.902 115.939 242.927C115.88 242.951 115.817 242.964 115.753 242.963H1.37817C1.24938 242.963 1.12587 242.912 1.0348 242.821C0.943738 242.73 0.892578 242.607 0.892578 242.478C0.892578 242.349 0.943738 242.225 1.0348 242.134C1.12587 242.043 1.24938 241.992 1.37817 241.992H115.753C115.817 241.992 115.88 242.004 115.939 242.029C115.998 242.053 116.052 242.089 116.097 242.134C116.142 242.179 116.178 242.233 116.202 242.292C116.226 242.351 116.239 242.414 116.239 242.478Z" fill="#CCCCCC"/>
<path d="M410.45 242.478C410.45 242.542 410.437 242.605 410.413 242.664C410.389 242.723 410.353 242.776 410.308 242.822C410.263 242.867 410.209 242.902 410.15 242.927C410.091 242.951 410.028 242.964 409.964 242.963H295.589C295.46 242.963 295.337 242.912 295.246 242.821C295.155 242.73 295.104 242.607 295.104 242.478C295.104 242.349 295.155 242.225 295.246 242.134C295.337 242.043 295.46 241.992 295.589 241.992H409.964C410.028 241.992 410.091 242.004 410.15 242.029C410.209 242.053 410.263 242.089 410.308 242.134C410.353 242.179 410.389 242.233 410.413 242.292C410.437 242.351 410.45 242.414 410.45 242.478Z" fill="#CCCCCC"/>
<path d="M54.1498 50.159C53.2316 49.9036 52.2765 50.3313 51.4195 50.7484L48.3711 52.2319C50.4815 52.4171 52.592 52.6022 54.7025 52.7874L54.9357 52.3486C55.6661 51.7363 55.0681 50.4144 54.1498 50.159Z" fill="white"/>
</g>
<defs>
<clipPath id="clip0_149_7245">
<rect width="409.557" height="242.914" fill="white" transform="translate(0.892578 0.0478516)"/>
</clipPath>
</defs>
</svg>
