<svg width="84" height="51" viewBox="0 0 84 51" fill="none" xmlns="http://www.w3.org/2000/svg">
<path d="M74.3168 2.82735C70.1005 1.51114 62.5112 0.853027 54.5069 0.853027L14.8101 1.20748C14.08 1.20748 13.2175 1.49497 12.8337 1.96835L3.97654 7.8128C3.10562 8.88425 4.30013 10.0919 5.95296 10.0919H45.7929C50.2208 10.0919 53.2847 10.339 54.9857 10.832C57.8198 11.6552 59.1478 13.3825 58.971 16.0149C58.6871 20.1044 54.8437 23.6894 47.4409 26.7686C43.1825 28.5201 38.4225 29.9033 33.1621 30.9147C31.4864 31.2368 30.0441 29.961 30.7021 28.7418L36.5796 18.1774C37.2893 16.8601 35.5703 15.5404 33.8393 16.0738L16.0768 21.498C15.5499 21.6608 15.1313 21.9783 14.916 22.3801L0.860949 48.5958C0.293165 49.6546 1.31325 50.8138 2.8121 50.8138H15.2396C16.0997 50.8138 16.8732 50.4155 17.1956 49.807L22.7074 39.3754C22.9805 38.8593 23.5843 38.4887 24.3025 38.3917C37.1666 36.6575 52.1756 34.1579 61.5657 30.8939C76.0538 25.9108 83.2979 19.9405 83.2979 12.983C83.2979 8.30581 80.3037 4.68391 74.318 2.82735H74.3168Z" fill="#595959"/>
</svg>
