<svg width="316" height="274" viewBox="0 0 316 274" fill="none" xmlns="http://www.w3.org/2000/svg">
<g clip-path="url(#clip0_149_7235)">
<path d="M263.304 65.3249H261.807V24.3604C261.807 18.0721 259.305 12.0414 254.853 7.5949C250.401 3.14841 244.363 0.650395 238.066 0.650391H151.165C148.047 0.650391 144.96 1.26367 142.08 2.45521C139.2 3.64675 136.583 5.39322 134.378 7.5949C132.174 9.79658 130.425 12.4104 129.232 15.287C128.039 18.1636 127.425 21.2468 127.425 24.3604V249.098C127.425 255.387 129.926 261.417 134.378 265.864C138.83 270.31 144.869 272.808 151.165 272.808H238.066C244.363 272.808 250.401 270.31 254.853 265.864C259.305 261.417 261.806 255.387 261.806 249.098V94.4841H263.303L263.304 65.3249Z" fill="#E6E6E6"/>
<path d="M239.024 6.81641H227.681C228.203 8.09379 228.402 9.47971 228.261 10.8521C228.12 12.2244 227.644 13.5411 226.873 14.686C226.102 15.831 225.062 16.7691 223.843 17.4178C222.624 18.0664 221.263 18.4056 219.882 18.4056H170.097C168.716 18.4055 167.356 18.0662 166.137 17.4175C164.918 16.7688 163.877 15.8307 163.107 14.6857C162.336 13.5408 161.86 12.2242 161.719 10.8519C161.578 9.47959 161.777 8.09374 162.299 6.81641H151.704C147.002 6.81641 142.493 8.6819 139.168 12.0025C135.843 15.3231 133.975 19.8268 133.975 24.5228V248.934C133.975 253.631 135.843 258.134 139.168 261.455C142.493 264.775 147.002 266.641 151.704 266.641H239.024C243.726 266.641 248.235 264.775 251.56 261.455C254.885 258.134 256.753 253.631 256.753 248.934V24.5225C256.753 19.8265 254.885 15.3229 251.56 12.0024C248.235 8.68185 243.726 6.8164 239.024 6.81641Z" fill="white"/>
<path d="M168.951 59.1613C168.478 59.1655 168.009 59.0702 167.575 58.8815C167.141 58.6929 166.752 58.4152 166.433 58.0664C166.054 57.6286 165.77 57.1173 165.598 56.5646C165.427 56.0118 165.372 55.4296 165.436 54.8546C165.527 53.7593 165.986 52.727 166.74 51.9264C167.102 51.5355 167.54 51.2226 168.028 51.0068C168.516 50.7911 169.042 50.6771 169.575 50.6719C170.071 50.6697 170.562 50.7718 171.015 50.9715C171.469 51.1712 171.876 51.4641 172.209 51.8311C172.586 52.2572 172.871 52.757 173.046 53.2988C173.22 53.8405 173.281 54.4126 173.223 54.9788C173.152 56.1407 172.65 57.2347 171.815 58.0468C171.038 58.7696 170.013 59.1683 168.951 59.1613ZM169.575 52.0868C168.189 52.0868 166.991 53.3571 166.848 54.9787C166.8 55.3582 166.832 55.7434 166.94 56.1103C167.049 56.4771 167.232 56.8177 167.478 57.1108C167.664 57.3154 167.892 57.4779 168.146 57.5875C168.4 57.6971 168.674 57.7513 168.951 57.7464C170.248 57.7464 171.635 56.8522 171.812 54.8544C171.852 54.4838 171.816 54.1087 171.704 53.7528C171.593 53.3969 171.409 53.068 171.164 52.7866C170.963 52.5652 170.718 52.3884 170.444 52.2678C170.17 52.1473 169.874 52.0856 169.575 52.0868Z" fill="#3F3D56"/>
<path d="M168.997 63.4056C167.901 63.4234 166.814 63.2083 165.808 62.7745C164.801 62.3407 163.899 61.6982 163.16 60.8895C162.422 60.0808 161.864 59.1245 161.523 58.0841C161.183 57.0436 161.068 55.9427 161.186 54.8545C161.418 52.5703 162.482 50.4506 164.174 48.8972C165.867 47.3438 168.072 46.4648 170.37 46.4268C172.921 46.4268 175.019 47.2451 176.438 48.7934C177.785 50.2614 178.415 52.3281 178.213 54.6126C178.023 56.7768 177.103 57.9039 176.366 58.4684C176.04 58.7336 175.664 58.9299 175.26 59.0456C174.856 59.1612 174.432 59.1938 174.015 59.1412C172.849 58.9347 171.56 57.8768 171.763 55.5749L172.138 51.319C172.155 51.1328 172.246 50.9611 172.39 50.8413C172.534 50.7215 172.719 50.6635 172.906 50.6799C173.092 50.6963 173.265 50.7859 173.385 50.9289C173.506 51.0719 173.565 51.2569 173.549 51.4432L173.174 55.699C173.073 56.8434 173.48 57.6094 174.263 57.748C174.714 57.783 175.16 57.6382 175.504 57.3452C176.016 56.9535 176.657 56.14 176.802 54.4885C176.971 52.5767 176.484 50.9378 175.394 49.7489C174.25 48.5012 172.513 47.8417 170.37 47.8417C168.426 47.8785 166.562 48.6244 165.13 49.939C163.698 51.2535 162.797 53.0458 162.597 54.9779C162.496 55.8706 162.588 56.7746 162.865 57.6293C163.142 58.484 163.599 59.2696 164.205 59.9336C164.811 60.5976 165.552 61.1247 166.378 61.4794C167.205 61.8342 168.098 62.0085 168.997 61.9907C170.106 62.0506 171.215 61.8499 172.232 61.4048C172.405 61.333 172.6 61.3326 172.773 61.4037C172.947 61.4748 173.085 61.6116 173.157 61.7841C173.23 61.9566 173.231 62.1508 173.16 62.3242C173.09 62.4976 172.954 62.636 172.781 62.7092C171.59 63.2273 170.295 63.4655 168.997 63.4056Z" fill="#3F3D56"/>
<path d="M161.518 164.527C161.378 164.527 161.241 164.485 161.124 164.408C161.008 164.33 160.917 164.219 160.863 164.09C160.81 163.961 160.796 163.819 160.823 163.681C160.851 163.544 160.918 163.418 161.017 163.319L165.621 158.721C165.754 158.59 165.934 158.517 166.121 158.517C166.308 158.518 166.487 158.592 166.619 158.724C166.752 158.856 166.826 159.035 166.827 159.222C166.828 159.409 166.754 159.588 166.623 159.721L162.019 164.32C161.953 164.386 161.875 164.438 161.789 164.473C161.703 164.509 161.611 164.527 161.518 164.527ZM173.206 162.758C173.066 162.758 172.929 162.717 172.812 162.639C172.696 162.561 172.605 162.451 172.551 162.322C172.498 162.192 172.484 162.05 172.511 161.913C172.538 161.776 172.606 161.65 172.705 161.551L176.601 157.66C176.734 157.529 176.913 157.455 177.1 157.456C177.287 157.457 177.467 157.531 177.599 157.663C177.731 157.795 177.806 157.974 177.806 158.161C177.807 158.348 177.734 158.527 177.602 158.66L173.706 162.551C173.641 162.617 173.563 162.669 173.477 162.705C173.391 162.74 173.299 162.758 173.206 162.758ZM171.081 162.758C170.988 162.758 170.895 162.74 170.809 162.705C170.723 162.669 170.645 162.617 170.58 162.551L167.746 159.721C167.68 159.656 167.627 159.578 167.591 159.492C167.554 159.406 167.536 159.313 167.535 159.22C167.535 159.127 167.553 159.034 167.589 158.948C167.624 158.862 167.677 158.783 167.743 158.717C167.809 158.651 167.887 158.599 167.974 158.563C168.06 158.528 168.153 158.51 168.246 158.51C168.34 158.51 168.432 158.529 168.518 158.565C168.604 158.602 168.682 158.654 168.748 158.721L171.581 161.551C171.681 161.65 171.748 161.776 171.775 161.913C171.803 162.05 171.789 162.192 171.735 162.322C171.681 162.451 171.591 162.561 171.474 162.639C171.358 162.717 171.221 162.758 171.081 162.758Z" fill="#3F3D56"/>
<path d="M178.164 158.867C177.814 158.867 177.471 158.764 177.18 158.569C176.889 158.375 176.662 158.099 176.528 157.776C176.394 157.452 176.359 157.097 176.427 156.754C176.495 156.411 176.664 156.095 176.912 155.848C177.159 155.601 177.475 155.432 177.818 155.364C178.162 155.296 178.518 155.331 178.842 155.465C179.165 155.599 179.442 155.825 179.636 156.116C179.831 156.407 179.935 156.749 179.935 157.099C179.934 157.568 179.748 158.017 179.416 158.349C179.084 158.68 178.633 158.867 178.164 158.867ZM178.164 156.745C178.094 156.745 178.025 156.766 177.967 156.805C177.909 156.843 177.864 156.899 177.837 156.963C177.81 157.028 177.803 157.099 177.817 157.168C177.83 157.236 177.864 157.299 177.913 157.349C177.963 157.398 178.026 157.432 178.095 157.446C178.164 157.459 178.235 157.452 178.299 157.426C178.364 157.399 178.419 157.353 178.458 157.295C178.497 157.237 178.518 157.169 178.518 157.099C178.518 157.005 178.481 156.915 178.414 156.849C178.348 156.782 178.258 156.745 178.164 156.745Z" fill="#3F3D56"/>
<path d="M172.143 164.881C171.793 164.881 171.451 164.777 171.16 164.583C170.868 164.389 170.641 164.112 170.507 163.789C170.373 163.466 170.338 163.11 170.407 162.767C170.475 162.424 170.644 162.109 170.891 161.862C171.139 161.614 171.454 161.446 171.798 161.378C172.141 161.309 172.498 161.345 172.821 161.478C173.145 161.612 173.421 161.839 173.616 162.13C173.81 162.421 173.914 162.763 173.914 163.112C173.914 163.581 173.727 164.031 173.395 164.362C173.063 164.694 172.613 164.88 172.143 164.881ZM172.143 162.759C172.073 162.759 172.005 162.779 171.947 162.818C171.888 162.857 171.843 162.912 171.816 162.977C171.789 163.042 171.782 163.113 171.796 163.181C171.81 163.25 171.843 163.313 171.893 163.363C171.943 163.412 172.006 163.446 172.074 163.459C172.143 163.473 172.214 163.466 172.279 163.439C172.344 163.412 172.399 163.367 172.438 163.309C172.477 163.251 172.498 163.182 172.498 163.112C172.498 163.019 172.46 162.929 172.394 162.862C172.327 162.796 172.237 162.759 172.143 162.759Z" fill="#3F3D56"/>
<path d="M167.185 159.929C166.835 159.929 166.492 159.825 166.201 159.631C165.91 159.436 165.683 159.16 165.549 158.837C165.415 158.514 165.38 158.158 165.448 157.815C165.516 157.472 165.685 157.157 165.933 156.91C166.18 156.662 166.496 156.494 166.839 156.426C167.183 156.357 167.539 156.392 167.863 156.526C168.186 156.66 168.463 156.887 168.657 157.178C168.852 157.468 168.956 157.81 168.956 158.16C168.955 158.629 168.769 159.079 168.437 159.41C168.105 159.742 167.654 159.928 167.185 159.929ZM167.185 157.807C167.115 157.807 167.046 157.827 166.988 157.866C166.93 157.905 166.885 157.96 166.858 158.025C166.831 158.089 166.824 158.161 166.838 158.229C166.851 158.298 166.885 158.361 166.935 158.41C166.984 158.46 167.047 158.494 167.116 158.507C167.185 158.521 167.256 158.514 167.32 158.487C167.385 158.46 167.441 158.415 167.479 158.357C167.518 158.299 167.539 158.23 167.539 158.16C167.539 158.066 167.502 157.977 167.435 157.91C167.369 157.844 167.279 157.807 167.185 157.807Z" fill="#3F3D56"/>
<path d="M160.455 166.65C160.105 166.65 159.763 166.546 159.472 166.351C159.18 166.157 158.953 165.881 158.819 165.558C158.685 165.235 158.65 164.879 158.719 164.536C158.787 164.193 158.956 163.878 159.203 163.63C159.451 163.383 159.766 163.215 160.11 163.146C160.453 163.078 160.81 163.113 161.133 163.247C161.457 163.381 161.733 163.607 161.928 163.898C162.122 164.189 162.226 164.531 162.226 164.881C162.226 165.35 162.039 165.799 161.707 166.131C161.375 166.463 160.925 166.649 160.455 166.65ZM160.455 164.527C160.385 164.527 160.317 164.548 160.259 164.587C160.2 164.626 160.155 164.681 160.128 164.746C160.101 164.81 160.094 164.881 160.108 164.95C160.122 165.019 160.155 165.082 160.205 165.131C160.255 165.181 160.318 165.214 160.386 165.228C160.455 165.242 160.526 165.235 160.591 165.208C160.656 165.181 160.711 165.136 160.75 165.077C160.789 165.019 160.81 164.951 160.81 164.881C160.81 164.787 160.772 164.697 160.706 164.631C160.639 164.565 160.549 164.527 160.455 164.527Z" fill="#3F3D56"/>
<path d="M227.681 221.206H212.805C212.148 221.205 211.518 220.944 211.053 220.479C210.588 220.015 210.327 219.386 210.326 218.729V208.118C210.327 207.461 210.588 206.832 211.053 206.368C211.518 205.903 212.148 205.642 212.805 205.642H227.681C228.338 205.642 228.968 205.903 229.433 206.368C229.898 206.832 230.159 207.461 230.16 208.118V218.729C230.159 219.386 229.898 220.015 229.433 220.479C228.968 220.944 228.338 221.205 227.681 221.206ZM212.805 207.057C212.524 207.057 212.254 207.169 212.054 207.368C211.855 207.567 211.743 207.836 211.743 208.118V218.729C211.743 219.011 211.855 219.281 212.054 219.479C212.254 219.678 212.524 219.79 212.805 219.791H227.681C227.962 219.79 228.232 219.678 228.432 219.479C228.631 219.281 228.743 219.011 228.743 218.729V208.118C228.743 207.836 228.631 207.567 228.432 207.368C228.232 207.169 227.962 207.057 227.681 207.056L212.805 207.057Z" fill="#3F3D56"/>
<path d="M220.243 214.838C220.085 214.838 219.932 214.785 219.808 214.689L213.433 209.737C213.359 209.68 213.298 209.609 213.252 209.528C213.206 209.447 213.176 209.358 213.165 209.266C213.153 209.174 213.16 209.08 213.185 208.991C213.209 208.901 213.251 208.817 213.308 208.744C213.365 208.67 213.437 208.609 213.517 208.563C213.598 208.517 213.687 208.488 213.78 208.476C213.872 208.465 213.966 208.471 214.055 208.496C214.145 208.521 214.229 208.563 214.302 208.62L220.243 213.234L226.183 208.62C226.256 208.563 226.34 208.521 226.43 208.496C226.52 208.471 226.613 208.465 226.706 208.476C226.798 208.488 226.887 208.517 226.968 208.563C227.049 208.609 227.12 208.67 227.177 208.744C227.234 208.817 227.276 208.901 227.301 208.991C227.325 209.08 227.332 209.174 227.321 209.266C227.309 209.358 227.28 209.447 227.234 209.528C227.188 209.609 227.126 209.68 227.053 209.737L220.678 214.689C220.553 214.785 220.4 214.838 220.243 214.838Z" fill="#3F3D56"/>
<path d="M300.139 230.999L218.199 231.032C218.095 231.032 217.995 230.991 217.922 230.917C217.848 230.844 217.807 230.744 217.807 230.641C217.807 230.537 217.848 230.437 217.922 230.364C217.995 230.29 218.095 230.249 218.199 230.249L300.139 230.217C300.243 230.217 300.342 230.258 300.416 230.331C300.489 230.405 300.53 230.504 300.53 230.608C300.53 230.712 300.489 230.811 300.416 230.885C300.342 230.958 300.243 230.999 300.139 230.999Z" fill="#CCCCCC"/>
<path d="M299.048 236.086C302.077 236.086 304.533 233.634 304.533 230.608C304.533 227.583 302.077 225.13 299.048 225.13C296.019 225.13 293.563 227.583 293.563 230.608C293.563 233.634 296.019 236.086 299.048 236.086Z" fill="#4141DB"/>
<path d="M298.18 126.132L215.456 126.165C215.352 126.165 215.253 126.123 215.179 126.05C215.106 125.977 215.064 125.877 215.064 125.773C215.064 125.67 215.106 125.57 215.179 125.497C215.253 125.423 215.352 125.382 215.456 125.382L298.18 125.35C298.283 125.35 298.383 125.391 298.457 125.464C298.53 125.538 298.571 125.637 298.571 125.741C298.571 125.845 298.53 125.944 298.457 126.018C298.383 126.091 298.283 126.132 298.18 126.132Z" fill="#CCCCCC"/>
<path d="M299.048 131.611C302.077 131.611 304.533 129.158 304.533 126.132C304.533 123.107 302.077 120.654 299.048 120.654C296.019 120.654 293.563 123.107 293.563 126.132C293.563 129.158 296.019 131.611 299.048 131.611Z" fill="#4141DB"/>
<path d="M86.3903 72.5248L169.114 72.5572C169.217 72.5572 169.317 72.516 169.391 72.4426C169.464 72.3692 169.505 72.2697 169.505 72.1659C169.505 72.0621 169.464 71.9626 169.391 71.8892C169.317 71.8158 169.217 71.7746 169.114 71.7746L86.3903 71.7422C86.2864 71.7422 86.1868 71.7834 86.1133 71.8568C86.0398 71.9302 85.9985 72.0297 85.9985 72.1335C85.9985 72.2373 86.0398 72.3368 86.1133 72.4102C86.1868 72.4835 86.2864 72.5248 86.3903 72.5248Z" fill="#CCCCCC"/>
<path d="M85.5217 78.0031C88.551 78.0031 91.0068 75.5505 91.0068 72.525C91.0068 69.4995 88.551 67.0469 85.5217 67.0469C82.4924 67.0469 80.0366 69.4995 80.0366 72.525C80.0366 75.5505 82.4924 78.0031 85.5217 78.0031Z" fill="#4141DB"/>
<path d="M86.3903 178.566L169.114 178.598C169.217 178.598 169.317 178.557 169.391 178.484C169.464 178.41 169.505 178.311 169.505 178.207C169.505 178.103 169.464 178.004 169.391 177.93C169.317 177.857 169.217 177.816 169.114 177.816L86.3903 177.783C86.2864 177.783 86.1868 177.824 86.1133 177.898C86.0398 177.971 85.9985 178.071 85.9985 178.174C85.9985 178.278 86.0398 178.378 86.1133 178.451C86.1868 178.525 86.2864 178.566 86.3903 178.566Z" fill="#CCCCCC"/>
<path d="M85.5217 184.044C88.551 184.044 91.0068 181.592 91.0068 178.566C91.0068 175.541 88.551 173.088 85.5217 173.088C82.4924 173.088 80.0366 175.541 80.0366 178.566C80.0366 181.592 82.4924 184.044 85.5217 184.044Z" fill="#4141DB"/>
<path d="M220.243 231.032C216.756 231.032 213.347 229.999 210.448 228.064C207.549 226.13 205.289 223.38 203.954 220.162C202.62 216.945 202.271 213.404 202.951 209.989C203.631 206.573 205.311 203.435 207.776 200.973C210.242 198.51 213.383 196.833 216.803 196.154C220.223 195.474 223.768 195.823 226.99 197.156C230.211 198.489 232.965 200.745 234.902 203.641C236.839 206.537 237.874 209.941 237.874 213.424C237.868 218.092 236.009 222.568 232.704 225.869C229.399 229.17 224.917 231.027 220.243 231.032ZM220.243 196.598C216.911 196.598 213.654 197.585 210.883 199.434C208.113 201.283 205.953 203.91 204.678 206.985C203.403 210.059 203.07 213.442 203.72 216.706C204.37 219.97 205.974 222.968 208.33 225.321C210.686 227.674 213.688 229.277 216.956 229.926C220.224 230.575 223.612 230.242 226.69 228.969C229.768 227.695 232.4 225.539 234.251 222.772C236.102 220.005 237.09 216.752 237.09 213.424C237.085 208.963 235.308 204.686 232.15 201.532C228.992 198.377 224.709 196.603 220.243 196.598Z" fill="#CCCCCC"/>
<path d="M169.31 178.598C165.823 178.598 162.414 177.566 159.515 175.631C156.615 173.696 154.356 170.946 153.021 167.729C151.687 164.511 151.338 160.971 152.018 157.555C152.698 154.139 154.377 151.002 156.843 148.539C159.309 146.077 162.45 144.4 165.87 143.72C169.29 143.041 172.835 143.389 176.057 144.722C179.278 146.055 182.032 148.312 183.969 151.207C185.906 154.103 186.94 157.508 186.94 160.99C186.935 165.659 185.076 170.134 181.771 173.435C178.465 176.736 173.984 178.593 169.31 178.598ZM169.31 144.164C165.978 144.164 162.721 145.151 159.95 147C157.18 148.849 155.02 151.477 153.745 154.551C152.47 157.626 152.136 161.009 152.786 164.273C153.437 167.537 155.041 170.535 157.397 172.888C159.753 175.241 162.755 176.843 166.023 177.493C169.291 178.142 172.678 177.809 175.757 176.535C178.835 175.262 181.466 173.105 183.318 170.338C185.169 167.571 186.157 164.318 186.157 160.99C186.152 156.529 184.375 152.252 181.217 149.098C178.059 145.944 173.776 144.169 169.31 144.164Z" fill="#CCCCCC"/>
<path d="M216.717 126.165C213.23 126.165 209.821 125.132 206.921 123.197C204.022 121.262 201.762 118.512 200.428 115.295C199.094 112.077 198.744 108.537 199.425 105.121C200.105 101.706 201.784 98.5682 204.25 96.1056C206.716 93.643 209.857 91.966 213.277 91.2866C216.697 90.6072 220.242 90.9559 223.463 92.2886C226.685 93.6213 229.439 95.8782 231.376 98.7739C233.313 101.67 234.347 105.074 234.347 108.557C234.342 113.225 232.483 117.701 229.177 121.002C225.872 124.303 221.391 126.16 216.717 126.165ZM216.717 91.7308C213.385 91.7308 210.127 92.7176 207.357 94.5665C204.586 96.4153 202.427 99.0431 201.152 102.118C199.877 105.192 199.543 108.575 200.193 111.839C200.843 115.103 202.448 118.101 204.804 120.454C207.16 122.807 210.162 124.41 213.43 125.059C216.698 125.708 220.085 125.375 223.164 124.101C226.242 122.828 228.873 120.671 230.724 117.904C232.576 115.137 233.564 111.884 233.564 108.557C233.559 104.096 231.782 99.8189 228.624 96.6645C225.465 93.5102 221.183 91.7359 216.717 91.7308Z" fill="#CCCCCC"/>
<path d="M169.702 72.5242C166.215 72.5242 162.806 71.4915 159.907 69.5567C157.008 67.6219 154.748 64.8718 153.413 61.6543C152.079 58.4368 151.73 54.8964 152.41 51.4807C153.09 48.065 154.77 44.9275 157.235 42.465C159.701 40.0024 162.842 38.3254 166.262 37.646C169.682 36.9665 173.227 37.3152 176.449 38.648C179.67 39.9807 182.424 42.2376 184.361 45.1333C186.298 48.0289 187.332 51.4333 187.332 54.9159C187.327 59.5843 185.468 64.06 182.163 67.361C178.858 70.6621 174.376 72.5189 169.702 72.5242ZM169.702 38.0902C166.37 38.0902 163.113 39.077 160.342 40.9259C157.572 42.7747 155.412 45.4025 154.137 48.477C152.862 51.5515 152.529 54.9346 153.179 58.1984C153.829 61.4623 155.433 64.4604 157.789 66.8135C160.145 69.1666 163.147 70.7691 166.415 71.4183C169.683 72.0675 173.071 71.7343 176.149 70.4608C179.227 69.1873 181.859 67.0308 183.71 64.2638C185.561 61.4968 186.549 58.2437 186.549 54.9159C186.544 50.455 184.767 46.1783 181.609 43.0239C178.451 39.8696 174.168 38.0953 169.702 38.0902Z" fill="#CCCCCC"/>
<path d="M59.0566 191.829C58.5747 191.462 58.1755 190.998 57.8851 190.467C57.5947 189.936 57.4196 189.349 57.3711 188.746C57.3604 188.605 57.357 188.464 57.3612 188.323L39.1162 176.051C38.5191 175.645 38.0692 175.058 37.8336 174.376C37.5981 173.694 37.5894 172.955 37.8089 172.267L46.529 150.63C46.9042 149.699 47.6337 148.954 48.5577 148.559C49.4817 148.163 50.5249 148.15 51.4589 148.521C52.393 148.892 53.1417 149.618 53.5412 150.539C53.9407 151.46 53.9584 152.502 53.5904 153.436L46.55 171.315L60.7568 184.202C60.9443 184.16 61.1345 184.13 61.3261 184.114C62.4233 184.027 63.5124 184.363 64.3699 185.052C65.2274 185.741 65.7884 186.732 65.9379 187.821C66.0874 188.91 65.814 190.015 65.1739 190.909C64.5337 191.803 63.5752 192.419 62.495 192.63C62.2178 192.683 61.9362 192.71 61.6539 192.711C60.7145 192.711 59.8013 192.401 59.0566 191.829Z" fill="#A0616A"/>
<path d="M39.1239 163.371C39.0171 163.122 38.9654 162.853 38.9723 162.582C38.9791 162.311 39.0444 162.045 39.1636 161.802L43.3263 153.304C43.7463 151.984 44.6735 150.883 45.9048 150.244C47.136 149.605 48.5706 149.48 49.8942 149.896C51.2178 150.311 52.3222 151.234 52.9655 152.462C53.6087 153.69 53.7381 155.123 53.3254 156.446L51.8057 165.814C51.7623 166.081 51.6617 166.336 51.5108 166.561C51.3599 166.786 51.1622 166.976 50.9312 167.118C50.7001 167.26 50.4412 167.35 50.172 167.383C49.9028 167.416 49.6297 167.391 49.3712 167.309L40.2875 164.426C40.0289 164.344 39.7912 164.207 39.5903 164.025C39.3895 163.843 39.2304 163.62 39.1239 163.371Z" fill="#4141DB"/>
<path d="M67.8353 268.277H72.6386L74.9235 249.773L67.8345 249.774L67.8353 268.277Z" fill="#A0616A"/>
<path d="M66.6099 266.71L76.0692 266.71H76.0696C76.8612 266.71 77.6451 266.866 78.3765 267.168C79.1079 267.471 79.7725 267.914 80.3322 268.473C80.892 269.032 81.3361 269.696 81.639 270.427C81.9419 271.157 82.0979 271.94 82.0979 272.731V272.926L66.6102 272.927L66.6099 266.71Z" fill="#2F2E41"/>
<path d="M20.8662 264.878L25.5183 266.072L32.3433 248.719L25.4772 246.957L20.8662 264.878Z" fill="#A0616A"/>
<path d="M20.0697 263.057L29.2313 265.408L29.2317 265.408C29.9984 265.605 30.7188 265.951 31.3518 266.425C31.9847 266.9 32.5178 267.495 32.9206 268.176C33.3235 268.856 33.5881 269.61 33.6994 270.392C33.8108 271.175 33.7667 271.972 33.5696 272.738L33.5208 272.927L18.5205 269.077L20.0697 263.057Z" fill="#2F2E41"/>
<path d="M54.5564 141.337C59.8709 141.337 64.1792 137.035 64.1792 131.727C64.1792 126.419 59.8709 122.116 54.5564 122.116C49.2419 122.116 44.9336 126.419 44.9336 131.727C44.9336 137.035 49.2419 141.337 54.5564 141.337Z" fill="#A0616A"/>
<path d="M49.6892 171.702C47.3998 169.348 45.456 166.683 43.9158 163.784C43.0966 162.195 42.6197 160.452 42.5158 158.668C42.4118 156.884 42.6832 155.097 43.3123 153.424C43.9547 151.713 44.9486 150.156 46.2301 148.852C47.5116 147.549 49.0521 146.528 50.7527 145.854C53.735 144.646 57.0623 144.596 60.0796 145.714C63.097 146.833 65.5857 149.039 67.056 151.898C69.4639 156.605 70.4075 161.206 69.8607 165.575C68.8153 173.928 68.2034 178.245 68.0418 178.406L67.9881 178.46L50.0873 179.254L49.6892 171.702Z" fill="#4141DB"/>
<path d="M50.7522 176.943L66.7714 176.146C67.1759 176.126 67.5724 176.263 67.878 176.529C68.1835 176.794 68.3742 177.168 68.4102 177.571L75.7793 260.068C75.7989 260.287 75.7719 260.508 75.7003 260.716C75.6286 260.924 75.5138 261.115 75.3633 261.276C75.2129 261.437 75.0302 261.564 74.8271 261.65C74.6241 261.735 74.4053 261.777 74.185 261.772L67.9266 261.639C67.5824 261.632 67.2502 261.511 66.9813 261.297C66.7124 261.082 66.5218 260.785 66.4389 260.451L54.4829 212.337C54.4047 212.022 54.2305 211.739 53.9844 211.528C53.7383 211.316 53.4324 211.186 53.1091 211.155C52.7858 211.125 52.4611 211.196 52.1797 211.357C51.8983 211.519 51.6742 211.764 51.5383 212.059L28.8812 261.205C28.7273 261.539 28.4607 261.808 28.1281 261.965C27.7955 262.123 27.4181 262.158 27.0621 262.065L20.7638 260.424C20.3739 260.323 20.0381 260.076 19.8261 259.734C19.6141 259.392 19.5423 258.982 19.6256 258.588C21.6979 248.818 34.1108 192.868 49.7393 177.381C50.0113 177.115 50.372 176.959 50.7522 176.943Z" fill="white"/>
<path d="M81.0876 186.205C80.5084 186.027 79.9732 185.729 79.5171 185.33C79.0609 184.931 78.6939 184.441 78.4399 183.892C78.3813 183.763 78.3294 183.632 78.2845 183.499L56.9197 178.27C56.2191 178.095 55.5938 177.698 55.1371 177.139C54.6803 176.581 54.4166 175.889 54.3853 175.169L55.0923 151.856C55.1227 150.853 55.55 149.902 56.2805 149.213C57.011 148.523 57.9854 148.151 58.9902 148.177C59.995 148.203 60.9484 148.626 61.6418 149.353C62.3351 150.08 62.7118 151.052 62.6895 152.055L62.2599 171.262L80.0476 178.46C80.2088 178.356 80.3771 178.263 80.5511 178.181H80.5513C81.1865 177.887 81.8839 177.752 82.5832 177.787C83.2825 177.823 83.9626 178.028 84.565 178.384C85.1673 178.741 85.6736 179.238 86.0403 179.834C86.407 180.43 86.623 181.106 86.6696 181.803C86.7163 182.501 86.5922 183.2 86.308 183.839C86.0239 184.478 85.5882 185.038 85.0387 185.472C84.4892 185.905 83.8423 186.198 83.1539 186.326C82.4655 186.454 81.7563 186.412 81.0876 186.205V186.205Z" fill="#A0616A"/>
<path d="M52.8138 163.472C52.6294 163.274 52.4901 163.038 52.4054 162.78C52.3207 162.523 52.2925 162.251 52.3229 161.981L53.3818 152.581C53.3327 151.196 53.8354 149.848 54.7797 148.833C55.724 147.818 57.0329 147.218 58.4194 147.165C59.8059 147.112 61.1568 147.61 62.176 148.551C63.1952 149.491 63.7995 150.796 63.8564 152.181L65.5797 161.514C65.6289 161.78 65.62 162.054 65.5536 162.317C65.4873 162.58 65.365 162.825 65.1952 163.036C65.0254 163.247 64.812 163.419 64.5696 163.541C64.3272 163.662 64.0614 163.73 63.7904 163.739L54.2649 164.075C53.9938 164.085 53.7239 164.036 53.4734 163.932C53.223 163.828 52.998 163.671 52.8138 163.472Z" fill="#4141DB"/>
<path d="M40.7676 144.415L41.773 141.169L42.4606 144.812L48.1074 144.662L48.0814 141.071L50.228 144.615L55.3451 143.486C54.2519 142.031 53.1458 140.553 52.4466 138.839C51.7474 137.124 51.4929 135.113 52.1462 133.377C53.7613 129.085 59.8846 130.286 63.2338 130.249C64.2109 130.239 65.314 130.169 65.9538 129.371C66.4357 128.77 66.5146 127.911 66.4902 127.116C66.3645 123.025 63.9053 119.122 60.4287 117.496C58.7269 116.713 56.8297 116.457 54.9808 116.759C54.0164 116.911 53.08 117.206 52.2024 117.633C51.4199 118.015 50.5981 118.924 49.7556 118.899C49.0476 118.879 48.1103 118.142 47.3399 118.016C46.4117 117.873 45.4648 117.906 44.5489 118.114C42.7083 118.523 41.0491 119.515 39.8176 120.941C37.2003 123.979 36.4226 128.454 36.8788 132.575C37.3349 136.695 38.8783 140.57 40.4045 144.379" fill="white"/>
<path d="M315.483 273.651H1.26679C1.16288 273.651 1.06323 273.61 0.989753 273.536C0.916278 273.463 0.875 273.363 0.875 273.259C0.875 273.156 0.916278 273.056 0.989753 272.983C1.06323 272.909 1.16288 272.868 1.26679 272.868H315.483C315.587 272.868 315.687 272.909 315.76 272.983C315.834 273.056 315.875 273.156 315.875 273.259C315.875 273.363 315.834 273.463 315.76 273.536C315.687 273.61 315.587 273.651 315.483 273.651Z" fill="#E6E6E6"/>
<path d="M310.182 268.801C311.378 267.832 312.25 266.522 312.68 265.046C312.999 263.552 312.361 261.798 310.937 261.219C309.337 260.602 307.626 261.713 306.331 262.831C305.037 263.948 303.547 265.228 301.85 264.987C302.719 264.196 303.369 263.193 303.735 262.076C304.101 260.959 304.171 259.766 303.938 258.614C303.868 258.135 303.665 257.685 303.352 257.315C302.468 256.366 300.854 256.776 299.788 257.523C296.405 259.901 295.462 264.487 295.449 268.619C295.104 267.125 295.39 265.572 295.384 264.071C295.377 262.571 294.955 260.823 293.667 260.031C292.868 259.602 291.971 259.389 291.065 259.413C289.543 259.361 287.851 259.511 286.81 260.622C285.51 261.999 285.854 264.318 286.98 265.819C288.105 267.32 289.809 268.288 291.377 269.34C292.64 270.088 293.716 271.112 294.525 272.335C294.621 272.504 294.7 272.683 294.759 272.868H304.289C306.429 271.785 308.411 270.417 310.182 268.801Z" fill="#F2F2F2"/>
<path d="M211.034 118.9C210.857 118.9 210.683 118.855 210.527 118.77C210.372 118.685 210.24 118.562 210.144 118.414C210.048 118.265 209.991 118.095 209.977 117.918C209.963 117.742 209.994 117.565 210.066 117.404L211.292 114.672C209.603 113.173 208.527 111.105 208.271 108.863C208.014 106.621 208.596 104.363 209.903 102.523C211.211 100.683 213.153 99.3897 215.356 98.8913C217.56 98.3929 219.87 98.7244 221.844 99.8224C223.818 100.92 225.317 102.707 226.053 104.841C226.788 106.974 226.71 109.304 225.832 111.383C224.954 113.462 223.338 115.145 221.295 116.107C219.251 117.07 216.924 117.246 214.759 116.6L211.63 118.716C211.455 118.836 211.247 118.9 211.034 118.9ZM217.36 100.014C215.73 100.013 214.14 100.518 212.811 101.46C211.482 102.402 210.479 103.733 209.941 105.27C209.404 106.806 209.358 108.472 209.811 110.036C210.263 111.599 211.192 112.984 212.467 113.997L212.853 114.304L211.534 117.244L214.561 115.197L214.86 115.297C215.94 115.66 217.086 115.783 218.218 115.659C219.35 115.535 220.442 115.167 221.417 114.58C222.393 113.993 223.229 113.201 223.867 112.259C224.506 111.317 224.932 110.247 225.115 109.125C225.299 108.002 225.236 106.853 224.931 105.757C224.625 104.661 224.085 103.644 223.347 102.778C222.61 101.911 221.692 101.215 220.658 100.738C219.624 100.26 218.499 100.013 217.36 100.014Z" fill="#3F3D56"/>
<path d="M217.36 108.71C218.064 108.71 218.634 108.141 218.634 107.438C218.634 106.735 218.064 106.165 217.36 106.165C216.656 106.165 216.085 106.735 216.085 107.438C216.085 108.141 216.656 108.71 217.36 108.71Z" fill="#3F3D56"/>
<path d="M213.749 108.71C214.453 108.71 215.023 108.141 215.023 107.438C215.023 106.735 214.453 106.165 213.749 106.165C213.045 106.165 212.475 106.735 212.475 107.438C212.475 108.141 213.045 108.71 213.749 108.71Z" fill="#3F3D56"/>
<path d="M220.97 108.71C221.674 108.71 222.244 108.141 222.244 107.438C222.244 106.735 221.674 106.165 220.97 106.165C220.266 106.165 219.696 106.735 219.696 107.438C219.696 108.141 220.266 108.71 220.97 108.71Z" fill="#3F3D56"/>
</g>
<defs>
<clipPath id="clip0_149_7235">
<rect width="315" height="273" fill="white" transform="translate(0.875 0.650391)"/>
</clipPath>
</defs>
</svg>
