<svg width="415" height="324" viewBox="0 0 415 324" fill="none" xmlns="http://www.w3.org/2000/svg">
<g clip-path="url(#clip0_149_7497)">
<path d="M345.139 139.47C345.139 139.47 335.392 144.891 338.198 151.064C341.004 157.237 380.847 152.187 380.847 152.187C380.847 152.187 378.041 143.769 372.99 142.086C367.94 140.402 345.139 139.47 345.139 139.47Z" fill="#4141DB"/>
<path d="M341.34 140.916C343.299 139.643 345.477 138.742 347.763 138.26C355.39 136.412 363.374 136.661 370.871 138.981L370.733 138.869C373.927 140.555 376.731 142.893 378.963 145.731L341.34 140.916Z" fill="#CCCCCC"/>
<path d="M384.504 167.462C384.37 169.477 384.235 171.489 384.1 173.5C383.916 177.712 383.456 181.907 382.725 186.059C382.041 189.533 380.952 192.978 379.005 195.936C377.058 198.888 374.168 201.329 370.744 202.227C368.643 202.73 366.458 202.778 364.336 202.367C360.335 200.094 357.624 203.001 361.62 205.958C362.526 206.628 363.468 207.248 364.442 207.816L366.255 235.801L332.585 228.506L339.156 191.278C338.15 190.364 337.229 189.359 336.407 188.276C332.641 183.276 331.345 176.761 331.592 170.509C331.844 164.252 333.511 158.152 335.166 152.12C335.588 150.483 336.098 148.87 336.693 147.288C337.428 147.591 338.174 147.866 338.932 148.096C343.775 149.566 348.921 149.684 353.982 149.679C362.989 149.673 371.985 149.321 380.969 148.624C383.033 152.023 384.287 155.852 384.633 159.813C384.778 162.363 384.735 164.919 384.504 167.462Z" fill="#CCCCCC"/>
<path d="M240.499 243.43L292.334 248.032L292.89 248.082V26.9034C292.705 26.7743 292.519 26.6452 292.334 26.5162C281.531 18.9598 269.845 12.7522 257.536 8.03125L254.887 44.5634L254.646 47.9079L252.025 84.137L251.217 95.2818L240.594 242.14L240.499 243.43Z" fill="#E6E6E6"/>
<path d="M112.311 22.784C111.941 23.0197 111.571 23.2554 111.2 23.5023V248.082L112.311 247.981L163.585 243.43L163.49 242.139L152.867 95.2814L152.059 84.1366L149.438 47.9075L149.197 44.563L146.419 6.25195C134.44 10.4042 122.992 15.9532 112.311 22.784Z" fill="#E6E6E6"/>
<path d="M111.2 23.5025C110.454 23.9851 109.708 24.4789 108.973 24.9784V251.146C108.973 256.797 112.323 261.534 116.801 262.74C117.533 262.938 118.288 263.038 119.046 263.037H285.601C286.357 263.039 287.11 262.939 287.84 262.74C289.504 262.278 291.013 261.375 292.206 260.125C294.48 257.694 295.723 254.475 295.674 251.146V28.9121C294.753 28.2331 293.827 27.5597 292.89 26.9032C292.705 26.7741 292.52 26.645 292.335 26.5159V251.146C292.336 251.874 292.249 252.6 292.076 253.307C291.285 256.646 288.676 259.092 285.601 259.092H119.046C115.331 259.092 112.312 255.529 112.312 251.146V22.7842C111.941 23.0199 111.571 23.2556 111.2 23.5025Z" fill="#E6E6E6"/>
<path d="M294.003 44.5654H110.64V47.9094H294.003V44.5654Z" fill="#E6E6E6"/>
<path d="M237.845 1.90918C236.733 1.63421 235.622 1.37607 234.5 1.13477V91.9375H237.845V1.90918Z" fill="#E6E6E6"/>
<path d="M170.145 0.00585938C169.029 0.213492 167.912 0.42673 166.801 0.656809V91.9365H170.145V0.00585938Z" fill="#E6E6E6"/>
<path d="M74.6904 257.185C74.6896 259.104 75.0573 261.005 75.7735 262.785C76.0485 263.475 76.3769 264.143 76.7555 264.783C77.2446 265.617 77.8121 266.402 78.4503 267.129C79.86 268.735 81.5965 270.022 83.5436 270.904C85.4907 271.785 87.6036 272.241 89.741 272.241H309.332C313.324 272.241 317.152 270.655 319.974 267.833C322.797 265.01 324.383 261.182 324.383 257.19C324.383 253.199 322.797 249.37 319.974 246.548C317.152 243.725 313.324 242.14 309.332 242.14H89.741C85.7515 242.144 81.9265 243.73 79.105 246.55C76.2834 249.371 74.6958 253.195 74.6904 257.185Z" fill="#E6E6E6"/>
<path d="M110.64 95.2832L292.889 95.2832V84.1365L110.64 84.1365V95.2832Z" fill="#E6E6E6"/>
<path d="M209.566 86.9219H193.961C193.961 86.1168 194.12 85.3196 194.428 84.5758C194.736 83.832 195.187 83.1561 195.757 82.5868C196.326 82.0176 197.002 81.566 197.746 81.2579C198.489 80.9498 199.287 80.7912 200.092 80.7912H203.436C205.062 80.7912 206.621 81.4371 207.771 82.5868C208.92 83.7366 209.566 85.2959 209.566 86.9219H209.566Z" fill="#E6E6E6"/>
<path d="M0.368164 265.782C5.24318 271.559 10.5161 276.987 16.1482 282.028H399.191C404.823 276.987 410.096 271.559 414.971 265.782H0.368164Z" fill="white"/>
<path d="M104.275 211.454V269.008H144.595V211.454C144.596 211.04 144.464 210.637 144.219 210.304C143.973 209.971 143.627 209.725 143.232 209.603C143.045 209.541 142.85 209.511 142.654 209.513H106.223C105.967 209.512 105.714 209.562 105.478 209.659C105.242 209.757 105.027 209.9 104.847 210.08C104.666 210.26 104.522 210.475 104.424 210.71C104.326 210.946 104.276 211.199 104.275 211.454ZM120.011 231.23C120.021 230.095 120.479 229.011 121.285 228.212C122.091 227.414 123.18 226.966 124.315 226.966C125.449 226.966 126.538 227.414 127.344 228.212C128.15 229.011 128.608 230.095 128.619 231.23V237.908C128.613 239.046 128.157 240.135 127.351 240.937C126.544 241.74 125.452 242.19 124.315 242.19C123.177 242.19 122.086 241.74 121.279 240.937C120.472 240.135 120.016 239.046 120.011 237.908V231.23Z" fill="#2F2E41"/>
<path d="M104.151 267.168V272.718C104.152 273.005 104.266 273.281 104.469 273.485C104.672 273.689 104.947 273.804 105.234 273.807H143.635C143.923 273.805 144.198 273.69 144.401 273.486C144.604 273.282 144.718 273.006 144.718 272.718V267.168H104.151Z" fill="white"/>
<path d="M40.8457 124.743V229.828C40.8468 231.167 41.3792 232.451 42.3261 233.398C43.2731 234.345 44.5571 234.877 45.8962 234.878H201.621C202.96 234.877 204.244 234.345 205.191 233.398C206.138 232.451 206.67 231.167 206.671 229.828V124.743C206.668 123.405 206.135 122.123 205.188 121.177C204.241 120.232 202.959 119.7 201.621 119.698H45.8962C44.5582 119.7 43.2754 120.232 42.3288 121.177C41.3822 122.123 40.8489 123.405 40.8457 124.743Z" fill="white"/>
<path d="M44.499 126.051V228.531C44.5003 229.247 44.785 229.933 45.291 230.438C45.7969 230.944 46.4827 231.229 47.1982 231.23H200.324C201.04 231.229 201.726 230.944 202.232 230.438C202.738 229.933 203.022 229.247 203.024 228.531V126.051C203.024 125.334 202.739 124.647 202.233 124.14C201.727 123.633 201.041 123.347 200.324 123.346H47.1982C46.4819 123.347 45.7954 123.633 45.2893 124.14C44.7833 124.647 44.4991 125.334 44.499 126.051Z" fill="#4141DB"/>
<path d="M75.7226 275.114C75.8785 275.31 76.0766 275.467 76.3021 275.575C76.5276 275.683 76.7746 275.739 77.0245 275.737H168.125C168.374 275.737 168.62 275.681 168.845 275.574C169.069 275.467 169.268 275.31 169.425 275.117C169.581 274.923 169.693 274.697 169.752 274.455C169.811 274.213 169.814 273.961 169.763 273.717L168.349 267C168.291 266.726 168.164 266.471 167.982 266.258C167.8 266.046 167.567 265.882 167.305 265.782C167.116 265.708 166.914 265.67 166.711 265.67H78.4331C78.2295 265.67 78.0277 265.708 77.8382 265.782C77.5765 265.882 77.3439 266.046 77.1616 266.258C76.9792 266.471 76.8531 266.726 76.7945 267L75.3803 273.717C75.33 273.961 75.3346 274.213 75.3938 274.454C75.453 274.696 75.5653 274.922 75.7226 275.114Z" fill="#2F2E41"/>
<path d="M163.532 268.562H165.79C165.941 268.562 166.063 268.44 166.063 268.289V267.153C166.063 267.002 165.941 266.879 165.79 266.879H163.532C163.38 266.879 163.258 267.002 163.258 267.153V268.289C163.258 268.44 163.38 268.562 163.532 268.562Z" fill="white"/>
<path d="M157.919 268.562H160.177C160.329 268.562 160.451 268.44 160.451 268.289V267.153C160.451 267.002 160.329 266.879 160.177 266.879H157.919C157.768 266.879 157.645 267.002 157.645 267.153V268.289C157.645 268.44 157.768 268.562 157.919 268.562Z" fill="white"/>
<path d="M152.308 268.562H154.566C154.717 268.562 154.84 268.44 154.84 268.289V267.153C154.84 267.002 154.717 266.879 154.566 266.879H152.308C152.157 266.879 152.034 267.002 152.034 267.153V268.289C152.034 268.44 152.157 268.562 152.308 268.562Z" fill="white"/>
<path d="M146.697 268.562H148.955C149.106 268.562 149.229 268.44 149.229 268.289V267.153C149.229 267.002 149.106 266.879 148.955 266.879H146.697C146.545 266.879 146.423 267.002 146.423 267.153V268.289C146.423 268.44 146.545 268.562 146.697 268.562Z" fill="white"/>
<path d="M141.084 268.562H143.342C143.494 268.562 143.616 268.44 143.616 268.289V267.153C143.616 267.002 143.494 266.879 143.342 266.879H141.084C140.933 266.879 140.81 267.002 140.81 267.153V268.289C140.81 268.44 140.933 268.562 141.084 268.562Z" fill="white"/>
<path d="M135.473 268.562H137.731C137.882 268.562 138.005 268.44 138.005 268.289V267.153C138.005 267.002 137.882 266.879 137.731 266.879H135.473C135.322 266.879 135.199 267.002 135.199 267.153V268.289C135.199 268.44 135.322 268.562 135.473 268.562Z" fill="white"/>
<path d="M129.861 268.562H132.119C132.27 268.562 132.393 268.44 132.393 268.289V267.153C132.393 267.002 132.27 266.879 132.119 266.879H129.861C129.709 266.879 129.587 267.002 129.587 267.153V268.289C129.587 268.44 129.709 268.562 129.861 268.562Z" fill="white"/>
<path d="M124.25 268.562H126.508C126.66 268.562 126.782 268.44 126.782 268.289V267.153C126.782 267.002 126.66 266.879 126.508 266.879H124.25C124.099 266.879 123.976 267.002 123.976 267.153V268.289C123.976 268.44 124.099 268.562 124.25 268.562Z" fill="white"/>
<path d="M118.637 268.562H120.895C121.046 268.562 121.169 268.44 121.169 268.289V267.153C121.169 267.002 121.046 266.879 120.895 266.879H118.637C118.486 266.879 118.363 267.002 118.363 267.153V268.289C118.363 268.44 118.486 268.562 118.637 268.562Z" fill="white"/>
<path d="M113.026 268.562H115.284C115.435 268.562 115.558 268.44 115.558 268.289V267.153C115.558 267.002 115.435 266.879 115.284 266.879H113.026C112.874 266.879 112.752 267.002 112.752 267.153V268.289C112.752 268.44 112.874 268.562 113.026 268.562Z" fill="white"/>
<path d="M107.414 268.562H109.672C109.824 268.562 109.946 268.44 109.946 268.289V267.153C109.946 267.002 109.824 266.879 109.672 266.879H107.414C107.263 266.879 107.14 267.002 107.14 267.153V268.289C107.14 268.44 107.263 268.562 107.414 268.562Z" fill="white"/>
<path d="M101.802 268.562H104.06C104.211 268.562 104.334 268.44 104.334 268.289V267.153C104.334 267.002 104.211 266.879 104.06 266.879H101.802C101.651 266.879 101.528 267.002 101.528 267.153V268.289C101.528 268.44 101.651 268.562 101.802 268.562Z" fill="white"/>
<path d="M96.1917 268.562H98.4497C98.601 268.562 98.7236 268.44 98.7236 268.289V267.153C98.7236 267.002 98.601 266.879 98.4497 266.879H96.1917C96.0404 266.879 95.9178 267.002 95.9178 267.153V268.289C95.9178 268.44 96.0404 268.562 96.1917 268.562Z" fill="white"/>
<path d="M90.5785 268.562H92.8364C92.9877 268.562 93.1104 268.44 93.1104 268.289V267.153C93.1104 267.002 92.9877 266.879 92.8364 266.879H90.5785C90.4272 266.879 90.3045 267.002 90.3045 267.153V268.289C90.3045 268.44 90.4272 268.562 90.5785 268.562Z" fill="white"/>
<path d="M84.9681 268.562H87.226C87.3773 268.562 87.5 268.44 87.5 268.289V267.153C87.5 267.002 87.3773 266.879 87.226 266.879H84.9681C84.8168 266.879 84.6942 267.002 84.6942 267.153V268.289C84.6942 268.44 84.8168 268.562 84.9681 268.562Z" fill="white"/>
<path d="M79.3558 268.562H81.6137C81.765 268.562 81.8877 268.44 81.8877 268.289V267.153C81.8877 267.002 81.765 266.879 81.6137 266.879H79.3558C79.2045 266.879 79.0819 267.002 79.0819 267.153V268.289C79.0819 268.44 79.2045 268.562 79.3558 268.562Z" fill="white"/>
<path d="M163.597 271.368H165.855C166.006 271.368 166.129 271.246 166.129 271.094V269.959C166.129 269.807 166.006 269.685 165.855 269.685H163.597C163.446 269.685 163.323 269.807 163.323 269.959V271.094C163.323 271.246 163.446 271.368 163.597 271.368Z" fill="white"/>
<path d="M157.986 271.368H160.244C160.395 271.368 160.518 271.246 160.518 271.094V269.959C160.518 269.807 160.395 269.685 160.244 269.685H157.986C157.834 269.685 157.712 269.807 157.712 269.959V271.094C157.712 271.246 157.834 271.368 157.986 271.368Z" fill="white"/>
<path d="M152.373 271.368H154.631C154.783 271.368 154.905 271.246 154.905 271.094V269.959C154.905 269.807 154.783 269.685 154.631 269.685H152.373C152.222 269.685 152.099 269.807 152.099 269.959V271.094C152.099 271.246 152.222 271.368 152.373 271.368Z" fill="white"/>
<path d="M146.763 271.368H149.021C149.172 271.368 149.295 271.246 149.295 271.094V269.959C149.295 269.807 149.172 269.685 149.021 269.685H146.763C146.612 269.685 146.489 269.807 146.489 269.959V271.094C146.489 271.246 146.612 271.368 146.763 271.368Z" fill="white"/>
<path d="M141.151 271.368H143.409C143.56 271.368 143.683 271.246 143.683 271.094V269.959C143.683 269.807 143.56 269.685 143.409 269.685H141.151C140.999 269.685 140.877 269.807 140.877 269.959V271.094C140.877 271.246 140.999 271.368 141.151 271.368Z" fill="white"/>
<path d="M135.539 271.368H137.797C137.949 271.368 138.071 271.246 138.071 271.094V269.959C138.071 269.807 137.949 269.685 137.797 269.685H135.539C135.388 269.685 135.265 269.807 135.265 269.959V271.094C135.265 271.246 135.388 271.368 135.539 271.368Z" fill="white"/>
<path d="M129.927 271.368H132.185C132.336 271.368 132.459 271.246 132.459 271.094V269.959C132.459 269.807 132.336 269.685 132.185 269.685H129.927C129.776 269.685 129.653 269.807 129.653 269.959V271.094C129.653 271.246 129.776 271.368 129.927 271.368Z" fill="white"/>
<path d="M124.316 271.368H126.574C126.725 271.368 126.848 271.246 126.848 271.094V269.959C126.848 269.807 126.725 269.685 126.574 269.685H124.316C124.164 269.685 124.042 269.807 124.042 269.959V271.094C124.042 271.246 124.164 271.368 124.316 271.368Z" fill="white"/>
<path d="M118.704 271.368H120.962C121.114 271.368 121.236 271.246 121.236 271.094V269.959C121.236 269.807 121.114 269.685 120.962 269.685H118.704C118.553 269.685 118.43 269.807 118.43 269.959V271.094C118.43 271.246 118.553 271.368 118.704 271.368Z" fill="white"/>
<path d="M113.091 271.368H115.349C115.5 271.368 115.623 271.246 115.623 271.094V269.959C115.623 269.807 115.5 269.685 115.349 269.685H113.091C112.94 269.685 112.817 269.807 112.817 269.959V271.094C112.817 271.246 112.94 271.368 113.091 271.368Z" fill="white"/>
<path d="M107.481 271.368H109.739C109.89 271.368 110.013 271.246 110.013 271.094V269.959C110.013 269.807 109.89 269.685 109.739 269.685H107.481C107.33 269.685 107.207 269.807 107.207 269.959V271.094C107.207 271.246 107.33 271.368 107.481 271.368Z" fill="white"/>
<path d="M101.869 271.368H104.126C104.278 271.368 104.4 271.246 104.4 271.094V269.959C104.4 269.807 104.278 269.685 104.126 269.685H101.869C101.717 269.685 101.595 269.807 101.595 269.959V271.094C101.595 271.246 101.717 271.368 101.869 271.368Z" fill="white"/>
<path d="M96.2582 271.368H98.5161C98.6674 271.368 98.79 271.246 98.79 271.094V269.959C98.79 269.807 98.6674 269.685 98.5161 269.685H96.2582C96.1068 269.685 95.9842 269.807 95.9842 269.959V271.094C95.9842 271.246 96.1068 271.368 96.2582 271.368Z" fill="white"/>
<path d="M90.6458 271.368H92.9038C93.0551 271.368 93.1777 271.246 93.1777 271.094V269.959C93.1777 269.807 93.0551 269.685 92.9038 269.685H90.6458C90.4945 269.685 90.3719 269.807 90.3719 269.959V271.094C90.3719 271.246 90.4945 271.368 90.6458 271.368Z" fill="white"/>
<path d="M85.0335 271.368H87.2915C87.4428 271.368 87.5654 271.246 87.5654 271.094V269.959C87.5654 269.807 87.4428 269.685 87.2915 269.685H85.0335C84.8822 269.685 84.7596 269.807 84.7596 269.959V271.094C84.7596 271.246 84.8822 271.368 85.0335 271.368Z" fill="white"/>
<path d="M79.4222 271.368H81.6801C81.8314 271.368 81.9541 271.246 81.9541 271.094V269.959C81.9541 269.807 81.8314 269.685 81.6801 269.685H79.4222C79.2709 269.685 79.1483 269.807 79.1483 269.959V271.094C79.1483 271.246 79.2709 271.368 79.4222 271.368Z" fill="white"/>
<path d="M117.021 274.735H138.919C139.071 274.735 139.193 274.613 139.193 274.461V273.326C139.193 273.175 139.071 273.052 138.919 273.052H117.021C116.869 273.052 116.747 273.175 116.747 273.326V274.461C116.747 274.613 116.869 274.735 117.021 274.735Z" fill="white"/>
<path d="M54.8933 137.463H198.173C198.322 137.46 198.464 137.398 198.568 137.292C198.672 137.185 198.73 137.042 198.73 136.893C198.73 136.744 198.672 136.601 198.568 136.494C198.464 136.388 198.322 136.327 198.173 136.323H54.8933C54.7444 136.327 54.6026 136.388 54.4985 136.494C54.3943 136.601 54.3359 136.744 54.3359 136.893C54.3359 137.042 54.3943 137.185 54.4985 137.292C54.6026 137.398 54.7444 137.46 54.8933 137.463Z" fill="white"/>
<path d="M188.419 133.414C190.263 133.414 191.758 131.886 191.758 130.001C191.758 128.115 190.263 126.587 188.419 126.587C186.575 126.587 185.08 128.115 185.08 130.001C185.08 131.886 186.575 133.414 188.419 133.414Z" fill="white"/>
<path d="M176.884 133.414C178.728 133.414 180.223 131.886 180.223 130.001C180.223 128.115 178.728 126.587 176.884 126.587C175.04 126.587 173.545 128.115 173.545 130.001C173.545 131.886 175.04 133.414 176.884 133.414Z" fill="white"/>
<path d="M165.349 133.414C167.193 133.414 168.688 131.886 168.688 130.001C168.688 128.115 167.193 126.587 165.349 126.587C163.505 126.587 162.01 128.115 162.01 130.001C162.01 131.886 163.505 133.414 165.349 133.414Z" fill="white"/>
<path d="M61.2276 128.055C61.2272 128.135 61.2427 128.215 61.2732 128.29C61.3037 128.365 61.3487 128.433 61.4055 128.49C61.4623 128.547 61.5298 128.593 61.6043 128.624C61.6787 128.655 61.7585 128.671 61.8392 128.672H70.0323C70.1942 128.668 70.3483 128.601 70.4615 128.485C70.5747 128.369 70.6381 128.214 70.6381 128.052C70.6381 127.89 70.5747 127.734 70.4615 127.618C70.3483 127.502 70.1942 127.435 70.0323 127.432H61.8392C61.6757 127.434 61.5195 127.5 61.4049 127.617C61.2903 127.734 61.2266 127.891 61.2276 128.055Z" fill="white"/>
<path d="M61.2276 130.383C61.2272 130.463 61.2427 130.543 61.2732 130.618C61.3037 130.693 61.3487 130.761 61.4055 130.818C61.4623 130.875 61.5298 130.921 61.6043 130.952C61.6787 130.983 61.7585 131 61.8392 131H70.0323C70.1944 130.996 70.3486 130.929 70.462 130.814C70.5753 130.698 70.6388 130.542 70.6388 130.38C70.6388 130.218 70.5753 130.062 70.462 129.946C70.3486 129.83 70.1944 129.763 70.0323 129.76H61.8392C61.6757 129.762 61.5195 129.828 61.4049 129.945C61.2903 130.062 61.2266 130.219 61.2276 130.383Z" fill="white"/>
<path d="M61.2276 132.706C61.2266 132.87 61.2903 133.027 61.4049 133.144C61.5195 133.26 61.6757 133.327 61.8392 133.329H70.0323C70.1942 133.325 70.3483 133.258 70.4615 133.142C70.5747 133.027 70.6381 132.871 70.6381 132.709C70.6381 132.547 70.5747 132.391 70.4615 132.276C70.3483 132.16 70.1942 132.093 70.0323 132.089H61.8392C61.7585 132.089 61.6787 132.105 61.6043 132.137C61.5298 132.168 61.4623 132.213 61.4055 132.271C61.3487 132.328 61.3037 132.396 61.2732 132.471C61.2427 132.545 61.2272 132.625 61.2276 132.706Z" fill="white"/>
<path d="M63.7593 150.705H60.8154C59.9228 150.705 59.1992 151.429 59.1992 152.321C59.1992 153.214 59.9228 153.937 60.8154 153.937H63.7593C64.6519 153.937 65.3755 153.214 65.3755 152.321C65.3755 151.429 64.6519 150.705 63.7593 150.705Z" fill="#E6E6E6"/>
<path d="M97.4293 150.705H94.4853C93.5927 150.705 92.8691 151.429 92.8691 152.321C92.8691 153.214 93.5927 153.937 94.4853 153.937H97.4293C98.3219 153.937 99.0454 153.214 99.0454 152.321C99.0454 151.429 98.3219 150.705 97.4293 150.705Z" fill="#E6E6E6"/>
<path d="M106.969 150.705H104.025C103.133 150.705 102.409 151.429 102.409 152.321C102.409 153.214 103.133 153.937 104.025 153.937H106.969C107.862 153.937 108.585 153.214 108.585 152.321C108.585 151.429 107.862 150.705 106.969 150.705Z" fill="#E6E6E6"/>
<path d="M88.2709 150.436H69.9736C69.081 150.436 68.3574 151.159 68.3574 152.052C68.3574 152.944 69.081 153.668 69.9736 153.668H88.2709C89.1635 153.668 89.8871 152.944 89.8871 152.052C89.8871 151.159 89.1635 150.436 88.2709 150.436Z" fill="#E6E6E6"/>
<path d="M133.164 150.436H114.867C113.975 150.436 113.251 151.159 113.251 152.052C113.251 152.944 113.975 153.668 114.867 153.668H133.164C134.057 153.668 134.781 152.944 134.781 152.052C134.781 151.159 134.057 150.436 133.164 150.436Z" fill="#E6E6E6"/>
<path d="M72.7379 157.999H69.7939C68.9013 157.999 68.1777 158.723 68.1777 159.615C68.1777 160.508 68.9013 161.231 69.7939 161.231H72.7379C73.6304 161.231 74.354 160.508 74.354 159.615C74.354 158.723 73.6304 157.999 72.7379 157.999Z" fill="#E6E6E6"/>
<path d="M106.409 157.999H103.465C102.572 157.999 101.849 158.723 101.849 159.615C101.849 160.508 102.572 161.231 103.465 161.231H106.409C107.301 161.231 108.025 160.508 108.025 159.615C108.025 158.723 107.301 157.999 106.409 157.999Z" fill="#E6E6E6"/>
<path d="M115.948 157.999H113.004C112.111 157.999 111.388 158.723 111.388 159.615C111.388 160.508 112.111 161.231 113.004 161.231H115.948C116.84 161.231 117.564 160.508 117.564 159.615C117.564 158.723 116.84 157.999 115.948 157.999Z" fill="#E6E6E6"/>
<path d="M97.2504 157.73H78.9531C78.0605 157.73 77.3369 158.454 77.3369 159.347C77.3369 160.239 78.0605 160.963 78.9531 160.963H97.2504C98.143 160.963 98.8666 160.239 98.8666 159.347C98.8666 158.454 98.143 157.73 97.2504 157.73Z" fill="#E6E6E6"/>
<path d="M142.143 157.73H123.846C122.953 157.73 122.229 158.454 122.229 159.347C122.229 160.239 122.953 160.963 123.846 160.963H142.143C143.036 160.963 143.759 160.239 143.759 159.347C143.759 158.454 143.036 157.73 142.143 157.73Z" fill="#E6E6E6"/>
<path d="M81.7164 165.295H78.7724C77.8798 165.295 77.1562 166.018 77.1562 166.911C77.1562 167.804 77.8798 168.527 78.7724 168.527H81.7164C82.609 168.527 83.3325 167.804 83.3325 166.911C83.3325 166.018 82.609 165.295 81.7164 165.295Z" fill="#E6E6E6"/>
<path d="M115.387 165.295H112.443C111.551 165.295 110.827 166.018 110.827 166.911C110.827 167.804 111.551 168.527 112.443 168.527H115.387C116.28 168.527 117.003 167.804 117.003 166.911C117.003 166.018 116.28 165.295 115.387 165.295Z" fill="#E6E6E6"/>
<path d="M124.927 165.295H121.983C121.091 165.295 120.367 166.018 120.367 166.911C120.367 167.804 121.091 168.527 121.983 168.527H124.927C125.82 168.527 126.543 167.804 126.543 166.911C126.543 166.018 125.82 165.295 124.927 165.295Z" fill="#E6E6E6"/>
<path d="M106.229 165.025H87.9316C87.039 165.025 86.3154 165.749 86.3154 166.642C86.3154 167.534 87.039 168.258 87.9316 168.258H106.229C107.122 168.258 107.845 167.534 107.845 166.642C107.845 165.749 107.122 165.025 106.229 165.025Z" fill="#E6E6E6"/>
<path d="M151.122 165.025H132.825C131.933 165.025 131.209 165.749 131.209 166.642C131.209 167.534 131.933 168.258 132.825 168.258H151.122C152.015 168.258 152.739 167.534 152.739 166.642C152.739 165.749 152.015 165.025 151.122 165.025Z" fill="#E6E6E6"/>
<path d="M90.6949 172.59H87.7509C86.8583 172.59 86.1348 173.313 86.1348 174.206C86.1348 175.099 86.8583 175.822 87.7509 175.822H90.6949C91.5875 175.822 92.311 175.099 92.311 174.206C92.311 173.313 91.5875 172.59 90.6949 172.59Z" fill="#E6E6E6"/>
<path d="M124.366 172.59H121.422C120.529 172.59 119.806 173.313 119.806 174.206C119.806 175.099 120.529 175.822 121.422 175.822H124.366C125.258 175.822 125.982 175.099 125.982 174.206C125.982 173.313 125.258 172.59 124.366 172.59Z" fill="#E6E6E6"/>
<path d="M133.906 172.59H130.962C130.069 172.59 129.346 173.313 129.346 174.206C129.346 175.099 130.069 175.822 130.962 175.822H133.906C134.798 175.822 135.522 175.099 135.522 174.206C135.522 173.313 134.798 172.59 133.906 172.59Z" fill="#E6E6E6"/>
<path d="M115.207 172.32H96.9101C96.0175 172.32 95.2939 173.044 95.2939 173.936C95.2939 174.829 96.0175 175.553 96.9101 175.553H115.207C116.1 175.553 116.824 174.829 116.824 173.936C116.824 173.044 116.1 172.32 115.207 172.32Z" fill="#E6E6E6"/>
<path d="M97.4293 201.599H94.4853C93.5927 201.599 92.8691 202.322 92.8691 203.215C92.8691 204.107 93.5927 204.831 94.4853 204.831H97.4293C98.3219 204.831 99.0454 204.107 99.0454 203.215C99.0454 202.322 98.3219 201.599 97.4293 201.599Z" fill="#E6E6E6"/>
<path d="M106.969 201.599H104.025C103.133 201.599 102.409 202.322 102.409 203.215C102.409 204.107 103.133 204.831 104.025 204.831H106.969C107.862 204.831 108.585 204.107 108.585 203.215C108.585 202.322 107.862 201.599 106.969 201.599Z" fill="#E6E6E6"/>
<path d="M133.164 201.868H114.867C113.975 201.868 113.251 202.592 113.251 203.484C113.251 204.377 113.975 205.1 114.867 205.1H133.164C134.057 205.1 134.781 204.377 134.781 203.484C134.781 202.592 134.057 201.868 133.164 201.868Z" fill="#E6E6E6"/>
<path d="M63.7593 201.599H60.8154C59.9228 201.599 59.1992 202.322 59.1992 203.215C59.1992 204.107 59.9228 204.831 60.8154 204.831H63.7593C64.6519 204.831 65.3755 204.107 65.3755 203.215C65.3755 202.322 64.6519 201.599 63.7593 201.599Z" fill="#E6E6E6"/>
<path d="M88.2709 201.868H69.9736C69.081 201.868 68.3574 202.592 68.3574 203.484C68.3574 204.377 69.081 205.1 69.9736 205.1H88.2709C89.1635 205.1 89.8871 204.377 89.8871 203.484C89.8871 202.592 89.1635 201.868 88.2709 201.868Z" fill="#E6E6E6"/>
<path d="M72.7379 194.304H69.7939C68.9013 194.304 68.1777 195.027 68.1777 195.92C68.1777 196.812 68.9013 197.536 69.7939 197.536H72.7379C73.6304 197.536 74.354 196.812 74.354 195.92C74.354 195.027 73.6304 194.304 72.7379 194.304Z" fill="#E6E6E6"/>
<path d="M106.409 194.304H103.465C102.572 194.304 101.849 195.027 101.849 195.92C101.849 196.812 102.572 197.536 103.465 197.536H106.409C107.301 197.536 108.025 196.812 108.025 195.92C108.025 195.027 107.301 194.304 106.409 194.304Z" fill="#E6E6E6"/>
<path d="M115.948 194.304H113.004C112.111 194.304 111.388 195.027 111.388 195.92C111.388 196.812 112.111 197.536 113.004 197.536H115.948C116.84 197.536 117.564 196.812 117.564 195.92C117.564 195.027 116.84 194.304 115.948 194.304Z" fill="#E6E6E6"/>
<path d="M97.2504 194.572H78.9531C78.0605 194.572 77.3369 195.296 77.3369 196.188C77.3369 197.081 78.0605 197.805 78.9531 197.805H97.2504C98.143 197.805 98.8666 197.081 98.8666 196.188C98.8666 195.296 98.143 194.572 97.2504 194.572Z" fill="#E6E6E6"/>
<path d="M81.7164 187.008H78.7724C77.8798 187.008 77.1562 187.731 77.1562 188.624C77.1562 189.517 77.8798 190.24 78.7724 190.24H81.7164C82.609 190.24 83.3325 189.517 83.3325 188.624C83.3325 187.731 82.609 187.008 81.7164 187.008Z" fill="#E6E6E6"/>
<path d="M115.387 187.008H112.443C111.551 187.008 110.827 187.731 110.827 188.624C110.827 189.517 111.551 190.24 112.443 190.24H115.387C116.28 190.24 117.003 189.517 117.003 188.624C117.003 187.731 116.28 187.008 115.387 187.008Z" fill="#E6E6E6"/>
<path d="M124.927 187.008H121.983C121.091 187.008 120.367 187.731 120.367 188.624C120.367 189.517 121.091 190.24 121.983 190.24H124.927C125.82 190.24 126.543 189.517 126.543 188.624C126.543 187.731 125.82 187.008 124.927 187.008Z" fill="#E6E6E6"/>
<path d="M106.229 187.277H87.9316C87.039 187.277 86.3154 188.001 86.3154 188.893C86.3154 189.786 87.039 190.51 87.9316 190.51H106.229C107.122 190.51 107.845 189.786 107.845 188.893C107.845 188.001 107.122 187.277 106.229 187.277Z" fill="#E6E6E6"/>
<path d="M90.6949 179.713H87.7509C86.8583 179.713 86.1348 180.436 86.1348 181.329C86.1348 182.222 86.8583 182.945 87.7509 182.945H90.6949C91.5875 182.945 92.311 182.222 92.311 181.329C92.311 180.436 91.5875 179.713 90.6949 179.713Z" fill="#E6E6E6"/>
<path d="M124.366 179.713H121.422C120.529 179.713 119.806 180.436 119.806 181.329C119.806 182.222 120.529 182.945 121.422 182.945H124.366C125.258 182.945 125.982 182.222 125.982 181.329C125.982 180.436 125.258 179.713 124.366 179.713Z" fill="#E6E6E6"/>
<path d="M133.906 179.713H130.962C130.069 179.713 129.346 180.436 129.346 181.329C129.346 182.222 130.069 182.945 130.962 182.945H133.906C134.798 182.945 135.522 182.222 135.522 181.329C135.522 180.436 134.798 179.713 133.906 179.713Z" fill="#E6E6E6"/>
<path d="M115.207 179.983H96.9101C96.0175 179.983 95.2939 180.707 95.2939 181.6C95.2939 182.492 96.0175 183.216 96.9101 183.216H115.207C116.1 183.216 116.824 182.492 116.824 181.6C116.824 180.707 116.1 179.983 115.207 179.983Z" fill="#E6E6E6"/>
<path d="M53.1738 306.988C53.5161 307.162 53.8641 307.336 54.2064 307.504C63.0728 311.938 70.166 314.457 79.8686 317.218C80.6879 308.071 81.4792 291.994 82.248 282.027C82.45 279.44 82.652 277.269 82.8484 275.737C82.898 274.922 83.0643 274.119 83.3423 273.352L83.3086 275.737L83.2244 282.027L82.7362 318.004C94.8055 321.197 107.204 322.984 119.684 323.329C120.335 323.346 120.974 323.357 121.592 323.369C121.81 323.374 122.024 323.38 122.237 323.38C122.938 323.385 123.634 323.391 124.336 323.391C137.487 323.401 150.591 321.812 163.359 318.66C163.084 309.609 162.809 293.711 162.546 282.027C162.49 279.743 162.439 277.617 162.383 275.737C162.276 271.719 162.164 268.823 162.057 267.852C162.152 268.024 162.225 268.207 162.276 268.396C162.796 270.816 163.15 273.269 163.337 275.737C163.533 277.617 163.73 279.743 163.926 282.027C164.97 294.165 166.059 310.669 167.181 317.667C173.861 315.843 180.416 313.588 186.805 310.916C190.172 309.513 193.479 308 196.726 306.376C196.109 302.336 195.464 297.807 194.802 293.11C194.285 289.468 193.752 285.725 193.208 282.027C192.366 276.315 179.858 236.393 179.066 234.878C178.387 233.582 177.742 232.358 177.13 231.23C175.649 228.492 174.392 226.309 173.46 224.928C169.566 219.021 163.768 214.623 157.029 212.465L156.861 212.42L156.743 212.47L145.267 208.946L143.589 208.43L142.461 208.082L138.488 205.057L136.328 203.413L134.302 201.87L130.34 198.856L105.812 200.366L101.036 211.864L90.3401 215.776L90.1549 215.692L89.9922 215.624L89.8238 215.669C83.0862 217.829 77.289 222.227 73.3928 228.133C72.8653 228.924 72.2256 229.968 71.5017 231.23C70.8844 232.302 70.211 233.525 69.4814 234.878C68.4433 236.803 67.3097 238.974 66.1088 241.326C65.8451 241.842 65.5757 242.369 65.3063 242.903C64.8069 243.89 64.3 244.898 63.7856 245.927C62.5903 248.312 61.3557 250.804 60.1212 253.335C59.0493 255.529 57.9663 260.041 56.9 265.781C56.019 270.551 55.1436 276.174 54.2962 282.027C53.1851 289.614 54.3692 298.7 53.3647 305.681C53.3029 306.124 53.2356 306.556 53.1738 306.988Z" fill="white"/>
<path opacity="0.2" d="M170.734 265.756L165.965 247.354L161.755 263.233L170.734 265.756Z" fill="black"/>
<path d="M43.8477 253.767C45.5536 277.268 43.7859 287.616 53.2023 306.993C61.7699 311.187 70.6941 314.609 79.8691 317.218C80.8231 317.487 81.7789 317.749 82.7367 318.004C94.806 321.197 107.204 322.984 119.684 323.329C120.335 323.346 120.975 323.357 121.592 323.368C121.811 323.374 122.024 323.38 122.237 323.38C122.939 323.385 123.635 323.391 124.336 323.391C137.488 323.401 150.592 321.812 163.36 318.66C164.639 318.346 165.913 318.015 167.181 317.667C173.862 315.843 180.417 313.588 186.805 310.916C190.172 309.513 193.48 308 196.727 306.376C197.462 306.006 198.197 305.635 198.921 305.254C202.642 298.711 204.757 290.753 204.802 281.191C202.226 264.715 49.5379 239.558 43.8477 253.767Z" fill="#2F2E41"/>
<path opacity="0.2" d="M43.8528 257.792C43.7657 256.337 43.6683 254.834 43.5547 253.269C49.2449 239.06 201.933 264.217 204.509 280.693C204.502 282.203 204.437 283.669 204.329 285.101C198.091 268.839 53.0351 244.929 43.8528 257.792Z" fill="black"/>
<path d="M9.251 265.544C9.49824 266.264 9.96723 266.887 10.5906 267.324C11.214 267.76 11.9598 267.988 12.7208 267.975L27.5872 267.592C28.3537 267.577 29.0949 267.314 29.6999 266.843C30.3048 266.372 30.7411 265.718 30.9434 264.979L33.0472 242.483C33.7936 242.821 34.6061 242.988 35.4254 242.972C36.8622 242.935 38.2255 242.329 39.2156 241.287C40.2058 240.245 40.7417 238.852 40.7056 237.416C40.6696 235.979 40.0644 234.615 39.0233 233.624C37.9821 232.633 36.5901 232.097 35.1533 232.132C34.8258 232.131 34.4992 232.165 34.179 232.233C33.8307 231.856 33.4074 231.557 32.9363 231.353C32.4653 231.15 31.9568 231.048 31.4438 231.053L8.57587 231.643C8.38618 231.65 8.19744 231.674 8.01179 231.713C7.5103 231.807 7.03465 232.007 6.61686 232.299C6.19907 232.592 5.84884 232.971 5.58973 233.41C5.33062 233.85 5.16866 234.34 5.11474 234.847C5.06081 235.354 5.11618 235.867 5.27711 236.351L9.251 265.544ZM33.4786 240.955L34.9756 235.595C35.1459 234.976 35.1498 234.322 34.987 233.701C35.0597 233.701 35.1237 233.666 35.1964 233.666C36.2228 233.645 37.2158 234.032 37.9576 234.742C38.6994 235.451 39.1294 236.426 39.1534 237.453C39.1775 238.479 38.7935 239.473 38.0858 240.217C37.378 240.96 36.4043 241.393 35.378 241.42C34.7144 241.441 34.0577 241.28 33.4786 240.955Z" fill="#2F2E41"/>
<path d="M8.0127 231.712C8.49989 234.498 13.9774 236.456 20.5637 236.116C26.6202 235.837 31.5724 233.71 32.4797 231.19C32.1439 231.09 31.7948 231.044 31.4447 231.052L8.57678 231.642C8.38708 231.649 8.19835 231.673 8.0127 231.712Z" fill="white"/>
<path d="M21.7705 253.182C21.8006 253.174 21.8292 253.161 21.8551 253.144L25.0836 251.031C25.1227 251.006 25.1547 250.971 25.1769 250.93C25.1991 250.889 25.2108 250.843 25.2108 250.797C25.2108 250.75 25.1992 250.704 25.177 250.663C25.1549 250.622 25.1228 250.587 25.0838 250.562L21.7281 248.364C21.6973 248.344 21.6628 248.329 21.6266 248.322C21.5903 248.315 21.553 248.316 21.5169 248.323C21.4807 248.331 21.4464 248.345 21.4158 248.366C21.3853 248.387 21.3591 248.413 21.3389 248.444C21.3186 248.475 21.3047 248.51 21.2978 248.546C21.291 248.582 21.2914 248.619 21.299 248.656C21.3066 248.692 21.3212 248.726 21.3421 248.756C21.363 248.787 21.3897 248.813 21.4207 248.833L24.4178 250.796L21.548 252.675C21.4924 252.711 21.4516 252.766 21.4326 252.83C21.4137 252.893 21.418 252.962 21.4447 253.022C21.4713 253.083 21.5187 253.133 21.5784 253.162C21.638 253.191 21.7061 253.198 21.7704 253.182H21.7705Z" fill="#4141DB"/>
<path d="M16.6707 253.416C16.7248 253.402 16.7737 253.373 16.811 253.331C16.8482 253.29 16.8722 253.238 16.8798 253.182C16.8874 253.127 16.8783 253.071 16.8536 253.02C16.829 252.97 16.7899 252.929 16.7414 252.901L13.7655 251.195L16.6418 249.058C16.6714 249.036 16.6963 249.009 16.7152 248.977C16.7341 248.945 16.7466 248.91 16.752 248.874C16.7574 248.838 16.7555 248.8 16.7465 248.765C16.7375 248.729 16.7216 248.695 16.6997 248.666C16.6777 248.636 16.6501 248.611 16.6185 248.592C16.5869 248.574 16.5519 248.561 16.5155 248.556C16.4791 248.55 16.4419 248.552 16.4062 248.561C16.3705 248.57 16.3369 248.586 16.3074 248.608L13.087 251C13.0496 251.028 13.0197 251.064 13 251.107C12.9803 251.149 12.9714 251.195 12.9741 251.242C12.9769 251.288 12.9911 251.333 13.0157 251.373C13.0402 251.413 13.0742 251.445 13.1146 251.469L16.4622 253.388C16.5253 253.424 16.6001 253.434 16.6707 253.416Z" fill="#4141DB"/>
<path d="M21.449 255.034C21.4761 255.027 21.5021 255.016 21.5258 255.002C21.5574 254.982 21.5848 254.957 21.6066 254.928C21.6284 254.898 21.6441 254.864 21.6528 254.828C21.6615 254.792 21.6631 254.755 21.6575 254.719C21.6518 254.682 21.639 254.647 21.6198 254.616L17.0432 247.092C17.0043 247.028 16.942 246.983 16.8698 246.966C16.7976 246.948 16.7215 246.96 16.6581 246.999C16.5947 247.038 16.5492 247.1 16.5315 247.172C16.5138 247.244 16.5254 247.32 16.5638 247.384L21.1404 254.908C21.1716 254.959 21.2184 254.999 21.274 255.022C21.3295 255.044 21.3908 255.049 21.449 255.034Z" fill="#4141DB"/>
<path d="M376.919 223.455H326.975V267.226H376.919V223.455Z" fill="white"/>
<path d="M384.321 162.315C383.395 167.803 384.208 173.443 386.647 178.445C387.549 180.285 388.667 182.501 387.568 184.231C387.26 184.663 386.859 185.021 386.394 185.279C385.93 185.536 385.413 185.686 384.883 185.719C383.823 185.775 382.761 185.637 381.75 185.313" fill="#CCCCCC"/>
<path d="M340.441 145.452C341.371 145.452 342.125 144.824 342.125 144.049C342.125 143.275 341.371 142.646 340.441 142.646C339.512 142.646 338.758 143.275 338.758 144.049C338.758 144.824 339.512 145.452 340.441 145.452Z" fill="white"/>
<path d="M346.615 146.014C347.545 146.014 348.299 145.386 348.299 144.611C348.299 143.836 347.545 143.208 346.615 143.208C345.685 143.208 344.932 143.836 344.932 144.611C344.932 145.386 345.685 146.014 346.615 146.014Z" fill="white"/>
<path d="M352.787 148.82C353.717 148.82 354.471 148.192 354.471 147.418C354.471 146.643 353.717 146.015 352.787 146.015C351.857 146.015 351.104 146.643 351.104 147.418C351.104 148.192 351.857 148.82 352.787 148.82Z" fill="white"/>
<path d="M360.083 147.136C361.013 147.136 361.766 146.508 361.766 145.733C361.766 144.958 361.013 144.33 360.083 144.33C359.153 144.33 358.399 144.958 358.399 145.733C358.399 146.508 359.153 147.136 360.083 147.136Z" fill="white"/>
<path d="M206.841 173.726C215.017 171.456 224.124 173.889 230.443 179.461C233.852 182.488 236.354 186.403 237.67 190.768C239.283 195.963 239.55 201.444 239.719 206.845C239.906 212.817 240.068 218.789 240.242 224.761C240.408 230.456 240.427 236.177 240.807 241.861C241.126 246.632 241.889 251.584 244.442 255.721C246.809 259.557 250.549 262.147 254.774 263.575C259.058 265.022 263.675 265.358 268.168 265.329C273.397 265.312 278.618 264.899 283.784 264.092C293.597 262.52 303.29 258.511 309.284 250.238C312.043 246.482 313.594 241.974 313.73 237.315C313.856 231.886 312.121 226.627 310.221 221.613C308.373 216.733 306.372 211.925 305.202 206.823C304.115 202.048 303.597 197.161 303.659 192.264C303.759 182.468 306.107 172.826 310.522 164.08C312.756 159.588 315.591 155.421 318.947 151.692C322.409 147.926 326.695 144.816 331.792 143.797C334.28 143.282 336.856 143.385 339.294 144.098C340.334 144.41 340.778 142.786 339.741 142.475C334.692 140.963 329.206 142.113 324.729 144.737C320.327 147.317 316.849 151.188 313.896 155.292C308.224 163.339 304.448 172.566 302.851 182.28C301.254 191.995 301.879 201.945 304.677 211.384C307.673 221.198 314.189 231.414 311.39 242.036C308.939 251.332 300.452 257.65 291.683 260.504C286.364 262.236 280.787 262.968 275.223 263.347C270.522 263.667 265.757 263.871 261.069 263.267C256.764 262.712 252.335 261.396 248.997 258.505C245.337 255.337 243.665 250.785 242.937 246.113C242.113 240.827 242.234 235.376 242.079 230.043L241.549 211.837C241.249 201.554 241.507 190.158 234.817 181.638C232.143 178.318 228.746 175.652 224.886 173.842C221.026 172.032 216.804 171.127 212.541 171.195C210.462 171.242 208.397 171.547 206.393 172.103C206.185 172.168 206.01 172.312 205.905 172.503C205.801 172.695 205.775 172.92 205.833 173.131C205.891 173.341 206.029 173.521 206.217 173.632C206.405 173.743 206.628 173.777 206.841 173.726H206.841Z" fill="white"/>
<path d="M87.3308 163.076C88.5225 171.555 93.0317 179.215 99.8676 184.371C106.703 189.528 115.307 191.76 123.787 190.577C132.268 189.393 139.932 184.892 145.095 178.061C150.259 171.231 152.499 162.63 151.325 154.148L151.261 153.69C149.894 145.322 145.293 137.827 138.451 132.822C131.608 127.816 123.072 125.701 114.683 126.933C106.295 128.164 98.727 132.644 93.6119 139.405C88.4967 146.166 86.2444 154.668 87.3407 163.075L87.3308 163.076Z" fill="#FFB6B6"/>
<path d="M115.811 189.789C114.14 186.425 112.424 182.812 112.878 179.083C113.332 175.355 116.975 171.78 120.568 172.875C122.717 173.531 124.346 175.645 126.59 175.746C129.677 175.884 131.435 172.345 132.387 169.405L136.26 157.428C143.731 163.297 134.269 157.144 143.524 154.996C147.154 154.153 150.82 152.521 152.941 149.456C155.062 146.391 155.033 141.648 152.102 139.346C150.665 138.217 148.756 137.792 147.382 136.587C146.529 135.84 145.941 134.837 145.702 133.729C145.464 132.621 145.588 131.465 146.058 130.433C146.527 129.401 147.316 128.548 148.308 127.999C149.3 127.45 150.443 127.236 151.566 127.387L141.709 126.188L144.627 120.868C142.517 122.543 139.574 122.777 136.921 122.309C134.268 121.84 131.768 120.757 129.172 120.038C116.71 116.585 102.261 122.71 96.0757 134.066C93.6482 133.265 91.0344 133.219 88.5808 133.937C86.1271 134.654 83.9493 136.1 82.336 138.083C79.7094 141.44 79.0071 145.91 78.9191 150.171C78.7554 158.574 80.6151 166.892 84.3414 174.424C85.5028 176.765 86.8755 179.062 88.8495 180.774C90.8235 182.486 113.132 191.972 115.707 191.525" fill="#2F2E41"/>
<path d="M348.861 167.619C348.865 169.076 348.678 170.527 348.305 171.935V171.94C348.299 171.968 348.288 171.996 348.283 172.024C347.149 176.194 344.444 179.123 341.285 179.123C338.142 179.123 335.449 176.216 334.298 172.08C334.22 171.794 334.152 171.508 334.091 171.211C334.012 170.88 333.95 170.537 333.9 170.184C333.855 169.903 333.821 169.617 333.793 169.325C333.754 168.921 333.726 168.517 333.72 168.096V168.091C333.709 167.933 333.709 167.776 333.709 167.619V167.479L333.715 167.473C333.715 166.762 333.762 166.052 333.855 165.346C333.894 165.049 333.939 164.763 333.995 164.477C334.063 164.129 334.135 163.786 334.225 163.45C334.298 163.152 334.382 162.866 334.472 162.58C334.596 162.198 334.73 161.828 334.882 161.474C334.977 161.244 335.078 161.02 335.179 160.801C336.56 157.961 338.782 156.115 341.285 156.115C344.747 156.115 347.665 159.645 348.569 164.46C348.58 164.533 348.597 164.606 348.602 164.679V164.684C348.775 165.653 348.862 166.635 348.861 167.619Z" fill="#E6E6E6"/>
<path d="M335.251 161.048C335.248 161.151 335.21 161.249 335.142 161.327C335.075 161.405 334.982 161.457 334.881 161.474C334.976 161.244 335.077 161.02 335.178 160.801C335.225 160.875 335.25 160.96 335.251 161.048Z" fill="#4141DB"/>
<path d="M341.885 160.537H336.947C336.706 160.537 336.511 160.732 336.511 160.973C336.511 161.214 336.706 161.409 336.947 161.409H341.885C342.126 161.409 342.321 161.214 342.321 160.973C342.321 160.732 342.126 160.537 341.885 160.537Z" fill="#4141DB"/>
<path d="M335.099 163.011C335.099 163.127 335.053 163.238 334.971 163.321C334.889 163.403 334.777 163.449 334.661 163.449H334.224C334.297 163.152 334.381 162.865 334.471 162.579H334.661C334.777 162.579 334.887 162.624 334.969 162.705C335.051 162.786 335.098 162.896 335.099 163.011Z" fill="#4141DB"/>
<path d="M337.239 162.579H336.444C336.203 162.579 336.008 162.774 336.008 163.015C336.008 163.256 336.203 163.451 336.444 163.451H337.239C337.479 163.451 337.675 163.256 337.675 163.015C337.675 162.774 337.479 162.579 337.239 162.579Z" fill="#4141DB"/>
<path d="M344.309 162.506H339.371C339.13 162.506 338.935 162.701 338.935 162.942C338.935 163.183 339.13 163.378 339.371 163.378H344.309C344.55 163.378 344.745 163.183 344.745 162.942C344.745 162.701 344.55 162.506 344.309 162.506Z" fill="#4141DB"/>
<path d="M337.087 164.547H336.293C336.052 164.547 335.856 164.742 335.856 164.983C335.856 165.224 336.052 165.419 336.293 165.419H337.087C337.328 165.419 337.523 165.224 337.523 164.983C337.523 164.742 337.328 164.547 337.087 164.547Z" fill="#4141DB"/>
<path d="M339.662 164.547H338.868C338.627 164.547 338.432 164.742 338.432 164.983C338.432 165.224 338.627 165.419 338.868 165.419H339.662C339.903 165.419 340.099 165.224 340.099 164.983C340.099 164.742 339.903 164.547 339.662 164.547Z" fill="#4141DB"/>
<path d="M335.055 164.909C335.055 165.025 335.009 165.136 334.927 165.218C334.845 165.3 334.734 165.346 334.618 165.346H333.854C333.894 165.049 333.939 164.763 333.995 164.477H334.618C334.675 164.476 334.732 164.487 334.785 164.508C334.837 164.53 334.886 164.561 334.926 164.602C334.967 164.642 334.999 164.69 335.022 164.742C335.044 164.795 335.055 164.852 335.055 164.909Z" fill="#4141DB"/>
<path d="M346.732 164.475H341.794C341.553 164.475 341.357 164.67 341.357 164.911C341.357 165.152 341.553 165.347 341.794 165.347H346.732C346.973 165.347 347.168 165.152 347.168 164.911C347.168 164.67 346.973 164.475 346.732 164.475Z" fill="#4141DB"/>
<path d="M335.252 167.782C335.252 167.84 335.241 167.896 335.218 167.949C335.196 168.002 335.164 168.049 335.123 168.09C335.083 168.13 335.034 168.161 334.981 168.183C334.928 168.204 334.872 168.215 334.815 168.215H334.023C333.911 168.215 333.803 168.173 333.72 168.097V168.091C333.709 167.934 333.709 167.777 333.709 167.62V167.479L333.715 167.474C333.755 167.433 333.803 167.4 333.856 167.378C333.909 167.356 333.966 167.345 334.023 167.345H334.815C334.931 167.345 335.042 167.391 335.124 167.473C335.206 167.555 335.252 167.666 335.252 167.782Z" fill="#CCCCCC"/>
<path d="M341.885 167.271H336.947C336.706 167.271 336.511 167.466 336.511 167.707C336.511 167.948 336.706 168.143 336.947 168.143H341.885C342.126 168.143 342.321 167.948 342.321 167.707C342.321 167.466 342.126 167.271 341.885 167.271Z" fill="#CCCCCC"/>
<path d="M335.099 169.747C335.099 169.863 335.053 169.974 334.971 170.056C334.889 170.138 334.778 170.185 334.662 170.185H333.899C333.854 169.904 333.82 169.618 333.792 169.326C333.817 169.317 333.844 169.313 333.871 169.315H334.662C334.777 169.315 334.888 169.36 334.969 169.441C335.051 169.522 335.098 169.632 335.099 169.747Z" fill="#CCCCCC"/>
<path d="M337.239 169.312H336.444C336.203 169.312 336.008 169.508 336.008 169.749C336.008 169.99 336.203 170.185 336.444 170.185H337.239C337.479 170.185 337.675 169.99 337.675 169.749C337.675 169.508 337.479 169.312 337.239 169.312Z" fill="#CCCCCC"/>
<path d="M344.309 169.24H339.371C339.13 169.24 338.935 169.436 338.935 169.676C338.935 169.917 339.13 170.113 339.371 170.113H344.309C344.55 170.113 344.745 169.917 344.745 169.676C344.745 169.436 344.55 169.24 344.309 169.24Z" fill="#CCCCCC"/>
<path d="M337.087 171.281H336.293C336.052 171.281 335.856 171.477 335.856 171.717C335.856 171.958 336.052 172.154 336.293 172.154H337.087C337.328 172.154 337.523 171.958 337.523 171.717C337.523 171.477 337.328 171.281 337.087 171.281Z" fill="#CCCCCC"/>
<path d="M339.662 171.281H338.868C338.627 171.281 338.432 171.477 338.432 171.717C338.432 171.958 338.627 172.154 338.868 172.154H339.662C339.903 172.154 340.099 171.958 340.099 171.717C340.099 171.477 339.903 171.281 339.662 171.281Z" fill="#CCCCCC"/>
<path d="M335.054 171.643C335.054 171.759 335.008 171.87 334.926 171.952C334.844 172.034 334.732 172.081 334.616 172.081H334.296C334.218 171.795 334.151 171.508 334.089 171.211H334.616C334.674 171.21 334.73 171.221 334.783 171.243C334.836 171.264 334.884 171.296 334.925 171.336C334.966 171.376 334.998 171.424 335.02 171.477C335.042 171.529 335.054 171.586 335.054 171.643Z" fill="#CCCCCC"/>
<path d="M346.732 171.209H341.794C341.553 171.209 341.357 171.404 341.357 171.645C341.357 171.886 341.553 172.081 341.794 172.081H346.732C346.973 172.081 347.168 171.886 347.168 171.645C347.168 171.404 346.973 171.209 346.732 171.209Z" fill="#CCCCCC"/>
</g>
<defs>
<clipPath id="clip0_149_7497">
<rect width="414.603" height="323.385" fill="white" transform="translate(0.369141 0.00585938)"/>
</clipPath>
</defs>
</svg>
