<svg width="466" height="223" viewBox="0 0 466 223" fill="none" xmlns="http://www.w3.org/2000/svg">
<g clip-path="url(#clip0_147_5356)">
<path d="M363.401 34.0667H249.377V31.7207H197.675V34.0667H83.1813C81.1355 34.0667 79.1736 34.878 77.727 36.3221C76.2804 37.7663 75.4678 39.7249 75.4678 41.7672V197.636C75.4678 199.679 76.2804 201.637 77.727 203.081C79.1736 204.525 81.1355 205.337 83.1813 205.337H363.401C365.447 205.337 367.409 204.525 368.855 203.081C370.302 201.637 371.114 199.679 371.114 197.636V41.7663C371.114 39.7242 370.301 37.7658 368.855 36.3218C367.408 34.8779 365.447 34.0667 363.401 34.0667Z" fill="#3F3D56"/>
<path d="M360.774 47.6748H85.8096V202.521H360.774V47.6748Z" fill="#E6E6E6"/>
<path d="M349.207 55.8633H97.4707V189.708H349.207V55.8633Z" fill="white"/>
<path d="M223.057 43.4532C224.614 43.4532 225.877 42.1927 225.877 40.6378C225.877 39.0828 224.614 37.8223 223.057 37.8223C221.499 37.8223 220.236 39.0828 220.236 40.6378C220.236 42.1927 221.499 43.4532 223.057 43.4532Z" fill="#4141DB"/>
<path d="M378.835 199.706H352V197.775C352 197.674 351.96 197.577 351.888 197.505C351.816 197.433 351.719 197.393 351.617 197.393H342.416C342.315 197.393 342.217 197.433 342.145 197.505C342.073 197.577 342.033 197.674 342.033 197.775V199.706H336.283V197.775C336.283 197.674 336.242 197.577 336.17 197.505C336.099 197.433 336.001 197.393 335.899 197.393H326.699C326.597 197.393 326.5 197.433 326.428 197.505C326.356 197.577 326.315 197.674 326.315 197.775V199.706H320.565V197.775C320.565 197.674 320.525 197.577 320.453 197.505C320.381 197.433 320.284 197.393 320.182 197.393H310.981C310.88 197.393 310.782 197.433 310.71 197.505C310.638 197.577 310.598 197.674 310.598 197.775V199.706H304.848V197.775C304.848 197.674 304.807 197.577 304.735 197.505C304.664 197.433 304.566 197.393 304.464 197.393H295.264C295.163 197.393 295.065 197.433 294.993 197.505C294.921 197.577 294.881 197.674 294.881 197.775V199.706H289.13V197.775C289.13 197.674 289.09 197.577 289.018 197.505C288.946 197.433 288.848 197.393 288.747 197.393H279.547C279.445 197.393 279.347 197.433 279.276 197.505C279.204 197.577 279.163 197.674 279.163 197.775V199.706H273.413V197.775C273.413 197.674 273.372 197.577 273.3 197.505C273.228 197.433 273.131 197.393 273.029 197.393H263.831C263.729 197.393 263.632 197.433 263.56 197.505C263.488 197.577 263.447 197.674 263.447 197.775V199.706H257.695V197.775C257.695 197.674 257.655 197.577 257.583 197.505C257.511 197.433 257.413 197.393 257.312 197.393H185.242C185.14 197.393 185.042 197.433 184.97 197.505C184.898 197.577 184.858 197.674 184.858 197.775V199.706H179.108V197.775C179.108 197.674 179.068 197.577 178.996 197.505C178.924 197.433 178.826 197.393 178.725 197.393H169.524C169.422 197.393 169.325 197.433 169.253 197.505C169.181 197.577 169.141 197.674 169.141 197.775V199.706H163.39V197.775C163.39 197.674 163.35 197.577 163.278 197.505C163.206 197.433 163.109 197.393 163.007 197.393H153.807C153.705 197.393 153.608 197.433 153.536 197.505C153.464 197.577 153.423 197.674 153.423 197.775V199.706H147.673V197.775C147.673 197.674 147.633 197.577 147.561 197.505C147.489 197.433 147.391 197.393 147.289 197.393H138.089C137.988 197.393 137.89 197.433 137.818 197.505C137.746 197.577 137.706 197.674 137.706 197.775V199.706H131.957V197.775C131.957 197.674 131.916 197.577 131.844 197.505C131.772 197.433 131.675 197.393 131.573 197.393H122.372C122.27 197.393 122.173 197.433 122.101 197.505C122.029 197.577 121.988 197.674 121.988 197.775V199.706H116.238V197.775C116.238 197.674 116.198 197.577 116.126 197.505C116.054 197.433 115.957 197.393 115.855 197.393H106.654C106.553 197.393 106.455 197.433 106.383 197.505C106.311 197.577 106.271 197.674 106.271 197.775V199.706H100.521V197.775C100.521 197.674 100.48 197.577 100.408 197.505C100.337 197.433 100.239 197.393 100.137 197.393H90.9351C90.8334 197.393 90.7358 197.433 90.6639 197.505C90.592 197.577 90.5516 197.674 90.5516 197.775V199.706H72.9193C70.4791 199.706 68.139 200.673 66.4135 202.396C64.6881 204.119 63.7188 206.455 63.7188 208.891V213.044C63.7188 215.48 64.6881 217.816 66.4135 219.539C68.139 221.261 70.4791 222.229 72.9193 222.229H378.835C381.275 222.229 383.615 221.261 385.341 219.539C387.066 217.816 388.035 215.48 388.035 213.044V208.891C388.035 206.455 387.066 204.119 385.341 202.396C383.615 200.674 381.275 199.706 378.835 199.706V199.706Z" fill="#3F3D56"/>
<path d="M278.999 65.251H167.68V182.071H278.999V65.251Z" fill="#E6E6E6"/>
<path d="M465.17 221.839H0.169922V222.714H465.17V221.839Z" fill="#E6E6E6"/>
<path d="M420.009 191.271C426.31 198.021 426.635 207.941 426.635 207.941C426.635 207.941 416.746 206.918 410.445 200.169C404.145 193.42 403.819 183.499 403.819 183.499C403.819 183.499 413.709 184.522 420.009 191.271Z" fill="#4141DB"/>
<path d="M439.844 201.806C433.084 208.096 423.146 208.421 423.146 208.421C423.146 208.421 424.171 198.548 430.932 192.259C437.693 185.969 447.63 185.644 447.63 185.644C447.63 185.644 446.606 195.516 439.844 201.806Z" fill="#4141DB"/>
<path d="M438.164 221.839H413.297C412.82 221.839 412.353 221.705 411.948 221.453C411.544 221.2 411.218 220.839 411.01 220.41L405.596 209.3C405.407 208.913 405.32 208.484 405.342 208.054C405.365 207.624 405.497 207.207 405.726 206.842C405.955 206.477 406.273 206.176 406.65 205.968C407.028 205.759 407.452 205.65 407.883 205.65H443.578C444.01 205.65 444.434 205.759 444.811 205.968C445.189 206.176 445.507 206.477 445.736 206.842C445.965 207.207 446.097 207.624 446.119 208.054C446.142 208.484 446.055 208.913 445.866 209.3L440.452 220.411C440.243 220.839 439.918 221.2 439.514 221.453C439.109 221.706 438.642 221.84 438.164 221.839L438.164 221.839Z" fill="#E5E5E5"/>
<path d="M26.8853 191.271C33.1858 198.021 33.5114 207.941 33.5114 207.941C33.5114 207.941 23.622 206.918 17.3215 200.169C11.0209 193.42 10.6953 183.499 10.6953 183.499C10.6953 183.499 20.5848 184.522 26.8853 191.271Z" fill="#E5E5E5"/>
<path d="M41.0956 221.839H16.2289C15.7517 221.839 15.2842 221.705 14.8797 221.453C14.4752 221.2 14.1501 220.839 13.9415 220.41L8.52765 209.3C8.3386 208.913 8.25132 208.484 8.27404 208.054C8.29675 207.624 8.42871 207.207 8.6575 206.842C8.88628 206.477 9.20436 206.176 9.5818 205.968C9.95923 205.759 10.3836 205.65 10.815 205.65H46.51C46.9413 205.65 47.3657 205.759 47.7431 205.968C48.1206 206.176 48.4386 206.477 48.6674 206.842C48.8962 207.207 49.0282 207.624 49.0509 208.054C49.0736 208.484 48.9863 208.913 48.7973 209.3L43.3834 220.411C43.1748 220.839 42.8497 221.2 42.4452 221.453C42.0407 221.706 41.5732 221.84 41.0961 221.839L41.0956 221.839Z" fill="#E5E5E5"/>
<path d="M236.77 98.3214C244.941 98.3214 251.565 91.7089 251.565 83.5518C251.565 75.3948 244.941 68.7822 236.77 68.7822C228.599 68.7822 221.976 75.3948 221.976 83.5518C221.976 91.7089 228.599 98.3214 236.77 98.3214Z" fill="#A0616A"/>
<path d="M202.729 182.311L212.284 122.266C212.792 119.074 213.975 116.026 215.755 113.325C217.534 110.625 219.869 108.334 222.605 106.604C225.341 104.875 228.414 103.747 231.62 103.295C234.826 102.844 238.092 103.079 241.2 103.986C246.634 105.555 251.287 109.09 254.25 113.901C257.213 118.711 258.273 124.452 257.223 130.001L247.231 183.624L202.729 182.311Z" fill="#4141DB"/>
<path d="M240.855 193.055C241.594 192.568 242.217 191.925 242.68 191.171C243.143 190.418 243.435 189.572 243.535 188.694C243.635 187.815 243.541 186.926 243.26 186.088C242.979 185.249 242.517 184.483 241.907 183.842L251.783 164.749L240.661 165.934L232.987 183.884C231.981 184.979 231.412 186.405 231.387 187.891C231.361 189.377 231.882 190.82 232.851 191.949C233.819 193.078 235.168 193.814 236.642 194.018C238.117 194.221 239.615 193.879 240.854 193.055L240.855 193.055Z" fill="#A0616A"/>
<path d="M242.97 180.475C242.423 180.398 241.913 180.156 241.508 179.783L237.729 176.297C237.321 175.918 237.039 175.424 236.922 174.881C236.804 174.337 236.856 173.771 237.072 173.258L244.624 155.387L243.552 120.076C243.866 117.786 245.077 115.713 246.921 114.314C248.765 112.915 251.09 112.305 253.385 112.617C255.679 112.93 257.756 114.139 259.157 115.98C260.558 117.821 261.17 120.142 260.857 122.433L262.688 144.63C263.245 151.367 261.332 158.076 257.305 163.51L245.527 179.405C245.301 179.71 245.012 179.965 244.681 180.152C244.349 180.339 243.982 180.454 243.603 180.49C243.392 180.51 243.179 180.505 242.97 180.475Z" fill="#4141DB"/>
<path d="M151.573 75.5033C151.734 76.3726 152.084 77.1959 152.599 77.9155C153.113 78.635 153.779 79.2332 154.55 79.6679C155.322 80.1026 156.179 80.3632 157.061 80.4314C157.944 80.4997 158.831 80.3739 159.66 80.0628L173.422 96.5865L176.665 85.8994L163.1 71.8465C162.481 70.4954 161.388 69.4172 160.028 68.8154C158.667 68.2135 157.133 68.1296 155.715 68.5796C154.296 69.0295 153.092 69.9822 152.329 71.2577C151.566 72.5333 151.297 74.0435 151.573 75.5033H151.573Z" fill="#A0616A"/>
<path d="M162.353 82.3531C162.637 81.881 163.058 81.5064 163.561 81.2794L168.25 79.1649C168.759 78.9371 169.325 78.8707 169.872 78.9745C170.419 79.0783 170.921 79.3475 171.31 79.7455L184.85 93.6558L217.839 106.438C218.826 107.022 219.688 107.795 220.375 108.712C221.062 109.629 221.562 110.672 221.846 111.782C222.129 112.892 222.191 114.046 222.027 115.18C221.863 116.313 221.477 117.404 220.891 118.388C220.305 119.373 219.531 120.232 218.612 120.918C217.693 121.604 216.648 122.102 215.536 122.384C214.424 122.666 213.267 122.727 212.132 122.563C210.997 122.399 209.905 122.013 208.919 121.427L187.73 114.456C181.299 112.342 175.856 107.967 172.414 102.146L162.344 85.1214C162.151 84.794 162.028 84.4296 161.985 84.0519C161.942 83.6743 161.979 83.2918 162.094 82.9294C162.157 82.7279 162.245 82.5346 162.354 82.3536L162.353 82.3531Z" fill="#4141DB"/>
<path opacity="0.1" d="M248.771 134.765L248.169 154.008L237.072 173.259L246.338 151.807L248.771 134.765Z" fill="black"/>
<path d="M226.752 76.148C228.278 77.951 230.86 78.4594 233.242 78.6681C238.08 79.0916 245.115 78.4056 249.843 77.3148C250.181 80.5801 249.261 84.1005 251.187 86.7864C252.09 83.5347 252.615 80.1899 252.752 76.8183C252.81 75.3744 252.788 73.8763 252.199 72.5489C251.611 71.2214 250.327 70.0948 248.849 70.083C249.947 69.2512 251.233 68.7021 252.594 68.4842L247.914 66.136L249.116 64.904L240.642 64.3864L243.096 62.8296C239.402 62.3234 235.665 62.206 231.946 62.4796C230.219 62.6065 228.414 62.8493 227.015 63.8482C225.616 64.8471 224.807 66.8321 225.676 68.2987C224.588 68.477 223.564 68.9295 222.701 69.6133C221.838 70.2971 221.164 71.1896 220.743 72.2063C220.119 73.7849 220.176 75.5385 220.368 77.2208C220.688 79.9113 221.314 82.5566 222.235 85.105" fill="#2F2E41"/>
<path d="M289.997 39.1484L155.187 70.2192C154.525 70.371 153.83 70.2544 153.254 69.895C152.678 69.5357 152.268 68.9629 152.115 68.3024L144.394 34.9182C144.242 34.2573 144.359 33.5632 144.719 32.9881C145.079 32.413 145.653 32.0039 146.314 31.8506L281.124 0.7798C281.786 0.628046 282.481 0.744632 283.057 1.10398C283.633 1.46333 284.043 2.0361 284.197 2.69665L291.917 36.0808C292.069 36.7418 291.952 37.4359 291.592 38.0109C291.232 38.586 290.659 38.9951 289.997 39.1484Z" fill="white"/>
<path d="M289.997 39.1484L155.187 70.2192C154.525 70.371 153.83 70.2544 153.254 69.895C152.678 69.5357 152.268 68.9629 152.115 68.3024L144.394 34.9182C144.242 34.2573 144.359 33.5632 144.719 32.9881C145.079 32.413 145.653 32.0039 146.314 31.8506L281.124 0.7798C281.786 0.628046 282.481 0.744632 283.057 1.10398C283.633 1.46333 284.043 2.0361 284.197 2.69665L291.917 36.0808C292.069 36.7418 291.952 37.4359 291.592 38.0109C291.232 38.586 290.659 38.9951 289.997 39.1484ZM146.545 32.8477C146.148 32.9397 145.803 33.1852 145.587 33.5303C145.371 33.8754 145.301 34.2919 145.393 34.6885L153.113 68.0727C153.205 68.4691 153.451 68.8129 153.797 69.0286C154.142 69.2442 154.56 69.3141 154.957 69.2229L289.767 38.1521C290.164 38.0602 290.508 37.8148 290.724 37.4696C290.94 37.1245 291.01 36.7079 290.919 36.3113L283.198 2.92674C283.106 2.53029 282.86 2.18649 282.515 1.97084C282.169 1.75518 281.752 1.68528 281.354 1.77649L146.545 32.8477Z" fill="#E6E6E6"/>
<path d="M193.322 32.7437C193.1 32.7945 192.889 32.8887 192.703 33.0208C192.517 33.1528 192.358 33.3203 192.237 33.5135C192.115 33.7067 192.033 33.9219 191.995 34.1468C191.957 34.3717 191.964 34.6019 192.015 34.8242C192.066 35.0465 192.16 35.2567 192.292 35.4426C192.425 35.6285 192.593 35.7866 192.786 35.9077C192.98 36.0289 193.195 36.1108 193.421 36.1488C193.646 36.1868 193.876 36.1801 194.099 36.1291L194.105 36.1277L274.006 17.7122C274.455 17.608 274.844 17.3302 275.088 16.9398C275.332 16.5494 275.411 16.0784 275.307 15.6301C275.204 15.1818 274.926 14.7929 274.535 14.5488C274.145 14.3047 273.673 14.2253 273.224 14.3281L193.322 32.7437Z" fill="#E6E6E6"/>
<path d="M195.671 42.8971C195.448 42.9479 195.238 43.0421 195.052 43.1742C194.865 43.3062 194.707 43.4737 194.585 43.6669C194.464 43.8601 194.382 44.0753 194.344 44.3002C194.306 44.5251 194.312 44.7553 194.363 44.9776C194.414 45.1999 194.509 45.4101 194.641 45.596C194.773 45.7819 194.941 45.94 195.135 46.0611C195.328 46.1823 195.544 46.2642 195.769 46.3022C195.994 46.3402 196.225 46.3335 196.448 46.2825L196.454 46.2811L230.835 38.3569C231.285 38.2539 231.675 37.9769 231.92 37.5868C232.165 37.1967 232.245 36.7254 232.142 36.2766C232.039 35.8277 231.762 35.4381 231.371 35.1934C230.98 34.9486 230.508 34.8688 230.059 34.9714L230.053 34.9728L195.671 42.8971Z" fill="#E6E6E6"/>
<path d="M171.48 55.2458C177.244 55.2458 181.917 50.5809 181.917 44.8265C181.917 39.0721 177.244 34.4072 171.48 34.4072C165.716 34.4072 161.043 39.0721 161.043 44.8265C161.043 50.5809 165.716 55.2458 171.48 55.2458Z" fill="#4141DB"/>
<path d="M171.187 50.8367C170.845 50.9159 170.487 50.8821 170.166 50.7404L170.146 50.7316L165.947 48.8283C165.752 48.7401 165.576 48.6144 165.43 48.4584C165.284 48.3023 165.169 48.119 165.094 47.919C165.019 47.7189 164.984 47.506 164.991 47.2924C164.998 47.0788 165.048 46.8688 165.136 46.6742C165.225 46.4797 165.351 46.3045 165.508 46.1587C165.664 46.0129 165.848 45.8993 166.048 45.8244C166.249 45.7496 166.462 45.7149 166.676 45.7224C166.89 45.7299 167.101 45.7795 167.295 45.8682L170.016 47.105L173.834 38.7307C174.013 38.3387 174.34 38.0335 174.744 37.8825C175.148 37.7314 175.596 37.7467 175.989 37.9251L175.966 37.9798L175.99 37.9248C176.383 38.1038 176.688 38.4308 176.839 38.8342C176.99 39.2376 176.975 39.6844 176.797 40.0766L172.307 49.9278C172.203 50.1548 172.048 50.3547 171.854 50.5122C171.66 50.6697 171.432 50.7804 171.188 50.8358L171.187 50.8367Z" fill="white"/>
</g>
<defs>
<clipPath id="clip0_147_5356">
<rect width="465" height="222" fill="white" transform="translate(0.169922 0.713867)"/>
</clipPath>
</defs>
</svg>
