<svg width="604" height="283" viewBox="0 0 604 283" fill="none" xmlns="http://www.w3.org/2000/svg">
<path d="M603.139 14.6777V268.631C603.139 275.722 594.516 281.619 583.431 282.529C582.443 282.61 581.456 282.65 580.442 282.65H0.138672C11.1578 256.781 44.2812 235.549 75.9432 216.429C111.871 194.718 150.102 170.659 156.434 139.876C158.37 130.486 157.172 120.821 161.082 111.659C168.467 94.4067 192.559 81.882 217.428 72.7769C239.769 64.5977 263.809 58.181 288.77 53.7381C306.859 50.5216 326.172 48.1174 340.719 40.7423C358.281 31.8402 365.443 17.5449 377.16 5.5238C378.885 3.76937 380.715 2.1449 382.689 0.650391H580.442C592.936 0.650391 603.139 6.9777 603.139 14.6777Z" fill="white"/>
</svg>
